<svg width="37" height="39" viewBox="0 0 37 39" fill="none" xmlns="http://www.w3.org/2000/svg">
<path d="M34.6981 26.9375C32.2187 26.9375 29.819 26.5125 27.5886 25.7262C26.9015 25.4925 26.1149 25.6625 25.5673 26.2469L21.186 30.9325C15.5403 27.8725 10.94 22.9531 8.06231 16.9394L12.4435 12.2431C12.9912 11.6588 13.1505 10.8194 12.9314 10.0863C12.1946 7.70625 11.7963 5.14563 11.7963 2.5C11.7963 1.32063 10.9101 0.375 9.80484 0.375H2.83472C1.73942 0.375 0.843262 1.32063 0.843262 2.5C0.843262 22.4538 15.9983 38.625 34.6981 38.625C35.8034 38.625 36.6896 37.6794 36.6896 36.5V29.0625C36.6896 27.8831 35.8034 26.9375 34.6981 26.9375ZM18.7664 0.375V21.625L24.7408 15.25H36.6896V0.375H18.7664Z" fill="#1C54C5"/>
</svg>
