<svg width="44" height="36" viewBox="0 0 44 36" fill="none" xmlns="http://www.w3.org/2000/svg">
<path d="M38.3533 10V8L32.9089 12L27.4644 8V10L32.9089 14L38.3533 10ZM40.1681 0H3.87182C1.86645 0 0.242188 1.79 0.242188 4V32C0.242188 34.21 1.86645 36 3.87182 36H40.1681C42.1735 36 43.7796 34.21 43.7796 32L43.7977 4C43.7977 1.79 42.1735 0 40.1681 0ZM14.7607 6C17.7642 6 20.2051 8.69 20.2051 12C20.2051 15.32 17.7642 18 14.7607 18C11.7572 18 9.31626 15.32 9.31626 12C9.31626 8.69 11.7572 6 14.7607 6ZM25.6496 30H3.87182V28C3.87182 24 11.1311 21.8 14.7607 21.8C18.3903 21.8 25.6496 24 25.6496 28V30ZM40.1681 18H25.6496V6H40.1681V18Z" fill="#1C54C5"/>
</svg>
