<svg width="151" height="87" viewBox="0 0 151 87" fill="none" xmlns="http://www.w3.org/2000/svg">
<path d="M75.9735 0C60.9248 0 48.5977 12.2111 48.5977 27.475C48.5977 42.5782 60.7647 54.9501 75.9735 54.9501C91.0222 54.9501 103.349 42.7389 103.349 27.475C103.349 12.2111 91.0222 0 75.9735 0ZM75.9735 52.7006C62.0454 52.7006 50.8389 41.4535 50.8389 27.475C50.8389 13.4965 62.0454 2.24942 75.9735 2.24942C89.9015 2.24942 101.108 13.4965 101.108 27.475C101.268 41.2929 89.9015 52.7006 75.9735 52.7006Z" fill="#77787B"/>
<path d="M75.9734 47.881C76.934 47.881 77.4143 47.2383 77.5744 46.435C77.7345 46.7563 78.0546 47.0777 78.3748 47.2383C78.695 47.2383 79.1753 47.2383 79.4955 47.0777C79.8157 46.917 80.1358 46.5956 80.2959 46.2743C80.456 45.953 80.456 45.4709 80.2959 45.1496C80.7762 45.7923 81.4166 45.953 82.2171 45.6316C83.1776 45.1496 83.4978 44.5069 83.0175 43.5429C81.8969 40.8114 80.7762 38.2407 79.6556 35.5092C79.4955 35.1879 79.4955 35.0272 79.3354 34.7059C79.1753 34.5452 79.1753 34.3845 79.0152 34.2239C79.0152 34.0632 78.8551 34.0632 78.695 33.9025C80.456 34.0632 81.2565 34.7059 81.7368 35.0272C81.8969 35.1879 81.8969 35.1879 82.3771 35.0272C82.5372 35.0272 82.8574 35.0272 83.0175 35.0272C83.1776 35.1879 83.4978 35.3486 83.6579 35.3486C84.2983 35.8306 84.9386 36.3126 85.579 36.7946C85.8992 37.116 86.2194 37.4373 86.2194 37.9193C86.2194 38.2407 85.2588 39.044 85.0987 39.3654C84.4583 40.0081 85.4189 40.9721 86.6996 40.9721C86.3795 40.6508 86.2194 40.3294 86.3795 40.0081C86.5396 40.0081 86.6996 40.0081 87.0198 39.8474C87.34 39.6867 87.1799 38.8834 87.34 38.7227C87.8203 38.2407 89.101 38.2407 90.0616 38.2407C90.3818 38.2407 90.862 38.08 90.702 37.598C91.1822 37.598 91.3423 38.08 91.3423 38.4013C91.8226 38.08 92.1428 36.9553 90.5419 36.6339C90.8621 36.3126 91.3423 36.3126 91.6625 36.6339C91.9827 36.1519 91.1822 35.3486 89.9015 35.8306C89.9015 35.8306 89.2611 35.0272 87.6602 36.9553C87.5001 36.7946 87.1799 36.6339 87.0198 36.4733C86.3795 35.8306 84.7785 34.2239 84.7785 34.2239C84.7785 33.2598 84.6184 31.4924 83.4978 30.5284C83.0175 30.0464 82.5372 29.8857 81.4166 29.5643C81.4166 29.5643 81.8969 28.761 82.057 28.4396C83.0175 29.4037 84.9386 29.725 84.9386 28.1183C86.5396 29.725 87.9804 28.761 87.9804 27.7969C87.9804 28.279 88.1405 28.761 88.3006 29.243C88.4607 29.725 89.2611 31.8138 91.0221 31.8138C91.0221 32.4565 91.0221 34.8665 93.2634 35.3486C93.4235 35.3486 93.4235 35.3486 93.5836 35.5092C94.5442 36.6339 98.2263 37.7587 98.5465 37.4373C98.2263 37.2766 97.746 36.9553 97.746 35.6699C97.746 34.8665 97.5859 30.3677 97.5859 24.1015C97.5859 21.8521 97.4259 14.6218 90.2217 13.6577C89.101 13.4971 88.1405 13.6578 87.1799 14.3004C85.8992 15.2645 85.2588 16.8712 86.0593 18.6386V18.7993C86.3795 19.2813 86.2194 19.6026 85.8992 19.924C85.2588 20.5667 84.6184 20.888 83.818 21.0487C83.3377 21.0487 82.8574 20.888 82.5372 20.5667C81.7368 19.7633 81.2565 18.7993 80.9363 17.6746C80.6161 15.5858 81.0964 14.4611 81.0964 14.3004C81.7368 13.1757 82.8574 12.2117 84.2983 12.2117C84.9386 10.9263 86.8597 11.4083 86.8597 11.4083C87.34 11.569 87.5001 11.569 87.6602 11.8904C87.6602 11.8904 88.4607 10.605 87.6602 10.123C86.8597 9.64094 85.0987 9.48026 85.0987 9.48026C85.0987 8.6769 83.818 8.03421 81.2565 8.51623C78.3748 8.99825 77.7345 7.87354 77.7345 7.87354C77.5744 9.31959 78.695 9.96228 79.0152 10.2836C77.8946 11.569 76.2936 13.9791 75.9734 17.3532C75.6533 13.9791 74.0523 11.569 72.9317 10.2836C73.2519 10.123 74.3725 9.31959 74.2124 7.87354C74.2124 7.87354 73.5721 8.99825 70.6904 8.51623C68.289 8.03421 66.8482 8.6769 66.8482 9.48026C66.8482 9.48026 65.0871 9.64094 64.2867 10.123C63.4862 10.605 64.2867 11.8904 64.2867 11.8904C64.4468 11.7297 64.6069 11.569 65.0871 11.4083C65.0871 11.4083 67.0083 10.9263 67.6486 12.2117C69.0895 12.3724 70.2101 13.1757 70.8505 14.3004C70.8505 14.3004 71.4909 15.4251 71.0106 17.6746C70.8505 18.7993 70.2101 19.7633 69.4096 20.5667C69.0895 20.888 68.6092 21.2094 68.1289 21.0487C67.3284 20.888 66.6881 20.5667 66.0477 19.924C65.7275 19.6026 65.5674 19.2813 65.8876 18.7993V18.6386C66.6881 16.8712 66.0477 15.2645 64.767 14.3004C63.8064 13.6578 62.8458 13.4971 61.7252 13.6577C54.6811 14.6218 54.3609 21.8521 54.3609 24.1015C54.3609 30.3677 54.2009 34.8665 54.2009 35.6699C54.2009 36.9553 53.7206 37.2766 53.4004 37.4373C53.8807 37.7587 57.5628 36.6339 58.3633 35.5092C58.3633 35.5092 58.5233 35.3486 58.6834 35.3486C60.9247 34.8665 60.9247 32.4565 60.9247 31.8138C62.6858 31.8138 63.4862 29.725 63.6463 29.243C63.8064 28.761 63.9665 28.279 63.9665 27.7969C63.9665 28.761 65.4073 29.5643 67.0083 28.1183C67.0083 29.725 68.9294 29.4037 69.8899 28.4396C70.05 28.761 70.5303 29.5643 70.5303 29.5643C69.4096 29.725 68.9294 30.0464 68.4491 30.5284C67.1683 31.6531 67.1684 33.4205 67.1684 34.2239C67.1684 34.2239 65.5674 35.8306 64.9271 36.4733C64.767 36.6339 64.4468 36.7946 64.2867 36.9553C62.5257 35.0272 62.0454 35.8306 62.0454 35.8306C60.7646 35.3486 60.1243 36.1519 60.2844 36.6339C60.6045 36.3126 61.0848 36.4733 61.405 36.6339C59.644 36.9553 60.1243 38.2407 60.6046 38.4013C60.6046 38.08 60.7646 37.598 61.2449 37.598C61.2449 38.08 61.5651 38.2407 61.8853 38.2407C62.6858 38.2407 64.1266 38.2407 64.6069 38.7227C64.9271 38.8834 64.767 39.6867 64.9271 39.8474C65.0871 40.0081 65.4073 40.0081 65.5674 40.0081C65.5674 40.3294 65.5674 40.4901 65.2472 40.9721C66.528 41.1328 67.3284 40.0081 66.8482 39.3654C66.528 39.044 65.7275 38.2407 65.7275 37.9193C65.7275 37.598 66.0477 37.116 66.3679 36.7946C67.0083 36.3126 67.6486 35.8306 68.289 35.3486C68.4491 35.1879 68.6092 35.0272 68.9294 35.0272C69.0895 34.8665 69.4096 34.8665 69.5697 35.0272C70.05 35.1879 70.05 35.1879 70.2101 35.0272C70.6904 34.7059 71.4908 34.0632 73.2519 33.9025C73.0918 33.9025 73.0918 34.0632 72.9317 34.2239C72.7716 34.3845 72.7716 34.5452 72.6115 34.7059C72.4514 34.8665 72.4514 35.1879 72.2913 35.5092C71.1707 38.2407 70.05 40.8114 68.9294 43.5429C68.6092 44.5069 68.9294 45.1496 69.7298 45.6316C70.3702 45.953 71.1707 45.7923 71.6509 45.1496C71.4908 45.6316 71.4908 45.953 71.6509 46.2743C71.811 46.5956 72.1312 46.917 72.4514 47.0777C72.7716 47.2383 73.2519 47.2383 73.5721 47.2383C74.0523 47.0777 74.2124 46.917 74.3725 46.435C74.5326 47.2383 75.0129 47.881 75.9734 47.881Z" fill="#77787B"/>
<path d="M6.05454 66.3033C7.49538 66.3033 10.6972 66.1426 12.4582 65.9819C12.4582 66.3033 12.4582 66.7853 12.4582 66.946C12.4582 67.1066 12.4582 67.5887 12.4582 67.91C10.8573 67.7493 8.29586 67.5887 7.49539 67.5887C6.85502 67.5887 4.77382 67.5887 3.49308 67.7493V74.4976H4.9339C7.81557 74.4976 13.5789 74.9796 13.5789 79.9604C13.5789 83.9773 10.217 85.7447 5.89447 85.7447C5.41419 85.7447 3.65315 85.7447 2.37241 85.7447C1.89213 85.7447 1.25176 85.7447 0.771484 85.7447C0.931577 82.6919 0.931587 78.6751 0.931587 75.301C0.931587 72.2482 0.931577 67.5887 0.771484 66.1426C2.5325 66.1426 5.41417 66.3033 6.05454 66.3033ZM3.49308 84.1379C4.13345 84.1379 5.09399 84.1379 5.73436 84.1379C8.93622 84.1379 10.6972 82.6919 10.6972 79.7998C10.6972 76.747 8.45594 75.783 3.33298 75.783V84.1379H3.49308Z" fill="#77787B"/>
<path d="M16.6206 73.5335C17.7413 72.2482 19.6624 71.6055 21.2633 71.6055C24.145 71.6055 26.0661 73.0515 26.0661 76.4256V83.1739C26.0661 84.6199 26.3863 84.9413 26.8666 84.9413C27.0267 84.9413 27.3469 84.9413 27.5069 84.7806L27.667 85.4233C26.8666 85.9053 26.0661 85.9053 25.5858 85.9053C24.6253 85.9053 24.145 85.4233 23.9849 84.7806L23.8248 84.1379C22.384 85.2626 20.7831 85.9053 19.5023 85.9053C17.1009 85.9053 15.5 84.6199 15.5 82.3705C15.5 79.9604 17.261 78.8357 19.8225 78.3537L22.5441 77.8717C23.5046 77.711 23.9849 77.3897 23.9849 76.747C23.9849 73.8549 22.7042 73.0515 20.623 73.0515C19.022 73.0515 17.9014 73.5335 16.9408 75.3009H16.6206V73.5335ZM23.9849 78.6751L22.2239 78.9964C20.3028 79.3178 18.0615 79.9604 18.0615 82.0492C18.0615 83.6559 18.8619 84.4593 20.623 84.4593C21.7436 84.4593 22.7042 84.1379 23.8248 82.8526V78.6751H23.9849Z" fill="#77787B"/>
<path d="M31.5112 72.0869C31.8313 72.0869 32.3116 72.0869 32.7919 72.0869C32.6318 74.1757 32.4717 77.5498 32.4717 77.7105C33.5923 77.7105 35.1933 77.8711 36.1538 77.8711C37.1144 77.8711 38.7153 77.8711 39.5158 77.7105C39.5158 77.5498 39.5158 74.1757 39.3557 72.0869C39.836 72.0869 40.4763 72.0869 40.7965 72.0869C41.1167 72.0869 41.597 72.0869 42.0773 72.0869C41.9172 74.1757 41.7571 77.5498 41.7571 78.9958C41.7571 80.1205 41.7571 83.816 42.0773 85.9048C41.597 85.9048 41.2768 85.9048 40.7965 85.9048C40.3162 85.9048 39.836 85.9048 39.3557 85.9048C39.5158 83.816 39.5158 80.1205 39.5158 79.3172C38.3951 79.1565 36.6341 79.1565 36.1538 79.1565C35.3534 79.1565 33.5923 79.1565 32.4717 79.3172C32.4717 80.2812 32.4717 83.816 32.7919 85.9048C32.3116 85.9048 31.9914 85.9048 31.5112 85.9048C31.0309 85.9048 30.5506 85.9048 30.0703 85.9048C30.2304 83.816 30.3905 80.1205 30.3905 78.9958C30.3905 77.5498 30.3905 74.1757 30.0703 72.0869C30.5506 72.0869 31.191 72.0869 31.5112 72.0869Z" fill="#77787B"/>
<path d="M47.0385 72.0879C47.3587 72.0879 47.839 72.0879 48.3192 72.0879C48.1592 74.1767 48.1591 77.5508 48.1591 78.0328H48.6394C49.6 78.0328 54.0826 72.8913 54.5629 72.0879C54.883 72.0879 55.5234 72.0879 55.8436 72.0879C56.1638 72.0879 56.8042 72.0879 57.1243 72.0879L50.7206 77.8721C51.5211 78.8362 55.8436 83.6564 57.7647 85.7451C56.9642 85.7451 56.484 85.7451 56.1638 85.7451C55.6835 85.7451 54.883 85.7451 54.4027 85.7451C53.4422 84.1384 50.4004 80.6036 48.6394 78.6755H48.1591C48.1591 79.6395 48.1592 83.6564 48.3192 85.7451C47.9991 85.7451 47.5188 85.7451 47.0385 85.7451C46.5582 85.7451 46.0779 85.7451 45.5977 85.7451C45.7577 83.6564 45.9179 79.9609 45.9179 78.8362C45.9179 77.3901 45.9178 74.016 45.5977 71.9272C46.0779 72.0879 46.5582 72.0879 47.0385 72.0879Z" fill="#77787B"/>
<path d="M69.4539 66.1426C70.4145 66.1426 71.5351 65.9819 72.3356 65.9819C77.2985 65.9819 79.2196 67.428 79.2196 70.9628C79.2196 75.3009 75.5375 76.747 71.0549 76.747C70.7347 76.747 69.7741 76.747 69.2938 76.5863V81.2458C69.2938 82.5312 69.2938 84.2986 69.4539 85.584C68.9737 85.584 68.4934 85.584 68.0131 85.584C67.5328 85.584 66.8925 85.584 66.5723 85.584C66.7324 82.5312 66.7324 78.5144 66.7324 75.1403C66.7324 72.0875 66.7324 67.428 66.5723 65.9819C67.6929 65.9819 68.8136 66.1426 69.4539 66.1426ZM70.5746 75.301C74.4168 75.301 76.498 73.8549 76.498 70.9628C76.498 68.2313 74.4168 67.5887 71.6952 67.5887C71.2149 67.5887 69.614 67.5887 69.2938 67.5887V75.1403C69.7741 75.3009 70.2544 75.301 70.5746 75.301Z" fill="#77787B"/>
<path d="M93.3071 78.8352C93.3071 83.0127 90.5855 86.0655 86.4231 86.0655C82.2607 86.0655 79.6992 83.0127 79.6992 79.1566C79.6992 74.6577 82.5809 71.7656 86.7433 71.7656C90.7456 71.7656 93.3071 74.6577 93.3071 78.8352ZM82.2607 78.9959C82.2607 82.0487 83.5414 84.9408 86.4231 84.9408C89.1447 84.9408 90.7456 82.2094 90.7456 78.6746C90.7456 75.7824 89.625 72.7297 86.5832 72.7297C83.7015 72.7297 82.2607 75.7824 82.2607 78.9959Z" fill="#77787B"/>
<path d="M106.433 74.98H106.113C105.152 73.3733 103.872 72.8913 102.431 72.8913C99.2289 72.8913 97.7881 75.9441 97.7881 78.9968C97.7881 82.371 99.7092 85.1024 103.071 85.1024C104.192 85.1024 105.152 84.9417 106.753 83.1743L107.073 83.4957L106.753 84.7811C105.473 85.5844 104.032 86.0664 102.271 86.0664C98.1083 86.0664 95.3867 83.1743 95.3867 78.9968C95.3867 74.6587 98.4285 71.9272 102.751 71.9272C104.192 71.9272 105.633 72.2486 107.394 73.052L106.433 74.98Z" fill="#77787B"/>
<path d="M120.203 74.98H119.882C118.922 73.3733 117.641 72.8913 116.2 72.8913C112.998 72.8913 111.558 75.9441 111.558 78.9968C111.558 82.371 113.479 85.1024 116.841 85.1024C117.961 85.1024 118.922 84.9417 120.523 83.1743L120.683 83.4957L120.363 84.7811C119.082 85.5844 117.641 86.0664 115.88 86.0664C111.718 86.0664 108.996 83.1743 108.996 78.9968C108.996 74.6587 112.038 71.9272 116.36 71.9272C117.801 71.9272 119.242 72.2486 121.003 73.052L120.203 74.98Z" fill="#77787B"/>
<path d="M124.207 85.5835C124.047 85.5835 123.566 85.5835 123.406 85.5835C123.566 83.4947 123.726 79.7993 123.726 78.6746C123.726 77.2285 123.726 73.8544 123.406 71.7656C123.887 71.7656 124.527 71.7656 124.847 71.7656C125.167 71.7656 125.648 71.7656 126.128 71.7656C125.968 73.8544 125.808 77.2285 125.808 78.6746C125.808 79.7993 125.808 81.406 125.808 82.2093C127.248 80.4419 132.532 73.6937 133.812 71.9263C134.132 71.9263 134.293 71.9263 134.613 71.9263C134.773 71.9263 135.413 71.9263 135.573 71.9263C135.413 74.015 135.253 77.3892 135.253 78.8352C135.253 79.9599 135.253 83.6554 135.573 85.7442C135.093 85.7442 134.773 85.7442 134.293 85.7442C133.812 85.7442 133.332 85.7442 132.852 85.7442C133.012 83.6554 133.172 79.9599 133.172 78.8352C133.172 77.3892 133.172 75.6218 133.172 75.1397C131.411 77.0678 126.448 83.3341 125.007 85.7442C124.687 85.5835 124.367 85.5835 124.207 85.5835Z" fill="#77787B"/>
<path d="M139.414 85.5835C139.254 85.5835 138.773 85.5835 138.613 85.5835C138.773 83.4947 138.773 79.7993 138.773 78.6746C138.773 77.2285 138.773 73.8544 138.613 71.7656C139.094 71.7656 139.734 71.7656 140.054 71.7656C140.374 71.7656 140.855 71.7656 141.335 71.7656C141.015 74.015 141.015 77.3892 141.015 78.8352C141.015 79.9599 141.015 81.5667 141.015 82.37C142.456 80.6026 147.739 73.8544 149.019 72.087C149.339 72.087 149.5 72.087 149.82 72.087C149.98 72.087 150.62 72.087 150.78 72.087C150.62 74.015 150.62 77.3892 150.62 78.8352C150.62 79.9599 150.62 83.6554 150.78 85.7442C150.3 85.7442 149.98 85.7442 149.5 85.7442C149.019 85.7442 148.539 85.7442 148.059 85.7442C148.219 83.6554 148.219 79.9599 148.219 78.8352C148.219 77.3892 148.219 75.6218 148.219 75.1397C146.458 77.0678 141.495 83.3341 140.054 85.7442C139.894 85.5835 139.734 85.5835 139.414 85.5835Z" fill="#77787B"/>
</svg>
