<svg width="135" height="76" viewBox="0 0 135 76" fill="none" xmlns="http://www.w3.org/2000/svg">
<g clip-path="url(#clip0_114_2617)">
<path d="M0.877731 56.3419V1.01312H14.777V20.6421H29.5864V1.01312H43.3743V56.3419H29.5864V33.9977H14.777V56.3419H0.877731Z" fill="#F60503"/>
<path d="M77.0016 13.9345V56.3419H63.1108V13.9345H51.1431V1.01312H88.9692V13.9345H77.0016Z" fill="#737373"/>
<path d="M93.9574 56.3412V20.7265C93.9574 14.5126 95.8291 9.50465 99.5721 5.70257C103.315 1.90048 108.252 -0.000560661 114.382 -0.000560661C117.001 -0.0682479 119.607 0.391729 122.042 1.35153C124.477 2.31133 126.69 3.751 128.547 5.5834C130.403 7.36081 131.868 9.49954 132.851 11.8653C133.833 14.2311 134.312 16.7726 134.256 19.3305C134.256 25.1301 132.21 29.7948 128.117 33.3244C124.025 36.8541 118.588 38.619 111.806 38.619H110.364V25.4251H112.51C114.518 25.5377 116.501 24.9338 118.099 23.7227C118.758 23.1567 119.278 22.4494 119.62 21.6544C119.962 20.8596 120.117 19.9979 120.073 19.1347C120.1 18.3452 119.962 17.5588 119.67 16.824C119.377 16.0893 118.935 15.422 118.372 14.8634C117.808 14.3049 117.135 13.8669 116.394 13.5767C115.653 13.2865 114.86 13.1502 114.064 13.1762C113.201 13.1312 112.339 13.2845 111.545 13.6241C110.751 13.9637 110.047 14.4804 109.488 15.134C108.305 16.7183 107.724 18.6656 107.848 20.6328V56.3412H93.9574Z" fill="#737373"/>
<path d="M0.740234 75.1284V63.1093H5.22168C5.86044 63.0924 6.49787 63.1758 7.11042 63.3561C7.64541 63.5481 8.10125 63.9102 8.40677 64.3861C8.77823 64.9274 8.97028 65.5701 8.95622 66.2247C8.96243 66.8373 8.76647 67.4352 8.39819 67.9271C8.02255 68.4193 7.47403 68.7536 6.86144 68.8635C7.58422 68.9611 8.24175 69.3296 8.69866 69.8935C9.12725 70.4557 9.34845 71.1467 9.32539 71.8512C9.35468 72.7121 9.04704 73.5509 8.46687 74.192C8.11432 74.5301 7.69286 74.7892 7.23084 74.9522C6.76881 75.1151 6.27693 75.1781 5.7883 75.1369L0.740234 75.1284ZM2.70624 68.1569H5.23026C5.4581 68.1687 5.68581 68.1315 5.89774 68.0477C6.10967 67.964 6.30079 67.8358 6.45795 67.6717C6.76604 67.3348 6.92929 66.8919 6.91296 66.4375C6.93132 66.2085 6.89414 65.9786 6.80453 65.7669C6.71492 65.5551 6.57546 65.3677 6.39785 65.2203C6.05354 64.9585 5.62974 64.8204 5.19593 64.8287H2.70624V68.1569ZM2.70624 73.3238H5.3848C5.63172 73.341 5.8796 73.3091 6.11398 73.2302C6.34835 73.1513 6.56452 73.0268 6.74984 72.8642C7.07034 72.525 7.24868 72.0777 7.24868 71.6129C7.24868 71.1481 7.07034 70.7007 6.74984 70.3616C6.57205 70.1966 6.36268 70.0686 6.1341 69.9853C5.90553 69.9019 5.66241 69.8649 5.41914 69.8764H2.70624V73.3238Z" fill="#C9C9C9"/>
<path d="M25.2427 75.1287H17.7735V63.1096H25.1653V64.897H19.8425V68.1572H24.1351V69.8596H19.8425V73.2645H25.2427V75.1287Z" fill="#C9C9C9"/>
<path d="M40.653 75.1287H33.5788V63.1096H35.7594V73.2049H40.653V75.1287Z" fill="#C9C9C9"/>
<path d="M57.7456 75.1287H55.5307L54.6121 72.2685H50.1907L49.3321 75.1287H47.5207L51.3325 63.1096H53.9081L57.7456 75.1287ZM54.054 70.5321L52.337 65.1694L50.62 70.5321H54.054Z" fill="#C9C9C9"/>
<path d="M74.6406 75.1283H72.4513L70.6656 70.1912H67.7467V75.1283H65.6777V63.1092H70.6656C71.2144 63.0645 71.7665 63.1288 72.2899 63.2982C72.8133 63.4679 73.2972 63.7393 73.7134 64.0966C74.0426 64.4343 74.2991 64.8348 74.4673 65.2738C74.6355 65.7128 74.712 66.1811 74.6921 66.6502C74.7296 67.3239 74.5502 67.992 74.1799 68.5582C73.8096 69.1242 73.2674 69.559 72.6317 69.7997L74.6406 75.1283ZM67.7724 68.4548H70.348C70.94 68.4969 71.5269 68.3211 71.9964 67.961C72.1833 67.79 72.3297 67.5797 72.4247 67.3457C72.5198 67.1116 72.5611 66.8595 72.5458 66.6076C72.5543 66.3686 72.5103 66.1307 72.4169 65.9103C72.3235 65.6898 72.183 65.4921 72.0049 65.3308C71.5819 64.9842 71.0415 64.8108 70.494 64.8456H67.7467L67.7724 68.4548Z" fill="#C9C9C9"/>
<path d="M91.1254 63.1096V70.83C91.1605 71.6464 91.047 72.4624 90.7905 73.2389C90.5236 73.8499 90.0663 74.3601 89.4856 74.6945C88.7775 75.1194 87.9606 75.3322 87.1333 75.3074C86.3297 75.3384 85.5325 75.1563 84.8238 74.7797C84.2406 74.4521 83.7821 73.9438 83.5189 73.3325C83.2439 72.5835 83.1215 71.7879 83.1584 70.9917V63.1096H85.2702V70.83C85.2174 71.2025 85.2469 71.5819 85.3566 71.942C85.4664 72.3021 85.6537 72.6343 85.9055 72.9155C86.3256 73.2441 86.8473 73.4185 87.3822 73.4091C87.948 73.4353 88.5018 73.2431 88.9276 72.8729C89.1569 72.5863 89.3266 72.2573 89.4267 71.9052C89.527 71.553 89.5557 71.1847 89.5113 70.8215V63.1096H91.1254Z" fill="#C9C9C9"/>
<path d="M98.8339 72.2325L100.851 71.7814C101.092 72.973 102.019 73.5689 103.633 73.5689C104.241 73.6113 104.846 73.4494 105.35 73.1092C105.533 72.9812 105.682 72.8116 105.785 72.6146C105.888 72.4176 105.942 72.199 105.942 71.9771C105.942 71.6546 105.85 71.3388 105.676 71.0663C105.384 70.7189 104.976 70.4864 104.526 70.4109L102.302 69.798C101.711 69.6626 101.147 69.4264 100.637 69.1001C100.258 68.8116 99.9622 68.4302 99.7782 67.9935C99.5605 67.5147 99.4493 66.995 99.4521 66.4699C99.4378 65.9866 99.533 65.5064 99.7306 65.0645C99.9282 64.6226 100.223 64.2302 100.594 63.9161C101.417 63.2483 102.459 62.9029 103.521 62.9458C104.451 62.9312 105.368 63.1664 106.174 63.6267C106.541 63.828 106.862 64.1018 107.118 64.4313C107.373 64.7607 107.558 65.1388 107.659 65.5419L105.685 66.0527C105.546 65.6166 105.259 65.2422 104.872 64.9937C104.485 64.745 104.022 64.6379 103.564 64.6907C103.037 64.6562 102.514 64.8069 102.088 65.1163C101.926 65.2446 101.796 65.4079 101.708 65.5939C101.62 65.7799 101.577 65.9836 101.581 66.1889C101.581 66.8756 102.113 67.3579 103.178 67.6359L105.135 68.1467C106.072 68.3065 106.92 68.7962 107.522 69.5257C107.923 70.1198 108.136 70.8195 108.132 71.5345C108.152 72.0653 108.047 72.5934 107.825 73.0767C107.603 73.56 107.27 73.985 106.852 74.318C105.901 75.0233 104.734 75.3812 103.547 75.331C102.498 75.3542 101.463 75.0954 100.551 74.5818C100.118 74.3274 99.7423 73.9876 99.447 73.5835C99.1517 73.1794 98.943 72.7196 98.8339 72.2325Z" fill="#C9C9C9"/>
</g>
<defs>
<clipPath id="clip0_114_2617">
<rect width="133.516" height="76" fill="white" transform="translate(0.740234)"/>
</clipPath>
</defs>
</svg>
