<svg width="144" height="103" viewBox="0 0 144 103" fill="none" xmlns="http://www.w3.org/2000/svg">
<g clip-path="url(#clip0_114_2584)">
<path d="M143.242 0H0.757812V103H143.242V0Z" fill="#CDD503"/>
<path fill-rule="evenodd" clip-rule="evenodd" d="M40.971 40.4876L29.6058 37.6828C27.6799 37.2283 24.6494 36.4544 24.6494 32.7365C24.6494 28.519 29.1 27.0859 32.8061 27.0859C41.3027 27.0859 42.0674 32.0936 42.3142 34.2392H47.7237V43.0426C45.7533 41.8716 43.4066 41.1058 40.971 40.4876ZM34.8089 68.6544C37.2365 68.6544 43.2367 68.2245 47.7237 64.9037V67.4219H56.8191V56.3665L60.6143 52.3906L68.8276 67.426H79.7114L67.2173 45.9498L79.3553 32.4171H68.2491L56.8191 45.6918V20.1865H47.7237V24.2156C44.9684 21.2224 40.5016 18.9458 33.5182 18.9458C18.4186 18.9458 15.5823 28.2488 15.5823 33.4571C15.5823 40.6104 19.3815 44.5904 26.0048 46.2159L35.3753 48.558C40.3276 49.7864 43.8719 50.6995 43.8719 54.4133C43.8719 59.3555 38.7295 60.5266 34.1009 60.5266C25.6043 60.5266 24.1963 55.5148 24.1963 52.8533H14.8905C14.8743 58.7045 17.8319 68.6544 34.8089 68.6544Z" fill="#696B6A"/>
<path fill-rule="evenodd" clip-rule="evenodd" d="M17.7874 81.7776C17.7874 82.5965 18.2325 84.1729 20.8705 84.1729C22.327 84.1729 23.9333 83.8044 23.9333 82.2649C23.9333 81.0938 22.8328 80.8154 21.2832 80.4305L18.3498 79.6975C16.2742 79.1857 15.113 77.945 15.113 75.7053C15.113 74.0674 15.995 71.1644 20.7208 71.1644C25.1714 71.1644 26.3852 74.1411 26.3852 75.9469H23.4478C23.3911 75.2754 23.1443 73.7194 20.4901 73.7194C19.3249 73.7194 17.9331 74.1657 17.9331 75.4801C17.9331 76.643 18.8839 76.8886 19.4705 77.0319L23.0513 77.9041C25.0257 78.4159 26.8585 79.2226 26.8585 81.8759C26.8585 86.3267 22.3837 86.7157 21.093 86.7157C15.8008 86.7157 14.8743 83.6038 14.8743 81.7776H17.7874Z" fill="#696B6A"/>
<path fill-rule="evenodd" clip-rule="evenodd" d="M30.6577 79.5297L34.2505 75.3818H37.7099L33.9147 79.6115L37.8232 86.3267H34.4286L31.8472 81.6261L30.6577 82.875V86.3267H27.8255V71.5533H30.6577V79.5297Z" fill="#696B6A"/>
<path fill-rule="evenodd" clip-rule="evenodd" d="M40.5299 80.84C40.5299 82.2403 40.9588 84.1894 43.1558 84.1894C45.3528 84.1894 45.7533 82.2649 45.7533 80.8563C45.7533 79.4478 45.3244 77.5151 43.1558 77.5151C40.9871 77.5151 40.5299 79.4314 40.5299 80.84ZM48.6624 80.84C48.6624 84.779 46.0325 86.6134 43.1558 86.6134C40.2791 86.6134 37.6168 84.8076 37.6168 80.8563C37.6168 76.905 40.2305 75.0911 43.1558 75.0911C46.081 75.0911 48.6624 76.8846 48.6624 80.84Z" fill="#696B6A"/>
<path d="M52.4049 71.5533H49.5687V86.3226H52.4049V71.5533Z" fill="#696B6A"/>
<path fill-rule="evenodd" clip-rule="evenodd" d="M56.6451 79.5297L60.2258 75.3818H63.7094L59.8981 79.6115L63.7944 86.3267H60.4119L57.8225 81.6261L56.6451 82.875V86.3267H53.8129V71.5533H56.6451V79.5297Z" fill="#696B6A"/>
<path fill-rule="evenodd" clip-rule="evenodd" d="M66.5295 80.84C66.5295 82.2403 66.9341 84.1894 69.1473 84.1894C71.3604 84.1894 71.7367 82.2649 71.7367 80.8563C71.7367 79.4478 71.3321 77.5151 69.1473 77.5151C66.9624 77.5151 66.5295 79.4314 66.5295 80.84ZM74.6579 80.84C74.6579 84.779 72.0442 86.6134 69.1473 86.6134C66.2503 86.6134 63.6204 84.8076 63.6204 80.8563C63.6204 76.905 66.2463 75.0911 69.1473 75.0911C72.0482 75.0911 74.6417 76.8846 74.6417 80.84H74.6579Z" fill="#696B6A"/>
<path fill-rule="evenodd" clip-rule="evenodd" d="M77.6317 75.3818L79.9339 83.4646H79.9824L82.3534 75.3818H85.3676L81.4835 86.3267H78.4895L74.6053 75.3818H77.6317Z" fill="#696B6A"/>
<path fill-rule="evenodd" clip-rule="evenodd" d="M88.2646 80.84C88.2646 82.2403 88.6692 84.1894 90.8783 84.1894C93.0874 84.1894 93.4596 82.2649 93.4596 80.8563C93.4596 79.4478 93.055 77.5151 90.8783 77.5151C88.7016 77.5151 88.2646 79.4314 88.2646 80.84ZM96.3566 80.84C96.3566 84.779 93.7429 86.6134 90.8662 86.6134C87.9895 86.6134 85.3232 84.8076 85.3232 80.8563C85.3232 76.905 87.9652 75.0911 90.8662 75.0911C93.7671 75.0911 96.3687 76.8846 96.3687 80.84H96.3566Z" fill="#696B6A"/>
</g>
<defs>
<clipPath id="clip0_114_2584">
<rect width="142.484" height="103" fill="white" transform="translate(0.757812)"/>
</clipPath>
</defs>
</svg>
