<svg width="151" height="93" viewBox="0 0 151 93" fill="none" xmlns="http://www.w3.org/2000/svg">
<g clip-path="url(#clip0_114_2750)">
<path d="M21.177 65.5541H1.24374V69.8158H12.2978L0.769531 78.0265V82.0743H21.177V77.7962H9.50157L21.177 69.5855V65.5541Z" fill="#231F20"/>
<path d="M45.231 65.5541H40.1782V75.6077C40.1782 77.4835 39.7367 77.9936 34.831 77.9936C29.9254 77.9936 29.4512 77.4506 29.4512 75.5748V65.5541H24.3493V75.6077C24.3493 81.7123 25.9845 82.3047 34.782 82.3047C43.5794 82.3047 45.231 81.7123 45.231 75.6077V65.5541Z" fill="#231F20"/>
<path d="M53.4888 77.8455V75.2457H62.2372C63.1202 75.2457 63.7089 75.4761 63.7089 76.6115C63.7089 77.1874 63.3001 77.8455 62.2372 77.8455H53.4888ZM53.4888 71.7739V69.5525H62.4498C63.202 69.5525 63.7089 69.8158 63.7089 70.655C63.7089 71.4942 63.202 71.7739 62.4498 71.7739H53.4888ZM63.1202 65.5541H48.4033V82.0085H63.6762C67.2573 82.0085 68.729 80.8073 68.729 77.4342C68.8186 76.6223 68.6459 75.803 68.2365 75.0976C67.8271 74.3923 67.2028 73.8384 66.456 73.518C67.0076 73.1787 67.4534 72.6903 67.7425 72.1085C68.0316 71.5266 68.1525 70.8748 68.0913 70.2272C68.0913 65.8668 65.4749 65.5706 63.0385 65.5706" fill="#231F20"/>
<path d="M76.9868 72.9421V69.6513H85.1629C86.2094 69.6513 86.7 70.0626 86.7 71.2967C86.7 72.5308 86.2094 72.9421 85.1629 72.9421H76.9868ZM86.6346 65.5541H71.9177V82.0085H76.9705V77.4506H84.9667C85.4004 77.4506 85.8163 77.624 86.1229 77.9326C86.4296 78.2411 86.6019 78.6597 86.6019 79.0961V82.0578H91.6547V78.3721C91.6547 76.2495 91.1151 75.7887 89.3817 75.0812C91.0169 74.423 91.6547 73.2219 91.6547 70.4082C91.6547 66.7059 90.0195 65.6035 86.6019 65.6035" fill="#231F20"/>
<path d="M0.769534 90.2357C0.764508 89.8592 0.836401 89.4858 0.980753 89.1385C1.12511 88.7912 1.33884 88.4774 1.60869 88.2167C1.87854 87.9559 2.19876 87.7538 2.54948 87.6227C2.9002 87.4917 3.27394 87.4346 3.64751 87.4549C4.04388 87.4382 4.43895 87.5109 4.80388 87.6674C5.16882 87.824 5.49442 88.0606 5.75693 88.3599L5.1192 88.9687C4.94134 88.7668 4.72196 88.6064 4.4763 88.4984C4.23064 88.3904 3.96457 88.3376 3.69656 88.3434C3.19782 88.3434 2.71952 88.5428 2.36685 88.8976C2.01419 89.2525 1.81607 89.7338 1.81607 90.2357C1.81607 90.7375 2.01419 91.2188 2.36685 91.5737C2.71952 91.9286 3.19782 92.1279 3.69656 92.1279C3.96567 92.1306 4.23218 92.0747 4.47775 91.9639C4.72333 91.8531 4.94216 91.6901 5.1192 91.4862L5.75693 92.1115C5.35939 92.4917 4.86316 92.7512 4.32544 92.86C3.78772 92.9688 3.23039 92.9225 2.71767 92.7265C2.20496 92.5304 1.75773 92.1926 1.42752 91.7519C1.09731 91.3112 0.897559 90.7856 0.851293 90.2357H0.769534Z" fill="#231F20"/>
<path d="M19.9015 91.6837H17.2198L16.6965 92.9342H15.6663L18.0701 87.5372H19.0512L21.4713 92.9342H20.4411L19.9015 91.6837ZM19.5745 90.8938L18.5606 88.5409L17.5632 90.8938H19.5745Z" fill="#231F20"/>
<path d="M36.27 89.5117C36.27 90.7129 35.387 91.4368 33.9807 91.4368H32.7707V93.0823H31.7732V87.5372H33.9807C35.387 87.5372 36.27 88.2612 36.27 89.5117ZM35.2562 89.5117C35.2562 88.8371 34.8147 88.4422 33.9317 88.4422H32.7707V90.5977H33.9317C34.831 90.5319 35.2562 90.137 35.2562 89.5117Z" fill="#231F20"/>
<path d="M46.8498 87.5372H47.9127V92.9342H46.9152L46.8498 87.5372Z" fill="#231F20"/>
<path d="M59.9479 88.3763H58.1655V87.5372H62.7114V88.3763H60.9944V92.9342H59.997L59.9479 88.3763Z" fill="#231F20"/>
<path d="M76.0057 91.6837H73.3239L72.7843 92.9342H71.7705L74.1742 87.5372H75.1554L77.5755 92.9342H76.529L76.0057 91.6837ZM75.6786 90.8938L74.6648 88.5409L73.651 90.8938H75.6786Z" fill="#231F20"/>
<path d="M87.8773 87.5372H88.8748V92.0786H91.671V92.9342H87.8773V87.5372Z" fill="#231F20"/>
<path d="M131.636 21.8185L92.7339 41.6624L127.58 39.3588L135.904 25.7675L131.636 21.8185Z" fill="#F79A79"/>
<path d="M139.975 14.3811L135.266 15.8455L127.58 18.0175L110.574 2.27069L70.5768 43.5218L92.7339 41.6624L131.636 21.8185L131.538 21.7362L139.975 14.3811Z" fill="#F47835"/>
<path d="M120.353 55.8955L119.143 46.5823L121.121 44.9204L121.023 43.8015L123.165 43.2091L127.384 39.6715L127.58 39.3588L92.7339 41.6624L85.0484 45.5786L109.789 45.6608L113.239 49.9061L112.7 45.2988L120.353 55.8955Z" fill="#F47835"/>
<path d="M70.5768 43.5218L70.9038 43.6698L74.9755 45.6608L75.1227 45.5786H85.0484L92.7339 41.6624L70.5768 43.5218Z" fill="#EF4135"/>
<path d="M70.9038 43.6699L70.5768 43.5218L69.0397 44.0154L52.8511 49.1985L48.0926 57.7713L66.1944 47.0759L72.261 47.2734L74.9755 45.6609L70.9038 43.6699Z" fill="#F5814B"/>
<path d="M50.2347 36.8742H59.7026L56.4158 42.7649L108.743 3.12634L50.2347 36.8742Z" fill="#F5814B"/>
<path d="M121.023 43.8015L118.963 45.3153L120.353 55.8955L112.7 45.2989L113.239 49.9061L122.397 60.8482L121.023 43.8015Z" fill="#F5814B"/>
<path d="M127.384 39.6714L121.023 43.8015L126.828 42.1889L127.466 45.0684L135.707 38.1576L137.065 35.9363L127.384 39.6714Z" fill="#F5814B"/>
<path d="M66.1944 47.0759L65.6548 47.405L63.4472 48.7049L48.0926 57.7713L46.9316 59.861L45.231 62.905L72.261 47.2734L66.1944 47.0759Z" fill="#EF4135"/>
<path d="M141.529 28.6635L144.227 24.2537L139.877 20.2224L147.105 13.9204L132.927 21.1603L141.529 28.6635Z" fill="#F47835"/>
<path d="M110.868 1.90872L110.443 2.15554L108.743 3.12635L56.4158 42.7649L52.8511 49.1985L70.5768 43.5218L110.574 2.27072L110.901 1.94163L111.032 1.81L110.868 1.90872Z" fill="#F79A79"/>
<path d="M114.58 0.312633L114.172 0L113.763 0.230361L111.032 1.80998L110.901 1.94161L128.774 17.672L135.249 15.8455L114.58 0.312633Z" fill="#EF4135"/>
<path d="M128.774 17.6719L110.901 1.94159L110.574 2.27068L127.58 18.0175L128.774 17.6719Z" fill="#EF4135"/>
<path d="M139.975 14.3811L131.538 21.7362L131.636 21.8185L147.105 13.9204L150.228 11.189L139.975 14.3811Z" fill="#EF4135"/>
<path d="M132.927 21.1603L131.636 21.8185L135.904 25.7675L127.58 39.3588L127.384 39.6714L128.316 39.3094L137.065 35.9363L140.613 30.1444H140.629L141.529 28.6635L132.927 21.1603Z" fill="#EF4135"/>
</g>
<defs>
<clipPath id="clip0_114_2750">
<rect width="149.458" height="93" fill="white" transform="translate(0.769531)"/>
</clipPath>
</defs>
</svg>
