<svg width="32" height="32" viewBox="0 0 32 32" fill="none" xmlns="http://www.w3.org/2000/svg">
<path d="M0 16C0 7.16344 7.16344 0 16 0C24.8366 0 32 7.16344 32 16C32 24.8366 24.8366 32 16 32C7.16344 32 0 24.8366 0 16Z" fill="white"/>
<path fill-rule="evenodd" clip-rule="evenodd" d="M16 0C7.16344 0 0 7.16344 0 16C0 24.8366 7.16344 32 16 32C24.8366 32 32 24.8366 32 16C32 7.16344 24.8366 0 16 0ZM17.6667 16.7021V25.407H14.0651V16.7025H12.2657V13.7027H14.0651V11.9017C14.0651 9.45451 15.0811 7.99932 17.9678 7.99932H20.3711V10.9994H18.8689C17.7451 10.9994 17.6708 11.4186 17.6708 12.201L17.6667 13.7024H20.3881L20.0696 16.7021H17.6667Z" fill="#1C376E"/>
</svg>
