<svg width="205" height="48" fill="none" xmlns="http://www.w3.org/2000/svg"><path d="M26.323.05 0 0l32.935 48 13.31-19.4L26.323.05Z" fill="#14509C"/><path d="M39.553.053 65.873 0 32.934 48 19.66 28.65 39.553.053Z" fill="#FF7300"/><path d="M199.007 17.224 187.3 0h-6.979v25.994h5.963V8.688l11.877 17.306h6.806V0h-5.96v17.224ZM121.924 8.936 115.981 0h-7.582l10.596 15.4v10.594h5.912V15.4L135.474 0h-7.582l-5.968 8.936ZM173.377 0h-5.963v25.994h5.963V0ZM97.36 0l-5.968 8.936L85.45 0h-7.444l.029.04v25.954h5.962V8.729l7.478 10.898L98.98 8.688v17.306h5.962V0H97.36ZM146.316 4.962h12.317l3.386-4.934V0h-21.666v25.994h5.963V15.136h11.191v-4.96h-11.191V4.963ZM97.225 47.732V35.08h7.421c1.38 0 2.478.327 3.29.981.816.654 1.222 1.652 1.222 2.994 0 .857-.203 1.587-.607 2.193-.403.606-1.004 1.052-1.8 1.336l2.853 5.15h-3.194l-2.675-4.811h-3.48v4.812h-3.03v-.003Zm6.961-10.05h-3.931v2.692h4.067c1.154 0 1.729-.44 1.729-1.32 0-.51-.152-.864-.454-1.068-.302-.203-.863-.304-1.411-.304ZM120.962 47.947c-1.927 0-3.53-.618-4.808-1.853-1.279-1.234-1.919-2.799-1.919-4.688 0-1.936.64-3.51 1.919-4.721 1.278-1.213 2.881-1.819 4.808-1.819 1.95 0 3.555.612 4.817 1.835 1.261 1.224 1.89 2.794 1.89 4.705 0 1.915-.643 3.482-1.927 4.705-1.284 1.224-2.878 1.836-4.78 1.836Zm0-2.71c1.095 0 1.969-.366 2.63-1.096.66-.73.99-1.644.99-2.735 0-1.105-.336-2.018-1.007-2.745-.672-.725-1.544-1.089-2.613-1.089-1.095 0-1.975.364-2.641 1.097-.666.73-.999 1.644-.999 2.735 0 1.105.338 2.02 1.016 2.745.68.728 1.552 1.088 2.624 1.088ZM139.555 45.237c.962 0 1.712-.296 2.249-.89.536-.596.804-1.38.804-2.352V35.08h2.997v7.11c0 1.807-.562 3.225-1.685 4.26-1.123 1.034-2.579 1.55-4.363 1.55-1.868 0-3.346-.516-4.441-1.55-1.095-1.035-1.642-2.453-1.642-4.26v-7.11h3.033v6.915c0 .987.265 1.773.793 2.363.525.586 1.278.88 2.255.88ZM151.711 47.732V35.08h7.404c1.403 0 2.512.336 3.327 1.007.816.67 1.222 1.696 1.222 3.075 0 1.367-.409 2.393-1.23 3.084-.821.688-1.927 1.035-3.319 1.035h-4.387v4.454h-3.017v-.003Zm7.119-10.016h-4.102v2.923h4.102c1.155 0 1.73-.488 1.73-1.46 0-.975-.578-1.463-1.73-1.463ZM85.543 40.267l-1.623 2.478h3.908v2.086c-.595.37-1.487.553-2.675.553-1.225 0-2.212-.358-2.96-1.077-.748-.719-1.123-1.703-1.123-2.949 0-1.08.319-1.998.954-2.754.635-.755 1.49-1.13 2.56-1.13.391 0 .736.036 1.035.107.392.118.697.24.917.363.22.124.46.319.722.578h3.195c-.082-.344-.257-.736-.517-1.175-.5-.854-1.239-1.489-2.22-1.898a8.065 8.065 0 0 0-3.13-.614c-1.916 0-3.49.603-4.727 1.81-1.235 1.206-1.853 2.777-1.853 4.713 0 2.033.654 3.645 1.96 4.838 1.31 1.195 3.014 1.79 5.12 1.79 1.035 0 2.068-.15 3.103-.446 1.036-.296 2.026-.933 2.551-1.979v-5.29h-5.197v-.004Z" fill="#14509C"/></svg>