<svg width="87" height="122" fill="none" xmlns="http://www.w3.org/2000/svg"><g clip-path="url(#a)"><g opacity=".3" fill="#99A7D8"><path opacity=".02" d="m56.742 99.965-7.106 4.174a.715.715 0 0 0 0 1.229l7.114 4.062a1.439 1.439 0 0 0 1.43 0l7.114-4.062a.708.708 0 0 0 .35-.614.715.715 0 0 0-.35-.615l-7.106-4.174a1.446 1.446 0 0 0-1.446 0Z"/><path opacity=".04" d="m56.747 99.988-7.071 4.154a.697.697 0 0 0-.35.612.697.697 0 0 0 .35.611l7.079 4.063a1.45 1.45 0 0 0 1.425 0l7.079-4.063a.697.697 0 0 0 .35-.611.697.697 0 0 0-.35-.612l-7.072-4.154a1.43 1.43 0 0 0-1.44 0Z"/><path opacity=".06" d="m56.75 100.011-7.036 4.133a.701.701 0 0 0-.346.61.712.712 0 0 0 .346.609l7.044 4.032a1.43 1.43 0 0 0 1.42 0l7.041-4.032a.695.695 0 0 0 .35-.609.712.712 0 0 0-.35-.61l-7.036-4.133a1.43 1.43 0 0 0-1.433 0Z"/><path opacity=".08" d="m56.752 100.033-6.989 4.113a.695.695 0 0 0-.347.606.702.702 0 0 0 .347.605l7.01 4.014a1.41 1.41 0 0 0 1.41 0l7.008-4.014a.702.702 0 0 0 0-1.211l-6.989-4.113a1.423 1.423 0 0 0-1.45 0Z"/><path opacity=".1" d="m56.757 100.056-6.97 4.092a.698.698 0 0 0 0 1.206l6.975 3.994a1.411 1.411 0 0 0 1.405 0l6.974-3.994a.702.702 0 0 0 0-1.206l-6.967-4.092a1.414 1.414 0 0 0-1.417 0Z"/><path opacity=".12" d="m56.76 100.082-6.931 4.062a.686.686 0 0 0-.344.601.7.7 0 0 0 .344.6l6.941 3.973a1.393 1.393 0 0 0 1.396 0l6.941-3.973a.686.686 0 0 0 .344-.6.7.7 0 0 0-.344-.601l-6.931-4.062a1.405 1.405 0 0 0-1.416 0Z"/><path opacity=".14" d="m56.765 100.104-6.899 4.049a.681.681 0 0 0-.342.598.696.696 0 0 0 .342.598l6.904 3.953a1.404 1.404 0 0 0 1.39 0l6.905-3.953a.681.681 0 0 0 .341-.598.7.7 0 0 0-.341-.598l-6.9-4.049a1.387 1.387 0 0 0-1.4 0Z"/><path opacity=".16" d="m56.767 100.127-6.864 4.029a.69.69 0 0 0 0 1.189l6.87 3.935a1.393 1.393 0 0 0 1.385 0l6.869-3.935a.681.681 0 0 0 .337-.594.689.689 0 0 0-.338-.595l-6.863-4.029a1.393 1.393 0 0 0-1.396 0Z"/><path opacity=".18" d="m56.772 100.155-6.83 4.009a.68.68 0 0 0-.337.592.689.689 0 0 0 .338.591l6.837 3.915a1.386 1.386 0 0 0 1.375 0l6.837-3.915a.689.689 0 0 0 0-1.183l-6.82-4.009a1.372 1.372 0 0 0-1.4 0Z"/><path opacity=".2" d="m56.774 100.174-6.794 3.988a.676.676 0 0 0-.336.59.685.685 0 0 0 .336.589l6.802 3.894a1.376 1.376 0 0 0 1.37 0l6.802-3.894a.675.675 0 0 0 .337-.589.686.686 0 0 0-.337-.59l-6.794-3.988a1.374 1.374 0 0 0-1.386 0Z"/><path opacity=".22" d="m56.777 100.196-6.76 3.971a.67.67 0 0 0-.332.584.68.68 0 0 0 .332.584l6.767 3.877a1.377 1.377 0 0 0 1.36 0l6.767-3.877a.68.68 0 0 0 0-1.168l-6.759-3.971a1.375 1.375 0 0 0-1.375 0Z"/><path opacity=".24" d="m56.783 100.219-6.712 3.951a.66.66 0 0 0-.333.581.66.66 0 0 0 .334.581l6.739 3.857a1.379 1.379 0 0 0 1.355 0l6.74-3.857a.678.678 0 0 0 0-1.162l-6.725-3.951a1.359 1.359 0 0 0-1.398 0Z"/><path opacity=".25" d="m56.785 100.242-6.69 3.931a.677.677 0 0 0 0 1.157l6.698 3.834a1.359 1.359 0 0 0 1.35 0l6.697-3.834a.662.662 0 0 0 .33-.579.677.677 0 0 0-.33-.578l-6.69-3.931a1.366 1.366 0 0 0-1.365 0Z"/><path opacity=".27" d="m56.79 100.264-6.656 3.91a.66.66 0 0 0-.33.576.66.66 0 0 0 .33.577l6.662 3.808a1.35 1.35 0 0 0 1.34 0l6.662-3.808a.66.66 0 0 0 .33-.577.67.67 0 0 0-.33-.576l-6.657-3.91a1.348 1.348 0 0 0-1.35 0Z"/><path opacity=".29" d="m56.793 100.288-6.622 3.889a.654.654 0 0 0-.328.573.664.664 0 0 0 .328.572l6.627 3.808a1.33 1.33 0 0 0 1.336 0l6.627-3.808a.664.664 0 0 0 0-1.145l-6.622-3.889a1.35 1.35 0 0 0-1.346 0Z"/><path opacity=".31" d="m56.795 100.311-6.584 3.869a.65.65 0 0 0-.327.57.663.663 0 0 0 .327.57l6.594 3.775a1.331 1.331 0 0 0 1.325 0l6.595-3.775a.65.65 0 0 0 .327-.57.663.663 0 0 0-.327-.57l-6.587-3.869a1.344 1.344 0 0 0-1.343 0Z"/><path opacity=".33" d="m56.81 100.332-6.552 3.849a.653.653 0 0 0-.324.568.661.661 0 0 0 .324.567l6.56 3.755a1.333 1.333 0 0 0 1.32 0l6.56-3.755a.66.66 0 0 0 0-1.135l-6.552-3.849a1.33 1.33 0 0 0-1.336 0Z"/><path opacity=".35" d="m56.81 100.358-6.517 3.827a.643.643 0 0 0-.32.563.661.661 0 0 0 .32.564l6.518 3.729a1.323 1.323 0 0 0 1.315 0l6.522-3.737a.644.644 0 0 0 .321-.563.657.657 0 0 0-.32-.564l-6.518-3.826a1.314 1.314 0 0 0-1.32.007Z"/><path opacity=".37" d="m56.81 100.381-6.489 3.808a.641.641 0 0 0-.322.561.641.641 0 0 0 .322.561l6.49 3.717a1.314 1.314 0 0 0 1.305 0l6.49-3.717a.641.641 0 0 0 .321-.561.641.641 0 0 0-.322-.561l-6.489-3.808a1.305 1.305 0 0 0-1.305 0Z"/><path opacity=".39" d="m56.81 100.41-6.446 3.785a.635.635 0 0 0-.32.559.651.651 0 0 0 .32.558l6.454 3.697a1.315 1.315 0 0 0 1.3 0l6.456-3.697a.635.635 0 0 0 .32-.558.652.652 0 0 0-.32-.559l-6.438-3.785a1.302 1.302 0 0 0-1.325 0Z"/><path opacity=".41" d="m56.81 100.426-6.415 3.766a.65.65 0 0 0 0 1.112l6.42 3.676a1.306 1.306 0 0 0 1.29 0l6.42-3.676a.644.644 0 0 0 0-1.112l-6.414-3.766a1.304 1.304 0 0 0-1.3 0Z"/><path opacity=".43" d="m56.81 100.449-6.379 3.745a.646.646 0 0 0 0 1.104l6.385 3.658a1.287 1.287 0 0 0 1.285 0l6.385-3.658a.642.642 0 0 0 0-1.104l-6.377-3.745a1.29 1.29 0 0 0-1.298 0Z"/><path opacity=".45" d="m56.81 100.473-6.343 3.725a.629.629 0 0 0-.315.549.639.639 0 0 0 .315.55l6.35 3.636a1.287 1.287 0 0 0 1.28 0l6.35-3.636a.638.638 0 0 0 0-1.099l-6.342-3.725a1.295 1.295 0 0 0-1.296 0Z"/><path opacity=".47" d="m56.825 100.494-6.31 3.705a.623.623 0 0 0-.313.547.637.637 0 0 0 .313.547l6.317 3.615a1.279 1.279 0 0 0 1.27 0l6.318-3.615a.637.637 0 0 0 0-1.092l-6.31-3.707a1.276 1.276 0 0 0-1.285 0Z"/><path opacity=".49" d="m56.828 100.518-6.275 3.699a.617.617 0 0 0-.311.542.631.631 0 0 0 .311.542l6.28 3.598a1.269 1.269 0 0 0 1.266 0l6.28-3.598a.618.618 0 0 0 .311-.542.631.631 0 0 0-.311-.542l-6.275-3.686a1.275 1.275 0 0 0-1.276-.013Z"/><path opacity=".51" d="m56.832 100.541-6.24 3.666a.614.614 0 0 0-.31.54.63.63 0 0 0 .31.539l6.24 3.577a1.257 1.257 0 0 0 1.248 0l6.24-3.577a.613.613 0 0 0 .31-.539.63.63 0 0 0-.31-.54l-6.24-3.666a1.267 1.267 0 0 0-1.248 0Z"/><path opacity=".53" d="m56.836 100.564-6.206 3.654a.626.626 0 0 0 0 1.074l6.213 3.554a1.246 1.246 0 0 0 1.248 0l6.213-3.554a.622.622 0 0 0 .223-.847.607.607 0 0 0-.223-.227l-6.205-3.646a1.266 1.266 0 0 0-1.263-.008Z"/><path opacity=".55" d="m56.84 100.587-6.173 3.631a.622.622 0 0 0 0 1.068l6.175 3.537a1.256 1.256 0 0 0 1.248 0l6.175-3.537a.62.62 0 0 0 0-1.068l-6.172-3.626a1.254 1.254 0 0 0-1.253-.005Z"/><path opacity=".57" d="m56.843 100.613-6.135 3.605a.605.605 0 0 0-.305.531.605.605 0 0 0 .305.53l6.143 3.519a1.246 1.246 0 0 0 1.248 0l6.143-3.519a.605.605 0 0 0 .304-.53.605.605 0 0 0-.305-.531l-6.135-3.603a1.236 1.236 0 0 0-1.263-.002Z"/><path opacity=".59" d="m56.846 100.634-6.1 3.583a.615.615 0 0 0 0 1.056l6.107 3.498a1.233 1.233 0 0 0 1.23 0l6.108-3.498a.602.602 0 0 0 .303-.528.615.615 0 0 0-.303-.528l-6.1-3.583a1.231 1.231 0 0 0-1.245 0Z"/><path opacity=".61" d="m56.85 100.663-6.068 3.554a.6.6 0 0 0-.299.525.615.615 0 0 0 .299.526l6.075 3.478a1.224 1.224 0 0 0 1.22 0l6.076-3.478a.602.602 0 0 0 .298-.526.615.615 0 0 0-.298-.525l-6.068-3.554a1.223 1.223 0 0 0-1.235 0Z"/><path opacity=".63" d="m56.852 100.68-6.033 3.536a.598.598 0 0 0-.297.522.602.602 0 0 0 .297.522l6.038 3.46a1.225 1.225 0 0 0 1.216 0l6.038-3.46a.602.602 0 0 0 .297-.522.605.605 0 0 0-.297-.522l-6.033-3.541a1.224 1.224 0 0 0-1.226.005Z"/><path opacity=".65" d="m56.857 100.703-5.99 3.521a.604.604 0 0 0 0 1.038l5.99 3.438a1.215 1.215 0 0 0 1.21 0l6.004-3.438a.59.59 0 0 0 .297-.519.604.604 0 0 0-.297-.519l-5.991-3.521a1.21 1.21 0 0 0-1.223 0Z"/><path opacity=".67" d="m56.86 100.726-5.963 3.491a.59.59 0 0 0-.296.517.603.603 0 0 0 .296.517l5.97 3.417a1.207 1.207 0 0 0 1.201 0l5.97-3.417a.59.59 0 0 0 .296-.517.603.603 0 0 0-.296-.517l-5.962-3.501a1.207 1.207 0 0 0-1.216.01Z"/><path opacity=".69" d="m56.865 100.75-5.93 3.481a.597.597 0 0 0 0 1.015l5.935 3.397a1.198 1.198 0 0 0 1.195 0L64 105.246a.597.597 0 0 0 0-1.015l-5.931-3.481a1.201 1.201 0 0 0-1.203 0Z"/><path opacity=".71" d="m56.868 100.772-5.893 3.461a.577.577 0 0 0-.288.507.577.577 0 0 0 .288.508l5.9 3.379a1.19 1.19 0 0 0 1.186 0l5.9-3.379a.577.577 0 0 0 .211-.214.6.6 0 0 0 0-.587.577.577 0 0 0-.21-.214l-5.894-3.461a1.197 1.197 0 0 0-.6-.163c-.21 0-.418.057-.6.163Z"/><path opacity=".73" d="m56.871 100.796-5.858 3.442a.58.58 0 0 0-.29.508.593.593 0 0 0 .29.508l5.866 3.359a1.179 1.179 0 0 0 1.18 0l5.866-3.359a.58.58 0 0 0 .29-.508.58.58 0 0 0-.29-.508l-5.858-3.442a1.188 1.188 0 0 0-1.196 0Z"/><path opacity=".75" d="m56.875 100.817-5.826 3.422a.577.577 0 0 0-.293.508.591.591 0 0 0 .293.508l5.83 3.339a1.19 1.19 0 0 0 1.177 0l5.83-3.339a.574.574 0 0 0 .294-.508.588.588 0 0 0-.294-.508l-5.826-3.422a1.19 1.19 0 0 0-1.185 0Z"/><path opacity=".76" d="m56.877 100.841-5.79 3.402a.58.58 0 0 0 0 1.015l5.795 3.318a1.162 1.162 0 0 0 1.166 0l5.795-3.318a.582.582 0 0 0 0-1.015l-5.785-3.402a1.17 1.17 0 0 0-1.181 0Z"/><path opacity=".78" d="m56.883 100.864-5.756 3.382a.563.563 0 0 0-.286.497.578.578 0 0 0 .286.498l5.761 3.3a1.173 1.173 0 0 0 1.16 0l5.762-3.3a.578.578 0 0 0 0-.995l-5.751-3.382a1.17 1.17 0 0 0-1.176 0Z"/><path opacity=".8" d="m56.884 100.89-5.72 3.359a.564.564 0 0 0-.282.495.58.58 0 0 0 .281.495l5.729 3.28a1.163 1.163 0 0 0 1.15 0l5.741-3.28a.572.572 0 0 0 .206-.781.565.565 0 0 0-.206-.209l-5.726-3.359a1.146 1.146 0 0 0-1.173 0Z"/><path opacity=".82" d="m56.89 100.917-5.689 3.338a.568.568 0 0 0-.28.493.573.573 0 0 0 .28.492l5.694 3.26a1.155 1.155 0 0 0 1.145 0l5.691-3.26a.573.573 0 0 0 0-.985l-5.673-3.338a1.137 1.137 0 0 0-1.169 0Z"/><path opacity=".84" d="m56.892 100.935-5.65 3.318a.557.557 0 0 0-.282.489.57.57 0 0 0 .281.489l5.656 3.239a1.145 1.145 0 0 0 1.14 0l5.662-3.237a.562.562 0 0 0 .205-.771.557.557 0 0 0-.205-.206l-5.641-3.321a1.142 1.142 0 0 0-1.166 0Z"/><path opacity=".86" d="m56.895 100.958-5.617 3.3a.56.56 0 0 0-.204.768.56.56 0 0 0 .204.205l5.624 3.219a1.125 1.125 0 0 0 1.13 0l5.624-3.219a.56.56 0 0 0 .204-.768.56.56 0 0 0-.204-.205l-5.616-3.3a1.134 1.134 0 0 0-1.145 0Z"/><path opacity=".88" d="m56.9 100.98-5.581 3.278a.56.56 0 0 0 0 .967l5.589 3.199a1.126 1.126 0 0 0 1.125 0l5.589-3.199a.562.562 0 0 0 0-.967l-5.564-3.278a1.128 1.128 0 0 0-1.158 0Z"/><path opacity=".9" d="m56.903 101.003-5.546 3.257a.558.558 0 0 0 0 .963l5.553 3.178a1.118 1.118 0 0 0 1.116 0l5.554-3.178a.558.558 0 0 0 0-.963l-5.546-3.257a1.125 1.125 0 0 0-1.131 0Z"/><path opacity=".92" d="m56.907 101.026-5.514 3.237a.551.551 0 0 0-.27.478.559.559 0 0 0 .27.477l5.519 3.161a1.117 1.117 0 0 0 1.11 0l5.52-3.161a.559.559 0 0 0 0-.955l-5.514-3.237a1.116 1.116 0 0 0-1.121 0Z"/><path opacity=".94" d="m56.91 101.048-5.492 3.217a.546.546 0 0 0-.27.475.555.555 0 0 0 .27.475l5.492 3.14a1.12 1.12 0 0 0 1.105 0l5.492-3.14a.546.546 0 0 0 .269-.475.555.555 0 0 0-.27-.475l-5.478-3.217a1.122 1.122 0 0 0-1.118 0Z"/><path opacity=".96" d="m56.912 101.073-5.444 3.196a.542.542 0 0 0-.267.472.539.539 0 0 0 .268.472l5.45 3.121a1.099 1.099 0 0 0 1.096 0l5.45-3.121a.55.55 0 0 0 0-.944l-5.447-3.196a1.099 1.099 0 0 0-1.106 0Z"/><path opacity=".98" d="m56.918 101.095-5.41 3.179a.527.527 0 0 0-.268.467.54.54 0 0 0 .269.467l5.414 3.102a1.1 1.1 0 0 0 1.09 0l5.414-3.102a.536.536 0 0 0 .27-.467.544.544 0 0 0-.27-.467l-5.409-3.179a1.1 1.1 0 0 0-1.1 0Z"/><path opacity=".3" d="m56.92 101.118-5.375 3.158a.54.54 0 0 0 0 .93l5.38 3.082c.165.093.351.143.54.143.19 0 .377-.05.543-.143l5.381-3.082a.535.535 0 0 0 .264-.465.54.54 0 0 0-.264-.465l-5.374-3.158a1.1 1.1 0 0 0-1.096 0Z"/></g><path d="m56.844 100.509-6.4 2.948v1.079a.714.714 0 0 0 .35.614l6.063 3.509a1.233 1.233 0 0 0 1.23 0l6.046-3.466a.713.713 0 0 0 .352-.614v-.995l-6.385-3.065a1.238 1.238 0 0 0-1.256-.01Z" fill="url(#b)"/><path d="m56.846 99.33-6.103 3.582a.613.613 0 0 0 0 1.056l6.108 3.499a1.233 1.233 0 0 0 1.23 0l6.108-3.499a.616.616 0 0 0 0-1.056l-6.103-3.582a1.232 1.232 0 0 0-1.24 0Z" fill="#EFF4FE"/><g opacity=".3" fill="#99A7D8"><path opacity=".02" d="m46.996 105.741-7.106 4.174a.704.704 0 0 0-.352.615.716.716 0 0 0 .352.614l7.111 4.075a1.443 1.443 0 0 0 1.433 0l7.114-4.075a.713.713 0 0 0 0-1.229l-7.092-4.174a1.445 1.445 0 0 0-1.46 0Z"/><path opacity=".04" d="m46.998 105.767-7.071 4.153a.713.713 0 0 0 0 1.224l7.078 4.062a1.44 1.44 0 0 0 1.426 0l7.079-4.062a.713.713 0 0 0 0-1.224l-7.072-4.153a1.428 1.428 0 0 0-1.44 0Z"/><path opacity=".06" d="m47.003 105.788-7.037 4.133a.702.702 0 0 0-.348.61.708.708 0 0 0 .348.609l7.044 4.032a1.414 1.414 0 0 0 1.418 0l7.044-4.032a.695.695 0 0 0 .349-.609.712.712 0 0 0-.35-.61l-7.035-4.133a1.433 1.433 0 0 0-1.433 0Z"/><path opacity=".08" d="m47.006 105.811-6.99 4.113a.702.702 0 0 0 0 1.211l7.01 4.014a1.421 1.421 0 0 0 1.41 0l7.009-4.014a.695.695 0 0 0 .347-.606.702.702 0 0 0-.347-.605l-7.004-4.113a1.419 1.419 0 0 0-1.435 0Z"/><path opacity=".1" d="m47.01 105.835-6.969 4.093a.701.701 0 0 0 0 1.206l6.974 3.993a1.402 1.402 0 0 0 1.405 0l6.974-3.993a.698.698 0 0 0 0-1.206l-6.966-4.093a1.415 1.415 0 0 0-1.418 0Z"/><path opacity=".12" d="m47.014 105.859-6.932 4.062a.698.698 0 0 0 0 1.201l6.94 3.973a1.408 1.408 0 0 0 1.397 0l6.94-3.973a.693.693 0 0 0 .25-.948.678.678 0 0 0-.25-.253l-6.932-4.062a1.406 1.406 0 0 0-1.413 0Z"/><path opacity=".14" d="m47.016 105.882-6.896 4.062a.681.681 0 0 0-.342.598.697.697 0 0 0 .342.598l6.906 3.953a1.404 1.404 0 0 0 1.39 0l6.905-3.953a.682.682 0 0 0 .341-.598.682.682 0 0 0-.342-.598l-6.898-4.062a1.392 1.392 0 0 0-1.406 0Z"/><path opacity=".16" d="m47.021 105.905-6.864 4.029a.69.69 0 0 0 0 1.189l6.87 3.935a1.389 1.389 0 0 0 1.382 0l6.872-3.935a.69.69 0 0 0 0-1.189l-6.862-4.029a1.397 1.397 0 0 0-1.398 0Z"/><path opacity=".18" d="m47.023 105.927-6.83 4.009a.677.677 0 0 0-.335.591.694.694 0 0 0 .336.592l6.837 3.915a1.385 1.385 0 0 0 1.375 0l6.837-3.915a.678.678 0 0 0 .338-.592.69.69 0 0 0-.339-.591l-6.829-4.009a1.374 1.374 0 0 0-1.39 0Z"/><path opacity=".2" d="m47.028 105.951-6.794 3.988a.673.673 0 0 0-.337.589.673.673 0 0 0 .337.589l6.801 3.895a1.376 1.376 0 0 0 1.37 0l6.8-3.895a.673.673 0 0 0 .337-.589.688.688 0 0 0-.337-.589l-6.794-3.988a1.37 1.37 0 0 0-1.383 0Z"/><path opacity=".22" d="m47.03 105.973-6.76 3.971a.672.672 0 0 0-.332.584.68.68 0 0 0 .333.584l6.764 3.877a1.382 1.382 0 0 0 1.363 0l6.767-3.877a.68.68 0 0 0 0-1.168l-6.762-3.971a1.37 1.37 0 0 0-1.373 0Z"/><path opacity=".24" d="m47.037 105.993-6.727 3.951a.678.678 0 0 0 0 1.162l6.74 3.857a1.379 1.379 0 0 0 1.355 0l6.74-3.857a.68.68 0 0 0 0-1.162l-6.728-3.951a1.364 1.364 0 0 0-1.38 0Z"/><path opacity=".25" d="m47.039 106.02-6.69 3.93a.661.661 0 0 0-.329.579.677.677 0 0 0 .33.579l6.696 3.833a1.343 1.343 0 0 0 1.348 0l6.7-3.833a.665.665 0 0 0 .329-.579.662.662 0 0 0-.33-.579l-6.689-3.93a1.357 1.357 0 0 0-1.365 0Z"/><path opacity=".27" d="m47.041 106.042-6.654 3.91a.668.668 0 0 0-.24.909c.057.102.14.186.24.244l6.664 3.808a1.35 1.35 0 0 0 1.34 0l6.662-3.808a.66.66 0 0 0 .33-.576.673.673 0 0 0-.33-.577l-6.657-3.91a1.348 1.348 0 0 0-1.355 0Z"/><path opacity=".29" d="m47.047 106.066-6.622 3.889a.661.661 0 0 0 0 1.145l6.627 3.796a1.34 1.34 0 0 0 1.335 0l6.627-3.796a.663.663 0 0 0 0-1.145l-6.62-3.889a1.344 1.344 0 0 0-1.347 0Z"/><path opacity=".31" d="m47.048 106.088-6.584 3.869a.65.65 0 0 0-.327.57.663.663 0 0 0 .327.57l6.592 3.776a1.337 1.337 0 0 0 1.328 0l6.594-3.776a.649.649 0 0 0 .327-.57.666.666 0 0 0-.327-.57l-6.587-3.869a1.344 1.344 0 0 0-1.343 0Z"/><path opacity=".33" d="m47.053 106.113-6.552 3.846a.661.661 0 0 0 0 1.135l6.56 3.755a1.322 1.322 0 0 0 1.32 0l6.557-3.755a.652.652 0 0 0 .325-.568.661.661 0 0 0-.325-.567l-6.552-3.846a1.316 1.316 0 0 0-1.333 0Z"/><path opacity=".35" d="m47.055 106.135-6.517 3.826a.644.644 0 0 0-.32.564.66.66 0 0 0 .32.564l6.522 3.737a1.318 1.318 0 0 0 1.313 0l6.525-3.737a.644.644 0 0 0 .32-.564.661.661 0 0 0-.32-.564l-6.52-3.826a1.316 1.316 0 0 0-1.323 0Z"/><path opacity=".37" d="m47.062 106.16-6.49 3.808a.647.647 0 0 0-.32.561.654.654 0 0 0 .32.561l6.49 3.717a1.315 1.315 0 0 0 1.305 0l6.49-3.717a.634.634 0 0 0 .235-.236.656.656 0 0 0 0-.649.636.636 0 0 0-.235-.237l-6.49-3.808a1.304 1.304 0 0 0-1.305 0Z"/><path opacity=".39" d="m47.077 106.182-6.447 3.785a.639.639 0 0 0-.32.559.648.648 0 0 0 .32.559l6.454 3.696a1.305 1.305 0 0 0 1.3 0l6.456-3.696a.643.643 0 0 0 .317-.559.652.652 0 0 0-.317-.559l-6.448-3.785a1.302 1.302 0 0 0-1.315 0Z"/><path opacity=".41" d="m47.076 106.205-6.413 3.765a.624.624 0 0 0-.232.234.65.65 0 0 0 0 .643.634.634 0 0 0 .233.235l6.42 3.676a1.31 1.31 0 0 0 1.292 0l6.42-3.676a.646.646 0 0 0 0-1.112l-6.415-3.765a1.305 1.305 0 0 0-1.305 0Z"/><path opacity=".43" d="m47.076 106.228-6.38 3.745a.642.642 0 0 0 0 1.104l6.385 3.659a1.296 1.296 0 0 0 1.285 0l6.385-3.659a.625.625 0 0 0 .232-.232.645.645 0 0 0 0-.639.627.627 0 0 0-.232-.233l-6.377-3.745a1.29 1.29 0 0 0-1.298 0Z"/><path opacity=".45" d="m47.075 106.249-6.342 3.724a.639.639 0 0 0 0 1.1l6.35 3.635a1.273 1.273 0 0 0 1.278 0l6.352-3.635a.637.637 0 0 0 0-1.1l-6.337-3.724a1.285 1.285 0 0 0-1.3 0Z"/><path opacity=".47" d="m47.076 106.273-6.31 3.707a.62.62 0 0 0-.227.23.64.64 0 0 0 0 .631.62.62 0 0 0 .227.23l6.318 3.616a1.278 1.278 0 0 0 1.27 0l6.315-3.616a.63.63 0 0 0 .229-.861.616.616 0 0 0-.229-.23l-6.31-3.707a1.272 1.272 0 0 0-1.283 0Z"/><path opacity=".49" d="m47.076 106.296-6.275 3.686a.617.617 0 0 0-.311.542.63.63 0 0 0 .311.542l6.28 3.598a1.268 1.268 0 0 0 1.266 0l6.292-3.593a.617.617 0 0 0 .312-.542.631.631 0 0 0-.312-.542l-6.272-3.686a1.276 1.276 0 0 0-1.29-.005Z"/><path opacity=".51" d="m47.077 106.318-6.24 3.666a.616.616 0 0 0-.31.54.624.624 0 0 0 .31.539l6.24 3.578a1.266 1.266 0 0 0 1.248 0l6.24-3.578a.617.617 0 0 0 .307-.539.63.63 0 0 0-.307-.54l-6.24-3.666a1.277 1.277 0 0 0-1.248 0Z"/><path opacity=".53" d="m47.088 106.342-6.205 3.645a.622.622 0 0 0 0 1.074l6.213 3.555a1.257 1.257 0 0 0 1.248 0l6.212-3.555a.612.612 0 0 0 .306-.537.622.622 0 0 0-.305-.537l-6.206-3.645a1.254 1.254 0 0 0-1.263 0Z"/><path opacity=".55" d="m47.092 106.364-6.17 3.626a.621.621 0 0 0 0 1.069l6.177 3.536a1.246 1.246 0 0 0 1.248 0l6.178-3.536a.618.618 0 0 0 0-1.069l-6.173-3.626a1.27 1.27 0 0 0-.63-.169c-.221 0-.438.059-.63.169Z"/><path opacity=".57" d="m47.096 106.391-6.137 3.602a.61.61 0 0 0-.302.531.623.623 0 0 0 .302.531l6.142 3.519a1.253 1.253 0 0 0 1.236 0l6.143-3.519a.607.607 0 0 0 .305-.531.615.615 0 0 0-.305-.531l-6.135-3.602a1.226 1.226 0 0 0-1.248 0Z"/><path opacity=".59" d="m47.099 106.413-6.1 3.582a.603.603 0 0 0-.303.528.615.615 0 0 0 .303.528l6.107 3.499a1.233 1.233 0 0 0 1.231 0l6.108-3.499a.619.619 0 0 0 0-1.056l-6.103-3.582a1.227 1.227 0 0 0-1.243 0Z"/><path opacity=".61" d="m47.104 106.435-6.068 3.555a.61.61 0 0 0 0 1.051l6.073 3.478a1.23 1.23 0 0 0 1.223 0l6.073-3.478a.609.609 0 0 0 .218-.829.594.594 0 0 0-.218-.222l-6.068-3.555a1.237 1.237 0 0 0-1.233 0Z"/><path opacity=".63" d="m47.106 106.459-6.032 3.555a.61.61 0 0 0 0 1.046l6.037 3.458a1.235 1.235 0 0 0 1.216 0l6.038-3.458a.6.6 0 0 0 .299-.523.61.61 0 0 0-.299-.523l-6.03-3.555a1.239 1.239 0 0 0-1.229 0Z"/><path opacity=".65" d="m47.11 106.482-5.99 3.521a.594.594 0 0 0-.298.519.604.604 0 0 0 .298.52l5.99 3.437a1.21 1.21 0 0 0 1.209 0l6.005-3.437a.594.594 0 0 0 .298-.52.604.604 0 0 0-.298-.519l-5.99-3.521a1.21 1.21 0 0 0-1.224 0Z"/><path opacity=".67" d="m47.113 106.501-5.963 3.502a.58.58 0 0 0-.216.217.603.603 0 0 0 .216.816l5.97 3.417a1.207 1.207 0 0 0 1.201 0l5.971-3.417a.59.59 0 0 0 .296-.517.603.603 0 0 0-.08-.299.58.58 0 0 0-.216-.217l-5.953-3.502a1.213 1.213 0 0 0-1.226 0Z"/><path opacity=".69" d="m47.116 106.528-5.928 3.481a.582.582 0 0 0-.294.514.599.599 0 0 0 .294.514l5.935 3.397a1.198 1.198 0 0 0 1.196 0l5.933-3.397a.599.599 0 0 0 0-1.028l-5.928-3.481a1.202 1.202 0 0 0-1.208 0Z"/><path opacity=".71" d="m47.122 106.55-5.896 3.461a.596.596 0 0 0 0 1.015l5.898 3.379a1.194 1.194 0 0 0 1.188 0l5.901-3.379a.584.584 0 0 0 .286-.508.597.597 0 0 0-.286-.507l-5.888-3.461a1.19 1.19 0 0 0-1.203 0Z"/><path opacity=".73" d="m47.123 106.573-5.858 3.443a.574.574 0 0 0-.293.508.588.588 0 0 0 .293.508l5.866 3.358a1.18 1.18 0 0 0 1.18 0l5.866-3.358a.58.58 0 0 0 .29-.508.592.592 0 0 0-.29-.508l-5.853-3.443a1.187 1.187 0 0 0-1.2 0Z"/><path opacity=".75" d="m47.128 106.595-5.825 3.423a.574.574 0 0 0-.294.508.588.588 0 0 0 .294.507l5.83 3.339a1.186 1.186 0 0 0 1.173 0l5.831-3.339a.575.575 0 0 0 .296-.507.575.575 0 0 0-.296-.508l-5.813-3.423a1.187 1.187 0 0 0-1.196 0Z"/><path opacity=".76" d="m47.13 106.618-5.79 3.402a.577.577 0 0 0-.285.501.587.587 0 0 0 .285.502l5.798 3.318a1.17 1.17 0 0 0 1.166 0l5.796-3.318a.57.57 0 0 0 .287-.502.583.583 0 0 0-.287-.501l-5.789-3.402a1.18 1.18 0 0 0-1.18 0Z"/><path opacity=".78" d="m47.136 106.641-5.755 3.382a.562.562 0 0 0-.286.497.578.578 0 0 0 .286.498l5.76 3.3a1.163 1.163 0 0 0 1.161 0l5.761-3.3a.578.578 0 0 0 0-.995l-5.738-3.382a1.173 1.173 0 0 0-1.189 0Z"/><path opacity=".8" d="m47.139 106.667-5.721 3.359a.577.577 0 0 0 0 .99l5.726 3.28a1.168 1.168 0 0 0 1.153 0l5.728-3.28a.565.565 0 0 0 .282-.495.578.578 0 0 0-.282-.495l-5.7-3.359a1.15 1.15 0 0 0-1.186 0Z"/><path opacity=".82" d="m47.14 106.69-5.686 3.339a.568.568 0 0 0-.28.492.58.58 0 0 0 .28.493l5.694 3.26a1.154 1.154 0 0 0 1.146 0l5.69-3.26a.57.57 0 0 0 0-.985L48.3 106.69a1.147 1.147 0 0 0-1.159 0Z"/><path opacity=".84" d="m47.146 106.712-5.651 3.318a.557.557 0 0 0-.281.489.57.57 0 0 0 .28.489l5.657 3.239a1.14 1.14 0 0 0 1.138 0l5.658-3.239a.557.557 0 0 0 .281-.489.567.567 0 0 0-.28-.489l-5.652-3.318a1.143 1.143 0 0 0-1.15 0Z"/><path opacity=".86" d="m47.148 106.735-5.616 3.301a.55.55 0 0 0-.28.486.563.563 0 0 0 .28.486l5.623 3.219a1.126 1.126 0 0 0 1.131 0l5.624-3.219a.553.553 0 0 0 .279-.486.55.55 0 0 0-.279-.486l-5.619-3.301a1.13 1.13 0 0 0-1.143 0Z"/><path opacity=".88" d="m47.153 106.756-5.584 3.277a.555.555 0 0 0-.277.484.564.564 0 0 0 .277.484l5.589 3.199a1.136 1.136 0 0 0 1.125 0l5.587-3.199a.555.555 0 0 0 .277-.484.564.564 0 0 0-.277-.484l-5.572-3.277a1.123 1.123 0 0 0-1.145 0Z"/><path opacity=".9" d="m47.155 106.78-5.549 3.258a.547.547 0 0 0-.275.481.56.56 0 0 0 .275.481l5.554 3.178a1.122 1.122 0 0 0 1.118 0L53.832 111a.56.56 0 0 0 0-.962l-5.546-3.258a1.125 1.125 0 0 0-1.131 0Z"/><path opacity=".92" d="m47.158 106.804-5.511 3.237a.553.553 0 0 0 0 .954l5.518 3.161a1.108 1.108 0 0 0 1.111 0l5.519-3.161a.56.56 0 0 0 0-.954l-5.514-3.237a1.122 1.122 0 0 0-1.123 0Z"/><path opacity=".94" d="m47.163 106.827-5.479 3.23a.552.552 0 0 0 0 .949l5.492 3.141a1.118 1.118 0 0 0 1.105 0l5.492-3.141a.544.544 0 0 0 .269-.474.552.552 0 0 0-.27-.475l-5.49-3.217a1.12 1.12 0 0 0-1.119-.013Z"/><path opacity=".96" d="m47.166 106.85-5.444 3.206a.54.54 0 0 0-.268.472.554.554 0 0 0 .268.473l5.451 3.12a1.1 1.1 0 0 0 1.096 0l5.449-3.12a.545.545 0 0 0 .27-.473.55.55 0 0 0-.27-.472l-5.444-3.196a1.101 1.101 0 0 0-1.108-.01Z"/><path opacity=".98" d="m47.171 106.872-5.409 3.183a.537.537 0 0 0-.269.468.54.54 0 0 0 .27.467l5.413 3.102a1.1 1.1 0 0 0 1.09 0l5.415-3.102a.533.533 0 0 0 .266-.467.545.545 0 0 0-.266-.468l-5.41-3.178a1.1 1.1 0 0 0-1.1-.005Z"/><path opacity=".3" d="m47.173 106.896-5.374 3.161a.537.537 0 0 0 0 .929l5.38 3.082a1.097 1.097 0 0 0 1.083 0l5.381-3.082a.528.528 0 0 0 .265-.464.544.544 0 0 0-.265-.465l-5.376-3.158a1.085 1.085 0 0 0-1.094-.003Z"/></g><path d="m47.098 106.287-6.402 2.937v1.087c0 .125.032.248.094.356.062.108.15.197.258.258l6.063 3.509a1.233 1.233 0 0 0 1.23 0l6.043-3.465a.71.71 0 0 0 .354-.615v-.995l-6.387-3.064a1.234 1.234 0 0 0-1.253-.008Z" fill="url(#c)"/><path d="m47.099 105.108-6.103 3.582a.613.613 0 0 0 0 1.057l6.11 3.498a1.233 1.233 0 0 0 1.23 0l6.109-3.498a.602.602 0 0 0 .303-.529.615.615 0 0 0-.303-.528l-6.103-3.582a1.237 1.237 0 0 0-.622-.169c-.218 0-.432.059-.621.169Z" fill="#EFF4FE"/><g opacity=".3" fill="#99A7D8"><path opacity=".02" d="m66.963 105.914-16.853 9.95a.717.717 0 0 0 0 1.231l7.114 4.063c.218.125.465.192.716.192.251 0 .498-.067.716-.192l16.874-9.831a.717.717 0 0 0 0-1.231l-7.104-4.172a1.432 1.432 0 0 0-1.463-.01Z"/><path opacity=".04" d="m66.967 105.937-16.818 9.93a.699.699 0 0 0-.35.613.713.713 0 0 0 .35.613l7.079 4.062a1.43 1.43 0 0 0 1.425 0l16.826-9.83a.7.7 0 0 0 .35-.613.716.716 0 0 0-.35-.614l-7.071-4.151a1.44 1.44 0 0 0-1.44-.01Z"/><path opacity=".06" d="m66.972 105.959-16.786 9.901a.699.699 0 0 0-.347.608.696.696 0 0 0 .346.608l7.045 4.035a1.435 1.435 0 0 0 1.418 0l16.79-9.813a.695.695 0 0 0 .35-.609.712.712 0 0 0-.35-.61l-7.036-4.131a1.42 1.42 0 0 0-1.43.011Z"/><path opacity=".08" d="m66.975 105.994-16.749 9.902a.701.701 0 0 0 0 1.211l7.009 4.014a1.426 1.426 0 0 0 1.413 0l16.756-9.793a.692.692 0 0 0 .345-.605.707.707 0 0 0-.345-.606l-7.004-4.113a1.416 1.416 0 0 0-1.425-.01Z"/><path opacity=".1" d="m66.98 105.995-16.724 9.871a.701.701 0 0 0 0 1.206l6.974 3.994a1.417 1.417 0 0 0 1.403 0l16.723-9.772a.694.694 0 0 0 .346-.603.701.701 0 0 0-.346-.603l-6.946-4.093a1.418 1.418 0 0 0-1.43 0Z"/><path opacity=".12" d="m66.981 106.029-16.68 9.85a.69.69 0 0 0-.342.6.7.7 0 0 0 .341.599l6.94 3.976a1.407 1.407 0 0 0 1.397 0l16.686-9.755a.684.684 0 0 0 .344-.599.697.697 0 0 0-.344-.599l-6.934-4.062a1.404 1.404 0 0 0-1.407-.01Z"/><path opacity=".14" d="m66.984 106.051-16.644 9.831a.68.68 0 0 0-.342.596.696.696 0 0 0 .342.597l6.907 3.956a1.403 1.403 0 0 0 1.39 0l16.651-9.734a.694.694 0 0 0 0-1.194l-6.899-4.062a1.414 1.414 0 0 0-.704-.184 1.41 1.41 0 0 0-.701.194Z"/><path opacity=".16" d="m66.99 106.074-16.612 9.822a.688.688 0 0 0-.247.938c.06.104.145.19.247.251l6.872 3.935a1.4 1.4 0 0 0 1.383 0l16.618-9.714a.674.674 0 0 0 .25-.25.694.694 0 0 0 0-.688.682.682 0 0 0-.25-.25l-6.861-4.032a1.389 1.389 0 0 0-1.4-.012Z"/><path opacity=".18" d="m66.99 106.096-16.575 9.8a.69.69 0 0 0 0 1.183l6.834 3.912a1.38 1.38 0 0 0 1.378 0L75.21 111.3a.688.688 0 0 0 0-1.183l-6.829-4.011a1.392 1.392 0 0 0-1.39-.01Z"/><path opacity=".2" d="m66.998 106.119-16.542 9.777a.67.67 0 0 0-.337.588.684.684 0 0 0 .337.587l6.802 3.895a1.371 1.371 0 0 0 1.368 0l16.548-9.673a.682.682 0 0 0 0-1.176l-6.794-3.991a1.387 1.387 0 0 0-1.382-.007Z"/><path opacity=".22" d="m67 106.145-16.507 9.752a.67.67 0 0 0-.335.585c0 .119.031.236.09.339a.66.66 0 0 0 .245.246l6.767 3.875a1.372 1.372 0 0 0 1.363 0l16.514-9.648a.67.67 0 0 0 .335-.585.683.683 0 0 0-.09-.339.66.66 0 0 0-.245-.246l-6.76-3.969a1.367 1.367 0 0 0-1.377-.01Z"/><path opacity=".24" d="m67.004 106.168-16.474 9.726a.672.672 0 0 0-.333.583.68.68 0 0 0 .334.583l6.739 3.854a1.368 1.368 0 0 0 1.355 0l16.474-9.633a.662.662 0 0 0 .334-.582.677.677 0 0 0-.334-.583l-6.724-3.948a1.356 1.356 0 0 0-1.37 0Z"/><path opacity=".25" d="m67.006 106.191-16.436 9.706a.672.672 0 0 0 0 1.16l6.697 3.834a1.364 1.364 0 0 0 1.347 0l16.444-9.615a.671.671 0 0 0 0-1.158l-6.689-3.927a1.352 1.352 0 0 0-1.363 0Z"/><path opacity=".27" d="m67.009 106.214-16.402 9.683a.67.67 0 0 0 0 1.152l6.662 3.809a1.354 1.354 0 0 0 1.343 0l16.41-9.595a.657.657 0 0 0 .327-.576.674.674 0 0 0-.328-.576l-6.657-3.907a1.346 1.346 0 0 0-1.355.01Z"/><path opacity=".29" d="m67.015 106.249-16.37 9.648a.66.66 0 0 0-.325.573.673.673 0 0 0 .325.574l6.63 3.796a1.346 1.346 0 0 0 1.333 0l16.377-9.574a.657.657 0 0 0 .328-.574.669.669 0 0 0-.329-.574l-6.61-3.869a1.348 1.348 0 0 0-1.36 0Z"/><path opacity=".31" d="m67.016 106.249-16.334 9.648a.664.664 0 0 0 0 1.142l6.592 3.776a1.337 1.337 0 0 0 1.328 0l16.341-9.554a.668.668 0 0 0 0-1.143l-6.574-3.869a1.333 1.333 0 0 0-1.353 0Z"/><path opacity=".33" d="m67.02 106.281-16.298 9.627a.646.646 0 0 0-.325.566.656.656 0 0 0 .325.567l6.56 3.757a1.332 1.332 0 0 0 1.32 0l16.304-9.536a.66.66 0 0 0 0-1.132l-6.552-3.849a1.325 1.325 0 0 0-1.333 0Z"/><path opacity=".35" d="m67.024 106.305-16.264 9.607a.646.646 0 0 0-.321.563.658.658 0 0 0 .32.564l6.525 3.737a1.318 1.318 0 0 0 1.313 0l16.272-9.515a.648.648 0 0 0 .323-.564.654.654 0 0 0-.323-.564l-6.517-3.828a1.316 1.316 0 0 0-1.328 0Z"/><path opacity=".37" d="m67.026 106.328-16.224 9.587a.634.634 0 0 0-.236.236.657.657 0 0 0 0 .65c.057.098.138.18.235.236l6.49 3.714a1.309 1.309 0 0 0 1.308 0l16.224-9.493a.654.654 0 0 0 0-1.122l-6.49-3.808a1.32 1.32 0 0 0-1.307 0Z"/><path opacity=".39" d="m67.044 106.351-16.197 9.566a.642.642 0 0 0-.317.559.652.652 0 0 0 .317.558l6.462 3.687a1.31 1.31 0 0 0 1.298 0l16.202-9.473a.636.636 0 0 0 .32-.558.636.636 0 0 0-.32-.559l-6.447-3.788a1.319 1.319 0 0 0-1.318.008Z"/><path opacity=".41" d="m67.043 106.372-16.16 9.547a.63.63 0 0 0-.318.554.644.644 0 0 0 .319.555l6.42 3.676a1.29 1.29 0 0 0 1.292 0l16.167-9.454a.647.647 0 0 0 0-1.11l-6.415-3.768a1.314 1.314 0 0 0-1.305 0Z"/><path opacity=".43" d="m67.044 106.399-16.127 9.523a.642.642 0 0 0 0 1.104l6.388 3.656a1.287 1.287 0 0 0 1.285 0l16.132-9.434a.642.642 0 0 0 0-1.104l-6.377-3.745a1.285 1.285 0 0 0-1.3 0Z"/><path opacity=".45" d="m67.043 106.422-16.092 9.503a.627.627 0 0 0-.314.549.638.638 0 0 0 .314.55l6.35 3.635a1.273 1.273 0 0 0 1.278 0l16.1-9.414a.628.628 0 0 0 .314-.549.639.639 0 0 0-.314-.55l-6.345-3.724a1.277 1.277 0 0 0-1.29 0Z"/><path opacity=".47" d="m67.043 106.445-16.057 9.483a.634.634 0 0 0 0 1.092l6.315 3.618a1.282 1.282 0 0 0 1.273 0l16.062-9.394a.634.634 0 0 0 0-1.092l-6.31-3.704a1.282 1.282 0 0 0-.64-.175c-.226 0-.447.059-.643.172Z"/><path opacity=".49" d="m67.044 106.467-16.022 9.462a.626.626 0 0 0-.309.544.623.623 0 0 0 .309.543l6.283 3.598a1.274 1.274 0 0 0 1.263 0l16.03-9.376a.626.626 0 0 0 .31-.544.631.631 0 0 0-.31-.543l-6.276-3.684a1.272 1.272 0 0 0-1.278 0Z"/><path opacity=".51" d="m67.043 106.503-15.974 9.442a.615.615 0 0 0-.31.541.624.624 0 0 0 .31.54l6.24 3.578a1.266 1.266 0 0 0 1.248 0l15.995-9.356a.62.62 0 0 0 .306-.541.634.634 0 0 0-.306-.541l-6.24-3.663a1.264 1.264 0 0 0-1.269 0Z"/><path opacity=".53" d="m67.057 106.504-15.953 9.421a.617.617 0 0 0-.307.538.629.629 0 0 0 .307.539l6.213 3.554a1.266 1.266 0 0 0 1.248 0l15.957-9.335a.618.618 0 0 0 .308-.539.629.629 0 0 0-.308-.538l-6.19-3.64a1.258 1.258 0 0 0-1.275 0Z"/><path opacity=".55" d="m67.06 106.537-15.918 9.394a.62.62 0 0 0 0 1.069l6.178 3.539a1.257 1.257 0 0 0 1.248 0l15.925-9.318a.61.61 0 0 0 .306-.534.624.624 0 0 0-.306-.535l-6.17-3.623a1.253 1.253 0 0 0-1.263.008Z"/><path opacity=".57" d="m67.064 106.559-15.885 9.394a.62.62 0 0 0 0 1.061l6.143 3.516a1.226 1.226 0 0 0 1.248 0l15.89-9.295a.617.617 0 0 0 0-1.061l-6.136-3.605a1.241 1.241 0 0 0-1.26-.01Z"/><path opacity=".59" d="m67.066 106.582-15.85 9.363a.614.614 0 0 0 0 1.057l6.108 3.496a1.238 1.238 0 0 0 1.228 0l15.858-9.275a.618.618 0 0 0 0-1.056l-6.103-3.585a1.242 1.242 0 0 0-1.24 0Z"/><path opacity=".61" d="m67.071 106.604-15.815 9.343a.596.596 0 0 0-.3.524.61.61 0 0 0 .3.525l6.073 3.478a1.23 1.23 0 0 0 1.223 0l15.82-9.257a.599.599 0 0 0 .299-.524.61.61 0 0 0-.299-.524l-6.068-3.555a1.236 1.236 0 0 0-1.233-.01Z"/><path opacity=".63" d="m67.074 106.626-15.78 9.323a.605.605 0 0 0 0 1.044l6.04 3.457a1.226 1.226 0 0 0 1.216 0l15.785-9.236a.603.603 0 0 0 0-1.043l-6.033-3.555a1.23 1.23 0 0 0-1.228.01Z"/><path opacity=".65" d="m67.076 106.651-15.745 9.302a.594.594 0 0 0-.297.519.592.592 0 0 0 .298.519l6.002 3.438a1.21 1.21 0 0 0 1.208 0l15.753-9.216a.594.594 0 0 0 .298-.519.591.591 0 0 0-.298-.519l-5.99-3.524a1.23 1.23 0 0 0-1.229 0Z"/><path opacity=".67" d="m67.082 106.676-15.71 9.28a.589.589 0 0 0-.296.517.602.602 0 0 0 .296.516l5.968 3.418a1.211 1.211 0 0 0 1.203 0l15.725-9.196a.59.59 0 0 0 .296-.517.587.587 0 0 0-.296-.516l-5.963-3.502a1.209 1.209 0 0 0-1.223 0Z"/><path opacity=".69" d="m67.084 106.698-15.675 9.259a.591.591 0 0 0-.283.508.601.601 0 0 0 .283.508l5.936 3.399a1.193 1.193 0 0 0 1.193 0l15.683-9.178a.584.584 0 0 0 .285-.508.597.597 0 0 0-.285-.507l-5.928-3.481a1.191 1.191 0 0 0-1.209 0Z"/><path opacity=".71" d="m67.088 106.722-15.643 9.239a.584.584 0 0 0-.285.508.596.596 0 0 0 .285.508l5.901 3.379a1.204 1.204 0 0 0 1.188 0l15.648-9.158a.584.584 0 0 0 .285-.508.597.597 0 0 0-.285-.507l-5.89-3.461a1.191 1.191 0 0 0-1.204 0Z"/><path opacity=".73" d="m67.092 106.757-15.608 9.219a.588.588 0 0 0 0 1.015l5.864 3.359a1.194 1.194 0 0 0 1.183 0l15.613-9.14a.593.593 0 0 0 0-1.015l-5.851-3.438a1.187 1.187 0 0 0-1.2 0Z"/><path opacity=".75" d="m67.096 106.757-15.573 9.199a.576.576 0 0 0-.296.507.576.576 0 0 0 .296.508l5.831 3.341a1.175 1.175 0 0 0 1.173 0l15.578-9.119a.577.577 0 0 0 .296-.508.584.584 0 0 0-.296-.508l-5.813-3.42a1.177 1.177 0 0 0-1.196 0Z"/><path opacity=".76" d="m67.1 106.79-15.531 9.178a.576.576 0 0 0-.285.501.587.587 0 0 0 .285.502l5.796 3.318a1.166 1.166 0 0 0 1.168 0l15.543-9.097a.57.57 0 0 0 .287-.501.584.584 0 0 0-.287-.501l-5.791-3.4a1.168 1.168 0 0 0-1.186 0Z"/><path opacity=".78" d="m67.101 106.813-15.503 9.157a.569.569 0 0 0-.285.499.582.582 0 0 0 .285.499l5.761 3.301a1.157 1.157 0 0 0 1.158 0l15.511-9.077a.582.582 0 0 0 0-.998l-5.736-3.381a1.159 1.159 0 0 0-1.19 0Z"/><path opacity=".8" d="m67.106 106.835-15.476 9.14a.578.578 0 0 0 0 .992l5.726 3.278a1.158 1.158 0 0 0 1.153 0l15.476-9.056a.575.575 0 0 0 .281-.497.581.581 0 0 0-.281-.496l-5.694-3.361a1.16 1.16 0 0 0-1.185 0Z"/><path opacity=".82" d="m67.109 106.858-15.433 9.12a.559.559 0 0 0-.283.491.559.559 0 0 0 .283.491l5.693 3.26a1.154 1.154 0 0 0 1.146 0l15.438-9.038a.57.57 0 0 0 0-.985l-5.686-3.339a1.167 1.167 0 0 0-1.158 0Z"/><path opacity=".84" d="m67.114 106.882-15.4 9.099a.568.568 0 0 0 0 .978l5.658 3.239a1.14 1.14 0 0 0 1.138 0l15.406-9.018a.557.557 0 0 0 .28-.489.562.562 0 0 0-.28-.488l-5.651-3.321a1.143 1.143 0 0 0-1.15 0Z"/><path opacity=".86" d="m67.117 106.903-15.364 9.079a.553.553 0 0 0-.278.486.55.55 0 0 0 .279.486l5.62 3.22a1.15 1.15 0 0 0 1.134 0l15.37-8.998a.557.557 0 0 0 .277-.486.567.567 0 0 0-.276-.486l-5.62-3.301a1.149 1.149 0 0 0-1.142 0Z"/><path opacity=".88" d="m67.122 106.927-15.331 9.058a.562.562 0 0 0 0 .965l5.589 3.202a1.131 1.131 0 0 0 1.123 0l15.336-8.98a.56.56 0 0 0 .203-.762.546.546 0 0 0-.203-.203l-5.582-3.28a1.126 1.126 0 0 0-1.135 0Z"/><path opacity=".9" d="m67.124 106.953-15.306 9.036a.549.549 0 0 0-.276.48.549.549 0 0 0 .276.48l5.554 3.181a1.132 1.132 0 0 0 1.118 0l15.3-8.96a.557.557 0 0 0 0-.959l-5.546-3.258a1.126 1.126 0 0 0-1.12 0Z"/><path opacity=".92" d="m67.126 106.976-15.261 9.015a.55.55 0 0 0-.271.478.559.559 0 0 0 .27.477l5.52 3.161a1.133 1.133 0 0 0 1.113 0l15.266-8.94a.56.56 0 0 0 0-.954l-5.514-3.237a1.112 1.112 0 0 0-1.123 0Z"/><path opacity=".94" d="m67.131 107.011-15.226 8.995a.547.547 0 0 0-.199.75.547.547 0 0 0 .2.2l5.49 3.14a1.115 1.115 0 0 0 1.104 0l15.226-8.919a.553.553 0 0 0 0-.949l-5.492-3.217a1.104 1.104 0 0 0-1.103 0Z"/><path opacity=".96" d="m67.133 107.01-15.191 8.975a.547.547 0 0 0 0 .942l5.449 3.12a1.104 1.104 0 0 0 1.098 0l15.196-8.886a.54.54 0 0 0 .27-.471.55.55 0 0 0-.27-.471l-5.434-3.209a1.103 1.103 0 0 0-1.118 0Z"/><path opacity=".98" d="m67.14 107.044-15.16 8.954a.543.543 0 0 0-.194.739.535.535 0 0 0 .195.198l5.416 3.1a1.086 1.086 0 0 0 1.089 0l15.163-8.886a.535.535 0 0 0 .266-.468.55.55 0 0 0-.266-.469l-5.409-3.176a1.087 1.087 0 0 0-1.1.008Z"/><path opacity=".3" d="m67.142 107.067-15.121 8.935a.544.544 0 0 0 0 .931l5.379 3.08a1.087 1.087 0 0 0 1.083 0l15.129-8.858a.547.547 0 0 0 0-.932l-5.377-3.156a1.095 1.095 0 0 0-1.093 0Z"/></g><path d="m67.067 106.457-16.149 8.716v1.079a.719.719 0 0 0 .352.614l6.063 3.506a1.229 1.229 0 0 0 1.228 0l15.792-9.241a.708.708 0 0 0 .355-.617v-.993l-6.388-3.064a1.227 1.227 0 0 0-1.253 0Z" fill="#FC7318"/><path d="m67.066 105.276-15.85 9.363a.614.614 0 0 0 0 1.057l6.11 3.498a1.229 1.229 0 0 0 1.229 0l15.857-9.277a.608.608 0 0 0 .222-.834.608.608 0 0 0-.222-.222l-6.103-3.585a1.237 1.237 0 0 0-.621-.169c-.218 0-.433.059-.622.169Z" fill="#FC812F"/><g opacity=".3" fill="#99A7D8"><path opacity=".02" d="m46.326 94.095-7.104 4.174a.7.7 0 0 0-.352.614.715.715 0 0 0 .352.615l7.114 4.075a1.454 1.454 0 0 0 1.433 0l7.111-4.075a.7.7 0 0 0 .353-.615.716.716 0 0 0-.353-.614l-7.106-4.174a1.445 1.445 0 0 0-1.448 0Z"/><path opacity=".04" d="m46.341 94.118-7.071 4.154a.715.715 0 0 0 0 1.224l7.079 4.062a1.45 1.45 0 0 0 1.425 0l7.079-4.063a.7.7 0 0 0 .348-.611.715.715 0 0 0-.348-.612l-7.072-4.154a1.434 1.434 0 0 0-1.44 0Z"/><path opacity=".06" d="m46.344 94.14-7.036 4.133a.694.694 0 0 0-.349.61.71.71 0 0 0 .349.609l7.044 4.034a1.426 1.426 0 0 0 1.417 0l7.044-4.034a.696.696 0 0 0 .349-.61.71.71 0 0 0-.349-.609l-7.036-4.133a1.431 1.431 0 0 0-1.433 0Z"/><path opacity=".08" d="m46.349 94.165-7.011 4.11a.694.694 0 0 0-.345.607.71.71 0 0 0 .344.607l7.01 4.011a1.412 1.412 0 0 0 1.41 0l7.011-4.01a.694.694 0 0 0 .344-.608.71.71 0 0 0-.344-.606l-7.001-4.11a1.416 1.416 0 0 0-1.418 0Z"/><path opacity=".1" d="m46.351 94.188-6.966 4.09a.688.688 0 0 0-.346.603.702.702 0 0 0 .346.603l6.988 3.994a1.396 1.396 0 0 0 1.403 0l6.974-3.994a.688.688 0 0 0 .346-.603.703.703 0 0 0-.346-.603l-6.969-4.09a1.405 1.405 0 0 0-1.43 0Z"/><path opacity=".12" d="m46.356 94.211-6.934 4.063a.699.699 0 0 0 0 1.2l6.94 3.974a1.407 1.407 0 0 0 1.397 0l6.939-3.973a.685.685 0 0 0 .344-.601.699.699 0 0 0-.344-.6l-6.934-4.063a1.402 1.402 0 0 0-1.408 0Z"/><path opacity=".14" d="m46.358 94.234-6.899 4.062a.682.682 0 0 0-.341.598.697.697 0 0 0 .341.598l6.904 3.953a1.393 1.393 0 0 0 1.39 0l6.907-3.953a.683.683 0 0 0 .342-.598.697.697 0 0 0-.342-.598l-6.896-4.062a1.392 1.392 0 0 0-1.406 0Z"/><path opacity=".16" d="m46.36 94.257-6.861 4.03a.692.692 0 0 0 0 1.188l6.871 3.935a1.389 1.389 0 0 0 1.383 0l6.869-3.936a.677.677 0 0 0 .34-.594.692.692 0 0 0-.34-.594l-6.864-4.03a1.393 1.393 0 0 0-1.398 0Z"/><path opacity=".18" d="m46.366 94.28-6.829 4.01a.676.676 0 0 0-.336.59.692.692 0 0 0 .336.593l6.837 3.914a1.386 1.386 0 0 0 1.375 0l6.837-3.915a.679.679 0 0 0 .336-.591.693.693 0 0 0-.336-.592l-6.83-4.008a1.39 1.39 0 0 0-1.39 0Z"/><path opacity=".2" d="m46.368 94.316-6.782 3.978a.67.67 0 0 0-.337.588.684.684 0 0 0 .337.587l6.8 3.895a1.376 1.376 0 0 0 1.37 0l6.806-3.895a.67.67 0 0 0 .337-.587.685.685 0 0 0-.337-.588l-6.799-3.978a1.375 1.375 0 0 0-1.395 0Z"/><path opacity=".22" d="m46.374 94.315-6.76 3.971a.667.667 0 0 0-.335.585.681.681 0 0 0 .335.586l6.767 3.874a1.383 1.383 0 0 0 1.363 0l6.767-3.874a.668.668 0 0 0 .335-.586.682.682 0 0 0-.335-.585l-6.75-3.97a1.375 1.375 0 0 0-1.387 0Z"/><path opacity=".24" d="M46.376 94.35 39.65 98.3a.664.664 0 0 0-.33.581.679.679 0 0 0 .33.582l6.74 3.856a1.358 1.358 0 0 0 1.355 0l6.74-3.856a.665.665 0 0 0 .33-.582.68.68 0 0 0-.33-.581l-6.725-3.95a1.364 1.364 0 0 0-1.385 0Z"/><path opacity=".25" d="m46.38 94.37-6.69 3.93a.66.66 0 0 0-.332.58.675.675 0 0 0 .332.578l6.697 3.837a1.364 1.364 0 0 0 1.347 0l6.697-3.837a.66.66 0 0 0 .332-.579.674.674 0 0 0-.332-.578l-6.689-3.93a1.362 1.362 0 0 0-1.363 0Z"/><path opacity=".27" d="m46.383 94.394-6.657 3.91a.66.66 0 0 0-.328.576.674.674 0 0 0 .328.577l6.662 3.808a1.35 1.35 0 0 0 1.34 0l6.665-3.808a.661.661 0 0 0 .327-.577.675.675 0 0 0-.327-.576l-6.655-3.91a1.36 1.36 0 0 0-1.355 0Z"/><path opacity=".29" d="m46.386 94.417-6.62 3.89a.652.652 0 0 0-.328.572.666.666 0 0 0 .328.573l6.628 3.795a1.33 1.33 0 0 0 1.335 0l6.627-3.795a.651.651 0 0 0 .328-.573.666.666 0 0 0-.328-.572l-6.622-3.89a1.347 1.347 0 0 0-1.348 0Z"/><path opacity=".31" d="m46.392 94.443-6.587 3.867a.653.653 0 0 0-.325.57.666.666 0 0 0 .325.57l6.594 3.775a1.336 1.336 0 0 0 1.328 0l6.592-3.775a.65.65 0 0 0 .327-.57.665.665 0 0 0-.327-.57l-6.587-3.867a1.334 1.334 0 0 0-1.34 0Z"/><path opacity=".33" d="m46.393 94.465-6.557 3.846a.646.646 0 0 0-.325.567.66.66 0 0 0 .325.568l6.557 3.755a1.322 1.322 0 0 0 1.32 0l6.56-3.755a.646.646 0 0 0 .324-.568.66.66 0 0 0-.324-.567l-6.552-3.846a1.32 1.32 0 0 0-1.328 0Z"/><path opacity=".35" d="m46.399 94.488-6.517 3.826a.644.644 0 0 0-.323.565.66.66 0 0 0 .323.565l6.524 3.735a1.318 1.318 0 0 0 1.313 0l6.525-3.735a.644.644 0 0 0 .323-.565.659.659 0 0 0-.323-.565l-6.517-3.826a1.318 1.318 0 0 0-1.328 0Z"/><path opacity=".37" d="m46.401 94.511-6.49 3.809a.642.642 0 0 0-.318.56.656.656 0 0 0 .319.562l6.49 3.717a1.329 1.329 0 0 0 1.307 0l6.49-3.717a.641.641 0 0 0 .32-.561.656.656 0 0 0-.32-.561l-6.49-3.808a1.308 1.308 0 0 0-1.308 0Z"/><path opacity=".39" d="m46.404 94.535-6.447 3.785a.637.637 0 0 0-.32.559.651.651 0 0 0 .32.558l6.452 3.697a1.304 1.304 0 0 0 1.3 0l6.455-3.697a.636.636 0 0 0 .32-.558.65.65 0 0 0-.32-.559l-6.447-3.785a1.306 1.306 0 0 0-1.313 0Z"/><path opacity=".41" d="m46.408 94.57-6.412 3.765a.636.636 0 0 0-.318.556.649.649 0 0 0 .318.556l6.42 3.676a1.31 1.31 0 0 0 1.293 0l6.42-3.676a.635.635 0 0 0 .318-.556.649.649 0 0 0-.318-.556l-6.403-3.766a1.306 1.306 0 0 0-1.318 0Z"/><path opacity=".43" d="m46.411 94.57-6.377 3.744a.63.63 0 0 0-.317.553.644.644 0 0 0 .317.552l6.385 3.658a1.287 1.287 0 0 0 1.285 0l6.385-3.658a.643.643 0 0 0 0-1.104l-6.367-3.745a1.29 1.29 0 0 0-1.31 0Z"/><path opacity=".45" d="m46.416 94.602-6.345 3.727a.627.627 0 0 0-.313.548.641.641 0 0 0 .313.549l6.352 3.638a1.293 1.293 0 0 0 1.278 0l6.35-3.638a.624.624 0 0 0 .315-.549.637.637 0 0 0-.315-.548l-6.342-3.727a1.289 1.289 0 0 0-1.293 0Z"/><path opacity=".47" d="m46.418 94.624-6.31 3.707a.625.625 0 0 0-.31.546.638.638 0 0 0 .31.546l6.315 3.615a1.283 1.283 0 0 0 1.273 0l6.315-3.615a.624.624 0 0 0 .31-.546.638.638 0 0 0-.31-.546l-6.31-3.707a1.277 1.277 0 0 0-1.283 0Z"/><path opacity=".49" d="m46.423 94.649-6.275 3.686a.618.618 0 0 0-.312.544.632.632 0 0 0 .312.543l6.28 3.595a1.268 1.268 0 0 0 1.265 0l6.283-3.595a.622.622 0 0 0 .308-.543.635.635 0 0 0-.308-.544L47.7 94.65a1.274 1.274 0 0 0-1.278 0Z"/><path opacity=".51" d="m46.426 94.671-6.24 3.666a.617.617 0 0 0-.307.54.631.631 0 0 0 .307.54l6.24 3.576a1.267 1.267 0 0 0 1.248 0l6.24-3.577a.613.613 0 0 0 .31-.54.628.628 0 0 0-.31-.539l-6.24-3.666a1.276 1.276 0 0 0-1.248 0Z"/><path opacity=".53" d="m46.428 94.695-6.206 3.645a.611.611 0 0 0-.307.537.625.625 0 0 0 .307.537l6.21 3.555a1.257 1.257 0 0 0 1.249 0l6.212-3.555a.611.611 0 0 0 .308-.537.626.626 0 0 0-.308-.537l-6.205-3.645a1.261 1.261 0 0 0-1.26 0Z"/><path opacity=".55" d="m46.434 94.719-6.17 3.623a.609.609 0 0 0-.306.534.622.622 0 0 0 .306.534l6.177 3.537a1.246 1.246 0 0 0 1.248 0l6.178-3.537a.609.609 0 0 0 .306-.534.622.622 0 0 0-.306-.534l-6.17-3.623a1.25 1.25 0 0 0-1.263 0Z"/><path opacity=".57" d="M46.435 94.741 40.3 98.344a.606.606 0 0 0-.302.53.62.62 0 0 0 .302.531l6.143 3.519a1.226 1.226 0 0 0 1.248 0l6.14-3.519a.607.607 0 0 0 .302-.53.619.619 0 0 0-.302-.53l-6.138-3.604a1.231 1.231 0 0 0-1.258 0Z"/><path opacity=".59" d="m46.441 94.765-6.105 3.582a.605.605 0 0 0-.3.528.618.618 0 0 0 .3.529l6.108 3.498a1.233 1.233 0 0 0 1.23 0l6.116-3.509a.602.602 0 0 0 .302-.528.615.615 0 0 0-.302-.528l-6.1-3.582a1.231 1.231 0 0 0-1.249.01Z"/><path opacity=".61" d="m46.443 94.789-6.068 3.554a.601.601 0 0 0-.298.526.615.615 0 0 0 .298.525l6.073 3.478a1.23 1.23 0 0 0 1.223 0l6.073-3.478a.6.6 0 0 0 .3-.525.612.612 0 0 0-.3-.526l-6.068-3.554a1.232 1.232 0 0 0-1.233 0Z"/><path opacity=".63" d="m46.448 94.823-6.033 3.554a.597.597 0 0 0-.3.523.61.61 0 0 0 .3.523l6.038 3.458a1.225 1.225 0 0 0 1.215 0l6.04-3.458a.6.6 0 0 0 .297-.523.613.613 0 0 0-.296-.523l-6.033-3.554a1.217 1.217 0 0 0-1.228 0Z"/><path opacity=".65" d="m46.45 94.823-5.99 3.521a.592.592 0 0 0-.298.52.605.605 0 0 0 .298.519l6.005 3.44a1.232 1.232 0 0 0 1.208 0l5.99-3.44a.594.594 0 0 0 .296-.52.607.607 0 0 0-.295-.519l-5.99-3.521a1.231 1.231 0 0 0-1.224 0Z"/><path opacity=".67" d="m46.453 94.855-5.963 3.501a.589.589 0 0 0-.296.517.602.602 0 0 0 .296.516l5.968 3.418a1.201 1.201 0 0 0 1.203 0l5.968-3.418a.589.589 0 0 0 .296-.516.602.602 0 0 0-.296-.517l-5.963-3.5a1.207 1.207 0 0 0-1.213 0Z"/><path opacity=".69" d="m46.459 94.88-5.928 3.48a.587.587 0 0 0-.294.514.6.6 0 0 0 .294.514l5.933 3.398a1.206 1.206 0 0 0 1.195 0l5.936-3.398a.587.587 0 0 0 .294-.514.599.599 0 0 0-.294-.514l-5.928-3.48a1.205 1.205 0 0 0-1.208 0Z"/><path opacity=".71" d="m46.46 94.903-5.893 3.476a.581.581 0 0 0-.288.507.594.594 0 0 0 .288.508l5.901 3.379a1.193 1.193 0 0 0 1.188 0l5.908-3.379a.578.578 0 0 0 .29-.508.592.592 0 0 0-.29-.507l-5.895-3.463a1.202 1.202 0 0 0-1.208-.013Z"/><path opacity=".73" d="m46.466 94.925-5.86 3.453a.579.579 0 0 0-.291.508.59.59 0 0 0 .29.508l5.866 3.359a1.179 1.179 0 0 0 1.18 0l5.867-3.36a.576.576 0 0 0 .293-.507.59.59 0 0 0-.293-.508l-5.859-3.442a1.188 1.188 0 0 0-1.193-.01Z"/><path opacity=".75" d="m46.469 94.947-5.826 3.43a.574.574 0 0 0-.296.508.586.586 0 0 0 .296.508l5.83 3.338a1.176 1.176 0 0 0 1.174 0l5.83-3.338a.575.575 0 0 0 .294-.508.588.588 0 0 0-.293-.508l-5.826-3.422a1.187 1.187 0 0 0-1.183-.008Z"/><path opacity=".76" d="m46.473 94.972-5.79 3.402a.571.571 0 0 0-.288.501.583.583 0 0 0 .287.501l5.796 3.319a1.176 1.176 0 0 0 1.168 0l5.796-3.319a.574.574 0 0 0 .285-.501.586.586 0 0 0-.285-.501l-5.79-3.402a1.173 1.173 0 0 0-1.179 0Z"/><path opacity=".78" d="m46.475 94.996-5.756 3.382a.568.568 0 0 0-.283.497.581.581 0 0 0 .283.498l5.761 3.3a1.173 1.173 0 0 0 1.16 0l5.762-3.3a.565.565 0 0 0 .286-.498.58.58 0 0 0-.286-.498l-5.754-3.379a1.163 1.163 0 0 0-1.173-.002Z"/><path opacity=".8" d="m46.477 95.018-5.72 3.359a.566.566 0 0 0-.282.495.58.58 0 0 0 .282.495l5.74 3.28a1.169 1.169 0 0 0 1.154 0l5.726-3.28a.564.564 0 0 0 .284-.495.576.576 0 0 0-.284-.495l-5.721-3.359a1.162 1.162 0 0 0-1.178 0Z"/><path opacity=".82" d="m46.484 95.041-5.686 3.336a.561.561 0 0 0-.282.493.573.573 0 0 0 .282.492l5.691 3.26a1.154 1.154 0 0 0 1.146 0l5.693-3.26a.563.563 0 0 0 .28-.492.576.576 0 0 0-.28-.493l-5.686-3.338a1.148 1.148 0 0 0-1.158.002Z"/><path opacity=".84" d="m46.485 95.078-5.651 3.3a.557.557 0 0 0-.28.49.568.568 0 0 0 .28.488l5.658 3.242a1.15 1.15 0 0 0 1.139 0l5.658-3.242a.56.56 0 0 0 .278-.489.571.571 0 0 0-.278-.488l-5.643-3.3a1.146 1.146 0 0 0-1.161 0Z"/><path opacity=".86" d="m46.491 95.077-5.618 3.3a.557.557 0 0 0-.277.487.568.568 0 0 0 .277.486l5.623 3.219a1.13 1.13 0 0 0 1.133 0l5.621-3.22a.553.553 0 0 0 .28-.485.566.566 0 0 0-.28-.487l-5.616-3.3a1.133 1.133 0 0 0-1.143 0Z"/><path opacity=".88" d="m46.493 95.11-5.58 3.267a.552.552 0 0 0-.278.484.564.564 0 0 0 .277.483l5.586 3.199a1.127 1.127 0 0 0 1.126 0l5.589-3.199a.551.551 0 0 0 .277-.483.564.564 0 0 0-.277-.484l-5.584-3.278a1.13 1.13 0 0 0-1.136.01Z"/><path opacity=".9" d="m46.498 95.132-5.548 3.257a.548.548 0 0 0-.276.481.561.561 0 0 0 .276.481l5.553 3.179a1.113 1.113 0 0 0 1.118 0l5.554-3.178a.548.548 0 0 0 .275-.482.561.561 0 0 0-.275-.48l-5.549-3.258a1.128 1.128 0 0 0-1.128 0Z"/><path opacity=".92" d="m46.5 95.156-5.514 3.236a.546.546 0 0 0-.27.478.558.558 0 0 0 .27.477l5.52 3.161a1.119 1.119 0 0 0 1.11 0l5.519-3.16a.545.545 0 0 0 .273-.478.556.556 0 0 0-.273-.478l-5.512-3.236a1.118 1.118 0 0 0-1.123 0Z"/><path opacity=".94" d="m46.503 95.179-5.492 3.217a.543.543 0 0 0-.269.475.556.556 0 0 0 .27.474l5.49 3.141a1.114 1.114 0 0 0 1.104 0l5.491-3.14a.544.544 0 0 0 .27-.475.555.555 0 0 0-.27-.475l-5.49-3.217a1.119 1.119 0 0 0-1.104 0Z"/><path opacity=".96" d="M46.508 95.202 41.064 98.4a.537.537 0 0 0-.27.47.548.548 0 0 0 .27.472l5.449 3.12a1.104 1.104 0 0 0 1.098 0l5.454-3.12a.538.538 0 0 0 .268-.471.55.55 0 0 0-.268-.471l-5.444-3.2a1.103 1.103 0 0 0-1.113 0Z"/><path opacity=".98" d="m46.511 95.224-5.409 3.178a.537.537 0 0 0-.266.469.548.548 0 0 0 .266.468l5.414 3.1a1.1 1.1 0 0 0 1.091 0l5.417-3.1a.538.538 0 0 0 .266-.468.548.548 0 0 0-.266-.468l-5.412-3.18a1.101 1.101 0 0 0-1.1 0Z"/><path opacity=".3" d="m46.517 95.249-5.377 3.156a.532.532 0 0 0-.264.464.542.542 0 0 0 .264.465l5.382 3.082a1.087 1.087 0 0 0 1.083 0l5.379-3.082a.529.529 0 0 0 .267-.465.54.54 0 0 0-.267-.464l-5.374-3.156a1.076 1.076 0 0 0-1.093 0Z"/></g><path d="m46.441 94.638-6.402 2.938v1.079a.715.715 0 0 0 .352.614l6.06 3.509a1.233 1.233 0 0 0 1.231 0l6.045-3.466a.701.701 0 0 0 .355-.614v-.995l-6.388-3.065a1.244 1.244 0 0 0-1.253 0Z" fill="url(#d)"/><path d="m46.442 93.46-6.105 3.583a.602.602 0 0 0-.303.528.614.614 0 0 0 .303.528l6.108 3.499a1.233 1.233 0 0 0 1.23 0l6.11-3.499a.604.604 0 0 0 .3-.528.617.617 0 0 0-.3-.528l-6.102-3.582a1.232 1.232 0 0 0-1.24 0Z" fill="#EFF4FE"/><g opacity=".3" fill="#99A7D8"><path opacity=".02" d="m36.592 99.874-7.106 4.173a.704.704 0 0 0-.35.615.717.717 0 0 0 .35.614l7.113 4.062a1.444 1.444 0 0 0 1.433 0l7.111-4.062a.7.7 0 0 0 .35-.614.717.717 0 0 0-.35-.615l-7.106-4.173a1.446 1.446 0 0 0-1.445 0Z"/><path opacity=".04" d="m36.593 99.9-7.072 4.153a.713.713 0 0 0 0 1.224l7.08 4.062a1.44 1.44 0 0 0 1.424 0l7.08-4.062a.703.703 0 0 0 .347-.612.713.713 0 0 0-.348-.612L38.048 99.9a1.434 1.434 0 0 0-1.455 0Z"/><path opacity=".06" d="m36.592 99.92-7.036 4.132a.695.695 0 0 0-.349.61.71.71 0 0 0 .349.609l7.044 4.034a1.426 1.426 0 0 0 1.417 0l7.044-4.034a.71.71 0 0 0 0-1.219l-7.036-4.133a1.43 1.43 0 0 0-1.433 0Z"/><path opacity=".08" d="m36.593 99.944-6.99 4.111a.694.694 0 0 0-.346.606.703.703 0 0 0 .347.607l7.009 4.011a1.412 1.412 0 0 0 1.41 0l7.009-4.011a.704.704 0 0 0 0-1.213l-6.99-4.11a1.417 1.417 0 0 0-1.45 0Z"/><path opacity=".1" d="m36.604 99.966-6.966 4.09a.702.702 0 0 0 0 1.206l6.974 3.994a1.412 1.412 0 0 0 1.405 0l6.974-3.994a.69.69 0 0 0 .346-.603.702.702 0 0 0-.346-.603l-6.969-4.09a1.405 1.405 0 0 0-1.418 0Z"/><path opacity=".12" d="m36.607 99.99-6.932 4.062a.693.693 0 0 0-.251.948c.06.106.147.193.251.253l6.942 3.973a1.398 1.398 0 0 0 1.397 0l6.94-3.973a.698.698 0 0 0 0-1.201l-6.932-4.062a1.406 1.406 0 0 0-1.415 0Z"/><path opacity=".14" d="m36.611 100.013-6.899 4.049a.698.698 0 0 0 0 1.196l6.904 3.953a1.394 1.394 0 0 0 1.39 0l6.907-3.953a.681.681 0 0 0 .342-.598.7.7 0 0 0-.342-.598l-6.899-4.049a1.386 1.386 0 0 0-1.403 0Z"/><path opacity=".16" d="m36.614 100.034-6.862 4.029a.69.69 0 0 0 0 1.189l6.872 3.935a1.389 1.389 0 0 0 1.382 0l6.87-3.935a.682.682 0 0 0 .337-.594.69.69 0 0 0-.338-.595l-6.864-4.029a1.394 1.394 0 0 0-1.398 0Z"/><path opacity=".18" d="m36.618 100.059-6.829 4.008a.68.68 0 0 0-.338.592.689.689 0 0 0 .338.592l6.837 3.914a1.386 1.386 0 0 0 1.375 0l6.837-3.914a.68.68 0 0 0 .338-.592.69.69 0 0 0-.338-.592l-6.827-4.008a1.385 1.385 0 0 0-1.393 0Z"/><path opacity=".2" d="m36.621 100.081-6.794 3.992a.664.664 0 0 0-.247.247.685.685 0 0 0 .247.928l6.799 3.895a1.376 1.376 0 0 0 1.37 0l6.802-3.895a.682.682 0 0 0 0-1.175l-6.794-3.992a1.378 1.378 0 0 0-1.383 0Z"/><path opacity=".22" d="m36.626 100.104-6.762 3.971a.667.667 0 0 0-.335.585.674.674 0 0 0 .335.585l6.767 3.874a1.372 1.372 0 0 0 1.362 0l6.765-3.874a.674.674 0 0 0 .245-.924.667.667 0 0 0-.245-.246l-6.76-3.971a1.374 1.374 0 0 0-1.372 0Z"/><path opacity=".24" d="m36.63 100.127-6.725 3.95a.669.669 0 0 0-.331.582.68.68 0 0 0 .33.581l6.74 3.857a1.368 1.368 0 0 0 1.355 0l6.74-3.857a.68.68 0 0 0 0-1.163l-6.74-3.95a1.355 1.355 0 0 0-1.37 0Z"/><path opacity=".25" d="m36.632 100.154-6.69 3.931a.677.677 0 0 0 0 1.157l6.7 3.837a1.365 1.365 0 0 0 1.347 0l6.697-3.837a.662.662 0 0 0 .33-.579.677.677 0 0 0-.33-.578l-6.69-3.931a1.366 1.366 0 0 0-1.364 0Z"/><path opacity=".27" d="m36.637 100.173-6.657 3.91a.66.66 0 0 0-.33.577.669.669 0 0 0 .33.576l6.662 3.808a1.35 1.35 0 0 0 1.34 0l6.665-3.808a.673.673 0 0 0 0-1.153l-6.655-3.91a1.368 1.368 0 0 0-1.355 0Z"/><path opacity=".29" d="m36.639 100.195-6.62 3.889a.655.655 0 0 0-.328.573.664.664 0 0 0 .328.572l6.627 3.808a1.33 1.33 0 0 0 1.336 0l6.627-3.808a.664.664 0 0 0 0-1.145l-6.622-3.889a1.344 1.344 0 0 0-1.348 0Z"/><path opacity=".31" d="m36.644 100.221-6.587 3.866a.65.65 0 0 0-.327.57.663.663 0 0 0 .327.57l6.594 3.775a1.327 1.327 0 0 0 1.328 0l6.6-3.77a.65.65 0 0 0 .326-.57.666.666 0 0 0-.326-.57l-6.585-3.866a1.328 1.328 0 0 0-1.35-.005Z"/><path opacity=".33" d="M36.646 100.244 30.1 104.09a.661.661 0 0 0 0 1.135l6.557 3.755a1.322 1.322 0 0 0 1.32 0l6.56-3.755a.651.651 0 0 0 .325-.568.661.661 0 0 0-.325-.567l-6.552-3.846a1.32 1.32 0 0 0-1.34 0Z"/><path opacity=".35" d="m36.649 100.266-6.517 3.826a.647.647 0 0 0-.323.565.659.659 0 0 0 .323.565l6.524 3.735a1.328 1.328 0 0 0 1.313 0l6.522-3.735a.647.647 0 0 0 .323-.565.66.66 0 0 0-.323-.565l-6.517-3.826a1.321 1.321 0 0 0-1.325 0Z"/><path opacity=".37" d="m36.654 100.289-6.49 3.808a.65.65 0 0 0 0 1.122l6.49 3.717a1.315 1.315 0 0 0 1.305 0l6.49-3.717a.654.654 0 0 0 0-1.122l-6.49-3.808a1.304 1.304 0 0 0-1.306 0Z"/><path opacity=".39" d="m36.657 100.313-6.448 3.785a.643.643 0 0 0-.317.559.653.653 0 0 0 .317.558l6.455 3.697a1.304 1.304 0 0 0 1.3 0l6.455-3.697a.636.636 0 0 0 .32-.558.65.65 0 0 0-.32-.559l-6.447-3.785a1.302 1.302 0 0 0-1.316 0Z"/><path opacity=".41" d="m36.662 100.335-6.415 3.765a.65.65 0 0 0-.233.878.624.624 0 0 0 .233.234l6.42 3.677a1.31 1.31 0 0 0 1.293 0l6.42-3.677a.649.649 0 0 0 0-1.112l-6.413-3.765a1.304 1.304 0 0 0-1.305 0Z"/><path opacity=".43" d="m36.664 100.357-6.378 3.745a.624.624 0 0 0-.23.232.645.645 0 0 0 0 .64.624.624 0 0 0 .23.232l6.385 3.659a1.297 1.297 0 0 0 1.286 0l6.385-3.659a.624.624 0 0 0 .231-.232.645.645 0 0 0 0-.64.624.624 0 0 0-.231-.232l-6.38-3.745a1.29 1.29 0 0 0-1.298 0Z"/><path opacity=".45" d="m36.669 100.381-6.345 3.727a.636.636 0 0 0 0 1.097l6.352 3.638a1.293 1.293 0 0 0 1.278 0l6.35-3.638a.624.624 0 0 0 .312-.548.638.638 0 0 0-.312-.549l-6.343-3.727a1.29 1.29 0 0 0-1.292 0Z"/><path opacity=".47" d="m36.671 100.408-6.31 3.706a.624.624 0 0 0-.313.546.636.636 0 0 0 .313.546l6.315 3.615a1.259 1.259 0 0 0 1.27 0l6.318-3.615a.628.628 0 0 0 .31-.546.64.64 0 0 0-.31-.546l-6.31-3.706a1.273 1.273 0 0 0-1.283 0Z"/><path opacity=".49" d="m36.673 100.425-6.273 3.687a.632.632 0 0 0 0 1.086l6.28 3.595a1.27 1.27 0 0 0 1.266 0l6.28-3.595a.628.628 0 0 0 0-1.086l-6.275-3.687a1.282 1.282 0 0 0-1.278 0Z"/><path opacity=".51" d="m36.68 100.449-6.24 3.666a.618.618 0 0 0-.308.54.616.616 0 0 0 .307.539l6.24 3.578a1.266 1.266 0 0 0 1.249 0l6.24-3.578a.612.612 0 0 0 .31-.539.63.63 0 0 0-.31-.54l-6.24-3.666a1.277 1.277 0 0 0-1.248 0Z"/><path opacity=".53" d="m36.682 100.473-6.205 3.645a.622.622 0 0 0-.224.847c.054.095.13.173.224.227l6.212 3.555a1.256 1.256 0 0 0 1.248 0l6.213-3.555a.615.615 0 0 0 .308-.537.615.615 0 0 0-.308-.537l-6.205-3.645a1.254 1.254 0 0 0-1.263 0Z"/><path opacity=".55" d="m36.686 100.497-6.173 3.623a.611.611 0 0 0-.306.535.624.624 0 0 0 .306.534l6.178 3.537a1.256 1.256 0 0 0 1.248 0l6.178-3.537a.624.624 0 0 0 0-1.069l-6.17-3.623a1.25 1.25 0 0 0-1.261 0Z"/><path opacity=".57" d="m36.69 100.519-6.136 3.603a.616.616 0 0 0 0 1.061l6.143 3.519a1.226 1.226 0 0 0 1.248 0l6.143-3.519a.618.618 0 0 0 0-1.061l-6.138-3.603a1.239 1.239 0 0 0-1.26 0Z"/><path opacity=".59" d="m36.694 100.543-6.093 3.582a.618.618 0 0 0 0 1.056l6.108 3.499a1.233 1.233 0 0 0 1.23 0l6.109-3.499a.607.607 0 0 0 .302-.528.607.607 0 0 0-.303-.528l-6.1-3.582a1.227 1.227 0 0 0-1.253 0Z"/><path opacity=".61" d="m36.696 100.566-6.068 3.555a.615.615 0 0 0 0 1.051l6.073 3.478a1.23 1.23 0 0 0 1.223 0l6.073-3.478a.605.605 0 0 0 .3-.526.61.61 0 0 0-.3-.525l-6.068-3.555a1.238 1.238 0 0 0-.617-.166c-.216 0-.428.058-.616.166Z"/><path opacity=".63" d="m36.698 100.588-6.03 3.542a.591.591 0 0 0-.22.22.613.613 0 0 0 0 .605.601.601 0 0 0 .22.221l6.038 3.458a1.235 1.235 0 0 0 1.215 0l6.038-3.458a.601.601 0 0 0 .3-.523.613.613 0 0 0-.08-.303.591.591 0 0 0-.22-.22l-6.033-3.542a1.228 1.228 0 0 0-1.228 0Z"/><path opacity=".65" d="m36.703 100.611-5.99 3.521a.593.593 0 0 0-.298.519.604.604 0 0 0 .298.52l5.99 3.44a1.237 1.237 0 0 0 1.21 0l6.004-3.44a.594.594 0 0 0 .297-.52.603.603 0 0 0-.297-.519l-5.99-3.521a1.21 1.21 0 0 0-1.224 0Z"/><path opacity=".67" d="m36.706 100.635-5.963 3.501a.59.59 0 0 0-.296.517.603.603 0 0 0 .296.517l5.97 3.417a1.197 1.197 0 0 0 1.201 0l5.97-3.417a.59.59 0 0 0 .297-.517.603.603 0 0 0-.296-.517l-5.963-3.501a1.205 1.205 0 0 0-1.216 0Z"/><path opacity=".69" d="m36.71 100.662-5.93 3.48a.591.591 0 0 0-.283.508.598.598 0 0 0 .283.508l5.933 3.397a1.198 1.198 0 0 0 1.196 0l5.936-3.397a.597.597 0 0 0 0-1.016l-5.916-3.48a1.2 1.2 0 0 0-1.218 0Z"/><path opacity=".71" d="m36.714 100.68-5.893 3.463a.577.577 0 0 0-.288.508.596.596 0 0 0 .288.507l5.9 3.38a1.204 1.204 0 0 0 1.189 0l5.898-3.38a.596.596 0 0 0 0-1.015l-5.896-3.463a1.202 1.202 0 0 0-1.198 0Z"/><path opacity=".73" d="m36.72 100.704-5.868 3.443a.588.588 0 0 0 0 1.015l5.865 3.359a1.18 1.18 0 0 0 1.181 0l5.866-3.359a.575.575 0 0 0 .293-.508.589.589 0 0 0-.293-.507l-5.858-3.443a1.19 1.19 0 0 0-1.186 0Z"/><path opacity=".75" d="m36.722 100.726-5.826 3.423a.584.584 0 0 0 0 1.015l5.828 3.339a1.19 1.19 0 0 0 1.176 0l5.83-3.339a.574.574 0 0 0 .294-.507.589.589 0 0 0-.293-.508l-5.826-3.423a1.194 1.194 0 0 0-1.183 0Z"/><path opacity=".76" d="m36.725 100.748-5.789 3.402a.572.572 0 0 0-.298.508.58.58 0 0 0 .299.508l5.795 3.318a1.17 1.17 0 0 0 1.166 0l5.796-3.318a.58.58 0 0 0 0-1.016l-5.791-3.402a1.175 1.175 0 0 0-1.178 0Z"/><path opacity=".78" d="m36.73 100.774-5.757 3.379a.578.578 0 0 0 0 .995l5.761 3.301a1.172 1.172 0 0 0 1.16 0l5.762-3.301a.563.563 0 0 0 .286-.497.578.578 0 0 0-.286-.498l-5.756-3.379a1.161 1.161 0 0 0-1.17 0Z"/><path opacity=".8" d="m36.73 100.798-5.72 3.358a.575.575 0 0 0-.206.781c.05.087.12.16.206.21l5.728 3.28a1.158 1.158 0 0 0 1.154 0l5.725-3.28a.567.567 0 0 0 .282-.495.578.578 0 0 0-.282-.496l-5.72-3.358a1.161 1.161 0 0 0-1.166 0Z"/><path opacity=".82" d="m36.737 100.819-5.686 3.339a.561.561 0 0 0-.282.492.573.573 0 0 0 .282.493l5.691 3.26a1.153 1.153 0 0 0 1.146 0l5.693-3.26a.568.568 0 0 0 .28-.493.573.573 0 0 0-.28-.492l-5.686-3.339a1.147 1.147 0 0 0-1.158 0Z"/><path opacity=".84" d="m36.74 100.842-5.639 3.319a.556.556 0 0 0-.28.49.57.57 0 0 0 .28.49l5.656 3.239a1.155 1.155 0 0 0 1.14 0l5.657-3.239a.559.559 0 0 0 .28-.49.571.571 0 0 0-.28-.49l-5.651-3.319a1.145 1.145 0 0 0-1.163 0Z"/><path opacity=".86" d="m36.743 100.866-5.619 3.3a.56.56 0 0 0-.203.768c.049.086.119.156.204.205l5.623 3.219a1.126 1.126 0 0 0 1.13 0l5.624-3.219a.553.553 0 0 0 .28-.486.57.57 0 0 0-.28-.487l-5.616-3.3a1.129 1.129 0 0 0-1.143 0Z"/><path opacity=".88" d="m36.746 100.888-5.583 3.277a.554.554 0 0 0-.275.484.566.566 0 0 0 .275.484l5.588 3.198a1.127 1.127 0 0 0 1.126 0l5.589-3.198a.556.556 0 0 0 .277-.484.564.564 0 0 0-.277-.484l-5.584-3.277a1.125 1.125 0 0 0-1.136 0Z"/><path opacity=".9" d="m36.75 100.916-5.547 3.257a.56.56 0 0 0 0 .963l5.554 3.178a1.113 1.113 0 0 0 1.118 0l5.554-3.178a.55.55 0 0 0 .272-.482.561.561 0 0 0-.272-.481l-5.54-3.257a1.134 1.134 0 0 0-1.14 0Z"/><path opacity=".92" d="m36.753 100.934-5.514 3.237a.551.551 0 0 0-.27.478.556.556 0 0 0 .27.477l5.52 3.161a1.118 1.118 0 0 0 1.11 0l5.519-3.161a.556.556 0 0 0 0-.955l-5.514-3.237a1.116 1.116 0 0 0-1.12 0Z"/><path opacity=".94" d="m36.756 100.957-5.492 3.216a.553.553 0 0 0 0 .95l5.492 3.141a1.118 1.118 0 0 0 1.105 0l5.492-3.141a.555.555 0 0 0 0-.95l-5.479-3.216a1.112 1.112 0 0 0-1.118 0Z"/><path opacity=".96" d="m36.761 100.98-5.444 3.198a.543.543 0 0 0-.198.744.533.533 0 0 0 .198.198l5.45 3.121a1.1 1.1 0 0 0 1.095 0l5.451-3.121a.547.547 0 0 0 0-.942l-5.444-3.198a1.104 1.104 0 0 0-1.108 0Z"/><path opacity=".98" d="m36.765 101.004-5.414 3.178a.546.546 0 0 0 0 .937l5.414 3.1a1.1 1.1 0 0 0 1.09 0l5.415-3.1a.536.536 0 0 0 .268-.468.545.545 0 0 0-.268-.469l-5.41-3.178a1.1 1.1 0 0 0-1.095 0Z"/><path opacity=".3" d="m36.767 101.028-5.374 3.156a.536.536 0 0 0-.265.465.54.54 0 0 0 .265.464l5.381 3.082a1.087 1.087 0 0 0 1.084 0l5.379-3.082a.529.529 0 0 0 .267-.464.537.537 0 0 0-.267-.465l-5.374-3.156a1.1 1.1 0 0 0-1.096 0Z"/></g><path d="m36.695 100.41-6.402 2.937v1.079a.714.714 0 0 0 .349.615l6.063 3.508a1.223 1.223 0 0 0 1.23 0l6.046-3.465a.705.705 0 0 0 .35-.612v-.995l-6.383-3.067a1.246 1.246 0 0 0-1.253 0Z" fill="url(#e)"/><path d="m36.695 99.24-6.093 3.582a.602.602 0 0 0-.303.528.616.616 0 0 0 .303.528l6.108 3.499a1.233 1.233 0 0 0 1.23 0l6.11-3.499a.615.615 0 0 0 0-1.056l-6.102-3.582a1.232 1.232 0 0 0-1.253 0Z" fill="#EFF4FE"/><path d="M59.481 105.121a.514.514 0 0 1-.27-.074l-4.016-2.358a.54.54 0 0 1-.277-.333.558.558 0 0 1 .195-.6.522.522 0 0 1 .621-.014l4.017 2.358a.547.547 0 0 1 .244.612.544.544 0 0 1-.514.404v.005ZM49.727 110.9a.523.523 0 0 1-.27-.074l-4.016-2.359a.54.54 0 0 1-.25-.331.557.557 0 0 1 .191-.576.528.528 0 0 1 .596-.04l4.019 2.359a.555.555 0 0 1 .054.902.524.524 0 0 1-.324.113v.006ZM49.345 98.23l-1.186-.697 1.183-.683a.557.557 0 0 0 .176-.731.531.531 0 0 0-.707-.22l-1.733.999-1.747-1.016a.534.534 0 0 0-.767.18.555.555 0 0 0 .228.767l1.203.706-1.183.686a.547.547 0 0 0-.24.608.55.55 0 0 0 .186.288c.091.074.203.115.319.12a.54.54 0 0 0 .267-.072l1.732-1.015 1.747 1.015a.517.517 0 0 0 .591-.04.546.546 0 0 0 .17-.638.543.543 0 0 0-.224-.264l-.015.008ZM48.808 108.534a1.358 1.358 0 0 0 1.248 0c.342-.2.342-.528 0-.728a1.346 1.346 0 0 0-1.248 0c-.344.221-.344.536 0 .728ZM45.441 110.605a1.37 1.37 0 0 0 1.249 0c.342-.201.342-.531 0-.731a1.358 1.358 0 0 0-1.248 0c-.342.2-.342.53 0 .731ZM40.336 102.617H37.84l.02-1.221a.553.553 0 0 0-.151-.389.537.537 0 0 0-.883.161.548.548 0 0 0-.041.21l-.023 1.239h-2.464a.536.536 0 0 0-.53.329.554.554 0 0 0 .313.735c.07.025.144.036.217.031h2.447l-.023 1.213a.558.558 0 0 0 .15.391.54.54 0 0 0 .38.168.537.537 0 0 0 .377-.157.554.554 0 0 0 .161-.381l.02-1.234h2.526a.54.54 0 0 0 .503-.548.54.54 0 0 0-.503-.547Z" fill="#326EBD"/><path d="M65.87 113.317a.536.536 0 0 1-.266-.074l-4.019-2.361a.542.542 0 0 1-.278-.333.557.557 0 0 1 .196-.6.546.546 0 0 1 .418-.098.539.539 0 0 1 .203.084l4.016 2.359a.547.547 0 0 1 .239.61.549.549 0 0 1-.188.288.523.523 0 0 1-.32.117v.008ZM63.783 114.824a.532.532 0 0 1-.27-.073l-4.015-2.359a.54.54 0 0 1-.278-.333.558.558 0 0 1 .196-.6.53.53 0 0 1 .62-.014l4.017 2.359a.554.554 0 0 1 .054.901.532.532 0 0 1-.324.114v.005Z" fill="#EFF4FE"/><path opacity=".3" d="M47.576 21.463 22.39 6.674a.911.911 0 0 0-1.265.344.953.953 0 0 0-.123.471v53.4L47.96 76.861c0-.29.018-.582.018-.87l.075-53.685a.992.992 0 0 0-.128-.486.97.97 0 0 0-.35-.357Z" fill="#2647C8"/><path d="M52.517 89.192 31.351 76.671a.988.988 0 0 1-.477-.84v-.834l10.858-6.499 24.71 13.73v.775l-10.547 6.194a3.312 3.312 0 0 1-3.378-.005Z" fill="#C2CAE8"/><path d="M52.515 88.416 31.406 75.933a1.112 1.112 0 0 1-.015-1.891l10.334-6.317 24.71 14.504-10.545 6.192a3.314 3.314 0 0 1-3.375-.005Z" fill="#EFF4FE"/><path d="M17.386 58.195 81.94 96.438a3.215 3.215 0 0 0 3.261.014c.497-.29.91-.707 1.198-1.21.288-.504.44-1.075.441-1.657l.172-48.777a7.083 7.083 0 0 0-.91-3.495 6.933 6.933 0 0 0-2.504-2.565L18.87.454a3.218 3.218 0 0 0-3.265-.009c-.497.291-.91.71-1.197 1.215a3.36 3.36 0 0 0-.438 1.66v48.85a7.077 7.077 0 0 0 .918 3.476 6.928 6.928 0 0 0 2.497 2.55Z" fill="#26538E"/><path d="m86.84 94.146.025-7.063L13.98 44.41v8.31c0 1.221.314 2.421.913 3.48a6.924 6.924 0 0 0 2.497 2.555L81.945 97a3.22 3.22 0 0 0 3.256.008 3.288 3.288 0 0 0 1.196-1.208c.287-.502.44-1.072.443-1.654Z" fill="#EFF4FE"/><path d="M83.588 38.748 18.87.454a3.2 3.2 0 0 0-3.994.577 3.18 3.18 0 0 1 3.245 0l64.713 38.293a6.925 6.925 0 0 1 2.506 2.565c.6 1.064.913 2.27.909 3.496l-.16 49.335a3.305 3.305 0 0 1-.901 2.285 3.273 3.273 0 0 0 1.201-1.21c.289-.503.441-1.076.441-1.66l.182-49.327a7.081 7.081 0 0 0-.914-3.496 6.933 6.933 0 0 0-2.51-2.564Z" fill="#C2CAE8"/><path d="M19.334 6.346v55.96c.002 3.299-.851 6.54-2.473 9.398a18.633 18.633 0 0 1-6.762 6.88l-9.62 5.65a.962.962 0 0 0-.348.354.983.983 0 0 0 .348 1.324L24.8 100.195a2.564 2.564 0 0 0 2.599 0l6.989-4.11a24.033 24.033 0 0 0 8.706-8.84 24.553 24.553 0 0 0 3.21-12.08l.072-54.002a.977.977 0 0 0-.476-.843L20.714 5.531a.914.914 0 0 0-1.255.349.954.954 0 0 0-.125.466Z" fill="#EFF4FE"/><path d="M46.312 74.917a24.556 24.556 0 0 1-3.21 12.08 24.036 24.036 0 0 1-8.707 8.84l-6.989 4.11a2.567 2.567 0 0 1-2.598 0L.486 85.664a.943.943 0 0 1-.466-.716.974.974 0 0 0 .088.555.953.953 0 0 0 .378.41l24.322 14.283a2.564 2.564 0 0 0 2.598 0l6.99-4.11a24.033 24.033 0 0 0 8.706-8.84 24.553 24.553 0 0 0 3.21-12.08l.072-54.002-.072 53.753Z" fill="#A3B0DC"/><path d="m21.054 40.178 13.604 7.995v3.209l-13.604-7.995v-3.21Z" fill="#326EBD"/><path d="m21.054 46.8 23.67 13.901v1.566l-23.67-13.9v-1.566ZM21.054 50.86l11.834 6.948v1.567l-11.834-6.95V50.86Z" fill="#D6DCEF"/><path d="m21.044 59.344 14.408 8.815-.442 2.76-14.203-8.689.237-2.886Z" fill="#326EBD"/><path d="m20.31 65.133 22.822 13.943-.214 1.348-22.665-13.85.058-1.441ZM19.572 68.53l12.535 7.662-.215 1.348-12.535-7.663.215-1.348Z" fill="#D6DCEF"/><path d="m17.26 75.438 14.046 8.291-2.701 1.679-14.36-8.107 3.015-1.864Z" fill="#326EBD"/><path d="m12.428 78.451 23.34 13.84-1.068.746L11.314 79.2l1.114-.749ZM9.714 80.424l14.043 8.292-1.068.746L8.6 81.172l1.113-.748Z" fill="#D6DCEF"/><path d="M60.287 31.114 80.97 43.26c.484.285.887.694 1.167 1.187.28.492.427 1.052.428 1.62v29.685c0 .37-.096.735-.278 1.056a2.091 2.091 0 0 1-.76.773 2.047 2.047 0 0 1-2.075 0l-20.68-12.147a3.215 3.215 0 0 1-1.168-1.187 3.283 3.283 0 0 1-.427-1.623V32.942c0-.37.096-.734.278-1.055.182-.32.444-.587.759-.772a2.048 2.048 0 0 1 2.073-.001Z" fill="#326EBD"/><path d="M30.401 22.033c-3.744-2.196-6.799-.399-6.799 3.993 0 4.393 3.06 9.78 6.8 11.976 3.738 2.196 6.799.399 6.799-3.99 0-4.39-3.06-9.783-6.8-11.98Z" fill="#BD5612"/><path d="M29.516 22.258c-3.744-2.197-6.8-.4-6.8 3.99 0 4.39 3.06 9.783 6.8 11.979 3.739 2.196 6.799.399 6.799-3.994 0-4.392-3.06-9.78-6.8-11.975Z" fill="#FC7318"/><path d="m32.627 32.587-3.794.395c-.439.046-.998-.54-.998-1.053V27.47c0-.508.547-.572.998-.102l3.794 4.062c.437.467.437 1.112 0 1.158l-3.794.396c-.439.046-.998-.54-.998-1.053v-4.459c0-.508.547-.571.998-.101l3.794 4.062c.437.462.437 1.107 0 1.152Z" fill="#EFF4FE"/><g clip-path="url(#f)"><path d="M78.89 65.157c0 .79-.546 1.107-1.212.706L63.51 57.325a2.82 2.82 0 0 1-.862-.938 2.875 2.875 0 0 1-.368-1.228l-.128-11.879c0-.79.532-1.11 1.203-.708l14.318 8.55c.354.24.648.56.86.936.21.376.333.796.358 1.228v11.871Z" fill="#326EBD"/><path d="M78.89 65.055V56.79a1.276 1.276 0 0 0-.227-.414 1.398 1.398 0 0 0-1.333-.353 5.196 5.196 0 0 0-1.32.569 5.332 5.332 0 0 1-1.947.662 2.418 2.418 0 0 1-1.92-.589c-.499-.49-.768-1.269-1.417-1.548-.577-.242-1.22.025-1.817.215-1.313.417-2.908.386-3.87-.616-.56-.584-.91-1.486-1.691-1.684a1.404 1.404 0 0 0-.143-.025c-.33-.03-.662.05-.946.226l.02 1.927c.03.432.155.853.368 1.228.214.375.509.696.863.938l1.2.723c.804.46 1.595.934 2.387 1.414l6.687 4.062 3.893 2.346c.143.09.303.148.47.17a.512.512 0 0 0 .162-.015c.324-.086.47-.465.55-.797.012-.066.019-.122.032-.175Z" fill="#EFF4FE"/><path d="M78.467 65.443V53.572a2.827 2.827 0 0 0-.358-1.228 2.774 2.774 0 0 0-.858-.936l-14.32-8.55a1 1 0 0 0-.643-.165c.2-.33.604-.4 1.068-.122l14.317 8.55c.354.24.648.56.86.936.211.376.334.796.358 1.228v11.871c0 .508-.224.818-.564.871.1-.177.148-.38.14-.584Z" fill="#26538E"/></g></g><defs><linearGradient id="b" x1="50.444" y1="104.576" x2="64.485" y2="104.576" gradientUnits="userSpaceOnUse"><stop stop-color="#99A7D8"/><stop offset=".38" stop-color="#BBC5E7"/><stop offset="1" stop-color="#EFF4FE"/></linearGradient><linearGradient id="c" x1="23119.2" y1="23639.4" x2="23909.3" y2="23639.4" gradientUnits="userSpaceOnUse"><stop stop-color="#99A7D8"/><stop offset=".38" stop-color="#BBC5E7"/><stop offset="1" stop-color="#EFF4FE"/></linearGradient><linearGradient id="d" x1="23081.6" y1="23222.8" x2="23871.6" y2="23222.8" gradientUnits="userSpaceOnUse"><stop stop-color="#99A7D8"/><stop offset=".38" stop-color="#BBC5E7"/><stop offset="1" stop-color="#EFF4FE"/></linearGradient><linearGradient id="e" x1="22515.5" y1="23421.6" x2="23305.1" y2="23421.6" gradientUnits="userSpaceOnUse"><stop stop-color="#99A7D8"/><stop offset=".38" stop-color="#BBC5E7"/><stop offset="1" stop-color="#EFF4FE"/></linearGradient><clipPath id="a"><path fill="#fff" d="M0 0h87v121.383H0z"/></clipPath><clipPath id="f"><path fill="#fff" transform="translate(62.152 42.398)" d="M0 0h16.739v23.639H0z"/></clipPath></defs></svg>