<svg width="86" height="106" fill="none" xmlns="http://www.w3.org/2000/svg"><g clip-path="url(#a)"><path d="M69.397 97.743h-1.032a7.116 7.116 0 0 0-1.888-1.515c-3.91-2.208-10.317-2.208-14.2 0a7.066 7.066 0 0 0-1.894 1.515H49.35v2.127c-.185 1.581.774 3.198 2.9 4.4 3.904 2.208 10.316 2.208 14.2 0 2.12-1.202 3.096-2.819 2.894-4.4h.031l.021-2.127Z" fill="#FEB423"/><path d="M54.297 95.363c-.34.111-.67.238-.985.374v9.037c.314.137.644.263.985.374v-9.785ZM51.332 96.865v6.779c.297.23.61.44.939.626l.051.025v-8.082h-.051c-.33.193-.644.41-.939.652ZM56.278 94.863c-.344.06-.674.132-.99.213v10.36c.323.081.653.152.99.212V94.863ZM67.173 96.691v7.133c.358-.25.69-.534.99-.848V97.54c-.298-.316-.63-.6-.99-.849ZM69.154 101.455c.197-.505.27-1.048.212-1.586h.03v-2.127h-.242v3.713ZM64.201 95.288a14.09 14.09 0 0 0-.99-.272v10.482c.344-.081.674-.172.99-.273v-9.937ZM50.342 102.728v-4.986h-.975v2.127a3.677 3.677 0 0 0 .181 1.53c.168.492.438.945.794 1.329ZM66.208 96.095a9.798 9.798 0 0 0-.99-.454v9.229c.338-.133.669-.285.99-.455v-8.32ZM58.26 94.611c-.33 0-.66.056-.991.091v11.114c.33.035.66.07.99.091V94.611ZM60.24 105.902v-11.29h-.99v11.33c.33-.015.666-.02.99-.04ZM62.222 94.819a12.638 12.638 0 0 0-.99-.132v11.114c.335-.035.665-.076.99-.131V94.819Z" fill="#FD8F46"/><path d="M59.369 103.118c5.546 0 10.043-2.542 10.043-5.678s-4.497-5.678-10.043-5.678c-5.547 0-10.044 2.542-10.044 5.678s4.497 5.678 10.044 5.678Z" fill="#FEC34F"/><path d="M65.76 93.645c-3.513-1.985-9.285-1.985-12.783 0-3.497 1.986-3.518 5.244 0 7.229 3.519 1.985 9.286 1.99 12.783 0s3.544-5.254 0-7.229Z" fill="#FD8F46"/><path d="M64.976 94.066c-3.095-1.713-8.13-1.713-11.214 0-3.085 1.712-3.095 4.516 0 6.228 3.095 1.713 8.13 1.713 11.214 0 3.085-1.712 3.085-4.516 0-6.228Z" fill="#FEC34F"/><path d="M60.116 99.37h-2.791c-.64 0-1.16-.299-1.16-.668v-.338h1.655v.06h2.296c.443 0 .8-.207.8-.454 0-.167-.233-.298-.516-.298h-2.064c-1.202 0-2.177-.556-2.177-1.243v-.166c0-.773 1.099-1.4 2.456-1.4h2.79c.64 0 1.16.298 1.16.662v.384H60.91v-.106h-2.295c-.444 0-.8.207-.8.46v.166c0 .167.232.298.516.298h2.063c1.202 0 2.177.556 2.177 1.243.026.768-1.099 1.4-2.455 1.4Z" fill="#FC7318"/><path d="M60.194 94.404H58.54v5.557h1.655v-5.557Z" fill="#FC7318"/><path d="M69.397 94.241h-1.032a7.029 7.029 0 0 0-1.888-1.515c-3.91-2.208-10.317-2.208-14.2 0a6.977 6.977 0 0 0-1.894 1.515H49.35v2.127c-.185 1.581.774 3.198 2.9 4.4 3.904 2.208 10.316 2.208 14.2 0 2.12-1.202 3.096-2.819 2.894-4.4h.031l.021-2.127Z" fill="#FEB423"/><path d="M54.297 91.857c-.34.117-.67.238-.985.374v9.037c.32.142.65.267.985.374v-9.785ZM51.332 93.358v6.809c.297.231.61.44.939.626h.051v-8.082h-.051c-.33.192-.644.408-.939.647ZM56.278 91.357c-.335.061-.665.132-.99.218v10.355c.325.081.655.152.99.218v-10.79ZM67.173 93.186v7.132c.358-.25.69-.534.99-.848v-5.436a6.576 6.576 0 0 0-.99-.849ZM69.154 97.95a3.35 3.35 0 0 0 .212-1.581h.03v-2.127h-.242v3.708ZM64.201 91.783c-.32-.102-.65-.192-.99-.273v10.482c.34-.076.67-.167.99-.268v-9.941ZM50.342 99.223v-4.98h-.975v2.126a3.663 3.663 0 0 0 .181 1.527c.168.492.438.943.794 1.327ZM66.208 92.59a11.03 11.03 0 0 0-.99-.455v9.234c.337-.137.668-.29.99-.46v-8.32ZM58.26 91.12c-.344.02-.675.05-.991.09v11.083c.344.041.674.071.99.091V91.119ZM60.24 102.401V91.106h-.99v11.335c.33-.02.666-.025.99-.04ZM62.222 91.313a15.566 15.566 0 0 0-.99-.131v11.143c.335-.035.665-.08.99-.131V91.313Z" fill="#FD8F46"/><path d="M59.369 99.618c5.546 0 10.043-2.542 10.043-5.678s-4.497-5.678-10.043-5.678c-5.547 0-10.044 2.542-10.044 5.678s4.497 5.678 10.044 5.678Z" fill="#FEC34F"/><path d="M65.76 90.14c-3.513-1.986-9.285-1.986-12.783 0-3.497 1.985-3.518 5.243 0 7.228 3.519 1.985 9.286 1.99 12.783 0s3.544-5.238 0-7.229Z" fill="#FD8F46"/><path d="M64.976 90.57c-3.095-1.713-8.13-1.713-11.214 0-3.085 1.712-3.095 4.516 0 6.228 3.095 1.713 8.13 1.713 11.214 0 3.085-1.712 3.085-4.521 0-6.228Z" fill="#FEC34F"/><path d="M60.116 95.863h-2.791c-.64 0-1.16-.298-1.16-.661v-.339h1.655v.056h2.296c.443 0 .8-.202.8-.455 0-.162-.233-.298-.516-.298h-2.064c-1.202 0-2.177-.556-2.177-1.237v-.172c0-.773 1.099-1.4 2.456-1.4h2.79c.64 0 1.16.298 1.16.662v.384H60.91v-.1h-2.295c-.444 0-.8.201-.8.454v.171c0 .162.232.299.516.299h2.063c1.202 0 2.177.555 2.177 1.237.026.773-1.099 1.4-2.455 1.4Z" fill="#FC7318"/><path d="M60.194 90.902H58.54v5.557h1.655v-5.557Z" fill="#FC7318"/><path d="M69.397 90.736h-1.032a7.114 7.114 0 0 0-1.888-1.516c-3.91-2.213-10.317-2.213-14.2 0a7.066 7.066 0 0 0-1.894 1.516H49.35v2.126c-.185 1.581.774 3.198 2.9 4.4 3.904 2.208 10.316 2.208 14.2 0 2.12-1.202 3.096-2.819 2.894-4.4h.031l.021-2.126Z" fill="#FEB423"/><path d="M54.297 88.357c-.34.112-.67.238-.985.374v9.038c.314.136.644.262.985.373v-9.785ZM51.332 89.858v6.774c.297.23.61.44.939.626h.051v-8.082l-.051.03c-.331.191-.645.41-.939.652ZM56.278 87.857c-.344.061-.674.132-.99.213v10.36c.323.081.653.152.99.212V87.858ZM67.173 89.686v7.132c.36-.25.692-.536.99-.853v-5.436a6.558 6.558 0 0 0-.99-.843ZM69.154 94.45a3.37 3.37 0 0 0 .212-1.587h.03v-2.127h-.242v3.713ZM64.201 88.275c-.32-.096-.65-.191-.99-.267V98.49c.344-.081.674-.172.99-.273v-9.942ZM50.342 95.722v-4.986h-.975v2.127a3.685 3.685 0 0 0 .182 1.53c.167.492.438.944.793 1.33ZM66.208 89.089a11.06 11.06 0 0 0-.99-.46v9.234c.338-.133.669-.285.99-.454v-8.32ZM58.26 87.615c-.344.02-.675.05-.991.091V98.79c.344.04.674.071.99.091V87.615ZM60.24 98.895V87.6h-.99v11.335c.33-.015.666-.025.99-.04ZM62.222 87.812c-.323-.054-.654-.1-.99-.136V98.82c.335-.036.665-.076.99-.132V87.812Z" fill="#FD8F46"/><path d="M59.369 96.112c5.546 0 10.043-2.542 10.043-5.678s-4.497-5.678-10.043-5.678c-5.547 0-10.044 2.542-10.044 5.678s4.497 5.678 10.044 5.678Z" fill="#FEC34F"/><path d="M65.76 86.64c-3.513-1.991-9.285-1.991-12.783 0-3.497 1.99-3.518 5.238 0 7.228 3.519 1.99 9.286 1.985 12.783 0s3.544-5.243 0-7.229Z" fill="#FD8F46"/><path d="M64.976 87.06c-3.095-1.713-8.13-1.713-11.214 0-3.085 1.712-3.095 4.516 0 6.228 3.095 1.713 8.13 1.713 11.214 0 3.085-1.712 3.085-4.516 0-6.228Z" fill="#FEC34F"/><path d="M60.116 92.358h-2.791c-.64 0-1.16-.299-1.16-.662v-.339h1.655v.061h2.296c.443 0 .8-.207.8-.46 0-.161-.233-.293-.516-.293h-2.064c-1.202 0-2.177-.56-2.177-1.242v-.172c0-.768 1.099-1.4 2.456-1.4h2.79c.64 0 1.16.299 1.16.667v.384H60.91v-.106h-2.295c-.444 0-.8.207-.8.455v.172c0 .166.232.298.516.298h2.063c1.202 0 2.177.555 2.177 1.237.026.773-1.099 1.4-2.455 1.4Z" fill="#FC7318"/><path d="M60.194 87.397H58.54v5.556h1.655v-5.556Z" fill="#FC7318"/><path d="m14.857.308-.475.333v16.246c.053.93.329 1.835.804 2.641a5.995 5.995 0 0 0 1.935 2.002l14.196 8.082 1.125-.54c.205-.098.377-.25.497-.44s.184-.408.184-.631V12.472a5.786 5.786 0 0 0-.807-2.635 5.932 5.932 0 0 0-1.943-1.987L16.688.217a1.742 1.742 0 0 0-1.831.09Z" fill="#26538E"/><path d="M16.296.823c-1.511-.839-2.75-.137-2.75 1.566v14.826c.053.93.329 1.835.805 2.641a5.996 5.996 0 0 0 1.934 2.002l13.268 7.501c1.506.849 2.74.157 2.74-1.55V12.81a5.817 5.817 0 0 0-.81-2.636 5.961 5.961 0 0 0-1.94-1.991L16.296.823Z" fill="#326EBD"/><g opacity=".32" fill="#231F20"><path opacity=".32" d="m20.36 10.572-.217-.136c-.299-.172-.448-.127-.448.146v2.172c0 .37-.13.566-.382.591.242.284.375.641.376 1.01v2.269c0 .232.222.475.666.727v1.273l-.573-.293a2.712 2.712 0 0 1-1.119-.97 2.633 2.633 0 0 1-.428-1.404v-2.172a.585.585 0 0 0-.238-.56l-.47-.274v-1.273l.47.273c.16.091.238 0 .238-.298V9.562c0-.99.515-1.19 1.547-.601l.562.323.016 1.288ZM24.734 19.898l.217.131c.3.177.449.127.449-.141V17.71c0-.37.129-.566.381-.591a1.586 1.586 0 0 1-.376-1.01V13.84c0-.227-.222-.47-.67-.727v-1.268l.562.323c.458.215.845.552 1.119.971.273.42.421.906.428 1.403v2.132a.586.586 0 0 0 .237.566l.47.273v1.268l-.47-.273c-.16-.091-.237 0-.237.303v2.086c0 1.01-.516 1.197-1.547.601l-.563-.323v-1.278Z"/></g><path d="m18.88 10.21-.743.363.072 1.819c0 .369-.129.566-.381.59.24.285.375.642.381 1.011v2.268c0 .233.222.475.666.728v1.273l-.743.363c-1.032-.59-1.362-2.076-1.362-3.066v-2.132a.59.59 0 0 0-.232-.56l-.474-.273V11.32l.474.273c.155.09.232 0 .237-.298V9.24c0-.99.516-1.19 1.548-.602l.567.324-.01 1.248ZM23.25 19.535l.216.131c.3.177.454.126.454-.142v-2.177c0-.363.124-.565.377-.59a1.586 1.586 0 0 1-.377-1.011v-2.268c0-.226-.222-.468-.666-.728l-.742-.904.742-.364.563.324c.457.216.845.552 1.118.972.273.419.422.904.43 1.402v2.132a.595.595 0 0 0 .237.566l.474.272v1.268l-.738.364c-.16-.091.031 1.758.031 1.758 0 1.01-1.361 1.293-1.361 1.293l-.743-1.01-.015-1.288Z" fill="#EBE9EC"/><path d="M15.32 11.7h1.115v.742l-.913-.182-.201-.56Z" fill="#EBE9EC"/><path d="m18.137 10.572-.216-.136c-.3-.172-.454-.126-.454.146v2.173c0 .368-.124.565-.382.59.241.285.376.641.382 1.011v2.268c0 .233.221.475.665.728v1.273l-.567-.329a2.722 2.722 0 0 1-1.118-.972 2.643 2.643 0 0 1-.43-1.402v-2.137a.58.58 0 0 0-.232-.56l-.475-.273v-1.273l.475.272c.155.091.237 0 .237-.298v-2.09c0-1.011.516-1.193 1.548-.602l.567.323v1.288ZM22.506 19.898l.217.131c.3.177.454.127.454-.141V17.71c0-.37.129-.566.382-.591a1.591 1.591 0 0 1-.382-1.01V13.84c0-.226-.222-.468-.665-.727v-1.268l.567.323a2.72 2.72 0 0 1 1.118.972c.273.42.422.905.43 1.402v2.132a.584.584 0 0 0 .232.566l.474.273v1.268l-.474-.273c-.155-.091-.238 0-.238.303v2.086c0 1.01-.515 1.21-1.547.601l-.568-.323v-1.278Z" fill="#fff"/><path d="M82.566 26.414 44.909 5.116a1.96 1.96 0 0 0-1.93 0 1.91 1.91 0 0 0-.706.692c-.169.288-.258.613-.258.945v63.104l40.917 23.131 2.192-1.04v-61.22a4.925 4.925 0 0 0-.691-2.492 5.06 5.06 0 0 0-1.867-1.822Z" fill="#EFF4FE"/><path d="M82.566 26.415 44.909 5.118a1.954 1.954 0 0 0-2.441.426 1.869 1.869 0 0 0-.396.781c.227.037.445.112.645.223l37.657 21.297a5.05 5.05 0 0 1 1.87 1.83c.447.76.683 1.622.683 2.5V93l2.193-1.04V30.73a4.928 4.928 0 0 0-.69-2.491 5.061 5.061 0 0 0-1.864-1.824Z" fill="#D6E2F2"/><path d="M59.404 66.776 47.85 60.168a.934.934 0 0 0-.921-.004.909.909 0 0 0-.338.33.885.885 0 0 0-.123.452v11.18L60.6 80.207V68.817c0-.413-.11-.819-.32-1.177a2.389 2.389 0 0 0-.877-.864Z" fill="#FEB423"/><path d="m61.309 56.75-14.511-8.107v1.556l14.51 8.011v-1.46ZM61.143 59.84l-14.51-8.108v1.556l14.51 8.017V59.84ZM54.24 59.255l-7.773-4.43v1.555l7.774 4.34v-1.465Z" fill="#84A8D7"/><path d="m76.913 29.95-11.348-6.496a1.048 1.048 0 0 0-1.41.369.995.995 0 0 0-.138.505V36.27c0 .418.111.83.324 1.194.213.363.519.666.888.877l11.349 6.501a1.048 1.048 0 0 0 1.409-.37.995.995 0 0 0 .139-.504V32.026c0-.42-.112-.832-.324-1.196a2.43 2.43 0 0 0-.889-.88Z" fill="#326EBD"/><g opacity=".5" fill="#FC7318"><path opacity=".02" d="m77.12 58.947-12.077-6.91a.845.845 0 0 0-1.134.291.8.8 0 0 0-.114.405v12.77c0 .223.06.442.174.635.113.193.275.354.47.467l12.082 6.905a.837.837 0 0 0 1.132-.291.796.796 0 0 0 .111-.406v-12.77c0-.222-.059-.44-.172-.633a1.277 1.277 0 0 0-.473-.463Z"/><path opacity=".05" d="m76.99 59.013-11.937-6.835a.827.827 0 0 0-1.119.29.785.785 0 0 0-.108.402V65.5c-.001.219.057.435.169.625.111.191.271.35.465.46l11.937 6.83a.834.834 0 0 0 1.122-.29.79.79 0 0 0 .11-.402V60.094c0-.22-.059-.435-.171-.625a1.262 1.262 0 0 0-.468-.456Z"/><path opacity=".07" d="M76.861 59.074 65.069 52.33a.823.823 0 0 0-1.107.286.781.781 0 0 0-.11.396V65.48c0 .216.059.429.17.617.11.188.268.344.459.454l11.797 6.748a.817.817 0 0 0 1.105-.285.776.776 0 0 0 .108-.396V60.15a1.218 1.218 0 0 0-.168-.62 1.25 1.25 0 0 0-.462-.456Z"/><path opacity=".1" d="M76.732 59.14 65.08 52.475a.807.807 0 0 0-1.09.282.765.765 0 0 0-.106.39v12.316c0 .214.057.425.166.61.108.187.264.342.453.45l11.653 6.664a.808.808 0 0 0 1.09-.282.764.764 0 0 0 .106-.39V60.2c0-.214-.056-.425-.165-.611a1.24 1.24 0 0 0-.454-.45Z"/><path opacity=".12" d="m76.603 59.205-11.508-6.567a.803.803 0 0 0-1.078.277.76.76 0 0 0-.108.385v12.17c0 .21.056.419.164.603.107.183.263.336.45.442l11.508 6.567a.801.801 0 0 0 1.08-.28.76.76 0 0 0 .106-.387V60.261a1.188 1.188 0 0 0-.161-.609 1.22 1.22 0 0 0-.453-.447Z"/><path opacity=".15" d="m76.475 59.25-11.349-6.507a.791.791 0 0 0-1.062.281.75.75 0 0 0-.104.381v12.013c.005.204.063.405.168.582.106.177.256.324.436.428l11.349 6.501a.792.792 0 0 0 1.067-.278.75.75 0 0 0 .103-.383V60.255a1.168 1.168 0 0 0-.169-.581 1.2 1.2 0 0 0-.44-.424Z"/><path opacity=".17" d="m76.346 59.331-11.225-6.42a.78.78 0 0 0-1.053.274.74.74 0 0 0-.103.378v11.86c.002.205.058.406.163.583.105.177.255.325.436.428l11.224 6.42a.784.784 0 0 0 .769.004.762.762 0 0 0 .282-.274.74.74 0 0 0 .105-.376V60.342a1.163 1.163 0 0 0-.163-.583 1.195 1.195 0 0 0-.435-.428Z"/><path opacity=".2" d="m76.217 59.397-11.08-6.34a.775.775 0 0 0-1.041.27.737.737 0 0 0-.105.372v11.714c0 .205.054.406.158.584.104.177.254.324.435.427l11.08 6.34a.77.77 0 0 0 1.039-.27.73.73 0 0 0 .102-.372v-11.71a1.143 1.143 0 0 0-.155-.585 1.175 1.175 0 0 0-.433-.43Z"/><path opacity=".22" d="m76.088 59.462-10.94-6.275a.76.76 0 0 0-1.024.266.72.72 0 0 0-.101.366v11.563c-.003.204.05.405.152.582.102.178.25.326.43.428l10.936 6.26a.766.766 0 0 0 1.028-.27.726.726 0 0 0 .102-.367V60.457c0-.202-.054-.4-.156-.574a1.164 1.164 0 0 0-.427-.421Z"/><path opacity=".24" d="M75.954 59.522 65.178 53.35a.749.749 0 0 0-1.016.262.71.71 0 0 0-.099.365v11.406c.002.2.056.395.157.567.101.173.246.317.421.418l10.797 6.173a.75.75 0 0 0 1.009-.26c.065-.11.1-.234.1-.361V60.507a1.118 1.118 0 0 0-.16-.57 1.149 1.149 0 0 0-.433-.415Z"/><path opacity=".27" d="m75.825 59.587-10.647-6.092a.74.74 0 0 0-.996.26.7.7 0 0 0-.097.357v11.26c0 .196.052.388.152.558.1.17.242.312.415.411l10.652 6.093a.738.738 0 0 0 .996-.26.7.7 0 0 0 .098-.357v-11.26c0-.196-.053-.39-.153-.56-.101-.17-.246-.312-.42-.41Z"/><path opacity=".29" d="m75.696 59.655-10.518-6.012a.73.73 0 0 0-.987.253.691.691 0 0 0-.096.354v11.113c-.001.195.05.387.15.555.1.17.244.309.417.405l10.508 6.016a.733.733 0 0 0 .986-.258.695.695 0 0 0 .097-.353V60.615a1.078 1.078 0 0 0-.146-.554 1.107 1.107 0 0 0-.41-.406Z"/><path opacity=".32" d="M75.567 59.72 65.2 53.788a.718.718 0 0 0-.973.247.68.68 0 0 0-.095.349v10.962c0 .19.053.377.15.542.098.165.238.302.407.397l10.363 5.93a.716.716 0 0 0 .974-.25.68.68 0 0 0 .094-.35V60.659c0-.19-.05-.377-.148-.542a1.097 1.097 0 0 0-.404-.398Z"/><path opacity=".34" d="m75.436 59.78-10.224-5.85a.712.712 0 0 0-.936.262.676.676 0 0 0-.095.335v10.785c0 .188.05.373.146.536.096.163.234.299.4.393l10.225 5.85a.712.712 0 0 0 .935-.258.677.677 0 0 0 .096-.333V60.69a1.069 1.069 0 0 0-.153-.524 1.098 1.098 0 0 0-.394-.386Z"/><path opacity=".37" d="m75.308 59.847-10.085-5.769a.703.703 0 0 0-.939.25.665.665 0 0 0-.093.336v10.649c-.002.183.045.364.135.525.09.162.222.297.38.394l10.086 5.769a.702.702 0 0 0 .938-.25.666.666 0 0 0 .093-.336V60.766a1.052 1.052 0 0 0-.135-.525 1.08 1.08 0 0 0-.38-.394Z"/><path opacity=".39" d="m75.18 59.912-9.94-5.688a.691.691 0 0 0-.94.239.656.656 0 0 0-.091.337v10.512c-.001.182.046.36.136.519.09.158.221.291.38.386l9.94 5.683a.692.692 0 0 0 .94-.239.656.656 0 0 0 .091-.337V60.816a1.034 1.034 0 0 0-.136-.518 1.061 1.061 0 0 0-.38-.386Z"/><path opacity=".41" d="m75.052 59.973-9.801-5.602a.68.68 0 0 0-.944.227.647.647 0 0 0-.088.339v10.376a.993.993 0 0 0 .134.513c.091.156.223.286.382.376l9.8 5.607a.681.681 0 0 0 .944-.227.646.646 0 0 0 .088-.339V60.888a1.027 1.027 0 0 0-.133-.525 1.055 1.055 0 0 0-.382-.39Z"/><path opacity=".44" d="m74.921 60.038-9.657-5.522a.67.67 0 0 0-.902.238.637.637 0 0 0-.088.323v10.2c0 .177.047.352.137.507.09.154.221.282.379.371l9.672 5.522a.666.666 0 0 0 .903-.232.63.63 0 0 0 .087-.324V60.917c0-.18-.05-.356-.144-.51a1.022 1.022 0 0 0-.387-.37Z"/><path opacity=".46" d="m74.792 60.103-9.512-5.44a.661.661 0 0 0-.893.23.627.627 0 0 0-.087.32v10.053c.002.175.05.347.14.498.091.152.22.278.376.365l9.512 5.441a.658.658 0 0 0 .893-.23.626.626 0 0 0 .087-.32V60.966a.994.994 0 0 0-.141-.499 1.021 1.021 0 0 0-.375-.365Z"/><path opacity=".49" d="m74.658 60.17-9.368-5.36a.65.65 0 0 0-.878.225.616.616 0 0 0-.086.315v9.901a.994.994 0 0 0 .143.493c.09.15.219.274.373.36l9.367 5.36a.655.655 0 0 0 .878-.23.622.622 0 0 0 .087-.315v-9.901a.995.995 0 0 0-.145-.49 1.021 1.021 0 0 0-.371-.359Z"/><path opacity=".51" d="m74.529 60.23-9.224-5.273a.64.64 0 0 0-.854.205.608.608 0 0 0-.095.3v9.755c0 .17.046.335.132.483.086.147.21.27.358.355l9.229 5.274a.64.64 0 0 0 .855-.205.607.607 0 0 0 .094-.3v-9.755a.965.965 0 0 0-.134-.483.99.99 0 0 0-.361-.355Z"/><path opacity=".54" d="m74.4 60.297-9.084-5.193a.63.63 0 0 0-.844.206.598.598 0 0 0-.09.299v9.598a.95.95 0 0 0 .13.477.975.975 0 0 0 .355.351l9.084 5.193a.629.629 0 0 0 .844-.206.597.597 0 0 0 .09-.299v-9.598a.943.943 0 0 0-.13-.477.97.97 0 0 0-.355-.351Z"/><path opacity=".56" d="m74.271 60.36-8.94-5.117a.618.618 0 0 0-.832.209.586.586 0 0 0-.085.296v9.447a.919.919 0 0 0 .125.469.944.944 0 0 0 .35.344l8.939 5.117a.624.624 0 0 0 .835-.209.593.593 0 0 0 .088-.296v-9.446a.925.925 0 0 0-.129-.47.95.95 0 0 0-.35-.344Z"/><path opacity=".59" d="m74.142 60.421-8.794-5.051a.612.612 0 0 0-.825.21.581.581 0 0 0-.084.295v9.3c.001.161.045.32.127.46s.2.256.343.338l8.795 5.052a.613.613 0 0 0 .825-.211.581.581 0 0 0 .083-.295v-9.3a.925.925 0 0 0-.128-.459.952.952 0 0 0-.341-.339Z"/><path opacity=".61" d="m74.013 60.487-8.656-4.95a.604.604 0 0 0-.814.212.57.57 0 0 0-.078.292v9.149c0 .16.042.317.124.455a.919.919 0 0 0 .34.333l8.656 4.95a.597.597 0 0 0 .811-.212.566.566 0 0 0 .076-.293V61.27a.905.905 0 0 0-.124-.45.93.93 0 0 0-.335-.333Z"/><path opacity=".63" d="m73.884 60.553-8.511-4.87a.59.59 0 0 0-.803.215.561.561 0 0 0-.074.29v8.998c0 .156.041.31.121.446a.9.9 0 0 0 .333.326l8.511 4.87a.591.591 0 0 0 .804-.215.562.562 0 0 0 .073-.29v-8.997a.883.883 0 0 0-.122-.445.91.91 0 0 0-.332-.328Z"/><path opacity=".66" d="m73.756 60.62-8.372-4.79a.583.583 0 0 0-.793.218.551.551 0 0 0-.069.288v8.845a.87.87 0 0 0 .121.44.895.895 0 0 0 .328.323l8.367 4.784a.582.582 0 0 0 .793-.217.551.551 0 0 0 .069-.288v-8.846a.865.865 0 0 0-.12-.436.888.888 0 0 0-.324-.321Z"/><path opacity=".68" d="M73.626 60.679 65.4 55.976a.572.572 0 0 0-.77.199.541.541 0 0 0-.076.275v8.694c-.001.152.04.3.116.432.077.131.188.24.322.316l8.223 4.708a.577.577 0 0 0 .773-.2.547.547 0 0 0 .078-.275v-8.699c-.001-.15-.042-.3-.119-.43a.884.884 0 0 0-.32-.317Z"/><path opacity=".71" d="m73.493 60.766-8.084-4.622a.562.562 0 0 0-.755.195.533.533 0 0 0-.075.27v8.547c0 .149.04.295.116.423a.854.854 0 0 0 .317.31l8.083 4.627a.56.56 0 0 0 .758-.198.532.532 0 0 0 .073-.272v-8.542a.84.84 0 0 0-.116-.425.862.862 0 0 0-.317-.313Z"/><path opacity=".73" d="m73.364 60.812-7.94-4.547a.554.554 0 0 0-.745.194.526.526 0 0 0-.075.266v8.39c.001.147.041.29.116.418a.847.847 0 0 0 .313.305l7.938 4.546a.525.525 0 0 0 .761-.179.497.497 0 0 0 .054-.28v-8.391a.815.815 0 0 0-.112-.417.836.836 0 0 0-.31-.305Z"/><path opacity=".76" d="m73.234 60.872-7.794-4.46a.522.522 0 0 0-.746.18.497.497 0 0 0-.059.274v8.24a.81.81 0 0 0 .112.41.832.832 0 0 0 .306.302l7.794 4.46a.524.524 0 0 0 .744-.178.496.496 0 0 0 .061-.271v-8.244a.82.82 0 0 0-.113-.41.843.843 0 0 0-.305-.303Z"/><path opacity=".78" d="m73.106 60.937-7.655-4.38a.523.523 0 0 0-.724.183.497.497 0 0 0-.065.262v8.083c0 .14.037.279.109.401a.816.816 0 0 0 .298.296l7.66 4.38a.524.524 0 0 0 .72-.185.498.498 0 0 0 .065-.26v-8.083a.817.817 0 0 0-.408-.697Z"/><path opacity=".8" d="m72.977 61.003-7.51-4.299a.525.525 0 0 0-.704.183.497.497 0 0 0-.07.252v7.94a.77.77 0 0 0 .104.394c.07.12.171.22.293.289l7.515 4.299a.522.522 0 0 0 .704-.183.497.497 0 0 0 .07-.252v-7.94a.776.776 0 0 0-.402-.683Z"/><path opacity=".83" d="m72.848 61.069-7.371-4.219a.525.525 0 0 0-.686.187.498.498 0 0 0-.073.243v7.79a.762.762 0 0 0 .392.666l7.372 4.218a.525.525 0 0 0 .685-.186.497.497 0 0 0 .073-.243v-7.79a.78.78 0 0 0-.392-.667Z"/><path opacity=".85" d="m72.719 61.13-7.222-4.133a.525.525 0 0 0-.666.186.5.5 0 0 0-.077.234v7.638a.765.765 0 0 0 .382.657l7.222 4.132a.524.524 0 0 0 .67-.18.498.498 0 0 0 .078-.235v-7.653a.775.775 0 0 0-.387-.647Z"/><path opacity=".88" d="m72.59 61.195-7.087-4.042a.486.486 0 0 0-.665.17.462.462 0 0 0-.063.24v7.486a.741.741 0 0 0 .377.647l7.088 4.04a.488.488 0 0 0 .664-.17.463.463 0 0 0 .063-.238V61.84a.741.741 0 0 0-.377-.646Z"/><path opacity=".9" d="m72.461 61.27-6.943-3.97a.483.483 0 0 0-.653.165.458.458 0 0 0-.064.234v7.34a.732.732 0 0 0 .371.631l6.944 3.97a.48.48 0 0 0 .648-.17.458.458 0 0 0 .063-.234v-7.334a.716.716 0 0 0-.366-.632Z"/><path opacity=".93" d="m72.332 61.322-6.798-3.885a.47.47 0 0 0-.638.161.448.448 0 0 0-.064.228v7.188a.72.72 0 0 0 .098.357.74.74 0 0 0 .263.265l6.799 3.884a.473.473 0 0 0 .638-.16.449.449 0 0 0 .063-.229v-7.188a.721.721 0 0 0-.36-.621Z"/><path opacity=".95" d="m72.198 61.387-6.654-3.809a.467.467 0 0 0-.624.166.443.443 0 0 0-.062.223V65a.686.686 0 0 0 .356.606l6.654 3.81a.461.461 0 0 0 .626-.16.437.437 0 0 0 .06-.225v-7.037a.691.691 0 0 0-.356-.606Z"/><path opacity=".98" d="m72.07 61.452-6.51-3.729a.458.458 0 0 0-.61.161.434.434 0 0 0-.061.218v6.886a.666.666 0 0 0 .345.59l6.516 3.729a.455.455 0 0 0 .61-.161.433.433 0 0 0 .06-.218v-6.886a.67.67 0 0 0-.35-.59Z"/><path opacity=".5" d="m71.94 61.518-6.37-3.647a.444.444 0 0 0-.595.156.422.422 0 0 0-.06.212v6.734a.66.66 0 0 0 .34.581l6.37 3.642a.44.44 0 0 0 .599-.154.417.417 0 0 0 .057-.215v-6.733a.652.652 0 0 0-.34-.576Z"/></g><path d="M73.59 59.862 61.366 52.87a.849.849 0 0 0-1.147.297.806.806 0 0 0-.112.41V66.5c0 .225.061.446.175.64.114.195.278.358.476.472l12.225 6.991a.85.85 0 0 0 .839.004.827.827 0 0 0 .307-.3.804.804 0 0 0 .112-.411V60.973c0-.224-.06-.445-.174-.64a1.307 1.307 0 0 0-.475-.471Z" fill="#FC7318"/><path d="M78.125 48.778 63.619 40.67v1.556l14.506 8.017v-1.465ZM77.96 51.87l-14.506-8.102v1.556l14.505 8.011V51.87ZM71.057 51.288l-7.774-4.43v1.555l7.774 4.335v-1.46ZM78.125 79.002l-14.506-8.108v1.556l14.506 8.012v-1.46ZM77.96 82.094l-14.506-8.108v1.556l14.505 8.017v-1.465ZM71.057 81.506l-7.774-4.43v1.556l7.774 4.34v-1.466Z" fill="#84A8D7"/><path d="M68.21 64.69a6.052 6.052 0 0 0-1.207-1.323v-1.228c.33.304.626.643.882 1.01l.624-.656a6.973 6.973 0 0 0-1.506-1.56v-.435l-.805-.455v.42a1.262 1.262 0 0 0-1.12-.066 1.015 1.015 0 0 0-.352.423.99.99 0 0 0-.076.541c-.004.469.125.928.372 1.33.32.48.714.91 1.166 1.277v1.268a7.254 7.254 0 0 1-1.068-1.344l-.707.566a7.404 7.404 0 0 0 1.77 1.98v.622l.804.454v-.596a1.325 1.325 0 0 0 1.166.086c.157-.106.28-.252.358-.422a.991.991 0 0 0 .08-.543 2.52 2.52 0 0 0-.381-1.349Zm-2.007-2.05a1.052 1.052 0 0 1-.325-.703c0-.227.109-.323.325-.282v.984Zm.794 3.101v-1.05c.121.115.224.248.305.394a.735.735 0 0 1 .082.343c0 .263-.144.389-.387.313Z" fill="#fff"/><g opacity=".39" fill="#FC7318"><path opacity=".02" d="m60.225 20.508-13.139-7.577a1.416 1.416 0 0 0-1.398-.008 1.38 1.38 0 0 0-.514.5 1.342 1.342 0 0 0-.187.685v32.33c0 .467.125.927.362 1.332.237.406.578.744.99.981l13.138 7.578a1.415 1.415 0 0 0 1.399.008c.213-.12.39-.292.513-.5.123-.208.188-.445.187-.685v-32.33c0-.468-.125-.927-.362-1.333a2.715 2.715 0 0 0-.99-.98Z"/><path opacity=".05" d="m60.09 20.666-13.004-7.512a1.4 1.4 0 0 0-1.372 0 1.364 1.364 0 0 0-.504.49 1.328 1.328 0 0 0-.187.672v32.072c0 .462.123.917.358 1.318.234.401.571.736.978.97l13.01 7.512a1.394 1.394 0 0 0 1.375.004c.209-.118.383-.287.504-.492.12-.205.184-.437.184-.674V22.954c0-.463-.124-.918-.359-1.32a2.675 2.675 0 0 0-.982-.968Z"/><path opacity=".07" d="m59.956 20.822-12.87-7.436a1.384 1.384 0 0 0-1.376-.016c-.21.118-.384.288-.505.493-.12.205-.184.438-.182.675v31.825c0 .458.12.908.352 1.306.232.398.566.73.969.962l12.87 7.436a1.384 1.384 0 0 0 1.376.015c.21-.117.384-.287.505-.492.12-.205.184-.438.182-.675V23.09a2.59 2.59 0 0 0-.353-1.306 2.66 2.66 0 0 0-.968-.962Z"/><path opacity=".1" d="m59.828 20.979-12.741-7.355a1.368 1.368 0 0 0-1.354-.011 1.332 1.332 0 0 0-.497.484c-.12.201-.182.43-.182.663v31.582c0 .454.121.9.35 1.293.23.393.561.72.96.95l12.737 7.355a1.369 1.369 0 0 0 1.353.011c.207-.115.378-.282.497-.484.12-.201.182-.43.182-.663V23.22c0-.452-.12-.897-.35-1.29a2.633 2.633 0 0 0-.955-.952Z"/><path opacity=".12" d="m59.694 21.135-12.607-7.28a1.358 1.358 0 0 0-1.34-.007c-.203.115-.373.28-.491.479-.118.199-.18.425-.181.655v31.32c0 .448.12.89.347 1.279.227.39.553.715.948.943l12.607 7.28a1.359 1.359 0 0 0 1.339.007c.204-.114.374-.28.492-.478.118-.2.18-.426.18-.656v-31.32c0-.448-.12-.889-.346-1.279a2.613 2.613 0 0 0-.948-.943Z"/><path opacity=".15" d="m59.56 21.298-12.473-7.204a1.337 1.337 0 0 0-1.324-.01c-.201.113-.37.276-.485.473-.117.197-.178.42-.177.648v31.088c-.003.444.114.88.338 1.267.225.385.55.706.94.93l12.469 7.204a1.342 1.342 0 0 0 1.324.01c.203-.114.37-.277.488-.473.117-.197.178-.42.179-.649V23.49a2.484 2.484 0 0 0-.34-1.264 2.552 2.552 0 0 0-.94-.928Z"/><path opacity=".17" d="m59.426 21.453-12.334-7.128a1.333 1.333 0 0 0-1.312-.005c-.2.112-.366.274-.481.47a1.262 1.262 0 0 0-.177.642v30.814c0 .439.117.87.34 1.25.222.382.543.7.928.922l12.334 7.123a1.325 1.325 0 0 0 1.795-.458c.116-.196.176-.417.176-.643V23.625c0-.439-.118-.87-.34-1.25a2.553 2.553 0 0 0-.93-.922Z"/><path opacity=".2" d="m59.291 21.61-12.2-7.072a1.316 1.316 0 0 0-1.297-.008 1.28 1.28 0 0 0-.476.464 1.248 1.248 0 0 0-.176.635V46.22c.003.434.12.86.339 1.237.22.377.534.692.914.915L58.6 55.445a1.311 1.311 0 0 0 1.297.008c.197-.11.361-.27.475-.464.114-.193.174-.412.173-.635V23.757c0-.434-.116-.86-.336-1.237a2.521 2.521 0 0 0-.918-.91Z"/><path opacity=".22" d="m59.157 21.766-12.065-6.971a1.3 1.3 0 0 0-1.283-.01c-.196.11-.359.267-.472.458-.114.19-.174.407-.174.628v30.35c0 .43.115.852.333 1.225.218.373.531.684.91.901l12.065 6.966a1.3 1.3 0 0 0 1.283.01c.196-.11.359-.267.472-.458.114-.19.174-.407.175-.628v-30.35a2.43 2.43 0 0 0-.335-1.221 2.496 2.496 0 0 0-.909-.9Z"/><path opacity=".24" d="m59.029 21.924-11.937-6.89a1.283 1.283 0 0 0-1.733.445c-.111.189-.17.403-.17.62v30.103c-.001.424.111.841.325 1.21.215.368.524.675.897.891L58.347 55.2a1.285 1.285 0 0 0 1.268.007 1.25 1.25 0 0 0 .465-.453c.112-.189.171-.403.171-.62V24.03c0-.424-.112-.842-.327-1.211a2.475 2.475 0 0 0-.895-.895Z"/><path opacity=".27" d="M58.894 22.086 47.092 15.27a1.269 1.269 0 0 0-1.253-.01c-.19.108-.35.262-.46.448-.111.186-.17.398-.17.613v29.86c0 .42.111.832.324 1.196.213.364.519.668.888.88l11.803 6.815a1.268 1.268 0 0 0 1.713-.438c.11-.186.17-.398.17-.613v-29.86a2.382 2.382 0 0 0-.326-1.195 2.444 2.444 0 0 0-.887-.881Z"/><path opacity=".29" d="m58.76 22.242-11.668-6.739a1.258 1.258 0 0 0-1.238-.006 1.226 1.226 0 0 0-.455.442c-.11.183-.168.392-.169.605v29.612c0 .416.112.824.322 1.184.211.36.514.661.88.872l11.663 6.739a1.253 1.253 0 0 0 1.243.01c.189-.107.346-.26.455-.446.11-.186.166-.396.164-.61V24.298a2.341 2.341 0 0 0-.319-1.184 2.402 2.402 0 0 0-.877-.872Z"/><path opacity=".32" d="M58.626 22.397 47.123 15.74a1.242 1.242 0 0 0-1.668.418c-.11.18-.17.384-.173.593v29.364c.001.408.111.81.318 1.163.207.354.505.65.863.858l11.534 6.658a1.242 1.242 0 0 0 1.668-.418c.11-.179.17-.383.174-.592V24.418a2.327 2.327 0 0 0-.333-1.168 2.39 2.39 0 0 0-.88-.853Z"/><path opacity=".34" d="M58.472 22.555 47.077 15.99a1.226 1.226 0 0 0-1.655.419c-.107.18-.165.383-.166.59v29.118c-.002.408.105.809.31 1.163.206.355.502.65.86.858l11.396 6.567a1.226 1.226 0 0 0 1.655-.42c.107-.179.165-.383.166-.59V24.575a2.292 2.292 0 0 0-.31-1.163 2.353 2.353 0 0 0-.861-.858Z"/><path opacity=".37" d="m58.358 22.712-11.235-6.501a1.21 1.21 0 0 0-1.641.42c-.106.18-.16.383-.16.59v28.895c.002.4.11.794.313 1.14.204.348.496.637.848.84l11.261 6.507a1.212 1.212 0 0 0 1.202.009 1.18 1.18 0 0 0 .44-.43c.105-.18.16-.383.159-.59V24.697a2.276 2.276 0 0 0-.324-1.147 2.34 2.34 0 0 0-.863-.838Z"/><path opacity=".39" d="m58.223 22.877-11.101-6.435a1.194 1.194 0 0 0-1.623.425c-.103.178-.155.38-.152.585v28.627c0 .396.105.784.305 1.128.2.344.488.63.835.832l11.132 6.426a1.195 1.195 0 0 0 1.19.004c.18-.103.33-.251.433-.43.103-.178.155-.38.152-.585V24.827a2.232 2.232 0 0 0-.32-1.128 2.294 2.294 0 0 0-.851-.822Z"/><path opacity=".41" d="m58.096 23.03-10.972-6.35a1.18 1.18 0 0 0-1.169-.011 1.15 1.15 0 0 0-.43.418 1.12 1.12 0 0 0-.155.572v28.38c-.001.392.103.777.301 1.117.198.34.484.624.828.823l10.993 6.35a1.184 1.184 0 0 0 1.183.002c.18-.103.328-.252.429-.43.101-.178.152-.379.147-.583v-28.38a2.222 2.222 0 0 0-.322-1.103 2.283 2.283 0 0 0-.834-.806Z"/><path opacity=".44" d="m57.956 23.185-10.833-6.274a1.167 1.167 0 0 0-1.577.405 1.109 1.109 0 0 0-.156.565v28.137c0 .387.104.767.3 1.103.196.336.479.616.82.812l10.858 6.269a1.17 1.17 0 0 0 1.154.007c.175-.099.322-.24.423-.412.102-.172.156-.367.156-.565V25.1a2.182 2.182 0 0 0-.31-1.108 2.243 2.243 0 0 0-.835-.807Z"/><path opacity=".46" d="M57.827 23.342 47.123 17.15a1.153 1.153 0 0 0-1.56.4c-.1.17-.153.363-.152.56v27.884c0 .382.1.756.293 1.088.193.331.47.607.805.802l10.73 6.198a1.154 1.154 0 0 0 1.138.004c.173-.097.317-.238.417-.407.1-.17.152-.361.152-.557v-27.89a2.163 2.163 0 0 0-.303-1.09 2.222 2.222 0 0 0-.816-.799Z"/><path opacity=".49" d="m57.693 23.504-10.57-6.117a1.137 1.137 0 0 0-1.54.392 1.08 1.08 0 0 0-.151.552v27.643c-.001.376.1.747.29 1.074.191.327.466.599.798.79l10.59 6.117a1.138 1.138 0 0 0 1.127.01c.172-.096.315-.235.414-.402.1-.168.152-.359.151-.553V25.368a2.123 2.123 0 0 0-.3-1.077 2.182 2.182 0 0 0-.809-.787Z"/><path opacity=".51" d="m57.559 23.661-10.456-6.062a1.128 1.128 0 0 0-1.112-.007c-.17.095-.311.232-.41.397-.097.166-.15.353-.15.545v27.394c0 .373.1.74.288 1.063.19.324.462.593.79.781l10.457 6.062a1.123 1.123 0 0 0 1.11.008c.17-.095.31-.232.408-.398.098-.166.149-.353.148-.544V25.5c0-.372-.1-.736-.288-1.059a2.16 2.16 0 0 0-.785-.78Z"/><path opacity=".54" d="m57.44 23.818-10.316-5.96a1.106 1.106 0 0 0-1.5.381 1.05 1.05 0 0 0-.146.538v27.152c-.003.364.09.724.271 1.042.181.319.443.586.76.776l10.318 5.961a1.11 1.11 0 0 0 1.503-.385c.097-.164.148-.35.147-.54V25.638a2.071 2.071 0 0 0-.273-1.044 2.127 2.127 0 0 0-.764-.775Z"/><path opacity=".56" d="M57.29 23.974 47.121 18.09a1.097 1.097 0 0 0-1.082-.007 1.067 1.067 0 0 0-.397.387c-.096.16-.146.343-.146.53v26.904c-.002.361.092.716.273 1.03.18.315.442.578.759.764l10.188 5.885a1.095 1.095 0 0 0 1.479-.38c.095-.161.146-.344.146-.53V25.768c0-.363-.098-.72-.282-1.035a2.098 2.098 0 0 0-.77-.759Z"/><path opacity=".59" d="m57.16 24.13-10.038-5.8a1.08 1.08 0 0 0-1.46.373 1.024 1.024 0 0 0-.144.522v26.662c0 .357.094.708.275 1.019.181.31.442.568.756.75l10.06 5.809a1.08 1.08 0 0 0 1.461-.375c.094-.16.143-.34.142-.525V25.908c-.001-.36-.1-.714-.284-1.026a2.09 2.09 0 0 0-.768-.752Z"/><path opacity=".61" d="m57.027 24.293-9.905-5.733a1.046 1.046 0 0 0-1.454.362.994.994 0 0 0-.13.527v26.41c.001.353.097.701.278 1.008.18.307.441.562.754.739l9.92 5.728a1.047 1.047 0 0 0 1.452-.359.995.995 0 0 0 .132-.525V26.036a1.99 1.99 0 0 0-.285-1.01 2.044 2.044 0 0 0-.762-.733Z"/><path opacity=".63" d="m56.892 24.45-9.801-5.652a1.049 1.049 0 0 0-1.409.369.993.993 0 0 0-.139.504V45.84c.005.35.103.692.284.994.18.302.439.553.748.728l9.801 5.653a1.048 1.048 0 0 0 1.41-.37.995.995 0 0 0 .138-.504V26.173a1.99 1.99 0 0 0-.284-.995 2.044 2.044 0 0 0-.748-.728Z"/><path opacity=".66" d="m56.758 24.606-9.651-5.557a1.049 1.049 0 0 0-1.406.363.994.994 0 0 0-.142.501v25.92c0 .343.092.68.266.979.173.298.423.548.724.723l9.657 5.557a1.049 1.049 0 0 0 1.025.004c.156-.087.286-.212.378-.363a.994.994 0 0 0 .145-.5v-25.92a1.938 1.938 0 0 0-.265-.983 1.99 1.99 0 0 0-.731-.724Z"/><path opacity=".68" d="m56.624 24.762-9.502-5.496a1.05 1.05 0 0 0-1.002.01c-.152.086-.28.207-.37.354a.994.994 0 0 0-.15.485v25.672c0 .339.091.672.263.966.172.294.42.539.717.711l9.518 5.501a1.049 1.049 0 0 0 1.374-.367.995.995 0 0 0 .147-.486V26.439a1.914 1.914 0 0 0-.269-.968 1.966 1.966 0 0 0-.726-.709Z"/><path opacity=".71" d="m56.49 24.9-9.368-5.4a1.011 1.011 0 0 0-1.36.351.96.96 0 0 0-.136.487v25.43c0 .333.089.661.258.951.17.29.413.531.707.7l9.383 5.42a1.006 1.006 0 0 0 1.363-.349.954.954 0 0 0 .133-.489V26.577a1.893 1.893 0 0 0-.26-.968 1.945 1.945 0 0 0-.72-.71Z"/><path opacity=".73" d="m56.361 25.08-9.239-5.345a.996.996 0 0 0-1.343.347.944.944 0 0 0-.132.482V45.74c0 .33.086.654.253.94.166.286.406.525.696.692l9.254 5.34a.99.99 0 0 0 1.345-.342.939.939 0 0 0 .13-.482V26.706a1.86 1.86 0 0 0-.26-.939 1.91 1.91 0 0 0-.704-.687Z"/><path opacity=".76" d="m56.227 25.237-9.105-5.264a.981.981 0 0 0-.968-.007.954.954 0 0 0-.356.346.928.928 0 0 0-.13.474v24.935c0 .324.087.643.252.925.164.281.4.516.686.681l9.115 5.264a.98.98 0 0 0 1.324-.34.93.93 0 0 0 .131-.473V26.843a1.835 1.835 0 0 0-.256-.927 1.884 1.884 0 0 0-.693-.68Z"/><path opacity=".78" d="m56.093 25.405-8.971-5.198a.965.965 0 0 0-1.307.334.915.915 0 0 0-.127.469v24.687c0 .32.084.634.246.911.162.278.396.509.677.67l8.981 5.188a.964.964 0 0 0 1.305-.331.914.914 0 0 0 .13-.467V26.976a1.8 1.8 0 0 0-.254-.907 1.849 1.849 0 0 0-.68-.664Z"/><path opacity=".8" d="m55.959 25.55-8.837-5.108a.954.954 0 0 0-1.284.33.905.905 0 0 0-.129.459v24.444c0 .314.083.623.243.896.159.273.388.5.665.66l8.847 5.112a.954.954 0 0 0 1.287-.332.905.905 0 0 0 .126-.46V27.11a1.79 1.79 0 0 0-.248-.9 1.837 1.837 0 0 0-.67-.661Z"/><path opacity=".83" d="m55.825 25.706-8.713-5.051a.938.938 0 0 0-1.268.324.891.891 0 0 0-.125.454V45.63c.003.307.088.608.245.873.158.266.383.487.653.642l8.713 5.052a.938.938 0 0 0 1.267-.324.89.89 0 0 0 .125-.454V27.222a1.755 1.755 0 0 0-.245-.873 1.802 1.802 0 0 0-.652-.643Z"/><path opacity=".85" d="m55.69 25.869-8.578-4.956a.924.924 0 0 0-.909-.005.9.9 0 0 0-.334.324.876.876 0 0 0-.124.444V45.61c0 .306.08.606.234.871.154.266.375.488.643.645l8.584 4.955a.923.923 0 0 0 1.245-.322.874.874 0 0 0 .121-.446v-23.95a1.72 1.72 0 0 0-.239-.86 1.768 1.768 0 0 0-.642-.634Z"/><path opacity=".88" d="m55.556 26.025-8.444-4.88a.907.907 0 0 0-1.228.317.86.86 0 0 0-.118.44V45.61a1.71 1.71 0 0 0 .226.871c.152.266.373.488.64.644L55.077 52a.912.912 0 0 0 1.228-.314.865.865 0 0 0 .123-.439V27.54a1.69 1.69 0 0 0-.225-.874 1.736 1.736 0 0 0-.647-.641Z"/><path opacity=".9" d="m55.428 26.183-8.305-4.82a.895.895 0 0 0-1.206.312.85.85 0 0 0-.12.43v23.506c0 .295.078.586.229.842.15.256.366.47.627.618l8.31 4.804a.892.892 0 0 0 .884.007.867.867 0 0 0 .325-.316.846.846 0 0 0 .117-.434v-23.46a1.68 1.68 0 0 0-.226-.858 1.725 1.725 0 0 0-.635-.631Z"/><path opacity=".93" d="m55.293 26.338-8.17-4.723a.879.879 0 0 0-1.189.306.835.835 0 0 0-.117.426v23.237c-.001.29.075.577.222.83.147.252.358.463.614.61l8.181 4.723a.88.88 0 0 0 1.189-.306.835.835 0 0 0 .116-.426V27.778a1.65 1.65 0 0 0-.228-.83 1.695 1.695 0 0 0-.618-.61Z"/><path opacity=".95" d="m55.16 26.495-8.037-4.627a.865.865 0 0 0-1.17.299.82.82 0 0 0-.115.418V45.55c0 .286.076.568.221.816.145.25.353.457.604.603l8.043 4.643a.863.863 0 0 0 1.169-.299.82.82 0 0 0 .115-.419V27.93a1.63 1.63 0 0 0-.22-.826 1.674 1.674 0 0 0-.61-.609Z"/><path opacity=".98" d="m55.025 26.656-7.908-4.546a.854.854 0 0 0-1.149.296.811.811 0 0 0-.115.411V45.55c.001.282.076.559.22.803.142.245.348.448.596.591l7.908 4.547a.849.849 0 0 0 1.152-.294.805.805 0 0 0 .111-.413V28.05a1.58 1.58 0 0 0-.216-.803 1.624 1.624 0 0 0-.599-.59Z"/><path opacity=".39" d="m54.891 26.813-7.768-4.49a.837.837 0 0 0-1.13.288.797.797 0 0 0-.114.403V45.49c0 .276.073.549.214.789.14.24.342.44.586.58l7.774 4.49a.837.837 0 0 0 1.13-.288.796.796 0 0 0 .113-.404V28.182c0-.277-.075-.55-.216-.79a1.601 1.601 0 0 0-.589-.579Z"/></g><path d="m55.608 22.784-11.864-6.85a1.273 1.273 0 0 0-1.726.442c-.11.188-.169.401-.168.618v29.092c0 .422.112.837.326 1.204.213.367.52.673.892.888l11.864 6.85a1.273 1.273 0 0 0 1.725-.442c.111-.188.17-.402.168-.62V24.9a2.39 2.39 0 0 0-.319-1.218 2.455 2.455 0 0 0-.898-.898Z" fill="#FC7318"/><path d="M42.742 47.949c.103.083.212.159.325.227l1.852 1.066v-17.09l-2.177-1.258V47.95ZM46.39 50.097l2.176 1.258V30.663L46.39 29.4v20.697ZM49.995 52.178l2.177 1.258V39.953l-2.177-1.258v13.483ZM55.742 34.84l-2.177-1.258v20.656l1.367.788c.243.142.529.199.81.162V34.84Z" fill="#fff"/><path d="M28.81 69.54 52.9 80.178v3.91c0 .453-.123.898-.356 1.29a2.589 2.589 0 0 1-.97.938l-22.81 12.705a4.787 4.787 0 0 1-4.643 0L1.377 86.473a2.59 2.59 0 0 1-.977-.94 2.52 2.52 0 0 1-.358-1.293v-3.602l24.033-11.113a4.781 4.781 0 0 1 4.735.015Z" fill="#C1D4EB"/><path d="m28.81 65.267 22.96 12.982c.345.193.633.471.833.807a2.167 2.167 0 0 1 0 2.215c-.2.336-.488.615-.833.807L28.784 94.753a4.814 4.814 0 0 1-4.642 0L1.156 82.078a2.228 2.228 0 0 1-.838-.802 2.168 2.168 0 0 1-.015-2.214c.198-.338.483-.618.827-.813l22.965-12.982a4.782 4.782 0 0 1 4.715 0Z" fill="#F1F4FC"/><path d="m22.78 37.468-4.993-2.824-4.87 2.824 4.87 2.824 4.993-2.824Z" fill="#FEC34F"/><path d="M22.78 37.467v39.23l-4.994 2.673V40.29l4.993-2.823Z" fill="#FEB423"/><path d="M12.918 37.467v39.079l4.869 2.824V40.29l-4.87-2.823Z" fill="#FEBB39"/><path d="m30.766 55.396-4.994-2.824-4.874 2.824 4.874 2.824 4.994-2.824Z" fill="#6D6D88"/><path d="M30.764 55.395v25.778l-4.993 2.672V58.218l4.993-2.824Z" fill="#363650"/><path d="M20.898 55.395V81.02l4.874 2.824V58.218l-4.874-2.824Z" fill="#48486A"/><path d="m38.745 50.743-4.993-2.82-4.87 2.82 4.87 2.823 4.993-2.823Z" fill="#FD8F46"/><path d="M38.744 50.742v34.912l-4.993 2.667V53.566l4.993-2.824Z" fill="#FC7318"/><path d="M28.882 50.742v34.755l4.87 2.824V53.566l-4.87-2.824Z" fill="#FC812F"/></g><defs><clipPath id="a"><path fill="#fff" d="M0 0h85.119v105.926H0z"/></clipPath></defs></svg>