<svg width="151" height="93" fill="none" xmlns="http://www.w3.org/2000/svg"><g clip-path="url(#a)"><path d="M21.177 65.555H1.244v4.261h11.054L.77 78.027v4.048h20.407v-4.278H9.502l11.675-8.211v-4.031ZM45.231 65.555h-5.053v10.053c0 1.876-.441 2.386-5.347 2.386-4.905 0-5.38-.543-5.38-2.419v-10.02H24.35v10.053c0 6.105 1.635 6.697 10.432 6.697 8.798 0 10.45-.592 10.45-6.697V65.555ZM53.489 77.846v-2.6h8.748c.883 0 1.472.23 1.472 1.366 0 .576-.409 1.234-1.472 1.234H53.49Zm0-6.072v-2.22h8.96c.753 0 1.26.262 1.26 1.102 0 .839-.507 1.118-1.26 1.118h-8.96Zm9.631-6.22H48.403V82.01h15.273c3.581 0 5.053-1.201 5.053-4.574a3.82 3.82 0 0 0-.492-2.337 3.785 3.785 0 0 0-1.78-1.58c.55-.339.996-.827 1.286-1.409a3.49 3.49 0 0 0 .348-1.881c0-4.36-2.616-4.657-5.052-4.657M76.987 72.943v-3.291h8.176c1.047 0 1.537.411 1.537 1.645s-.49 1.646-1.537 1.646h-8.176Zm9.648-7.388H71.918v16.454h5.053v-4.558h7.996c.434 0 .85.174 1.156.482.307.309.48.727.48 1.164v2.961h5.052v-3.685c0-2.123-.54-2.584-2.273-3.291 1.635-.658 2.273-1.86 2.273-4.673 0-3.703-1.635-4.805-5.053-4.805M.77 90.236a2.763 2.763 0 0 1 .839-2.019 2.729 2.729 0 0 1 2.039-.762 2.652 2.652 0 0 1 2.11.905l-.639.609a1.85 1.85 0 0 0-1.422-.625c-.499 0-.977.2-1.33.554a1.898 1.898 0 0 0 0 2.676c.353.355.831.554 1.33.554a1.854 1.854 0 0 0 1.422-.641l.638.625a2.905 2.905 0 0 1-3.04.615 2.913 2.913 0 0 1-1.29-.975 2.94 2.94 0 0 1-.575-1.516H.77ZM19.901 91.684H17.22l-.524 1.25h-1.03l2.404-5.397h.98l2.421 5.397h-1.03l-.54-1.25Zm-.327-.79L18.56 88.54l-.997 2.353h2.011ZM36.27 89.512c0 1.2-.883 1.925-2.289 1.925h-1.21v1.645h-.998v-5.545h2.208c1.406 0 2.29.724 2.29 1.975Zm-1.014 0c0-.675-.441-1.07-1.324-1.07H32.77v2.156h1.16c.9-.066 1.325-.461 1.325-1.086ZM46.85 87.537h1.063v5.397h-.998l-.065-5.397ZM59.947 88.376h-1.782v-.839h4.546v.84h-1.717v4.557h-.998l-.049-4.558ZM76.006 91.684h-2.682l-.54 1.25H71.77l2.404-5.397h.981l2.42 5.397H76.53l-.523-1.25Zm-.327-.79-1.014-2.353-1.014 2.353h2.028ZM87.877 87.537h.997v4.541h2.797v.856h-3.794v-5.397Z" fill="#231F20"/><path d="M131.636 21.818 92.734 41.662l34.847-2.303 8.323-13.592-4.268-3.949Z" fill="#F79A79"/><path d="m139.976 14.382-4.71 1.464-7.685 2.172-17.007-15.747-39.997 41.252 22.157-1.86 38.902-19.844-.098-.082 8.438-7.355ZM120.353 55.896l-1.21-9.313 1.979-1.662-.098-1.119 2.142-.592 4.219-3.538.196-.313-34.847 2.304-7.685 3.916 24.741.082 3.45 4.246-.54-4.608 7.653 10.597Z" fill="#F47835"/><path d="m70.577 43.522.327.148 4.072 1.99.147-.082h9.926l7.685-3.916-22.157 1.86Z" fill="#EF4135"/><path d="m70.904 43.67-.327-.148-1.537.493-16.189 5.183-4.758 8.573 18.102-10.695 6.066.197 2.715-1.613-4.072-1.99ZM50.234 36.875h9.468l-3.286 5.89 52.326-39.638-58.508 33.748ZM121.023 43.8l-2.06 1.515 1.39 10.58-7.653-10.597.54 4.607 9.157 10.942-1.374-17.046Z" fill="#F5814B"/><path d="m127.384 39.67-6.361 4.13 5.805-1.612.638 2.88 8.242-6.911 1.357-2.221-9.681 3.735Z" fill="#F5814B"/><path d="m66.195 47.076-.54.33-2.207 1.3-15.355 9.066-1.16 2.09-1.702 3.043 27.03-15.631-6.066-.198Z" fill="#EF4135"/><path d="m141.529 28.663 2.698-4.41-4.35-4.031 7.228-6.302-14.177 7.24 8.601 7.503Z" fill="#F47835"/><path d="m110.868 1.91-.425.246-1.701.97-52.327 39.64-3.564 6.433 17.725-5.677 39.998-41.25.327-.33.13-.131-.163.098Z" fill="#F79A79"/><path d="M114.581.313 114.172 0l-.409.23-2.731 1.58-.131.132 17.873 15.73 6.476-1.827L114.581.313Z" fill="#EF4135"/><path d="m128.774 17.672-17.873-15.73-.327.328 17.006 15.747 1.194-.345ZM139.975 14.382l-8.438 7.355.098.082 15.469-7.898 3.124-2.731-10.253 3.192Z" fill="#EF4135"/><path d="m132.927 21.16-1.292.658 4.268 3.95-8.323 13.59-.196.313.932-.362 8.748-3.373 3.549-5.792h.016l.899-1.48-8.601-7.504Z" fill="#EF4135"/></g><defs><clipPath id="a"><path fill="#fff" transform="translate(.77)" d="M0 0h149.458v93H0z"/></clipPath></defs></svg>