<svg width="135" height="76" fill="none" xmlns="http://www.w3.org/2000/svg"><g clip-path="url(#a)"><path d="M.878 56.343V1.013h13.9v19.63h14.809V1.013h13.787v55.33H29.587V33.998h-14.81v22.345H.877Z" fill="#F60503"/><path d="M77.002 13.935v42.407h-13.89V13.936H51.143V1.014H88.97v12.921H77.002ZM93.957 56.34V20.727c0-6.214 1.872-11.222 5.615-15.024C103.315 1.9 108.25-.001 114.38-.001a19.517 19.517 0 0 1 7.66 1.352c2.436.96 4.648 2.4 6.505 4.232a18.576 18.576 0 0 1 4.305 6.281 18.42 18.42 0 0 1 1.405 7.466c0 5.8-2.046 10.464-6.139 13.994-4.092 3.53-9.529 5.294-16.311 5.294h-1.443V25.424h2.147a8.469 8.469 0 0 0 5.588-1.702 5.692 5.692 0 0 0 1.521-2.068 5.634 5.634 0 0 0 .454-2.52 5.728 5.728 0 0 0-.404-2.31 5.763 5.763 0 0 0-1.298-1.961 5.818 5.818 0 0 0-1.977-1.287 5.863 5.863 0 0 0-2.331-.4 5.65 5.65 0 0 0-2.518.447 5.608 5.608 0 0 0-2.057 1.51 8.314 8.314 0 0 0-1.64 5.5V56.34H93.957Z" fill="#737373"/><path d="M.74 75.129v-12.02h4.482a6.114 6.114 0 0 1 1.888.247c.535.192.991.554 1.297 1.03a3.13 3.13 0 0 1 .55 1.839c.005.613-.19 1.21-.559 1.702a2.485 2.485 0 0 1-1.537.937c.723.097 1.38.466 1.838 1.03.428.562.65 1.253.626 1.957.03.861-.278 1.7-.858 2.341a3.439 3.439 0 0 1-2.679.945L.74 75.13Zm1.966-6.972H5.23a1.593 1.593 0 0 0 1.228-.485c.308-.337.471-.78.455-1.234a1.428 1.428 0 0 0-.515-1.218 1.925 1.925 0 0 0-1.202-.391h-2.49v3.328Zm0 5.167h2.679a1.879 1.879 0 0 0 1.365-.46 1.822 1.822 0 0 0 0-2.502 1.824 1.824 0 0 0-1.33-.485H2.705v3.447ZM25.243 75.129h-7.47v-12.02h7.392v1.788h-5.322v3.26h4.292v1.702h-4.293v3.405h5.4v1.865ZM40.653 75.129H33.58v-12.02h2.18v10.096h4.894v1.924ZM57.745 75.129h-2.214l-.92-2.86h-4.42l-.859 2.86H47.52l3.812-12.02h2.576l3.837 12.02Zm-3.691-4.597-1.717-5.363-1.717 5.363h3.434ZM74.64 75.129h-2.189l-1.785-4.938h-2.92v4.938h-2.068v-12.02h4.988a4.174 4.174 0 0 1 3.047.988 3.461 3.461 0 0 1 .98 2.553 3.164 3.164 0 0 1-.513 1.908c-.37.566-.913 1.001-1.548 1.242l2.009 5.329Zm-6.868-6.674h2.576a2.426 2.426 0 0 0 1.648-.494 1.701 1.701 0 0 0 .55-1.353 1.636 1.636 0 0 0-.541-1.277 2.167 2.167 0 0 0-1.511-.485h-2.747l.025 3.61ZM91.126 63.11v7.72a6.754 6.754 0 0 1-.335 2.409 3.124 3.124 0 0 1-1.305 1.455 4.322 4.322 0 0 1-2.352.613 4.549 4.549 0 0 1-2.31-.528 3.04 3.04 0 0 1-1.305-1.447 5.986 5.986 0 0 1-.36-2.34v-7.883h2.112v7.72a2.575 2.575 0 0 0 .635 2.086c.42.329.942.503 1.477.494a2.2 2.2 0 0 0 1.545-.536 2.755 2.755 0 0 0 .584-2.052V63.11h1.614ZM98.834 72.232l2.018-.451c.24 1.191 1.167 1.787 2.781 1.787a2.73 2.73 0 0 0 1.717-.46 1.389 1.389 0 0 0 .593-1.132c0-.322-.093-.638-.267-.91-.292-.348-.7-.58-1.15-.656l-2.224-.613a5.28 5.28 0 0 1-1.665-.698 2.716 2.716 0 0 1-.859-1.106 3.634 3.634 0 0 1-.326-1.524 3.235 3.235 0 0 1 1.142-2.554 4.368 4.368 0 0 1 2.927-.97c.93-.015 1.847.22 2.653.68a3.03 3.03 0 0 1 1.486 1.915l-1.975.512a1.969 1.969 0 0 0-.813-1.06 1.998 1.998 0 0 0-1.308-.302 2.262 2.262 0 0 0-1.476.425 1.34 1.34 0 0 0-.507 1.073c0 .687.533 1.17 1.597 1.447l1.957.51c.938.16 1.785.65 2.387 1.38.401.594.614 1.294.61 2.009a3.388 3.388 0 0 1-1.28 2.783 5.18 5.18 0 0 1-3.305 1.013 5.844 5.844 0 0 1-2.996-.749 3.669 3.669 0 0 1-1.717-2.35Z" fill="#C9C9C9"/></g><defs><clipPath id="a"><path fill="#fff" transform="translate(.74)" d="M0 0h133.516v76H0z"/></clipPath></defs></svg>