<svg width="144" height="103" fill="none" xmlns="http://www.w3.org/2000/svg"><g clip-path="url(#a)"><path d="M143.242 0H.758v103h142.484V0Z" fill="#CDD503"/><path fill-rule="evenodd" clip-rule="evenodd" d="m40.971 40.487-11.365-2.805c-1.926-.454-4.956-1.228-4.956-4.946 0-4.217 4.45-5.65 8.156-5.65 8.497 0 9.262 5.007 9.508 7.153h5.41v8.803c-1.97-1.17-4.317-1.937-6.753-2.555ZM34.81 68.654c2.428 0 8.428-.43 12.915-3.75v2.517h9.095V56.366l3.795-3.976 8.214 15.035h10.884L67.217 45.95l12.139-13.532H68.249L56.82 45.69V20.186h-9.095v4.03c-2.755-2.994-7.222-5.27-14.205-5.27-15.1 0-17.936 9.302-17.936 14.51 0 7.154 3.799 11.134 10.422 12.76l9.37 2.342c4.953 1.228 8.497 2.141 8.497 5.855 0 4.942-5.142 6.113-9.77 6.113-8.497 0-9.905-5.012-9.905-7.673H14.89c-.017 5.851 2.941 15.8 19.918 15.8ZM17.787 81.777c0 .82.445 2.396 3.083 2.396 1.457 0 3.063-.369 3.063-1.908 0-1.171-1.1-1.45-2.65-1.835l-2.934-.733c-2.075-.512-3.236-1.752-3.236-3.992 0-1.638.882-4.54 5.608-4.54 4.45 0 5.664 2.976 5.664 4.782h-2.938c-.056-.672-.303-2.228-2.957-2.228-1.165 0-2.557.446-2.557 1.76 0 1.164.95 1.41 1.537 1.553l3.581.872c1.974.512 3.807 1.318 3.807 3.972 0 4.45-4.475 4.84-5.765 4.84-5.292 0-6.219-3.112-6.219-4.939h2.913ZM30.657 79.529l3.593-4.148h3.46l-3.796 4.23 3.909 6.715h-3.395l-2.581-4.7-1.19 1.248v3.452h-2.832V71.553h2.832v7.976Z" fill="#696B6A"/><path fill-rule="evenodd" clip-rule="evenodd" d="M40.53 80.84c0 1.401.43 3.35 2.626 3.35 2.197 0 2.598-1.924 2.598-3.333 0-1.409-.43-3.341-2.598-3.341-2.169 0-2.626 1.916-2.626 3.325Zm8.133 0c0 3.94-2.63 5.774-5.507 5.774s-5.539-1.806-5.539-5.757c0-3.951 2.614-5.765 5.54-5.765 2.924 0 5.506 1.793 5.506 5.749Z" fill="#696B6A"/><path d="M52.405 71.553h-2.837v14.769h2.837v-14.77Z" fill="#696B6A"/><path fill-rule="evenodd" clip-rule="evenodd" d="m56.645 79.529 3.58-4.148h3.484l-3.811 4.23 3.896 6.715h-3.383l-2.589-4.7-1.177 1.248v3.452h-2.833V71.553h2.833v7.976Z" fill="#696B6A"/><path fill-rule="evenodd" clip-rule="evenodd" d="M66.53 80.84c0 1.401.404 3.35 2.617 3.35s2.59-1.924 2.59-3.333c0-1.409-.405-3.341-2.59-3.341-2.185 0-2.618 1.916-2.618 3.325Zm8.128 0c0 3.94-2.614 5.774-5.511 5.774-2.897 0-5.527-1.806-5.527-5.757 0-3.951 2.626-5.765 5.527-5.765 2.9 0 5.494 1.793 5.494 5.749h.017ZM77.632 75.383l2.302 8.083h.049l2.37-8.083h3.015l-3.884 10.945H78.49l-3.884-10.945h3.026ZM88.265 80.84c0 1.401.404 3.35 2.613 3.35 2.21 0 2.582-1.924 2.582-3.333 0-1.409-.405-3.341-2.582-3.341-2.176 0-2.613 1.916-2.613 3.325Zm8.092 0c0 3.94-2.614 5.774-5.49 5.774-2.877 0-5.544-1.806-5.544-5.757 0-3.951 2.642-5.765 5.543-5.765 2.901 0 5.503 1.793 5.503 5.749h-.012Z" fill="#696B6A"/></g><defs><clipPath id="a"><path fill="#fff" transform="translate(.758)" d="M0 0h142.484v103H0z"/></clipPath></defs></svg>