<svg width="467" height="390" fill="none" xmlns="http://www.w3.org/2000/svg"><path d="M466.337 218.899a5.29 5.29 0 0 0-2.379-4.127l-95.044-55.203c-1.305-.754-2.372-.142-2.372 1.36v107.414l99.795 57.99V218.899Z" fill="#EFF4FE"/><path d="M393.437 181.629v2.896l67.855 39.689v-2.876l-67.855-39.709ZM393.437 189.48v2.897l67.855 39.681v-2.875l-67.855-39.703ZM393.437 197.328v2.896l40.782 23.992v-2.876l-40.782-24.012ZM393.437 219.109v2.896l67.855 39.689v-2.876l-67.855-39.709ZM393.437 226.961v2.896l67.855 39.682v-2.876l-67.855-39.702ZM393.437 234.807v2.896l40.782 23.991v-2.876l-40.782-24.011ZM393.437 256.588v2.896l67.855 39.689v-2.876l-67.855-39.709ZM393.437 264.441v2.896l67.855 39.682v-2.875l-67.855-39.703ZM393.437 272.285v2.896l40.782 23.992v-2.876l-40.782-24.012Z" fill="#C2CAE8"/><path d="M381.879 176.469c-4.119-2.379-7.477-.435-7.477 4.324 0 4.759 3.399 10.592 7.477 12.971 4.078 2.38 7.477.428 7.477-4.324s-3.358-10.591-7.477-12.971Z" fill="#326EBD"/><path d="m380.779 189.224-2.665-3.236a1.043 1.043 0 0 1 .497-1.658 1.043 1.043 0 0 1 1.107.332l1.36 1.659 3.358-2.652a1.045 1.045 0 0 1 1.155-.091 1.035 1.035 0 0 1 .494.627 1.05 1.05 0 0 1-.094.793c-.067.12-.156.225-.264.31l-4.948 3.916Z" fill="#fff"/><path d="M381.879 213.95c-4.119-2.38-7.477-.435-7.477 4.323 0 4.759 3.399 10.592 7.477 12.972 4.078 2.379 7.477.428 7.477-4.324s-3.358-10.592-7.477-12.971Z" fill="#FC7318"/><path d="m380.779 226.704-2.665-3.236a1.039 1.039 0 0 1 .14-1.465 1.032 1.032 0 0 1 1.15-.117c.121.064.227.151.314.256l1.36 1.659 3.358-2.651a1.028 1.028 0 0 1 .768-.217 1.043 1.043 0 0 1 .523 1.855l-4.948 3.916Z" fill="#fff"/><path d="M381.879 251.428c-4.119-2.379-7.477-.435-7.477 4.324 0 4.759 3.399 10.592 7.477 12.971 4.078 2.38 7.477.428 7.477-4.324s-3.358-10.591-7.477-12.971Z" fill="#48486A"/><path d="m380.779 264.169-2.665-3.236a1.043 1.043 0 0 1 .497-1.658 1.043 1.043 0 0 1 1.107.332l1.36 1.659 3.358-2.651a1.028 1.028 0 0 1 .768-.217 1.043 1.043 0 0 1 .523 1.855l-4.948 3.916Z" fill="#fff"/><path d="m430.745 167.897-.918.769h-8.041l-.876-.803a12.501 12.501 0 0 1-4.031-9.205v-3.494h18.352v3.141a12.503 12.503 0 0 1-4.486 9.592Z" fill="#326EBD"/><path d="M427.222 171.118h-3.031a2.672 2.672 0 0 1-2.665-2.665h8.334a2.675 2.675 0 0 1-2.638 2.665Z" fill="#326EBD"/><path d="M432.505 151.432c-3.561-2.04-9.393-2.04-12.955 0-3.562 2.039-3.562 5.439 0 7.478 3.562 2.04 9.394 2.04 12.955 0 3.562-2.039 3.562-5.418 0-7.478Z" fill="#26538E"/><path d="M426.055 120.723a16.768 16.768 0 0 0-15.747 22.549 16.775 16.775 0 0 0 6.578 8.268v3.793c.047 1.305 1.012 2.624 2.718 3.61 3.535 2.039 9.38 2.039 12.915 0 1.713-.993 2.59-2.284 2.637-3.59h.061v-3.793a16.771 16.771 0 0 0-9.162-30.837Z" fill="#FC7318"/><path d="M416.677 139.337a10.972 10.972 0 0 1 10.97-10.972c5.608 0 5.173-4.677-1.977-4.677a12.897 12.897 0 0 0-9.144 3.795 12.914 12.914 0 0 0-3.771 9.155c-.027 4.535 3.922 6.52 3.922 2.699Z" fill="#fff"/><path opacity=".49" d="M432.525 160.391c-3.535 2.04-9.38 2.04-12.915 0-1.712-.992-2.678-2.311-2.718-3.61v1.258c.047 1.298 1.012 2.617 2.718 3.61 3.535 2.039 9.38 2.039 12.915 0 1.713-.986 2.59-2.284 2.637-3.583h.061v-1.258h-.061c-.047 1.306-.924 2.597-2.637 3.583Z" fill="#5B8BCA"/><path opacity=".49" d="M432.476 164.041c-3.534 2.04-9.38 2.04-12.914 0a6.165 6.165 0 0 1-2.203-2.039c.23.813.539 1.601.925 2.352.394.35.822.66 1.278.925 3.534 2.039 9.38 2.039 12.914 0a6.776 6.776 0 0 0 1.054-.741c.468-.81.845-1.67 1.121-2.563a5.732 5.732 0 0 1-2.175 2.066Z" fill="#5B8BCA"/><path d="M425.994 119.363a1.361 1.361 0 0 1-1.36-1.36l.048-10.483a1.36 1.36 0 1 1 2.718 0l-.04 10.483c0 .179-.036.356-.104.522a1.376 1.376 0 0 1-.74.736 1.375 1.375 0 0 1-.522.102Zm11.201 1.985 5.295-9.042a1.367 1.367 0 0 0-.503-1.863 1.369 1.369 0 0 0-1.512.102c-.142.11-.261.246-.35.401l-5.288 9.042a1.347 1.347 0 0 0-.149 1.041 1.37 1.37 0 0 0 .638.835c.207.118.441.181.68.184a1.367 1.367 0 0 0 1.189-.728v.028Zm6.797 7.825 9.115-5.174a1.372 1.372 0 0 0 .159-2.273 1.37 1.37 0 0 0-1.518-.106l-9.108 5.18a1.357 1.357 0 0 0-.669 1.546c.078.296.254.556.499.739.244.184.544.279.849.271.251-.004.495-.077.707-.211l-.034.028Zm-34.033-.619a1.352 1.352 0 0 0 .154-1.038 1.358 1.358 0 0 0-.63-.838l-8.992-5.378a1.37 1.37 0 0 0-1.876.469 1.352 1.352 0 0 0-.154 1.035 1.35 1.35 0 0 0 .623.841l8.999 5.378c.205.126.44.195.68.197a1.363 1.363 0 0 0 1.23-.693l-.034.027Zm6.886-6.798a1.375 1.375 0 0 0 .651-.818 1.361 1.361 0 0 0-.121-1.038l-5.091-9.165a1.363 1.363 0 0 0-.819-.651 1.367 1.367 0 0 0-1.574 1.977l5.091 9.164a1.364 1.364 0 0 0 1.197.68c.243.012.484-.042.7-.156l-.034.007Z" fill="#FC7318"/><path d="m241.973 3.316-.985 4.881c-1.197.83-1.292 6.173-1.292 7.628l1.55 185.118c0 8.927 4.683 15.446 12.412 19.913l66.176 39.043c1.094.625 2.427 3.521 3.623 3.1l6.287 1.305a16.459 16.459 0 0 0 11.011-15.534V64.535c0-8.926-6.328-19.878-14.056-24.345L263.948 3.989c-7.816-4.507-14.559-5.806-21.975-.673Z" fill="#194370"/><path d="M252.056 4.186c-7.728-4.466-14.049-.815-14.049 8.11v187.737c0 8.926 6.321 19.885 14.049 24.345l68.087 39.315c7.728 4.466 14.049.815 14.049-8.111V67.846c0-8.926-6.321-19.878-14.049-24.345L252.056 4.186Z" fill="#fff"/><path d="M334.19 67.845c0-8.926-6.322-19.878-14.05-24.345L252.054 4.186c-3.786-2.19-7.233-2.434-9.761-1.075 2.488-1.142 5.777-.822 9.366 1.251l68.087 39.335c7.728 4.467 14.049 15.42 14.049 24.345v187.736c0 4.555-1.644 7.737-4.289 9.165 2.876-1.319 4.684-4.583 4.684-9.362V67.845Z" fill="#fff"/><path d="M326.381 262.972a10.192 10.192 0 0 1-4.928-1.557l-68.086-39.314c-6.906-3.984-12.738-14.093-12.738-22.068V12.297c0-2.454.55-4.44 1.597-5.738a4.372 4.372 0 0 1 3.582-1.652c1.752.086 3.451.622 4.935 1.557l68.093 39.315c6.899 3.984 12.738 14.093 12.738 22.067v187.736c0 2.455-.551 4.44-1.597 5.738a4.37 4.37 0 0 1-3.589 1.652h-.007Z" fill="#EFF4FE"/><path style="mix-blend-mode:multiply" d="m318.838 45.78-2.161-1.245v214.148l4.758 2.76a10.199 10.199 0 0 0 4.928 1.557 4.38 4.38 0 0 0 3.588-1.652c1.047-1.299 1.598-3.284 1.598-5.738V67.847c.02-7.975-5.819-18.084-12.711-22.068Z" fill="url(#a)"/><path style="mix-blend-mode:screen" d="m250.867 6.546-.149-.082a10.198 10.198 0 0 0-4.935-1.557 4.36 4.36 0 0 0-3.582 1.652c-1.047 1.299-1.597 3.284-1.597 5.738v187.736c0 7.002 4.492 15.636 10.263 20.341V6.546Z" fill="url(#b)"/><path d="m141.052 181.228-22.73 13.128a2.323 2.323 0 0 0 0 4.024l2.311 1.36a6.603 6.603 0 0 0 6.593 0l23.022-13.298a.608.608 0 0 0 .229-.843.615.615 0 0 0-.229-.224l-7.456-4.147a1.803 1.803 0 0 0-1.74 0Z" fill="#EFF4FE"/><path d="m118.324 197.075 2.311 1.36a6.597 6.597 0 0 0 6.593 0l22.811-13.175.204.115a.615.615 0 0 1 0 1.068l-23.022 13.297a6.599 6.599 0 0 1-6.593 0l-2.311-1.359a2.328 2.328 0 0 1-1.061-2.665c.167.574.55 1.061 1.068 1.359Z" fill="#ABC4E4"/><path d="m136.499 79.252-.408 109.1a2.462 2.462 0 0 1-3.673 2.135 2.46 2.46 0 0 1-1.248-2.148V79.252a2.668 2.668 0 0 1 1.461-2.379 2.667 2.667 0 0 1 3.53 1.078c.222.398.338.846.338 1.302Z" fill="#ABC4E4"/><path d="m207.793 216.934-22.75 13.141a2.315 2.315 0 0 0-1.161 2.009 2.318 2.318 0 0 0 1.161 2.009l2.311 1.359a6.588 6.588 0 0 0 6.593 0l23.022-13.29a.62.62 0 0 0 0-1.074l-7.395-4.141a1.814 1.814 0 0 0-1.781-.013Z" fill="#EFF4FE"/><path d="m185.043 232.786 2.311 1.36a6.597 6.597 0 0 0 6.593 0l22.811-13.175.204.115a.62.62 0 0 1 0 1.074l-23.022 13.291a6.598 6.598 0 0 1-6.593 0l-2.311-1.36a2.306 2.306 0 0 1-1.067-2.664 2.303 2.303 0 0 0 1.074 1.359Z" fill="#ABC4E4"/><path d="m203.566 64.121-51.739-29.879a6.899 6.899 0 0 0-10.196 4.705l-18.42 98.576a10.194 10.194 0 0 0 4.928 10.714l51.746 29.913a6.901 6.901 0 0 0 6.31.276 6.902 6.902 0 0 0 3.886-4.981l18.427-98.576a10.203 10.203 0 0 0-4.942-10.748Z" fill="#F5F8FE"/><path d="m186.591 174.967 18.421-98.576a10.2 10.2 0 0 0-4.928-10.734l-51.74-29.913a6.795 6.795 0 0 0-4.364-.863 6.889 6.889 0 0 1 7.844-.68l51.74 29.913a10.196 10.196 0 0 1 4.934 10.714l-18.426 98.616a6.875 6.875 0 0 1-5.866 5.568 6.796 6.796 0 0 0 2.385-4.045Z" fill="#CAD9EE"/><path d="m201.445 116.224-.408 109.099a2.468 2.468 0 0 1-1.196 2.101 2.457 2.457 0 0 1-3.399-.871 2.469 2.469 0 0 1-.333-1.243V116.217a2.67 2.67 0 0 1 5.001-1.3c.222.4.337.85.335 1.307Z" fill="#ABC4E4"/><path d="m189.242 94.814-7.578-4.609-1.435 10.347 7.498 4.562 1.515-10.3Z" fill="#FC7318"/><path d="m170.384 83.584-7.579-4.61-1.434 10.348 7.497 4.561 1.516-10.3Z" fill="#FEB423"/><path d="m166.447 107.698-7.572-4.602-1.441 10.347 7.497 4.561 1.516-10.306Z" fill="#326EBD"/><path d="m162.782 134.272-7.571-4.602-1.441 10.347 7.497 4.562 1.515-10.307Z" fill="#FEB423"/><path d="m151.514 72.353-7.572-4.609-1.434 10.347 7.497 4.562 1.509-10.3Z" fill="#FC7318"/><path d="M178.986 93.896a.367.367 0 0 0 .312-.21.421.421 0 0 0-.156-.544l-6.797-3.862a.357.357 0 0 0-.415.045.421.421 0 0 0 .068.662l6.797 3.862a.376.376 0 0 0 .191.047ZM159.875 83.617a.359.359 0 0 0 .312-.218.412.412 0 0 0-.149-.537l-6.797-3.868a.36.36 0 0 0-.503.17.421.421 0 0 0 .156.537l6.797 3.868a.354.354 0 0 0 .184.048ZM159.241 129.914a.382.382 0 0 0 .354-.34l1.441-10.347a.404.404 0 0 0-.313-.455.375.375 0 0 0-.282.082.393.393 0 0 0-.096.115.418.418 0 0 0-.044.143l-1.441 10.347a.404.404 0 0 0 .313.455h.068ZM180.549 120.227l3.827-16.499a.402.402 0 0 0-.034-.296.398.398 0 0 0-.231-.187.361.361 0 0 0-.15-.005.352.352 0 0 0-.14.054.383.383 0 0 0-.166.243l-3.595 15.535-11.127-6.35a.363.363 0 0 0-.415.045.414.414 0 0 0 .068.662l11.963 6.798ZM156.089 106.726a.357.357 0 0 0 .313-.211.408.408 0 0 0-.157-.537l-12.969-7.247 3.44-17.363a.401.401 0 0 0-.286-.469.363.363 0 0 0-.39.165.374.374 0 0 0-.052.141l-3.561 17.954 13.478 7.526c.056.033.12.047.184.041Z" fill="#326EBD"/><path opacity=".3" d="m238.007 27.213 36.283 20.952c.754.436 1.459.954 2.1 1.544a12.116 12.116 0 0 1 3.602 6.206c.216.91.325 1.84.327 2.774v49.655a.58.58 0 0 1 0 .102c.003.055.003.109 0 .163v.096l-.041.17v.088c0 .068-.041.143-.068.211v.081c0 .061-.048.116-.068.17l-.048.109a.942.942 0 0 0-.054.116l-.061.115-.055.095-.074.123-.041.068a4.145 4.145 0 0 1-5.553 1.359l-36.127-20.864-.122-63.333Z" fill="#326EBD"/><path d="M218.365 14.996V64.12a12.113 12.113 0 0 0 6.056 10.483l42.53 24.562a4.136 4.136 0 0 0 5.662-1.52 4.13 4.13 0 0 0 .55-2.076V46.459a12.101 12.101 0 0 0-6.056-10.483l-42.536-24.563a4.132 4.132 0 0 0-6.206 3.583Z" fill="#326EBD"/><path d="m266.976 81.87-13.982-23.747-8.727 8.587-11.555-23.183s-10.264 13.291-12.079 15.575a1.22 1.22 0 0 0-.272.769v3.29a11.679 11.679 0 0 0 5.832 10.11l38.458 22.202a1.686 1.686 0 0 0 2.535-1.461l.048-11.19a1.873 1.873 0 0 0-.258-.952Z" fill="#fff"/><path d="m267.107 35.976-42.536-24.563a4.14 4.14 0 0 0-3.458-.313 4.124 4.124 0 0 0-2.476 2.435c.504.079.99.25 1.434.503L262.6 38.6a12.114 12.114 0 0 1 6.057 10.49v49.125a4.11 4.11 0 0 1-.272 1.454 4.134 4.134 0 0 0 3.312-.95 4.14 4.14 0 0 0 1.446-3.128V46.459a12.107 12.107 0 0 0-6.036-10.483Z" fill="#5B8BCA"/><path d="M256.386 41.495c-2.943-1.7-5.356-.312-5.356 3.094 0 3.406 2.413 7.58 5.356 9.28 2.944 1.699 5.357.312 5.357-3.094 0-3.406-2.407-7.553-5.357-9.28Z" fill="#fff"/><path d="m230.157 203.418-52.379 30.246 52.379 30.857 51.848-30.551-51.848-30.552Z" fill="#EFF4FE"/><path d="m282.006 233.969.469 41.109-51.984 29.94-.333-40.498 51.848-30.551Z" fill="#ABC4E4"/><path d="m177.833 233.711-.055 42.347 52.712 28.961-.333-40.498-52.324-30.81Z" fill="#CAD9EE"/><path d="m177.803 254.658-21.961 12.387 52.378 30.857 22.213-13.127-52.63-30.117Z" fill="#EFF4FE"/><path d="m230.436 284.773.462 19.981-22.349 12.522-.326-19.375 22.213-13.128Z" fill="#ABC4E4"/><path d="m155.894 267.084.475 20.517 52.182 29.675-.327-19.375-52.33-30.817Z" fill="#CAD9EE"/><path d="M274.305 133.843c.007-.12.007-.24 0-.36a2.706 2.706 0 0 0-.98-1.856 2.723 2.723 0 0 0-2.011-.605l-5.492-.15-18.182 2.448-14.79-14.093c-1.36-.721-7.171 3.61-7.892 4.935-.72 1.326 1.659 3.434 2.991 4.154l18.352 11.292a2.723 2.723 0 0 0 1.699.286l18.964-4.31 4.86.89a2.717 2.717 0 0 0 2.481-2.631Z" fill="#E7AD99"/><path d="M266.934 132.402a.877.877 0 0 0 1.231.13l2.854-2.325a.88.88 0 0 0 .123-1.231.868.868 0 0 0-.602-.307.882.882 0 0 0-.642.212l-2.855 2.325a.874.874 0 0 0-.109 1.196ZM293.34 167.15a2.802 2.802 0 0 1 2.923 1.448l2.182 4.079a6.176 6.176 0 0 1 .625 4.031l-.401 2.189 5.295 18.152 14.226 10.877c1.129 1.122-.088 5.058-1.203 6.187a2.862 2.862 0 0 1-.319.272 5.67 5.67 0 0 1-7.572-.782l-11.616-12.815-4.384-20.395a2.633 2.633 0 0 1-.075-.394l-.17-.952-1.258-2.223a5.245 5.245 0 0 1-1.046-3.923l.469-3.338a2.803 2.803 0 0 1 2.324-2.413Z" fill="#E7AD99"/><path opacity=".4" d="M293.34 167.15a2.802 2.802 0 0 1 2.923 1.448l2.182 4.079a6.176 6.176 0 0 1 .625 4.031l-.401 2.189 5.295 18.152 14.226 10.877c1.129 1.122-.088 5.058-1.203 6.187a2.862 2.862 0 0 1-.319.272 5.67 5.67 0 0 1-7.572-.782l-11.616-12.815-4.384-20.395a2.633 2.633 0 0 1-.075-.394l-.17-.952-1.258-2.223a5.245 5.245 0 0 1-1.046-3.923l.469-3.338a2.803 2.803 0 0 1 2.324-2.413Z" fill="#A58877"/><path d="M298.124 178.026a.828.828 0 0 0 1.06-.476l2.114-5.561a.821.821 0 1 0-1.536-.585l-2.114 5.561a.833.833 0 0 0 .476 1.061Z" fill="#E7AD99"/><path opacity=".4" d="M298.124 178.026a.828.828 0 0 0 1.06-.476l2.114-5.561a.821.821 0 1 0-1.536-.585l-2.114 5.561a.833.833 0 0 0 .476 1.061Z" fill="#A58877"/><path d="m312.776 310.589-10.596-9.708a1.881 1.881 0 0 1-.716-2.667c.184-.294.446-.531.756-.685l.218-.102a10.039 10.039 0 0 1 7.742-.483l7.918 5.84a2.538 2.538 0 0 1 2.039 2.529v2.311a2.682 2.682 0 0 1-1.359 2.291l-2.386 1.36c-.822.53-2.732-.197-3.616-.686Z" fill="#326EBD"/><path d="m302.179 298.949 10.596 9.701c.884.456 2.794 1.217 3.65.721l2.386-1.36a2.72 2.72 0 0 0 1.36-2.291v-.679V307.644a2.683 2.683 0 0 1-1.36 2.291l-2.386 1.36c-.856.496-2.766-.258-3.65-.721l-10.596-9.694a1.884 1.884 0 0 1-.937-1.16 1.898 1.898 0 0 1 .196-1.478c.176.3.433.545.741.707Z" fill="#fff"/><path d="M315.522 305.802s4.384 1.516 4.384-1.163l-1.931-24.929 2.223-36.113c0-2.672-2.794-4.038-5.438-4.038-2.644 0-5.227 2.794-5.227 5.438l-.815 35.488 2.447 21.571c-.313 2.807 4.357 3.746 4.357 3.746Z" fill="#FC7318"/><path opacity=".3" d="M319.517 248.865v3.535a14.234 14.234 0 0 1-6.342 11.85l-4.248 5.439.924-17.452 9.666-3.372Z" fill="#8E410E"/><path d="m298.27 321.274-13.921-7.193a1.88 1.88 0 0 1-.726-2.668 1.88 1.88 0 0 1 .76-.684l.218-.108c2.42-1.19 5.437-1.918 8.014-1.041l10.127 3.101c1.21.224 2.101.054 2.087 1.298l-.034 3.556a2.685 2.685 0 0 1-1.359 2.297l-2.393 1.36a2.9 2.9 0 0 1-2.773.082Z" fill="#326EBD"/><path d="M283.707 311.314c.171.376.463.682.829.871l13.907 7.192a2.903 2.903 0 0 0 2.801-.068l2.385-1.359a2.68 2.68 0 0 0 1.149-1.36v.979a2.675 2.675 0 0 1-1.359 2.298l-2.393 1.359a2.906 2.906 0 0 1-2.8.062l-13.921-7.193a1.883 1.883 0 0 1-.598-2.781Z" fill="#fff"/><path d="M299.582 313.797s5.104 1.183 5.138.313l.096-32.102 4.357-22.883c3.901.217 5.437-2.461 8.278-5.14a6.959 6.959 0 0 0 2.087-5.092v-12.339c0-2.529-1.849.51-4.364.272-2.882-.278-5.315-3.31-5.315-.476v6.942a4.952 4.952 0 0 1-1.529 3.684 4.604 4.604 0 0 1-3.467 1.183l-8.238-1.298-2.719 31.863 1.169 31.83c.177 2.563 4.507 3.243 4.507 3.243Z" fill="#FC7318"/><path d="m265.642 196.341 36.255-20.715a5.52 5.52 0 0 0 2.08-7.478l-21.071-37.772a5.349 5.349 0 0 0-5.349-2.709 5.348 5.348 0 0 0-1.998.67l-35.026 20.218a5.528 5.528 0 0 0-2.141 7.329l19.841 38.261a5.358 5.358 0 0 0 7.409 2.196Z" fill="#FEB423"/><path d="m240.534 148.556 35.019-20.225a5.363 5.363 0 0 1 5.641.183 5.195 5.195 0 0 0-2.161.68l-35.012 20.218a5.515 5.515 0 0 0-2.141 7.343l19.861 38.274a5.308 5.308 0 0 0 1.794 1.992 5.345 5.345 0 0 1-5.274-2.869l-19.841-38.268a5.529 5.529 0 0 1 2.114-7.328Z" fill="#FEC34F"/><path d="m265.49 147.753 1.842 9.001-5.927 4.147c-.143.102 0 .374.218.496l7.599 3.834 2.909 8.838c.109.32.578.517.68.286l3.079-7.716 8.591.38c.333 0 .456-.278.245-.618l-7.11-7.479.775-8.355c0-.278-.421-.605-.639-.469l-5.553 2.93-6.287-5.282c-.157-.19-.435-.197-.422.007Z" fill="#fff"/><path d="M314.546 211.869c1.156-1.169 2.42-5.241 1.244-6.404 0 0-5.315-5.941-7.756-5.928-2.229 0-5.818 4.596-5.75 6.798.048 1.449 2.209 3.597 4.194 5.269a6.5 6.5 0 0 0 7.518.639c.196-.103.381-.229.55-.374Z" fill="#326EBD"/><path d="m296.763 215.221-.605 32.713c5.852 3.4 20.629 1.544 24.008-4.31v-35.745a6.375 6.375 0 0 0-3.185-5.512 6.363 6.363 0 0 0-6.365-.002l-9.673 5.588a8.366 8.366 0 0 0-4.18 7.268Z" fill="#467DC4"/><path d="m311.838 202.57-.182-.074a13.405 13.405 0 0 1-7.401-17.455l1.379-3.41 13.604 5.504-6.001 14.842a1.064 1.064 0 0 1-.577.586 1.07 1.07 0 0 1-.822.007Z" fill="#E7AD99"/><path d="m303.722 206.342 6.749.122a2.769 2.769 0 0 0 2.801-2.984l-.551-6.683h-6.539l-2.46 9.545Z" fill="#E7AD99"/><path d="M307.334 177.829a13.973 13.973 0 0 0 5.437 2.637c1.706.401 3.542.503 5.037 1.421s2.413 3.114 1.278 4.453c1.06.802 1.189 2.346.985 3.658a16.633 16.633 0 0 1-2.929 6.75c-.585.864-1.509 2.652-2.413 3.168-2.93 1.68-4.309-4.833-3.976-6.723-.68-.782-1.747.809-2.767.68-.768-.082-1.06-1.108-.829-1.843.231-.734.754-1.359.924-2.121a3.663 3.663 0 0 0-1.114-3.107c-.775-.843-1.734-1.509-2.461-2.393a6.386 6.386 0 0 1-1.29-4.462 6.387 6.387 0 0 1 2.072-4.158 13.75 13.75 0 0 0 2.046 2.04Z" fill="#151617"/><path opacity=".4" d="m305.421 199.924-.857 3.256c1.938.782 4.867-1.523 4.867-1.523l-4.01-1.733Z" fill="#A58877"/><path d="m296.692 221.161-.211 13.414 6.893-14.257-6.682.843Z" fill="#26538E"/><path d="M268.11 198.13a.865.865 0 0 0 .592-1.068l-1.74-5.996a.863.863 0 0 0-1.067-.591.87.87 0 0 0-.592 1.067l1.74 6.003a.86.86 0 0 0 1.067.585Z" fill="#E7AD99"/><path d="M257.238 192.024a2.947 2.947 0 0 1 3.364-.632l4.405 2.039a6.479 6.479 0 0 1 3.079 2.992l1.04 2.087 15.898 11.883 18.808.143c1.652.224 3.12 4.29 2.895 5.948a3.34 3.34 0 0 1-.101.429 5.95 5.95 0 0 1-6.818 4.14l-17.842-3.399-16.578-14.379a3.835 3.835 0 0 1-.306-.278l-.748-.68-2.461-1.068a5.507 5.507 0 0 1-3.35-2.637l-1.734-3.107a2.95 2.95 0 0 1 .449-3.481Z" fill="#E7AD99"/><path opacity=".4" d="M258.381 198.38v-.319a26.597 26.597 0 0 0 7.368 4.35c1.272.418 2.502.958 3.67 1.612a15.946 15.946 0 0 1 3.195 2.971c2.882 3.202 6.056 6.329 10.06 7.92a35.8 35.8 0 0 0 1.42.509l.999.347 9.836 3.399c.98.424 2.047.61 3.113.544.918-.129 1.767-.632 2.719-.639.951-.007 1.957.918 1.529 1.741l-.047.231a6.027 6.027 0 0 1-2.441.034l-17.842-3.399-16.578-14.379a4.049 4.049 0 0 1-.306-.279l-.748-.68-2.46-1.067a5.505 5.505 0 0 1-3.351-2.638l-.136-.258Z" fill="#A58877"/><path d="M306.983 216.526c.231-1.714-1.285-5.929-2.997-6.16 0 0-8.218-1.638-10.25-.081-1.863 1.427-1.985 7.532-.517 9.361.952 1.183 4.119 1.618 6.838 1.774a6.824 6.824 0 0 0 6.715-4.215c.095-.218.165-.446.211-.679Z" fill="#467DC4"/><path d="M294.934 219.142c.98.423 2.047.61 3.113.544.809-.23 1.637-.389 2.474-.476.424.013.845.07 1.258.17.365.049.72.161 1.046.333a1.101 1.101 0 0 1 .578.884 1.573 1.573 0 0 1-.299.809c-.211.374-1.23 2.44-1.76 2.318a.217.217 0 0 1-.109-.102 6.034 6.034 0 0 0-3.813-2.447c-1.326-.204-3.29-.395-4.201-1.53a3.944 3.944 0 0 1-.625-1.305l2.338.802Z" fill="#26538E"/><path style="mix-blend-mode:multiply" opacity=".4" d="m274.775 238.238-26.856 15.623-35.304-20.225 27.556-15.902 34.604 20.504Z" fill="url(#c)"/><path d="M235.766 219.965h4.412v-9.423h-4.412v9.423Z" fill="#E7AD99"/><path d="M238.632 215.342c-1.7-.082-3.698-.157-3.616-1.856l-1.149-23.074a49.785 49.785 0 0 1-11.113-31.619c0-1.706 2.848-3.48 4.547-3.616 1.699-.136 8.279.271 8.421 1.964l7.973 27.486c.564 1.948.735 3.988.503 6.003l-2.718 23.114c-.082 1.652-1.102 1.564-2.719 1.564l-.129.034Z" fill="#FC7318"/><path opacity=".3" d="m234.982 213.486-1.149-23.073a49.79 49.79 0 0 1-11.079-31.62c0-1.706 2.848-3.48 4.547-3.616 1.699-.136 1.04 13.651 1.183 15.35l8.673 20.511c.564 1.931-2.257 24.182-2.175 22.448Z" fill="#8E410E"/><path d="m240.176 217.734 1.583.803s4.153 6.71 6.369 8.837c.281.261.505.577.659.928.155.35.236.729.239 1.112.003.287-.084.568-.25.803-.167.234-.403.41-.675.502-1.359.456-4.078.728-7.925-2.168 0 0-2.685-3.542-3.48-3.318a9.275 9.275 0 0 1-3.073-.68 2.084 2.084 0 0 1-1.172-2.367c.073-.311.215-.602.418-.849l2.889-3.596s1.57 3.651 4.418-.007Z" fill="#326EBD"/><path d="M233.625 223.534c.978.4 2.017.63 3.073.68.795-.224 3.48 3.318 3.48 3.318 3.874 2.896 6.593 2.624 7.925 2.168a1.35 1.35 0 0 0 .856-.883c.047.193.069.392.068.591a1.356 1.356 0 0 1-.924 1.305c-1.359.456-4.078.728-7.925-2.168 0 0-2.685-3.542-3.48-3.318a9.275 9.275 0 0 1-3.073-.68 2.038 2.038 0 0 1-1.155-2.393 2.037 2.037 0 0 0 1.155 1.38Z" fill="#fff"/><path d="M215.971 231.031h4.411v-9.422h-4.411v9.422Z" fill="#E7AD99"/><path d="M218.81 226.403c-1.699-.082-3.697-.157-3.616-1.856l1.672-28.553s-1.726-9.647-2.664-22.435l-.041-.21a6.438 6.438 0 0 0-.965-2.291 9.208 9.208 0 0 1-1.455-6.221 19.402 19.402 0 0 1 1.448-5.241c.68-1.557 2.393-2.04 4.078-2.203 1.686-.163 13.513-2.903 13.656-1.21l-4.758 40.688-4.514 27.989c-.074 1.652-1.101 1.563-2.718 1.563l-.123-.02Z" fill="#FC7318"/><path d="m220.382 228.816 1.59.796s4.147 6.717 6.369 8.838a2.837 2.837 0 0 1 .897 2.039 1.355 1.355 0 0 1-.924 1.305c-1.359.456-4.078.728-7.932-2.175 0 0-2.678-3.535-3.48-3.311a9.45 9.45 0 0 1-3.066-.68 2.073 2.073 0 0 1-1.171-1.421 2.084 2.084 0 0 1 .417-1.794l2.888-3.597s1.591 3.638 4.412 0Z" fill="#326EBD"/><path d="M213.837 234.461a9.474 9.474 0 0 0 3.066.679c.802-.231 3.48 3.311 3.48 3.311 3.874 2.896 6.6 2.624 7.932 2.169a1.358 1.358 0 0 0 .829-.823c.062.222.094.45.095.68a1.357 1.357 0 0 1-.924 1.305c-1.359.456-4.078.728-7.932-2.175 0 0-2.678-3.535-3.48-3.311a9.45 9.45 0 0 1-3.066-.68 2.04 2.04 0 0 1-1.142-2.468 2.037 2.037 0 0 0 1.142 1.313Z" fill="#fff"/><path d="M239.182 125.338c-.217-1.529-3.976-4.079-3.976-4.079a5.806 5.806 0 0 0-6.756-.292 4.752 4.752 0 0 0-1.985 3.958 4.749 4.749 0 0 0 2.134 3.88c.422.265 1.034.966 1.536 1.068 0 0 3.549 2.365 4.908 1.985 1.862-.496 4.418-4.603 4.139-6.52Z" fill="#467DC4"/><path d="M224.454 111.517a26.472 26.472 0 0 1-.36-3.263c.088-2.801 2.195-5.072 4.173-7.057l4.649.089a5.834 5.834 0 0 1 1.808 4.242c0 .856-.21 1.699-.238 2.556-.061 1.944.762 3.787 1.285 5.663.524 1.876.68 4.079-.503 5.595a5.689 5.689 0 0 1-1.944 1.502c-2.454 1.265-5.845 1.462-7.633-.632a6.598 6.598 0 0 1-1.285-4.208c-.047-1.496.184-2.998.048-4.487Z" fill="#FEB423"/><path d="m224.413 117.451-8.109 4.494a9.151 9.151 0 0 0-4.71 7.995l3.854 14.072a16.315 16.315 0 0 1-.225 9.335l-2.984 9.171c5.724 3.997 20.188.632 23.675-5.439l-.163-17.302 1.359-2.631a6.798 6.798 0 0 0 .252-5.819l-1.095-2.604a8.725 8.725 0 0 1-.68-3.324v-1.455a7.532 7.532 0 0 0-3.75-6.408 7.536 7.536 0 0 0-7.424-.085Z" fill="#467DC4"/><path d="m232.771 106.683-.876 4.759a5.535 5.535 0 0 1-5.982 4.521l-2.719-.258a2.292 2.292 0 0 1-2.039-2.04l-.911-9.518a3.601 3.601 0 0 1 2.23-3.671l2.223-.897a3.665 3.665 0 0 1 3.609.483l2.719 2.087a4.612 4.612 0 0 1 1.746 4.534Z" fill="#E7AD99"/><path d="M226.274 122.287h-.081a5.276 5.276 0 0 1-5.275-5.275v-5.344h6.342v9.613a1.012 1.012 0 0 1-.986 1.006Z" fill="#E7AD99"/><path opacity=".3" d="M232.025 153.784c.38-1.877 1.019-3.848.387-5.657-.272-.781-.782-1.55-.625-2.365.217-1.149 1.679-2.251.951-3.162-.632-.788-2.134-.122-2.773-.897-.639-.775.333-1.836 1.108-2.502a8.427 8.427 0 0 0 2.841-5.405c.252-2.236-.414-4.5-.211-6.737a5.768 5.768 0 0 1 1.842-3.752c0 .217.048.442.048.679v1.455a8.73 8.73 0 0 0 .68 3.325l1.094 2.603a6.807 6.807 0 0 1-.251 5.82l-1.36 2.631.163 17.302a11.171 11.171 0 0 1-4.078 3.793 21.034 21.034 0 0 1 .184-7.131Z" fill="#26538E"/><path opacity=".4" d="m227.297 115.95-2.855-1.489 2.855 4.167v-2.678Z" fill="#A58877"/><path d="M245.301 153.729c.037-.116.066-.234.089-.354a2.72 2.72 0 0 0-2.203-3.188l-5.233-1.652-13.506-4.208-2.039-12.951a4.63 4.63 0 0 0-4.323-3.923 4.58 4.58 0 0 0-3.856 1.719 4.582 4.582 0 0 0-.821 4.141c.15.461.38.892.68 1.272l6.94 15.412c.428.414 15.178 2.338 15.178 2.338l6.029 3.243a2.72 2.72 0 0 0 3.065-1.849Z" fill="#E7AD99"/><path d="M237.187 149.528a.882.882 0 0 0 1.019.68l3.616-.68a.87.87 0 0 0 .68-1.013.875.875 0 0 0-1.02-.68l-3.616.68a.876.876 0 0 0-.679 1.013Z" fill="#E7AD99"/><path opacity=".4" d="M236.167 152.337s-14.749-1.924-15.178-2.339l-6.939-15.412a4.054 4.054 0 0 1-.68-1.271 4.38 4.38 0 0 1 .238-3.229c3.154 4.895 4.955 10.585 7.517 15.84a6.178 6.178 0 0 0 1.856 2.522 6.86 6.86 0 0 0 2.855.87 68.574 68.574 0 0 1 12.173 3.107 9.515 9.515 0 0 1 3.963 2.237c.267.288.496.611.68.958-.158 0-.314-.013-.469-.04l-6.016-3.243Z" fill="#A58877"/><path d="M223.542 137.365c.809-1.312-.476-5.656-.476-5.656a5.811 5.811 0 0 0-5.009-4.541 4.756 4.756 0 0 0-4.887 6.118c.142.476.176 1.408.496 1.809 0 0 1.216 4.079 2.508 4.656 1.767.796 6.355-.734 7.368-2.386Z" fill="#467DC4"/><path opacity=".3" d="M213.17 133.293a3.395 3.395 0 0 1 .054-2.291c.258-.646 1.196-1.047 1.359-1.529a7.292 7.292 0 0 0-.339 2.549c0 1.394 0 2.896.788 4.038.265.35.566.672.897.959.388.367 2.719 2.087 2.617 2.631-.102.544-1.923.319-2.399.109-1.285-.572-2.502-4.657-2.502-4.657-.299-.401-.333-1.333-.475-1.809Z" fill="#26538E"/><path d="M213.48 116.815c2.244-5.003.089-11.332 2.916-16.03 1.305-2.162 3.481-3.624 5.588-5.01 1.203-.796 2.515-1.625 3.956-1.578 2.603.075 6.355 1.36 7.694 3.733.591 1.046 1.434 4.242.224 5.207-.68.524-2.61.143-3.398.136-2.944 0-5.785.775-6.356 4.079a13.61 13.61 0 0 0 .388 4.868c.136.5.136 1.028 0 1.529-.259.714-1.013 1.108-1.509 1.693-1.013 1.197-.795 2.978-.496 4.528.618 3.215-.347 7.39-4.459 7.294-2.039-.054-3.691-1.495-5.057-2.977a5.276 5.276 0 0 1-1.115-1.591c-.754-1.972.768-3.964 1.624-5.881Z" fill="#FEB423"/><path d="M230.474 103.272c.802 0 2.76.388 3.399-.136.639-.523.679-1.761.51-2.923a9.463 9.463 0 0 0-6.417-1.407 8.152 8.152 0 0 0-5.533 3.487c-2.501 3.821-1.094 9.015-2.651 13.311-.564 1.564-1.529 3.032-1.576 4.698-.048 1.666.768 3.624-.402 4.806-.781.782-1.971.68-3.113.796a5.77 5.77 0 0 0 3.358 1.36c4.112.095 5.078-4.079 4.459-7.295-.299-1.55-.517-3.331.496-4.528.496-.584 1.251-.979 1.509-1.693.136-.5.136-1.028 0-1.529a13.586 13.586 0 0 1-.387-4.868c.537-3.304 3.378-4.099 6.348-4.079Z" fill="#FEC34F"/><path opacity=".3" d="m334.192 146.557-35.345-20.491a12.113 12.113 0 0 1-6.056-10.489V66.472a4.14 4.14 0 0 1 3.936-4.14h.992l.197.04h.088l.164.048h.095l.156.062h.095l.163.074.082.041c.081.04.161.082.238.13l35.222 20.394-.027 63.436Z" fill="#326EBD"/><path d="M292.766 58.416v49.118a12.118 12.118 0 0 0 6.056 10.469l42.529 24.563a4.14 4.14 0 0 0 2.069.551 4.14 4.14 0 0 0 3.585-2.067 4.146 4.146 0 0 0 .559-2.067V89.878a12.133 12.133 0 0 0-6.056-10.49l-42.537-24.555a4.13 4.13 0 0 0-5.653 1.512 4.124 4.124 0 0 0-.552 2.07Z" fill="#FC7318"/><path d="M341.506 79.388 298.97 54.833a4.134 4.134 0 0 0-5.961 2.12c.504.08.99.25 1.434.504l42.529 24.562a12.087 12.087 0 0 1 6.057 10.49v49.118c-.001.5-.093.995-.272 1.462a4.144 4.144 0 0 0 4.374-2.359c.25-.539.38-1.126.384-1.72V89.878a12.125 12.125 0 0 0-6.009-10.49Z" fill="#FD8F46"/><path d="m329.429 103.998-10.318-17.893a3.161 3.161 0 0 0-1.094-1.156 1.093 1.093 0 0 0-1.094-.102l-10.38 5.962a1.762 1.762 0 0 0-.734 1.59c0 2.768 0 9.696-.04 12.775a2.933 2.933 0 0 0 1.359 2.298l7.361 4.249c.632.367 1.156.068 1.156-.68v-5.894c0-1.468 1.033-2.073 2.311-1.36h.034a5.122 5.122 0 0 1 2.318 4.025v5.894a2.525 2.525 0 0 0 1.148 1.999l7.361 4.242c.728.428 1.326.088 1.326-.755l.041-12.774a5.032 5.032 0 0 0-.755-2.42Z" fill="#fff"/><path d="m106.358 239.729-.176 2.685 4.139 9.293 4.255 2.828 3.331-1.461-.333-2.427-2.006-.048-5.213-6.18.197-4.561-4.194-.129Z" fill="#E7AD99"/><path d="M106.188 242.415a4.002 4.002 0 0 0-1.36 3.8l2.04 10.979h1.298l-.598-6.594h.598l1.094 3.698a5.58 5.58 0 0 0 3.399 1.673 3.542 3.542 0 0 0 2.651-.68l3.881-2.413a1.369 1.369 0 0 0 .632-1.143 1.058 1.058 0 0 0-1.04-1.067l-3.181-.095s2.195.68.897 1.801c-.634.18-1.279.319-1.93.415a1.612 1.612 0 0 1-1.543-.68c-1.129-1.611-3.929-5.805-4.758-8.756a1.264 1.264 0 0 0-1.21-.958l-.87.02Z" fill="#326EBD"/><path d="M108.371 240.293h-.149c-2.203-.081-2.719.068-2.644-2.141l.088-2.04a56.666 56.666 0 0 0-.721-11.7 23.122 23.122 0 0 1 .599-10.252l.299-1.026c-.864-1.673-1.36-3.488-1.543-9.389l-.931-11.421-.972-1.842a14.233 14.233 0 0 1 .149-13.645c.605-1.067 1.237-1.821 1.835-1.883 2.189-.204 11.63 3.053 12.527 9.083l.422 1.686c.562 2.223.645 4.54.244 6.798l-3.058 19.104v.469a17.999 17.999 0 0 1-.401 4.391l-.775 3.59-2.162 18.355c-.095 2.162-.666 1.863-2.807 1.863Z" fill="#FC7318"/><path d="m144.185 145.348 5.03-4.242a.81.81 0 0 0 .284-.548.808.808 0 0 0-.035-.313.807.807 0 0 0-.154-.274.803.803 0 0 0-1.135-.096l-5.03 4.243a.81.81 0 0 0-.095 1.135.813.813 0 0 0 1.135.095ZM142.7 148.175l-.435-3.902a.815.815 0 0 0-.89-.714.81.81 0 0 0-.517.31.81.81 0 0 0-.163.58l.435 3.909a.805.805 0 0 0 .89.68.807.807 0 0 0 .68-.863ZM113.39 243.678l-.177 2.685 4.139 9.293 4.255 2.829 3.331-1.462-.333-2.427-2.005-.048-5.22-6.179.203-4.562-4.193-.129Z" fill="#E7AD99"/><path opacity=".3" d="M114.322 181.167a9.672 9.672 0 0 0-3.092-.558c-2.203.136-5.153-1.427-5.017.775l.68 2.509c-.306 1.849-1.964.986-.992 2.59.04 3.032 2.44 7.24 3.527 10.449.298.686.48 1.417.537 2.162l.075 17.309a36.995 36.995 0 0 0-.088 6.689c.924 6.799-1.543 11.211-.857 17.207 1.536 0 1.985 0 2.039-1.863l2.162-18.355.775-3.59c.088-.387.156-.782.217-1.176l.034-34.148Z" fill="#7E3A0C"/><path d="M115.816 244.765h-.149c-2.202-.081-2.719.062-2.644-2.141l.081-2.04a56.183 56.183 0 0 0-.72-11.7 23.118 23.118 0 0 1 .598-10.251l.292-1.027a14.351 14.351 0 0 1-1.536-5.357l-.951-11.421c-.306-3.032.557-4.025-1.108-6.574l-1.958-2.978c-.081-.129-.177-.279-.272-.442a15.57 15.57 0 0 1-1.869-10.462v-.204c-.211-2.196 5.526.72 7.722.509 2.195-.21 9.781-4.724 10.685 1.306l.421 1.686c.557 2.23.952 11.074.551 13.338L121.9 216.11v.463a17.999 17.999 0 0 1-.401 4.391l-.782 3.59-2.155 18.355c-.034 2.162-.604 1.856-2.746 1.856Z" fill="#FC7318"/><path d="M105.893 176.606a3.188 3.188 0 0 1-3.154-2.257l-3.562-11.625a8.326 8.326 0 0 1-.306-3.447l2.087-17.105a3.289 3.289 0 0 1 3.263-2.943 3.197 3.197 0 0 1 2.984 2.263c.13.427.169.876.115 1.319l-2.155 17.676 3.644 11.849a3.197 3.197 0 0 1-.365 2.878 3.181 3.181 0 0 1-2.545 1.392h-.006Z" fill="#E7AD99"/><path d="m99.428 152.948 1.529-10.776a3.294 3.294 0 0 1 3.263-2.943 3.197 3.197 0 0 1 2.984 2.263c.13.427.169.876.115 1.319l-1.359 10.966s-5.01 1.353-6.532-.829Z" fill="#467DC4"/><path opacity=".5" d="M102.735 174.349a3.187 3.187 0 0 0 3.154 2.258 3.2 3.2 0 0 0 2.545-1.392 3.198 3.198 0 0 0 .364-2.878l-3.637-11.877 2.155-17.675a3.203 3.203 0 0 0-.755-2.479 3.193 3.193 0 0 0-2.344-1.104c-1.666-.048-2.896 1.815-3.1 3.474l.245.795 1.325 16.616c.836 4.167 1.197 10.197.055 14.276l-.007-.014Z" fill="#26538E"/><path d="m109.08 138.548 8.728 4.643a14.673 14.673 0 0 1 7.789 12.958l-3.351 11.863a16.445 16.445 0 0 0 .109 5.126s3.242 7.376 1.516 7.247c-.557-.041.197 2.325.197 2.325-2.562.388-20.514-2.257-21.866-4.555 0 0 1.631-1.217.68-1.774-.952-.558.754-1.944.91-2.373a26.883 26.883 0 0 0 1.36-13.95l-4.201-16.629a5.524 5.524 0 0 1 2.682-4.744 5.523 5.523 0 0 1 5.447-.137Z" fill="#467DC4"/><path d="M102.888 176.381a8.301 8.301 0 0 1-1.047 1.815c.109.177.68.326.958.523l.184.123c.882.507 1.814.923 2.78 1.244l.36.129c.483.17 1.006.333 1.543.496l.836.245c.986.279 2.039.551 3.106.796.462.108.925.21 1.36.305l.931.184c.462.088.924.177 1.359.252 1.074.183 2.128.326 3.113.435.571.054 1.115.102 1.632.129h1.794l.632-.034c.795-.068 1.36.197 1.781-.048l-.401-2.61c-3.766 1.319-17.509-1.754-20.921-3.984Z" fill="#FC7318"/><path d="M116.407 142.444h-5.764l-.754-3.474v-6.37h6.518v9.844Z" fill="#EF9EA3"/><path d="m121.087 126.734.055 2.502c.202.826.312 1.672.326 2.522l-.421 1.951c-.469 2.835-1.176 4.705-3.848 4.46l-2.48-.231a4.984 4.984 0 0 1-2.828-1.21l-3.208-2.787a5.441 5.441 0 0 1-1.863-4.079l14.267-3.128Z" fill="#E7AD99"/><path opacity=".5" d="M125.574 155.483v-.591l-2.766-6.193c-1.156-2.584-3.582-3.189-5.261-1.217-1.468 1.72-.734 2.964.292 5.269l4.976 13.345 2.813-9.946v-.612a.136.136 0 0 0-.054-.055Z" fill="#26538E"/><path d="M113.219 246.364a4 4 0 0 0-1.359 3.8l2.039 10.98h1.298l-.605-6.595h.605l1.094 3.699a5.586 5.586 0 0 0 3.399 1.672 3.522 3.522 0 0 0 2.651-.68l3.874-2.413a1.365 1.365 0 0 0 .639-1.142 1.072 1.072 0 0 0-1.047-1.074l-3.249-.075s2.196.68.904 1.801c-.634.18-1.278.319-1.93.415a1.628 1.628 0 0 1-1.543-.68c-1.128-1.618-3.929-5.806-4.758-8.756a1.268 1.268 0 0 0-1.217-.959l-.795.007Z" fill="#326EBD"/><path d="M110.418 139.161s1.414 3.229 5.798 3.181l1.591.85s-11.718 3.399-8.728-4.643l1.339.612Z" fill="#EF9EA3"/><path d="m126.324 165.741-9.182-14.011a3.238 3.238 0 0 1 .36-4.079 3.207 3.207 0 0 1 2.589-.927 3.193 3.193 0 0 1 2.352 1.423l6.933 10.585 11.956-10.605 1.727-4.004a3.185 3.185 0 0 1 2.563-1.003c.475.034.937.175 1.351.41.413.236.769.562 1.041.953a3.248 3.248 0 0 1-.347 4.079l-4.044 3.528-12.445 14.073a3.097 3.097 0 0 1-2.529.967 3.094 3.094 0 0 1-2.325-1.389Z" fill="#E7AD99"/><path opacity=".4" d="M122.785 158.943c.465.34.846.782 1.115 1.292a20.064 20.064 0 0 0 3.983 4.487c.207.196.452.349.721.448.863.265 1.658-.523 2.236-1.223a98.635 98.635 0 0 1 14.675-14.359 14.159 14.159 0 0 0 2.182-1.991c.352-.439.647-.921.876-1.435a3.398 3.398 0 0 1-.904 2.4l-4.044 3.528-12.445 14.073a3.097 3.097 0 0 1-2.529.967 3.09 3.09 0 0 1-2.324-1.389l-4.555-6.948a1.403 1.403 0 0 1 1.013.15Z" fill="#A58877"/><path d="m122.891 161.234-6.042-9.239a3.689 3.689 0 0 1 .68-4.895 3.598 3.598 0 0 1 5.26.829l5.146 7.859c-.163 1.849-3.195 5.595-5.044 5.446Z" fill="#467DC4"/><path d="M116.964 121.132a15.456 15.456 0 0 0-7.966 1.767c-2.835 1.509-5.084 4.317-5.377 7.512-.04 1.293 0 2.588.123 3.875.183 5.167-1.985 10.531-.17 15.365a9.982 9.982 0 0 0 2.266 3.495 9.986 9.986 0 0 0 3.498 2.263c3.745 1.407 7.918.428 11.793-.571-1.849-1.448-2.543-3.943-2.658-6.295-.116-2.353.238-4.712 0-7.044-.415-3.82-2.76-7.648-.442-11.319 1.407-2.236 3.657-.768 5.159-2.372.829-.891.557-2.366-.109-3.4-1.359-2.141-3.657-3.1-6.117-3.276Z" fill="#191C3C"/><g opacity=".3" fill="#326EBD"><path opacity=".02" d="m106.09 330.906-52.222-29.981c-4.16-2.393-10.95-2.352-15.09.088L3.324 321.952C.606 323.557-.285 325.82.606 327.86c-.877 2.039 0 4.324 2.773 5.915l52.242 30.164c4.16 2.4 10.937 2.359 15.063-.089l35.514-21.074c2.719-1.612 3.589-3.876 2.719-5.915.864-2.108-.04-4.371-2.827-5.955Z"/><path opacity=".05" d="M105.87 330.915 53.9 301.077c-4.147-2.38-10.876-2.339-15.022.088l-35.304 20.79c-2.72 1.59-3.596 3.841-2.72 5.88-.87 2.04 0 4.297 2.76 5.881l51.991 30.021c4.14 2.386 10.876 2.346 14.995-.088l35.345-20.987c2.718-1.604 3.575-3.848 2.718-5.88.823-2.033-.054-4.29-2.793-5.867Z"/><path opacity=".07" d="m105.619 330.919-51.72-29.688c-4.118-2.373-10.875-2.332-14.953.081L3.806 322.02c-2.72 1.591-3.576 3.828-2.72 5.854-.87 2.039 0 4.282 2.72 5.853l51.739 29.879c4.119 2.372 10.827 2.331 14.953-.096l35.168-20.877c2.719-1.598 3.555-3.835 2.719-5.854.863-2.046-.034-4.289-2.766-5.86Z"/><path opacity=".1" d="m105.409 330.928-51.502-29.546c-4.078-2.352-10.794-2.318-14.872.082L4.071 322.076c-2.685 1.577-3.555 3.807-2.719 5.82-.863 2.039 0 4.262 2.719 5.826l51.522 29.702c4.078 2.366 10.78 2.325 14.845-.089l34.971-20.748c2.678-1.591 3.541-3.814 2.685-5.826.89-2.04-.007-4.27-2.685-5.833Z"/><path opacity=".12" d="m105.123 330.941-51.21-29.382c-4.078-2.339-10.746-2.305-14.803.088L4.314 322.151c-2.671 1.57-3.534 3.786-2.678 5.792-.863 2.039 0 4.242 2.719 5.799l51.237 29.586c4.078 2.352 10.725 2.312 14.77-.088l34.828-20.681c2.658-1.577 3.521-3.793 2.664-5.792.857-2.053-.027-4.276-2.732-5.826Z"/><path opacity=".15" d="m104.879 330.947-50.978-29.233c-4.079-2.331-10.686-2.297-14.723.082L4.554 322.191c-2.658 1.57-3.521 3.773-2.672 5.772-.85 2.039 0 4.215 2.72 5.765l50.977 29.443c4.079 2.339 10.672 2.298 14.702-.095l34.666-20.572c2.651-1.57 3.507-3.773 2.657-5.764.843-2.04-.034-4.249-2.725-5.793Z"/><path opacity=".17" d="m104.63 330.954-50.706-29.117c-4.045-2.318-10.638-2.284-14.655.082L4.815 322.225c-2.644 1.557-3.5 3.753-2.651 5.738-.85 1.999 0 4.195 2.719 5.738l50.726 29.294c4.038 2.332 10.624 2.291 14.628-.088l34.495-20.47c2.63-1.564 3.487-3.76 2.637-5.745.816-2.005-.061-4.201-2.739-5.738Z"/><path opacity=".2" d="m104.383 330.962-50.461-28.968c-4.017-2.311-10.583-2.277-14.58.082L5.064 322.274c-2.63 1.55-3.487 3.732-2.644 5.71-.843 1.992 0 4.174 2.678 5.711l50.482 29.151c4.017 2.318 10.563 2.277 14.553-.088l34.312-20.395c2.623-1.557 3.473-3.739 2.63-5.711.843-1.971-.027-4.161-2.692-5.69Z"/><path opacity=".22" d="m104.132 330.969-50.204-28.825c-4.003-2.298-10.528-2.264-14.505.082L5.31 322.328c-2.617 1.544-3.467 3.712-2.624 5.677-.843 1.985 0 4.161 2.665 5.683l50.223 29.002c3.997 2.312 10.515 2.271 14.485-.082l34.135-20.259c2.61-1.55 3.46-3.718 2.617-5.683.843-1.999-.041-4.174-2.678-5.697Z"/><path opacity=".24" d="m103.89 330.976-49.952-28.682c-3.983-2.284-10.481-2.25-14.437.082l-33.938 20c-2.603 1.537-3.453 3.699-2.617 5.657-.836 1.964 0 4.133 2.65 5.649l49.98 28.859c3.976 2.298 10.46 2.257 14.41-.088l33.985-20.164c2.597-1.544 3.44-3.705 2.604-5.657.815-1.978-.048-4.14-2.685-5.656Z"/><path opacity=".27" d="m103.637 330.983-49.7-28.553c-3.963-2.278-10.42-2.244-14.363.081L5.806 322.43c-2.59 1.523-3.432 3.678-2.596 5.622-.836 1.958 0 4.079 2.637 5.623l49.721 28.716c3.956 2.284 10.406 2.243 14.335-.089l33.795-20.068c2.583-1.53 3.399-3.678 2.59-5.622.836-1.965-.027-4.12-2.651-5.629Z"/><path opacity=".29" d="m103.372 330.991-49.429-28.39c-3.942-2.264-10.372-2.23-14.274.082L6.071 322.479c-2.617 1.516-3.432 3.658-2.617 5.595-.829 1.951 0 4.079 2.624 5.595l49.47 28.553c3.935 2.278 10.358 2.237 14.273-.081l33.625-19.967c2.57-1.523 3.399-3.664 2.576-5.595.837-1.944-.02-4.093-2.65-5.588Z"/><path opacity=".32" d="m103.142 330.996-49.197-28.247c-3.922-2.25-10.318-2.216-14.213.082L6.304 322.546c-2.562 1.509-3.398 3.637-2.576 5.561-.822 1.944 0 4.079 2.617 5.568l49.218 28.389c3.915 2.264 10.297 2.224 14.192-.088l33.448-19.858c2.556-1.523 3.399-3.651 2.563-5.568.829-1.93-.027-4.065-2.624-5.554Z"/><path opacity=".34" d="m102.898 331.002-48.946-28.084c-3.901-2.244-10.264-2.21-14.145.081L6.556 322.592c-2.556 1.503-3.399 3.624-2.563 5.541-.822 1.93 0 4.079 2.597 5.534l48.939 28.281c3.895 2.25 10.25 2.209 14.117-.089l33.306-19.762c2.542-1.51 3.399-3.624 2.549-5.534.829-1.951-.02-4.079-2.603-5.561Z"/><path opacity=".37" d="m102.644 331.01-48.688-27.955c-3.881-2.229-10.196-2.189-14.07.082L6.798 322.635c-2.535 1.495-3.358 3.596-2.549 5.506-.816 1.917 0 4.032 2.59 5.514l48.708 28.124c3.88 2.244 10.195 2.203 14.05-.081l33.094-19.661c2.536-1.502 3.351-3.61 2.542-5.513.857-1.924-.013-4.039-2.589-5.514Z"/><path opacity=".39" d="m102.398 331.015-48.443-27.812c-3.86-2.216-10.162-2.175-13.995.082L7.048 322.681c-2.528 1.488-3.344 3.582-2.535 5.479-.816 1.91 0 4.011 2.57 5.486l48.462 27.982c3.855 2.223 10.142 2.189 13.975-.088l32.939-19.552c2.515-1.496 3.331-3.59 2.522-5.486.809-1.917-.027-4.018-2.583-5.487Z"/><path opacity=".41" d="m102.149 331.024-48.185-27.663c-3.84-2.209-10.107-2.168-13.927.075L7.296 322.73c-2.509 1.482-3.324 3.569-2.522 5.438-.809 1.904 0 3.991 2.562 5.439l48.205 27.839c3.84 2.21 10.094 2.176 13.9-.088l32.769-19.457c2.508-1.482 3.317-3.569 2.515-5.439.802-1.883.007-3.977-2.576-5.438Z"/><path opacity=".44" d="m101.902 331.03-47.933-27.52c-3.827-2.195-10.06-2.155-13.852.082L7.53 322.784c-2.5 1.475-3.31 3.548-2.508 5.438-.802 1.89 0 3.964 2.542 5.439l47.96 27.69c3.814 2.202 10.04 2.168 13.826-.082l32.626-19.355c2.488-1.475 3.297-3.549 2.495-5.438.788-1.911-.041-3.991-2.57-5.446Z"/><path opacity=".46" d="m101.659 331.043-47.688-27.377c-3.8-2.183-9.999-2.149-13.778.074L7.798 322.83c-2.487 1.469-3.296 3.528-2.501 5.398-.795 1.883 0 3.95 2.535 5.398l47.702 27.547c3.8 2.189 9.985 2.155 13.758-.082l32.422-19.253c2.481-1.475 3.283-3.535 2.487-5.398.796-1.89-.027-3.956-2.542-5.397Z"/><path opacity=".49" d="m101.403 331.05-47.43-27.234c-3.786-2.169-9.951-2.135-13.71.074L8.038 322.885c-2.474 1.455-3.276 3.508-2.481 5.364-.795 1.869 0 3.929 2.515 5.37l47.45 27.398c3.78 2.182 9.938 2.148 13.683-.082l32.259-19.151c2.46-1.461 3.263-3.514 2.467-5.364.796-1.876-.027-3.936-2.528-5.37Z"/><path opacity=".51" d="m101.161 331.056-47.186-27.091c-3.758-2.155-9.896-2.121-13.594.081L8.326 322.932c-2.46 1.455-3.262 3.494-2.474 5.337-.788 1.863 0 3.909 2.508 5.343l47.2 27.255c3.751 2.169 9.875 2.135 13.593-.082l32.083-19.035c2.453-1.455 3.249-3.494 2.46-5.337.768-1.883-.047-3.929-2.535-5.357Z"/><path opacity=".54" d="m100.911 331.064-46.9-26.941c-3.745-2.149-9.842-2.115-13.56.074L8.566 322.988c-2.447 1.441-3.242 3.467-2.454 5.309-.788 1.85 0 3.882 2.488 5.31l46.92 27.098c3.739 2.155 9.829 2.121 13.54-.081l31.912-18.954c2.434-1.448 3.229-3.481 2.441-5.31.788-1.842-.041-3.875-2.502-5.296Z"/><path opacity=".56" d="m100.649 331.071-46.663-26.793c-3.724-2.134-9.794-2.1-13.492.075L8.786 323.042c-2.434 1.434-3.229 3.453-2.447 5.282-.782 1.842 0 3.862 2.48 5.282l46.697 26.963c3.711 2.148 9.774 2.114 13.465-.082l31.735-18.818c2.427-1.434 3.216-3.453 2.434-5.282.782-1.876-.027-3.902-2.501-5.316Z"/><path opacity=".59" d="M100.414 331.078 53.99 304.422c-3.697-2.121-9.733-2.087-13.41.081L9.034 323.09c-2.42 1.421-3.208 3.433-2.426 5.248-.782 1.836 0 3.848 2.46 5.255l46.445 26.82c3.697 2.134 9.72 2.1 13.39-.082l31.566-18.743c2.413-1.434 3.194-3.44 2.42-5.255.781-1.835-.021-3.848-2.475-5.255Z"/><path opacity=".61" d="m100.168 331.085-46.172-26.513c-3.684-2.115-9.686-2.081-13.343.074L9.285 323.131c-2.413 1.421-3.195 3.399-2.42 5.228-.775 1.815 0 3.821 2.454 5.221l46.186 26.677c3.677 2.121 9.672 2.087 13.322-.082l31.396-18.641c2.399-1.427 3.174-3.399 2.406-5.228.775-1.822-.027-3.82-2.461-5.221Z"/><path opacity=".63" d="m99.916 331.091-45.921-26.364c-3.657-2.1-9.632-2.039-13.268.075l-31.199 18.39c-2.392 1.407-3.174 3.399-2.4 5.193-.774 1.809 0 3.801 2.434 5.194l45.942 26.514c3.657 2.114 9.617 2.08 13.247-.075l31.22-18.525c2.385-1.421 3.16-3.4 2.392-5.201.775-1.815-.021-3.807-2.447-5.201Z"/><path opacity=".66" d="m99.672 331.1-45.67-26.221c-3.65-2.087-9.577-2.053-13.166.081L9.808 323.248c-2.386 1.4-3.154 3.399-2.393 5.166-.768 1.802 0 3.78 2.427 5.167l45.656 26.378c3.636 2.1 9.563 2.039 13.172-.082l31.056-18.437c2.373-1.407 3.141-3.399 2.379-5.167.762-1.808-.027-3.786-2.433-5.173Z"/><path opacity=".68" d="M99.421 331.104 54.01 305.032c-3.623-2.08-9.516-2.04-13.125.075l-30.86 18.206c-2.365 1.4-3.133 3.365-2.378 5.139-.761 1.795 0 3.76 2.413 5.14l45.438 26.241c3.61 2.087 9.516 2.04 13.098-.081l30.88-18.356c2.365-1.4 3.126-3.399 2.365-5.139.761-1.802-.021-3.773-2.42-5.153Z"/><path opacity=".71" d="m99.174 331.111-45.167-25.928c-3.602-2.04-9.475-2.04-13.05.074l-30.71 18.057c-2.358 1.359-3.12 3.338-2.365 5.112-.754 1.781 0 3.739 2.4 5.106l45.18 26.092c3.596 2.08 9.455 2.039 13.03-.075l30.71-18.233c2.344-1.36 3.106-3.352 2.351-5.113.782-1.76 0-3.718-2.379-5.092Z"/><path opacity=".73" d="M98.924 331.119 54.015 305.34c-3.582-2.04-9.42-2.04-12.976.068l-30.518 17.981c-2.339 1.36-3.1 3.325-2.352 5.085-.748 1.768 0 3.719 2.386 5.086l44.928 25.942c3.576 2.039 9.408 2.039 12.956-.082l30.539-18.131c2.338-1.359 3.093-3.324 2.345-5.085.748-1.774.007-3.719-2.4-5.085Z"/><path opacity=".76" d="m98.679 331.126-44.664-25.637c-3.555-2.039-9.367-2.039-12.915.075l-30.342 17.88c-2.331 1.359-3.086 3.304-2.338 5.051-.748 1.761 0 3.698 2.372 5.058l44.677 25.833c3.555 2.04 9.353 2.04 12.915-.081l30.37-18.029c2.317-1.36 3.072-3.311 2.324-5.058.727-1.795-.048-3.733-2.4-5.092Z"/><path opacity=".78" d="m98.43 331.132-44.406-25.494c-3.54-2.039-9.312-1.999-12.832.075l-30.173 17.778c-2.31 1.359-3.065 3.29-2.324 5.024-.741 1.753 0 3.677 2.358 5.03l44.426 25.65c3.535 2.04 9.299 2.04 12.813-.074l30.192-17.928c2.311-1.359 3.059-3.29 2.318-5.03.741-1.754-.027-3.685-2.372-5.031Z"/><path opacity=".8" d="M98.18 331.146 54 305.795c-3.521-2.04-9.265-1.992-12.765.068l-29.996 17.675c-2.304 1.36-3.052 3.263-2.31 4.997-.742 1.74 0 3.651 2.344 4.997l44.181 25.507c3.514 2.04 9.244 1.992 12.731-.081l30.03-17.826c2.291-1.359 3.038-3.27 2.297-4.996.762-1.741 0-3.658-2.331-4.99Z"/><path opacity=".83" d="M97.931 331.151 54.03 305.943c-3.5-2.039-9.21-1.978-12.684.075l-29.832 17.574c-2.284 1.359-3.031 3.249-2.297 4.969-.734 1.734 0 3.63 2.331 4.97l43.923 25.358c3.494 2.039 9.196 1.985 12.663-.075l29.853-17.724c2.284-1.359 3.024-3.256 2.29-4.969.734-1.734-.027-3.644-2.345-4.97Z"/><path opacity=".85" d="m97.69 331.159-43.652-25.065c-3.48-1.992-9.155-1.965-12.615.075l-29.656 17.478c-2.277 1.36-3.018 3.229-2.284 4.936-.734 1.72 0 3.616 2.318 4.942l43.665 25.215c3.48 2.006 9.162 1.965 12.595-.075l29.683-17.621c2.263-1.36 3.004-3.236 2.27-4.942.734-1.727-.04-3.624-2.325-4.943Z"/><path opacity=".88" d="m97.438 331.165-43.4-24.915c-3.46-1.972-9.121-1.972-12.52.068l-29.486 17.376c-2.263 1.36-2.997 3.209-2.27 4.908-.727 1.714 0 3.597 2.304 4.916l43.42 25.072c3.453 1.992 9.088 1.958 12.514-.075l29.492-17.526c2.257-1.36 2.984-3.216 2.263-4.908.728-1.72-.027-3.603-2.317-4.916Z"/><path opacity=".9" d="m97.194 331.174-43.148-24.773c-3.44-1.972-9.047-1.945-12.466.075L12.291 323.75c-2.25 1.36-2.984 3.189-2.256 4.881-.728 1.7 0 3.569 2.29 4.882l43.162 24.922c3.398 1.985 9.033 1.951 12.445-.075l29.323-17.417c2.236-1.36 2.964-3.195 2.243-4.881.721-1.706-.027-3.583-2.304-4.888Z"/><path opacity=".93" d="m96.938 331.18-42.89-24.623c-3.398-1.965-8.999-1.938-12.398.068l-29.145 17.172c-2.237 1.319-2.957 3.175-2.243 4.854-.72 1.693 0 3.549 2.277 4.854l42.91 24.78c3.398 1.972 8.985 1.938 12.377-.075l29.167-17.315c2.229-1.36 2.95-3.182 2.236-4.854.74-1.7-.028-3.562-2.29-4.861Z"/><path opacity=".95" d="m96.697 331.186-42.645-24.474c-3.398-1.951-8.945-1.923-12.323.068l-28.97 17.071c-2.222 1.312-2.942 3.161-2.229 4.827-.72 1.686 0 3.528 2.264 4.827l42.658 24.63c3.399 1.958 8.932 1.924 12.303-.075l28.99-17.22c2.215-1.312 2.936-3.154 2.222-4.827.714-1.686-.02-3.535-2.27-4.827Z"/><path opacity=".98" d="m96.444 331.193-42.387-24.338c-3.398-1.938-8.89-1.911-12.234.068l-28.8 16.995c-2.216 1.306-2.93 3.134-2.222 4.759-.68 1.673 0 3.515 2.25 4.8l42.407 24.474c3.398 1.951 8.877 1.917 12.234-.075l28.827-17.111c2.202-1.306 2.916-3.141 2.209-4.8.686-1.645-.048-3.487-2.284-4.772Z"/><path opacity=".3" d="m96.2 331.2-42.143-24.202c-3.358-1.931-8.836-1.904-12.173.068l-28.63 16.867c-2.195 1.298-2.909 3.12-2.202 4.758-.68 1.659 0 3.488 2.236 4.759l42.142 24.345c3.351 1.938 8.836 1.904 12.153-.075l28.65-16.996c2.196-1.305 2.902-3.127 2.196-4.758.72-1.659-.007-3.488-2.23-4.766Z"/></g><path d="M39.654 304.122c3.916-2.311 10.346-2.345 14.274-.082l49.442 28.384c3.936 2.257 3.97 6.009.062 8.327L69.82 360.705c-3.908 2.318-10.325 2.359-14.274.088L6.097 332.24c-3.935-2.271-3.956-6.023-.04-8.328l33.597-19.79Z" fill="#D6E2F2"/><path d="M39.654 301.261c3.916-2.312 10.346-2.346 14.274-.082l49.442 28.383c3.936 2.257 3.97 6.01.062 8.328L69.82 357.85c-3.908 2.318-10.325 2.359-14.274.088L6.097 329.385c-3.935-2.27-3.956-6.016-.04-8.328l33.597-19.796Z" fill="#FBFCFE"/><path d="M38.595 297.48c3.915-2.304 10.338-2.338 14.274-.081l49.435 28.383c3.942 2.264 3.969 6.016.061 8.334l-33.611 19.92c-3.902 2.325-10.325 2.359-14.274.088L5.024 325.571c-3.936-2.277-3.956-6.023-.04-8.328l33.61-19.763Z" fill="#D6E2F2"/><path d="M38.595 294.591c3.915-2.312 10.338-2.346 14.274-.082l49.435 28.376c3.942 2.264 3.969 6.017.061 8.335l-33.611 19.967c-3.902 2.318-10.325 2.359-14.274.082L5.024 322.715c-3.936-2.277-3.956-6.023-.04-8.327l33.61-19.797Z" fill="#F5F8FC"/><path d="M42.802 294.945c3.915-2.305 10.338-2.339 14.274-.082l49.435 28.384c3.942 2.263 3.97 6.009.061 8.334l-33.605 19.953c-3.908 2.325-10.324 2.359-14.273.089L9.237 323.07c-3.936-2.271-3.956-6.017-.04-8.321l33.604-19.804Z" fill="#D6E2F2"/><path d="M42.802 292.083c3.915-2.305 10.338-2.339 14.274-.075l49.435 28.376c3.942 2.264 3.97 6.017.061 8.335l-33.605 19.953c-3.908 2.325-10.324 2.366-14.273.089L9.237 320.208c-3.936-2.278-3.956-6.024-.04-8.328l33.604-19.797Z" fill="#F7F9FC"/><path d="m95.384 328.617 4.37-2.542-22.233-12.774-4.37 2.542 22.233 12.774Z" fill="#FC7318"/><path d="m88.757 332.559 2.182-1.271-49.632-28.513-2.189 1.272 49.64 28.512Z" fill="#C1D3EB"/><path d="m25.245 306.84-8.524 3.331a4.079 4.079 0 0 0-1.971 1.55 2.986 2.986 0 0 0 .21 3.556 7.275 7.275 0 0 0 6.499 1.237l10.433-2.971 1.135-1.108h1.122l1.828.51 5.853-.768.367-6.962-9.32-2.576-7.632 4.201Z" fill="#151617"/><path d="M37.651 308.732c-2.97 0-4.622-1.978-4.65-4.446l-1.046-33.251 1.183-31.952c.272-2.468 5.247-4.283 8.218-4.079 2.97.204 9.828 5.615 9.556 8.09l-8.884 28.308.272 32.802c0 2.482-1.604 4.507-4.601 4.528h-.048Z" fill="#FC7318"/><path d="m52.86 314.924-9.305 9.422a8.468 8.468 0 0 0-1.503 2.081l-.353.679a2.485 2.485 0 0 0 .782 3.121l.475.374a3.943 3.943 0 0 0 3.766.516l1.325-.509a10.633 10.633 0 0 0 3.399-2.04l5.438-4.147 1.108-2.128.537-.408.924.578 2.318-1.761a2.145 2.145 0 0 0 .938-2.195l-.605-2.903-9.244-.68Z" fill="#151617"/><path d="M39.032 246.607a3.604 3.604 0 0 1-3.153-1.652l-9.924-17.309a12.869 12.869 0 0 1 1.448-14.922l10.875-13.1a3.968 3.968 0 0 1 4.873-.721c1.591.904 1.985 2.719.898 4.018l-10.876 13.1a7.917 7.917 0 0 0-.89 9.171l9.91 17.295c.823 1.435.082 3.161-1.658 3.841a4.064 4.064 0 0 1-1.502.279Z" fill="#E7AD99"/><path d="M30.274 217.754a4.638 4.638 0 0 1-2.317-.605c-1.863-1.06-2.332-3.168-1.054-4.711l10.875-13.093a4.651 4.651 0 0 1 5.696-.871c1.863 1.061 2.332 3.168 1.047 4.712l-10.875 13.1a4.383 4.383 0 0 1-3.372 1.468Z" fill="#EFF4FE"/><path d="M57.712 318.678c-2.936 0-4.581-1.945-4.65-4.385l-4.078-40.838-3.867-18.063-10.468-11.408 9.89-7.512c.082-2.481 10.325.714 13.316.762 2.99.047 7.68 9.177 7.606 11.659l-4.84 25.833 1.74 39.329c.068 2.474-1.53 4.534-4.52 4.589l-.13.034Z" fill="#FC7318"/><path d="M59.475 202.589c4.969 2.373 8.035 6.765 8.035 11.517l-.45 2.039a88.228 88.228 0 0 0-1.889 24.359l.816 12.787c-9.706 3.658-28.283-2.719-33.38-10.292l.93-21.028-.856-13.372c-.557-7.947 9.516-13.359 18.08-9.694l8.714 3.684Z" fill="#EFF4FE"/><path d="M47.213 206.539h.326c2.25 0 5.635-3.638 5.635-5.507v-5.602c0-1.142-1.114-2.039-2.487-2.039h-3.182c-1.359 0-2.487.917-2.487 2.039v5.602c0 1.869-.055 5.507 2.195 5.507Z" fill="#E7AD99"/><path d="m49.102 198.802 4.078-.68c1.95-.319 3.208-1.89 2.82-3.501l-3.03-12.57-16.993 2.807 1.862 7.71c1.026 4.296 6.07 7.09 11.263 6.234Z" fill="#E7AD99"/><path d="M48.1 187.347a4.572 4.572 0 0 1 2.72 2.719c.251.816-.075 1.149-.544 1.863a1.59 1.59 0 0 0-.333 1.326.281.281 0 0 0 .088.142c.054.039.118.06.184.062a1.705 1.705 0 0 0 1.36-.68c.522-.564 1.25-1.081 2.038-.483.789.598.3 1.36-.034 2.04-.4.809-.877 2.59.204 3.229.863.517 2.76-.157 3.541-.558l.347-.197c2.311-1.502 1.964-4.466 2.318-6.615.292-1.747-.252-3.236-.537-4.928-.286-1.693-.224-3.168-1.693-4.494-1.36-1.21-3.854-1.618-5.329-.517a5.553 5.553 0 0 0-3.439-1.475 18.248 18.248 0 0 0-3.949.177 15.636 15.636 0 0 0-6.342 2.039 18.23 18.23 0 0 0-2.576 1.985c-.822.68-.802 1.523-.57 2.441.311 1.032.77 2.014 1.359 2.917a.721.721 0 0 0 .23-.361c.347-.924.361-1.713 1.204-2.454.843-.741 1.509-.551 2.562-.238.3.079.587.202.85.367.68.449.483 1.163 1.257 1.577a3.548 3.548 0 0 0 2.155.211c.72-.155 1.453-.232 2.189-.231.252.01.501.056.74.136Z" fill="#48486A"/><path d="m7.708 191.371 38.451-1.937c.585.455.47 2.121 0 2.658l-31.946 8.838-6.505-9.559Z" fill="url(#d)"/><path d="M10.612 191.793c-2.597-1.244-4.717-.225-4.717 2.25 0 2.474 2.12 5.527 4.717 6.764 2.596 1.238 4.717.225 4.717-2.25s-2.12-5.527-4.717-6.764Z" fill="#26538E"/><path d="M10.608 192.343c-2.277-1.088-4.14-.197-4.14 1.978 0 2.176 1.863 4.848 4.14 5.935 2.277 1.088 4.14.197 4.14-1.978 0-2.176-1.863-4.813-4.14-5.935Z" fill="#92A6F1"/><path opacity=".3" d="M64.16 210.245a3.927 3.927 0 0 0-4.798-.925l-11.847 6.118a6.65 6.65 0 0 1-5.132.368 5.07 5.07 0 0 1-3.399-3.25l-3.487-11.068a9.062 9.062 0 0 0-2.82 7.111l.482 7.343a11.805 11.805 0 0 0 6.634 5.193c2.133.722 4.4.954 6.634.68a14.339 14.339 0 0 0 4.806-1.475l11.84-6.118c1.611-.843 2.107-2.625 1.088-3.977Z" fill="#516CD3"/><path d="M45.222 219.638a14.577 14.577 0 0 1-6.423-1.482c-3.52-1.727-5.757-4.657-6.117-8.029l-2.237-17.764c-.197-1.584 1.19-3.005 3.107-3.168 1.916-.163 3.63.986 3.827 2.57l2.242 17.798a4.673 4.673 0 0 0 2.72 3.617 6.651 6.651 0 0 0 5.139.278l12.818-4.561c1.767-.626 3.82.054 4.581 1.516.762 1.461-.06 3.161-1.828 3.793l-12.82 4.555a14.905 14.905 0 0 1-5.009.877Z" fill="#E7AD99"/><path d="M48.856 219.51a4.19 4.19 0 0 1-3.766-2.04c-.89-1.713.068-3.712 2.148-4.446l12.82-4.602c2.08-.734 4.486.061 5.376 1.781.89 1.72-.068 3.712-2.148 4.446l-12.812 4.562a4.962 4.962 0 0 1-1.618.299Z" fill="#EFF4FE"/><path d="m36.9 198.184-.333-.055a.666.666 0 0 1-.471-.249.68.68 0 0 1-.147-.512l1.57-6.52a.796.796 0 0 1 .917-.51l.34.055a.674.674 0 0 1 .619.768l-1.57 6.513a.795.795 0 0 1-.925.51Z" fill="#E7AD99"/><path d="m53.092 199.305 2.169.951-2.087 10.64-5.642-4.358 5.56-7.233ZM47.532 206.539l-2.264-8.369-2.304-.299-2.705 9.939 7.273-1.271Z" fill="#326EBD"/><path d="m12.425 193.662-3.943 4.929c.408.432.864.815 1.36 1.142l3.765-4.704a8.256 8.256 0 0 0-1.182-1.367ZM8 198.048l3.873-4.847a6.663 6.663 0 0 0-1.264-.856 4.733 4.733 0 0 0-1.25-.388l-2.72 3.399c.25.987.714 1.906 1.36 2.692Z" fill="#BECAF7"/><g opacity=".3" fill="#6E8FE4"><path opacity=".02" d="m413.653 335.618-.251-.51a2.35 2.35 0 0 0-.68-.836 1.273 1.273 0 0 0-.177-.143.568.568 0 0 0-.102-.081l-.068-.041c-.075-.048-.136-.102-.217-.15l-53.215-31.32a6.475 6.475 0 0 0-5.832 0l-82.686 47.439c-.986.571-1.36 1.36-1.135 2.101l-.068.041v1.597a4.712 4.712 0 0 0 2.351 4.079l52.039 30.593a6.475 6.475 0 0 0 5.832 0l82.551-47.344a4.14 4.14 0 0 0 1.658-5.425Z"/><path opacity=".05" d="m413.321 335.583-.252-.51a2.426 2.426 0 0 0-.68-.829 1.743 1.743 0 0 0-.176-.143l-.102-.081-.068-.041c-.075-.048-.136-.102-.218-.15l-52.949-31.184a6.473 6.473 0 0 0-5.805 0l-82.381 47.276c-.978.564-1.359 1.36-1.128 2.087l-.068.041v1.597a4.681 4.681 0 0 0 2.345 4.079l51.808 30.443a6.443 6.443 0 0 0 5.798 0l82.244-47.18a4.126 4.126 0 0 0 1.632-5.405Z"/><path opacity=".07" d="m413.03 335.55-.245-.509a2.496 2.496 0 0 0-.68-.83l-.176-.136a.568.568 0 0 0-.102-.081l-.061-.041c-.075-.048-.136-.102-.218-.15l-52.718-31.048a6.441 6.441 0 0 0-5.771 0l-82.082 47.113c-.978.564-1.359 1.359-1.121 2.08l-.068.041v1.584a4.64 4.64 0 0 0 2.325 4.031l51.562 30.294a6.441 6.441 0 0 0 5.771 0l81.946-47.024a4.084 4.084 0 0 0 1.638-5.324Z"/><path opacity=".1" d="m412.726 335.551-.245-.51a2.461 2.461 0 0 0-.68-.823l-.176-.136-.102-.081-.068-.041c-.075-.048-.13-.102-.211-.15l-52.48-30.905a6.343 6.343 0 0 0-5.744 0l-81.762 46.922c-.965.558-1.36 1.36-1.115 2.04l-.068.034v1.577a4.628 4.628 0 0 0 2.318 4.011l51.352 30.178a6.364 6.364 0 0 0 5.737 0l81.646-46.854a4.08 4.08 0 0 0 1.598-5.262Z"/><path opacity=".12" d="m412.417 335.483-.245-.51a2.437 2.437 0 0 0-.68-.816l-.177-.136a.56.56 0 0 0-.101-.081l-.062-.041c-.074-.048-.129-.102-.21-.15l-52.25-30.769a6.303 6.303 0 0 0-5.709 0l-81.491 46.786c-.965.558-1.359 1.36-1.107 2.04l-.068.04v1.571a4.6 4.6 0 0 0 2.304 3.984l51.121 30.048a6.344 6.344 0 0 0 5.709 0l81.341-46.691a4.08 4.08 0 0 0 1.625-5.275Z"/><path opacity=".15" d="m412.107 335.441-.238-.496a2.49 2.49 0 0 0-.679-.816l-.177-.136c-.041 0-.061-.061-.102-.081l-.061-.041-.211-.15-52.011-30.633a6.29 6.29 0 0 0-5.683 0l-81.177 46.623c-.959.557-1.326 1.326-1.108 2.04h-.068v1.563a4.562 4.562 0 0 0 2.297 3.991l50.89 29.912a6.314 6.314 0 0 0 5.676 0l81.041-46.534a4.035 4.035 0 0 0 1.611-5.242Z"/><path opacity=".17" d="m411.8 335.407-.245-.496a2.3 2.3 0 0 0-.679-.809l-.177-.136a1.241 1.241 0 0 0-.095-.082l-.068-.04a1.664 1.664 0 0 0-.211-.143l-51.773-30.504a6.258 6.258 0 0 0-5.649 0l-80.885 46.46c-.952.55-1.312 1.318-1.095 2.039l-.068.041v1.55a4.559 4.559 0 0 0 2.277 3.943l50.666 29.783a6.241 6.241 0 0 0 5.642 0l80.742-46.364a4.026 4.026 0 0 0 1.618-5.242Z"/><path opacity=".2" d="m411.496 335.373-.218-.503a2.35 2.35 0 0 0-.679-.803 1.236 1.236 0 0 0-.17-.136.616.616 0 0 0-.102-.081h-.061a2.374 2.374 0 0 0-.211-.15l-51.542-30.368a6.24 6.24 0 0 0-5.615 0l-80.593 46.276c-.952.544-1.312 1.306-1.094 2.04l-.061.041v1.536a4.535 4.535 0 0 0 2.263 3.923l50.434 29.654a6.24 6.24 0 0 0 5.615 0l80.437-46.229a3.997 3.997 0 0 0 1.597-5.2Z"/><path opacity=".22" d="m411.184 335.342-.238-.497a2.378 2.378 0 0 0-.68-.795l-.177-.143-.095-.075-.061-.034a2.425 2.425 0 0 0-.211-.149l-51.304-30.232a6.22 6.22 0 0 0-5.587 0l-80.254 46.14c-.944.544-1.305 1.299-1.087 2.006l-.068.04v1.537a4.502 4.502 0 0 0 2.257 3.895l50.203 29.505a6.2 6.2 0 0 0 5.58 0l80.138-46.045a3.966 3.966 0 0 0 1.8-2.267 3.966 3.966 0 0 0-.216-2.886Z"/><path opacity=".24" d="m410.88 335.305-.238-.496a2.294 2.294 0 0 0-.679-.795c-.048-.048-.116-.089-.17-.136-.055-.048-.061-.055-.102-.075h-.061c-.068-.048-.129-.102-.204-.15l-51.067-30.123a6.117 6.117 0 0 0-5.553 0l-79.961 45.97c-.938.544-1.291 1.292-1.081 1.999l-.061.041v1.523a4.47 4.47 0 0 0 2.236 3.875l49.979 29.389a6.12 6.12 0 0 0 5.554 0l79.831-45.882a3.944 3.944 0 0 0 1.577-5.14Z"/><path opacity=".27" d="m410.601 335.265-.237-.482a2.372 2.372 0 0 0-.68-.796l-.177-.136-.095-.074h-.061c-.068-.048-.129-.102-.204-.15l-50.836-29.953a6.109 6.109 0 0 0-5.519 0l-79.662 45.807c-.931.537-1.284 1.285-1.074 1.992h-.068v1.516a4.443 4.443 0 0 0 2.23 3.854l49.748 29.233a6.109 6.109 0 0 0 5.519 0l79.526-45.719a3.937 3.937 0 0 0 1.59-5.092Z"/><path opacity=".29" d="m410.26 335.23-.231-.483a2.333 2.333 0 0 0-.68-.788l-.17-.136-.095-.075-.061-.034c-.075-.047-.129-.102-.204-.143l-50.557-29.824a6.114 6.114 0 0 0-5.485 0l-79.397 45.644c-.924.537-1.278 1.285-1.067 1.978l-.061.041v1.503a4.414 4.414 0 0 0 2.216 3.834l49.517 29.11a6.049 6.049 0 0 0 5.492 0l79.227-45.549a3.892 3.892 0 0 0 1.556-5.078Z"/><path opacity=".32" d="m409.95 335.199-.238-.483a2.208 2.208 0 0 0-.68-.782c-.047-.047-.108-.088-.163-.136-.054-.047-.061-.054-.102-.075h-.061a1.517 1.517 0 0 0-.204-.142l-50.359-29.689a6.084 6.084 0 0 0-5.438 0l-79.057 45.454c-.925.53-1.271 1.271-1.06 1.965l-.068.034v1.502a4.404 4.404 0 0 0 2.209 3.814l49.285 28.988a6.03 6.03 0 0 0 5.438 0l78.928-45.392a3.882 3.882 0 0 0 1.57-5.058Z"/><path opacity=".34" d="m409.647 335.162-.238-.482a2.243 2.243 0 0 0-.68-.775l-.17-.136-.095-.075h-.061a1.524 1.524 0 0 0-.204-.143l-50.129-29.552a6.001 6.001 0 0 0-5.437 0l-78.711 45.29c-.917.531-1.264 1.265-1.06 1.952l-.061.04v1.489a4.385 4.385 0 0 0 2.188 3.794l49.062 28.859a6.001 6.001 0 0 0 5.438 0l78.628-45.237a3.854 3.854 0 0 0 1.53-5.024Z"/><path opacity=".37" d="m409.335 335.124-.232-.476a2.218 2.218 0 0 0-.679-.768c-.048-.048-.109-.088-.163-.136l-.096-.075-.061-.034-.204-.142-49.89-29.417a5.994 5.994 0 0 0-5.397 0l-78.425 45.161c-.911.524-1.258 1.258-1.047 1.945h-.068v1.482a4.372 4.372 0 0 0 2.182 3.773l48.83 28.743a5.945 5.945 0 0 0 5.397 0l78.323-45.066a3.842 3.842 0 0 0 1.53-4.99Z"/><path opacity=".39" d="m409.026 335.087-.231-.469a2.155 2.155 0 0 0-.68-.768l-.17-.136-.095-.075-.061-.034-.197-.142-49.66-29.274a5.92 5.92 0 0 0-5.363 0l-78.166 44.991c-.904.524-1.251 1.251-1.047 1.931l-.061.041v1.475a4.343 4.343 0 0 0 2.168 3.746l48.599 28.594a5.964 5.964 0 0 0 5.363 0l78.024-44.903a3.823 3.823 0 0 0 1.577-4.977Z"/><path opacity=".41" d="m408.723 335.054-.231-.469a2.263 2.263 0 0 0-.646-.769l-.163-.129-.095-.075h-.061l-.197-.142-49.422-29.192a5.903 5.903 0 0 0-5.336 0l-77.84 44.869c-.904.523-1.244 1.244-1.04 1.923l-.061.034v1.442a4.296 4.296 0 0 0 2.148 3.725l48.375 28.465a5.953 5.953 0 0 0 5.335 0l77.712-44.74a3.803 3.803 0 0 0 1.522-4.942Z"/><path opacity=".44" d="m408.411 335.021-.224-.469a2.26 2.26 0 0 0-.68-.762l-.163-.129s-.055-.054-.095-.075l-.055-.034a2.222 2.222 0 0 0-.197-.136l-49.19-29.008a5.87 5.87 0 0 0-5.302 0l-77.507 44.672c-.898.516-1.237 1.23-1.034 1.903l-.061.041v1.455a4.278 4.278 0 0 0 2.141 3.705l48.144 28.315a5.87 5.87 0 0 0 5.302 0l77.419-44.577a3.773 3.773 0 0 0 1.502-4.901Z"/><path opacity=".46" d="m408.107 334.988-.225-.469a2.28 2.28 0 0 0-.639-.755 1.467 1.467 0 0 0-.163-.129l-.095-.075-.061-.034c-.068-.047-.122-.095-.19-.136l-48.939-28.872a5.853 5.853 0 0 0-5.275 0l-77.249 44.509c-.89.509-1.23 1.23-1.026 1.896h-.061v1.448a4.24 4.24 0 0 0 2.127 3.685l47.913 28.199a5.838 5.838 0 0 0 5.268 0l77.113-44.42a3.746 3.746 0 0 0 1.502-4.847Z"/><path opacity=".49" d="m407.801 334.946-.231-.463a2.15 2.15 0 0 0-.632-.747 1.574 1.574 0 0 0-.163-.13s-.054-.054-.088-.074h-.061c-.068-.041-.123-.096-.198-.136l-48.714-28.737a5.833 5.833 0 0 0-5.241 0l-76.936 44.312c-.884.509-1.217 1.223-1.02 1.89l-.061.034v1.441a4.217 4.217 0 0 0 2.121 3.657l47.702 28.071a5.828 5.828 0 0 0 5.24 0l76.807-44.258a3.729 3.729 0 0 0 1.475-4.86Z"/><path opacity=".51" d="m407.483 334.912-.225-.463a2.12 2.12 0 0 0-.625-.741l-.163-.129-.095-.075h-.055c-.068-.04-.122-.095-.197-.136l-48.477-28.634a5.808 5.808 0 0 0-5.213 0l-76.631 44.189c-.876.51-1.216 1.217-1.012 1.876l-.061.034v1.435a4.185 4.185 0 0 0 .562 2.1 4.184 4.184 0 0 0 1.538 1.537l47.444 27.914a5.752 5.752 0 0 0 5.206 0l76.508-44.094a3.704 3.704 0 0 0 1.496-4.813Z"/><path opacity=".54" d="m407.2 334.872-.224-.456a2.055 2.055 0 0 0-.626-.741 1.467 1.467 0 0 0-.163-.129 1.286 1.286 0 0 0-.088-.075l-.061-.034-.191-.136-48.259-28.457a5.739 5.739 0 0 0-5.179 0l-76.332 44.019c-.876.51-1.209 1.21-1.012 1.869h-.055v1.421a4.174 4.174 0 0 0 2.087 3.617l47.226 27.805a5.739 5.739 0 0 0 5.18 0l76.202-43.897a3.684 3.684 0 0 0 1.495-4.806Z"/><path opacity=".56" d="m406.867 334.871-.217-.455a2.124 2.124 0 0 0-.626-.741l-.183-.163s-.055-.055-.089-.075h-.061c-.068-.041-.115-.089-.19-.136l-47.981-28.342a5.681 5.681 0 0 0-5.152 0l-76.025 43.856c-.87.496-1.197 1.196-1 1.849h-.061v1.414a4.15 4.15 0 0 0 2.08 3.596l46.995 27.676a5.719 5.719 0 0 0 5.146 0l75.903-43.72a3.648 3.648 0 0 0 1.461-4.759Z"/><path opacity=".59" d="m406.56 334.81-.218-.455a2.202 2.202 0 0 0-.619-.734l-.156-.123-.095-.074h-.054l-.191-.13-47.776-28.192a5.665 5.665 0 0 0-5.119 0l-75.719 43.693c-.863.496-1.197 1.189-.999 1.842l-.055.034v1.407a4.12 4.12 0 0 0 2.039 3.569l46.791 27.493a5.664 5.664 0 0 0 5.119 0l75.597-43.605a3.64 3.64 0 0 0 1.455-4.725Z"/><path opacity=".61" d="m406.253 334.77-.217-.448a2.193 2.193 0 0 0-.619-.728l-.156-.122s-.054-.054-.088-.075l-.061-.034c-.062-.041-.116-.088-.184-.129l-47.546-28.057a5.625 5.625 0 0 0-5.084 0l-75.448 43.51c-.863.496-1.189 1.183-.992 1.828l-.061.041v1.36a4.081 4.081 0 0 0 2.039 3.549l46.54 27.41a5.628 5.628 0 0 0 5.084 0l75.298-43.448a3.61 3.61 0 0 0 1.495-4.657Z"/><path opacity=".63" d="m405.944 334.736-.218-.449a2.135 2.135 0 0 0-.605-.72l-.156-.123-.095-.075h-.055a1.426 1.426 0 0 0-.19-.136l-47.301-27.92a5.608 5.608 0 0 0-5.057 0l-75.115 43.339c-.849.496-1.176 1.183-.985 1.822h-.055v1.36a4.081 4.081 0 0 0 2.039 3.528l46.309 27.282a5.607 5.607 0 0 0 5.05 0l74.972-43.224a3.59 3.59 0 0 0 1.462-4.684Z"/><path opacity=".66" d="m405.638 334.701-.217-.442a1.998 1.998 0 0 0-.605-.72l-.156-.123s-.055-.054-.089-.075h-.054a1.997 1.997 0 0 0-.191-.136l-47.069-27.784a5.581 5.581 0 0 0-5.023 0l-74.809 43.183c-.85.489-1.169 1.169-.979 1.801l-.061.041v1.36a4.083 4.083 0 0 0 2.039 3.508l46.071 27.145a5.534 5.534 0 0 0 5.023 0l74.693-43.101a3.571 3.571 0 0 0 1.427-4.657Z"/><path opacity=".68" d="m405.334 334.666-.218-.441a2.022 2.022 0 0 0-.604-.68 1.257 1.257 0 0 0-.15-.123c-.034 0-.054-.054-.088-.074h-.062a1.206 1.206 0 0 0-.183-.136l-46.832-27.642a5.517 5.517 0 0 0-4.996 0l-74.51 42.979c-.842.482-1.162 1.162-.965 1.794h-.061v1.36a4.04 4.04 0 0 0 2.039 3.488l45.853 27.009a5.505 5.505 0 0 0 4.989 0l74.367-42.911a3.558 3.558 0 0 0 1.421-4.623Z"/><path opacity=".71" d="m405.018 334.627-.211-.436c-.146-.268-.35-.5-.598-.679a1.318 1.318 0 0 0-.156-.123 1.305 1.305 0 0 0-.089-.075h-.054a1.162 1.162 0 0 0-.183-.129l-46.601-27.547a5.512 5.512 0 0 0-4.962 0l-74.204 42.83c-.836.483-1.156 1.156-.965 1.788l-.061.034v1.36a4.014 4.014 0 0 0 2.005 3.467l45.622 26.88a5.497 5.497 0 0 0 4.962 0l74.088-42.829a3.53 3.53 0 0 0 1.407-4.541Z"/><path opacity=".73" d="m404.71 334.592-.231-.401a2.145 2.145 0 0 0-.598-.68l-.15-.115s-.054-.055-.088-.075h-.055a1.674 1.674 0 0 0-.183-.129l-46.363-27.377a5.483 5.483 0 0 0-4.935 0l-73.877 42.653c-.837.482-1.149 1.148-.959 1.774h-.061v1.36a3.993 3.993 0 0 0 1.992 3.446l45.39 26.731a5.43 5.43 0 0 0 4.928 0l73.79-42.632a3.509 3.509 0 0 0 1.4-4.555Z"/><path opacity=".76" d="m404.406 334.558-.21-.435a2.172 2.172 0 0 0-.592-.68l-.156-.116-.081-.074h-.062c-.061-.041-.108-.089-.176-.13l-46.132-27.24a5.43 5.43 0 0 0-4.894 0l-73.606 42.503c-.822.482-1.142 1.142-.951 1.767h-.055v1.36a3.959 3.959 0 0 0 1.978 3.399l45.16 26.616a5.403 5.403 0 0 0 4.894 0l73.49-42.47a3.484 3.484 0 0 0 1.393-4.5Z"/><path opacity=".78" d="m404.094 334.525-.204-.429a2.108 2.108 0 0 0-.591-.68l-.149-.115s-.055-.054-.089-.068h-.054a2.164 2.164 0 0 0-.184-.129l-45.887-27.105a5.435 5.435 0 0 0-4.867 0l-73.299 42.34c-.823.469-1.135 1.128-.945 1.747h-.061v1.36a3.923 3.923 0 0 0 1.964 3.399l44.936 26.513a5.435 5.435 0 0 0 4.866 0l73.185-42.326a3.454 3.454 0 0 0 1.379-4.507Z"/><path opacity=".8" d="m403.804 334.49-.211-.428a1.906 1.906 0 0 0-.584-.68.884.884 0 0 0-.15-.116s-.047-.054-.081-.068h-.055c-.061-.04-.115-.088-.183-.129l-45.636-27.016a5.352 5.352 0 0 0-4.833 0l-73 42.231c-.816.469-1.122 1.128-.938 1.74l-.055.034v1.326a3.882 3.882 0 0 0 1.951 3.399l44.67 26.316a5.357 5.357 0 0 0 4.833 0l72.913-42.149a3.44 3.44 0 0 0 1.359-4.46Z"/><path opacity=".83" d="m403.481 334.45-.211-.422a1.944 1.944 0 0 0-.578-.68l-.149-.115s-.055-.055-.089-.068l-.054-.034c-.061-.041-.109-.089-.177-.129l-45.418-26.827a5.307 5.307 0 0 0-4.805 0l-72.729 42.062c-.809.469-1.122 1.121-.931 1.727h-.062v1.318a3.873 3.873 0 0 0 1.944 3.359l44.474 26.221a5.344 5.344 0 0 0 4.805 0l72.58-41.987a3.4 3.4 0 0 0 1.4-4.425Z"/><path opacity=".85" d="m403.17 334.415-.204-.421a1.906 1.906 0 0 0-.578-.68l-.142-.122c-.034 0-.055-.048-.089-.062l-.054-.034a1.682 1.682 0 0 0-.177-.122l-45.187-26.697a5.269 5.269 0 0 0-4.758 0l-72.389 41.898c-.809.469-1.115 1.115-.931 1.72h-.055v1.312a3.842 3.842 0 0 0 1.924 3.331l44.249 26.092a5.312 5.312 0 0 0 4.758 0l72.28-41.823a3.4 3.4 0 0 0 1.353-4.392Z"/><path opacity=".88" d="m402.865 334.382-.204-.422a2.037 2.037 0 0 0-.571-.68l-.15-.122-.081-.061h-.055a1.633 1.633 0 0 0-.176-.123l-44.95-26.588a5.258 5.258 0 0 0-4.758 0l-72.076 41.735c-.795.462-1.101 1.108-.918 1.713h-.061v1.353c.001.672.178 1.331.514 1.913a3.831 3.831 0 0 0 1.403 1.398L324.8 380.42a5.246 5.246 0 0 0 4.758 0l71.981-41.66a3.398 3.398 0 0 0 1.326-4.378Z"/><path opacity=".9" d="m402.56 334.347-.204-.415a2.112 2.112 0 0 0-.571-.679c-.04-.041-.095-.075-.142-.116-.048-.041-.055-.048-.089-.061l-.054-.034a1.698 1.698 0 0 0-.17-.122l-44.718-26.426a5.236 5.236 0 0 0-4.711 0l-71.804 41.579c-.795.455-1.101 1.095-.918 1.693l-.054.034v1.291a3.795 3.795 0 0 0 1.903 3.291l43.787 25.834a5.233 5.233 0 0 0 4.71 0l71.676-41.47a3.354 3.354 0 0 0 1.359-4.399Z"/><path opacity=".93" d="m402.242 334.313-.197-.414a2.037 2.037 0 0 0-.571-.68c-.04-.041-.095-.075-.142-.116l-.082-.061-.054-.034-.17-.122-44.48-26.289a5.208 5.208 0 0 0-4.684 0l-71.478 41.422c-.795.455-1.094 1.088-.911 1.686h-.054v1.292a3.76 3.76 0 0 0 1.89 3.263l43.555 25.697a5.191 5.191 0 0 0 4.677 0l71.369-41.333a3.335 3.335 0 0 0 1.332-4.311Z"/><path opacity=".95" d="m401.937 334.274-.204-.408a1.943 1.943 0 0 0-.557-.68l-.143-.115s-.054-.048-.081-.062h-.055l-.177-.122-44.242-26.153a5.18 5.18 0 0 0-4.649 0l-71.179 41.232c-.782.455-1.081 1.081-.904 1.672h-.055v1.278a3.736 3.736 0 0 0 1.876 3.243l43.332 25.582a5.13 5.13 0 0 0 4.649 0l71.064-41.171a3.312 3.312 0 0 0 1.325-4.296Z"/><path opacity=".98" d="m401.627 334.238-.197-.408a1.943 1.943 0 0 0-.557-.68c-.041-.041-.096-.075-.143-.115a.385.385 0 0 0-.082-.062h-.054a1.877 1.877 0 0 0-.19-.142l-44.005-26.011a5.122 5.122 0 0 0-4.622 0l-70.853 41.089a1.472 1.472 0 0 0-.897 1.666h-.054v1.271a3.699 3.699 0 0 0 1.862 3.223l43.121 25.459a5.11 5.11 0 0 0 4.615 0l70.765-41.007a3.284 3.284 0 0 0 1.291-4.283Z"/><path opacity=".3" d="m401.322 334.192-.197-.408a1.963 1.963 0 0 0-.551-.679l-.143-.116-.081-.061-.055-.034a1.818 1.818 0 0 0-.17-.116l-43.773-25.881a5.09 5.09 0 0 0-4.588 0l-70.574 40.96c-.768.449-1.067 1.074-.891 1.652l-.054.034v1.258a3.7 3.7 0 0 0 1.856 3.208l42.855 25.297a5.095 5.095 0 0 0 4.588 0l70.459-40.851a3.262 3.262 0 0 0 1.319-4.263Z"/></g><path d="m268.009 347.249 79.003-45.623a3.866 3.866 0 0 1 3.874 0l57.408 33.148a1.753 1.753 0 0 1 0 3.026l-78.288 46.018a3.875 3.875 0 0 1-3.902 0l-58.095-33.55a1.743 1.743 0 0 1 0-3.019Z" fill="#EFF4FE"/><path d="M363.395 329.222c5.485-3.168 14.458-3.168 19.943 0 5.485 3.168 5.485 8.348 0 11.516-5.485 3.168-14.458 3.168-19.943 0-5.485-3.168-5.485-8.348 0-11.516Z" fill="#326EBD"/><path d="M373.367 326.842a20.394 20.394 0 0 0-9.972 2.379c-5.485 3.168-5.485 8.349 0 11.517l.258.143 9.714-4.623v-9.416Z" fill="#FEB423"/><path d="M359.465 336.23h13.9v-9.388a20.393 20.393 0 0 0-9.971 2.379c-3.304 1.911-4.602 4.548-3.929 7.009Z" fill="#FC7318"/><path d="m342.393 311.044 5.206-2.903 20.432 11.802-5.111 2.95-20.527-11.849ZM335.089 315.224l3.167-1.835 20.432 11.795-3.249 1.788-20.35-11.748ZM327.99 319.35l3.195-1.856 20.581 11.918-3.255 1.794-20.521-11.856ZM321.026 323.403l3.195-1.856 51.671 29.294-3.249 1.788-51.617-29.226ZM314.068 327.46l3.195-1.862 51.672 29.294-3.25 1.788-51.617-29.22ZM307.097 331.511l3.201-1.863 51.672 29.294-3.256 1.795-51.617-29.226ZM300.138 335.563l3.201-1.856 51.672 29.294-3.249 1.788-51.624-29.226ZM293.188 339.616l3.194-1.856 51.672 29.294-3.249 1.788-51.617-29.226ZM286.225 343.675l3.194-1.863 51.672 29.295-3.249 1.788-51.617-29.22ZM279.266 347.726l3.194-1.863 51.672 29.294-3.249 1.795-51.617-29.226Z" fill="#D3DBF9"/><defs><linearGradient id="a" x1="316.67" y1="153.75" x2="331.569" y2="153.75" gradientUnits="userSpaceOnUse"><stop stop-color="#fff"/><stop offset=".29" stop-color="#FCFDFE"/><stop offset=".52" stop-color="#F2F6FB"/><stop offset=".72" stop-color="#E2EAF5"/><stop offset=".9" stop-color="#CCDBEE"/></linearGradient><linearGradient id="b" x1="240.631" y1="112.64" x2="250.888" y2="112.64" gradientUnits="userSpaceOnUse"><stop stop-color="#fff"/><stop offset=".07" stop-color="#D5D5D5"/><stop offset=".18" stop-color="#9D9D9D"/><stop offset=".29" stop-color="#6D6D6D"/><stop offset=".39" stop-color="#464646"/><stop offset=".49" stop-color="#272727"/><stop offset=".59" stop-color="#121212"/><stop offset=".69" stop-color="#040404"/><stop offset=".78"/></linearGradient><linearGradient id="c" x1="234.359" y1="221.236" x2="252.539" y2="249.84" gradientUnits="userSpaceOnUse"><stop stop-color="#326EBD"/><stop offset=".25" stop-color="#739CD2"/><stop offset=".51" stop-color="#AFC6E5"/><stop offset=".73" stop-color="#DAE5F3"/><stop offset=".9" stop-color="#F5F8FC"/><stop offset="1" stop-color="#fff"/></linearGradient><linearGradient id="d" x1="28.045" y1="197.85" x2="27.011" y2="190.032" gradientUnits="userSpaceOnUse"><stop stop-color="#326EBD"/><stop offset=".23" stop-color="#3972C1"/><stop offset=".57" stop-color="#4C7CCE"/><stop offset=".96" stop-color="#6B8DE2"/><stop offset="1" stop-color="#6E8FE4"/></linearGradient></defs></svg>