<svg width="95" height="166" fill="none" xmlns="http://www.w3.org/2000/svg"><g clip-path="url(#a)"><path d="M92.69 146.599a3.316 3.316 0 0 1-.575 1.569 3.87 3.87 0 0 1-1.308 1.18 5.416 5.416 0 0 1-.904.497l-18.35 9.407a13.838 13.838 0 0 1-5.593 1.403 14.012 14.012 0 0 1-5.71-.973l-45.517-23.185a3.196 3.196 0 0 1-1.296-.989 2.658 2.658 0 0 1-.55-1.429 3.836 3.836 0 0 1 .871-1.98 4.604 4.604 0 0 1 1.88-1.332l18.349-9.308a13.926 13.926 0 0 1 5.598-1.378 14.094 14.094 0 0 1 5.706.981l45.516 23.185c.518.216.965.546 1.295.958.33.412.533.892.589 1.394Z" fill="#E4EDFF"/><path d="M92.69 146.598v5.167a3.871 3.871 0 0 1-.892 1.983 4.655 4.655 0 0 1-1.896 1.329l-18.35 9.308a13.963 13.963 0 0 1-5.593 1.391 14.13 14.13 0 0 1-5.71-.961L14.733 141.63a3.323 3.323 0 0 1-1.374-1.022 2.755 2.755 0 0 1-.586-1.495v-5.134c.036.51.226 1.004.55 1.429.325.425.772.766 1.297.988l45.516 23.186a14.01 14.01 0 0 0 5.71.972 13.806 13.806 0 0 0 5.593-1.403l18.35-9.307c.32-.138.623-.305.904-.497a3.916 3.916 0 0 0 1.372-1.165 3.33 3.33 0 0 0 .625-1.584Z" fill="#ADC5E5"/><path d="M74.754 148.387v-43.754l-5.313 2.716v43.754l5.313-2.716Z" fill="#ADC5E5"/><path d="M69.44 104.635 33.044 86.152v46.471l36.398 18.482v-46.47Z" fill="#D5DFF4"/><path d="m16.43 7.784 10.324-5.266C33.95-1.16 42.994-.96 52.79 4.008l-10.286 5.3c-9.835-4.968-18.84-5.2-26.074-1.524Z" fill="url(#b)"/><path d="M78.524 116.193 68.2 121.46c9.947-5.068 16.352-17.588 16.428-35.275 0-30.473-18.84-64.854-42.163-76.712l10.324-5.3c23.398 11.892 42.238 46.372 42.163 76.745-.076 17.522-6.481 30.042-16.428 35.275Z" fill="#F1F4FC"/><path d="M42.502 9.308C65.901 21.166 84.74 55.679 84.665 86.019c-.075 30.34-19.178 45.609-42.54 33.752C18.766 107.913-.112 73.598.002 43.059.114 12.521 19.104-2.55 42.502 9.308Z" fill="#E4EDFF"/><path d="M35.87 47.63 9.644 34.447l32.818 62.535 13.263-11.99L35.869 47.63Z" fill="#14509C"/><path d="M51.017 54.154 75.281 67.37 42.463 96.981l-11.53-22.026 20.084-20.8Z" fill="#FF7300"/></g><defs><linearGradient id="b" x1="19.686" y1="0" x2="43.527" y2="11.365" gradientUnits="userSpaceOnUse"><stop stop-color="#C3D2F1"/><stop offset="1" stop-color="#F1F4FC"/></linearGradient><clipPath id="a"><path fill="#fff" d="M0 0h94.951v165.744H0z"/></clipPath></defs></svg>