<svg width="146" height="145" fill="none" xmlns="http://www.w3.org/2000/svg"><path d="m71.954 121.776 26.965-15.465-.124-2.424-26.965 15.495.124 2.394Z" fill="#26538E"/><path d="m71.951 121.776-.123-2.393-25.978-15.035-.03 2.454 26.131 14.974Z" fill="#4B95F5"/><path d="M98.79 103.887 72.814 88.883l-26.965 15.465 25.978 15.035 26.965-15.496Z" fill="#69C3FA"/><path d="m118.727 144.688 26.965-15.496-.123-2.393-26.965 15.465.123 2.424Z" fill="#26538E"/><path d="m118.722 144.687-.123-2.425-25.978-15.004-.031 2.455 26.132 14.974Z" fill="#4B95F5"/><path d="m145.564 126.797-25.978-15.035-26.965 15.495 25.978 15.005 26.965-15.465Z" fill="#69C3FA"/><path d="m72.538 54.3-.154 60.756-16.846-9.666.185-60.724 16.815 9.635Z" fill="#419AE8"/><path d="m72.538 54.301 17-9.819-.154 60.755-17 9.819.154-60.755Z" fill="#3376BF"/><path d="m55.725 44.666 17-9.85 16.814 9.666-17 9.819-16.814-9.635Z" fill="#69C3FA"/><path d="m119.277 88.472-.155 49.494-16.814-9.665.154-49.494 16.815 9.665Z" fill="#419AE8"/><path d="m119.279 88.473 17-9.819-.154 49.464-17 9.849.154-49.494Z" fill="#3376BF"/><path d="m102.459 78.807 16.969-9.819 16.845 9.666-16.999 9.819-16.815-9.666Z" fill="#69C3FA"/><path d="M61.212 2.998 64.76.973a8.616 8.616 0 0 1 8.916.583L70.128 3.58a8.74 8.74 0 0 0-8.916-.583Z" fill="#888ABF"/><path d="m82.472 44.973-3.517 2.025c3.394-1.963 5.584-6.812 5.615-13.685 0-11.783-6.417-25.13-14.44-29.733l3.549-2.025c7.99 4.602 14.47 17.92 14.439 29.733-.03 6.842-2.221 11.69-5.646 13.685Z" fill="#D5DFF4"/><path d="M70.129 3.58c8.022 4.603 14.47 17.951 14.439 29.734-.03 11.783-6.48 17.705-14.563 13.102-8.083-4.603-14.47-17.889-14.438-29.733.03-11.844 6.571-17.674 14.562-13.102Z" fill="#E4EDFF"/><path d="m58.838 18.537 11.247 17.139 5.607-3.64-11.247-17.139-5.607 3.64Z" fill="#2494EC"/><path d="m81.299 28.404-11.23 7.272-4.69-7.119 11.261-7.272 4.659 7.119Z" fill="#64C824"/><path d="m108.633 37.352 3.548-2.026a8.613 8.613 0 0 1 8.916.583l-3.548 2.026a8.74 8.74 0 0 0-8.916-.583Z" fill="#888ABF"/><path d="m129.924 79.329-3.517 2.025c3.424-1.964 5.615-6.812 5.615-13.655 0-11.813-6.417-25.161-14.439-29.764l3.548-2.025c8.022 4.603 14.47 17.92 14.439 29.733.093 6.843-2.252 11.691-5.646 13.686Z" fill="#D5DFF4"/><path d="M117.55 37.934c8.022 4.603 14.47 17.95 14.439 29.764-.031 11.814-6.54 17.674-14.562 13.072-8.022-4.603-14.439-17.89-14.408-29.733.031-11.845 6.54-17.675 14.531-13.103Z" fill="#E4EDFF"/><path d="m106.297 52.927 11.247 17.14 5.607-3.64-11.248-17.139-5.606 3.64Z" fill="#2494EC"/><path d="m128.751 62.76-11.261 7.302-4.659-7.15 11.23-7.271 4.69 7.118Z" fill="#64C824"/><path d="M99.099 54.334a.487.487 0 0 1 0-.215.908.908 0 0 0 0 .215ZM97.003 56.235h.216l.278-.184-.494.184ZM98.822 54.639l-.308.399.308-.4ZM98.204 55.344l-.37.337.37-.337Z" fill="#E4EDFF"/><path d="m26.161 144.151 26.934-15.465-.123-2.424-26.965 15.495.154 2.394Z" fill="#26538E"/><path d="m26.163 144.151-.154-2.393L.03 126.723 0 129.177l26.163 14.974Z" fill="#4B95F5"/><path d="m52.971 126.262-25.977-15.004L.027 126.723l25.978 15.035 26.965-15.496Z" fill="#69C3FA"/><path d="m26.41 96.804-.124 40.289-16.814-9.666.123-40.288 16.815 9.665Z" fill="#419AE8"/><path d="m26.413 96.805 17-9.85-.124 40.319-17 9.819.123-40.288Z" fill="#3376BF"/><path d="m9.595 87.14 16.969-9.82 16.845 9.635-17 9.85-16.814-9.666Z" fill="#69C3FA"/><path d="m15.086 45.009 3.548-2.056a8.68 8.68 0 0 1 8.916.583l-3.548 2.056a8.586 8.586 0 0 0-8.916-.583Z" fill="#888ABF"/><path d="m36.373 86.985-3.548 2.056c3.424-1.964 5.615-6.843 5.646-13.686 0-11.813-6.448-25.13-14.47-29.733l3.548-2.056c8.022 4.603 14.47 17.92 14.439 29.734 0 6.842-2.221 11.69-5.615 13.685Z" fill="#D5DFF4"/><path d="M24.003 45.592c8.022 4.603 14.501 17.92 14.47 29.734-.03 11.813-6.571 17.796-14.562 13.071S9.44 70.508 9.47 58.694c.032-11.813 6.541-17.735 14.532-13.102Z" fill="#E4EDFF"/><path d="m12.723 60.552 11.247 17.14 5.606-3.64L18.33 56.913l-5.606 3.64Z" fill="#2494EC"/><path d="m35.204 70.417-11.23 7.272-4.69-7.118 11.23-7.303 4.69 7.149Z" fill="#64C824"/></svg>