<svg width="121" height="139" fill="none" xmlns="http://www.w3.org/2000/svg"><g clip-path="url(#a)"><path d="M11.907 29.23v84.84L48.35 92.86V7.24L11.907 29.23Z" fill="#4C8F21"/><path d="M11.907 114.069 0 107.152v-84.84l11.907 6.918v84.839Z" fill="#64C824"/><path d="M48.35 7.24 35.59 0 0 22.313l11.907 6.918L48.35 7.24Z" fill="#92E05F"/><path d="M47.523 7.16 35.802.484 1.682 21.883l10.946 6.352L47.522 7.16Z" fill="#fff"/><path d="M27.393 37.736v84.84l36.443-21.21v-85.62l-36.443 21.99Z" fill="#26538E"/><path d="m27.393 122.575-11.908-6.918V30.818l11.908 6.918v84.839Z" fill="#326EBD"/><path d="m63.836 15.746-12.762-7.24-35.589 22.313 11.908 6.918 36.443-21.99Z" fill="#5B8BCA"/><path d="M63.008 15.665 51.287 8.99 17.193 30.361l10.92 6.38 34.894-21.076Z" fill="#fff"/><path d="M42.557 46.16V131L79 109.79V24.17L42.557 46.16Z" fill="#FC7318"/><path d="m42.557 131.001-11.908-6.918V39.244l11.908 6.917v84.84Z" fill="#BD5612"/><path d="m79 24.17-12.762-7.24L30.65 39.243l11.908 6.917L79 24.17Z" fill="#FED27B"/><path d="m78.172 24.09-11.72-6.676-34.094 21.371 10.92 6.38 34.895-21.076Z" fill="#fff"/></g><path d="M111.971 67.604c10.16 5.16 10.212 13.533.118 18.694-10.094 5.16-26.519 5.162-36.68 0-10.16-5.163-10.21-13.53-.116-18.691 10.094-5.16 26.515-5.166 36.678-.003Z" fill="#326EBD"/><path d="M76.718 42.389c.476.285 1.246.79 1.642 1.043-8.788 4.957-8.988 13.117-.445 18.242 8.543 5.126 22.591 5.27 31.378.32 8.788-4.95 8.986-13.119.445-18.245-8.541-5.125-22.58-5.264-31.378-.307-.395-.248-1.166-.758-1.642-1.043 9.72-5.476 25.259-5.32 34.709.352 9.449 5.67 9.227 14.702-.494 20.177-9.721 5.476-25.26 5.32-34.707-.352-9.447-5.67-9.227-14.712.492-20.187Z" fill="#888ABF"/><path d="M120.359 80.882c0 2.516-.015 5.066-.022 7.617l-.022 7.616c-.008 2.516-.013 5-.02 7.414-.008 2.414-.015 4.761-.02 7.006-.005 2.246 0 4.388-.017 6.393s-.012 3.876-.017 5.576a10.953 10.953 0 0 1-.428 2.957 13.266 13.266 0 0 1-1.113 2.6 15.72 15.72 0 0 1-1.746 2.402 18.835 18.835 0 0 1-2.331 2.169 23.436 23.436 0 0 1-2.894 1.918c-1.911.992-2.024 1.059-3.321 1.589-2.222.828-2.264.843-3.57 1.21-2.442.614-2.442.614-3.758.845-2.56.381-2.56.381-3.882.495-2.622.149-2.622.149-3.95.137-2.63-.085-2.63-.085-3.934-.216-2.533-.312-2.583-.317-3.857-.565-2.437-.538-2.484-.548-3.72-.922-2.223-.744-2.322-.771-3.517-1.284-1.936-.905-2.094-.976-3.25-1.661-1.57-1.008-2.358-1.514-3.92-2.989a17.174 17.174 0 0 1-2.067-2.478 13.552 13.552 0 0 1-1.18-2.243 11.639 11.639 0 0 1-.623-2.124c-.12-.65-.18-1.308-.18-1.968 0-1.701 0-3.572.017-5.577 0-1.919.013-4.476.017-6.392 0-2.102.015-4.905.02-7.007 0-2.231.015-5.188.022-7.414 0-2.285.015-5.331.02-7.616.005-2.285.015-5.332.022-7.617 0-1.824 0-4.255.018-6.077 1.14 18.093 39.03 20.175 50.408 6.955 1.84-2.137 2.815-4.534 2.822-6.94 0 2.032-.012 4.104-.017 6.196l.01-.005Z" fill="#3376BF"/><path opacity=".5" d="M117.554 81.612c1.839-2.137 2.815-4.533 2.822-6.94v-1.21c0-2.414.012-4.76.02-7.004.007-2.243.012-4.387.017-6.395 0-1.673.015-3.903.017-5.576v-.392a12.866 12.866 0 0 0-.182-1.626 11.166 11.166 0 0 0-.598-2.042 18.255 18.255 0 0 0-.627-1.336c-.131-.248-.336-.565-.479-.808a16.199 16.199 0 0 0-1.158-1.56c-.208-.247-.519-.572-.741-.815a16.573 16.573 0 0 0-1.837-1.643 22.732 22.732 0 0 0-2.632-1.777 27.032 27.032 0 0 0-3.119-1.56 32.627 32.627 0 0 0-3.429-1.238 37.457 37.457 0 0 0-3.67-.903c-.57-.099-1.328-.247-1.901-.324-.573-.077-1.35-.194-1.933-.248-.583-.055-1.37-.131-1.958-.151-.588-.02-1.378-.057-1.976-.062-.597-.005-1.38 0-1.975.022-.595.022-1.393.052-1.975.114-1.16.12-2.716.312-3.86.496-.585.087-1.355.248-1.933.384-.578.136-1.277.32-1.825.459-1.21.337-2.401.74-3.568 1.209-.56.228-1.294.555-1.84.815-.449.216-1.034.54-1.48.774l.046-.023-.047.023c-.472.27-1.099.634-1.543.944a36.637 36.637 0 0 0-2.188 1.666 16.606 16.606 0 0 0-2.254 2.397c-.282.399-.672.922-.909 1.348-.133.248-.323.565-.442.815-.173.367-.392.863-.53 1.24-.191.53-.343 1.075-.453 1.628-.064.36-.13.84-.165 1.202-.025.248-.025.572-.034.815 0 1.7 0 3.572-.015 5.577 0 1.919-.015 4.477-.02 6.395 0 2.23 0 4.59-.02 7.004v1.378c1.188 18.081 39.026 20.134 50.394 6.928Zm-6.62-18.69c-9.719 5.474-25.26 5.318-34.707-.353-9.447-5.67-9.227-14.703.494-20.178 9.721-5.475 25.26-5.319 34.709.352 9.45 5.671 9.225 14.7-.496 20.176v.002Z" fill="#E4EDFF"/><path opacity=".7" d="M120.429 54.099a12.862 12.862 0 0 0-.182-1.626 11.165 11.165 0 0 0-.598-2.042 18.255 18.255 0 0 0-.627-1.336c-.131-.248-.336-.565-.479-.808a16.033 16.033 0 0 0-1.158-1.56c-.208-.247-.519-.572-.741-.815a16.573 16.573 0 0 0-1.837-1.643 22.647 22.647 0 0 0-2.632-1.777 27.032 27.032 0 0 0-3.119-1.56 32.65 32.65 0 0 0-3.429-1.239 37.456 37.456 0 0 0-3.67-.902c-.57-.099-1.328-.247-1.901-.324-.573-.077-1.35-.194-1.933-.248-.583-.055-1.37-.132-1.958-.151-.588-.02-1.378-.057-1.976-.062-.597-.005-1.38 0-1.975.022-.595.022-1.393.052-1.975.114-1.16.119-2.716.312-3.86.496-.585.087-1.355.248-1.933.384-.578.136-1.277.32-1.825.458-1.21.338-2.401.742-3.568 1.21-.56.228-1.293.555-1.84.815-.449.216-1.034.54-1.48.774l.046-.023-.047.023c-.471.27-1.099.634-1.543.944a36.637 36.637 0 0 0-2.188 1.666 16.606 16.606 0 0 0-2.254 2.396c-.281.4-.672.922-.909 1.349-.133.248-.323.565-.442.815-.172.367-.392.863-.53 1.24-.191.53-.342 1.075-.452 1.628-.065.36-.131.84-.166 1.202-.025.248-.025.573-.034.815 0 1.7 0 3.572-.015 5.577 0 1.919-.015 4.476-.02 6.395 0 2.23 0 4.59-.02 7.004v1.376a716.099 716.099 0 0 1-.017 6.038c0 2.285-.015 5.33-.022 7.616-.008 2.285-.015 5.331-.02 7.617 0 2.23-.015 5.19-.022 7.413 0 2.102 0 4.905-.02 7.007 0 1.916-.012 4.461-.017 6.392 0 2.005 0 3.877-.018 5.577 0 .66.06 1.319.18 1.968.14.726.348 1.438.623 2.124a13.56 13.56 0 0 0 1.18 2.243c.61.89 1.302 1.719 2.067 2.479 1.563 1.474 2.35 1.982 3.921 2.989 1.156.684 1.314.756 3.25 1.66 1.195.513 1.283.543 3.516 1.284 1.234.375 1.283.384 3.72.922 1.275.248 1.324.248 3.858.565 1.303.132 1.303.132 3.933.216 1.318.012 1.318.012 3.95-.136 1.322-.104 1.322-.104 3.882-.496 1.316-.231 1.316-.231 3.758-.845 1.306-.367 1.348-.382 3.571-1.21 1.296-.53 1.41-.59 3.321-1.588a23.71 23.71 0 0 0 2.894-1.919 18.83 18.83 0 0 0 2.331-2.169 15.705 15.705 0 0 0 1.745-2.401c.463-.825.836-1.696 1.114-2.6.267-.952.404-1.936.407-2.925 0-1.7 0-3.569.018-5.577.017-2.007 0-4.149.017-6.392.017-2.243.012-4.59.02-7.007l.019-7.413.023-7.617.022-7.616c0-2.1.012-4.172.017-6.197v-1.21c0-2.413.012-4.76.02-7.004.007-2.243.012-4.387.017-6.394 0-1.673.015-3.904.017-5.577.003-.129-.002-.285-.005-.404ZM76.725 42.388c9.721-5.475 25.26-5.32 34.709.352 9.45 5.67 9.228 14.703-.494 20.178-9.721 5.475-25.26 5.319-34.706-.352-9.448-5.671-9.235-14.703.484-20.178h.007Zm43.025 15.808-.046 16.487-.136 47.817c-.005.935-.14 1.865-.4 2.763a12.491 12.491 0 0 1-1.052 2.461 14.936 14.936 0 0 1-1.66 2.283 18.196 18.196 0 0 1-2.241 2.085 22.391 22.391 0 0 1-2.82 1.868c-1.862.974-1.976 1.034-3.24 1.552-2.178.808-2.222.823-3.499 1.185-2.4.602-2.4.602-3.703.828-2.522.376-2.522.376-3.82.478-1.976.114-2.45.139-3.139.139h-.74c-2.593-.085-2.593-.085-3.872-.211-2.499-.307-2.546-.315-3.798-.558-2.395-.528-2.442-.537-3.654-.904-2.193-.729-2.28-.744-3.457-1.259-1.891-.883-2.047-.957-3.17-1.621-1.514-.972-2.284-1.465-3.79-2.888a16.36 16.36 0 0 1-1.976-2.379c-.438-.67-.812-1.38-1.118-2.12a10.882 10.882 0 0 1-.583-1.982 10.208 10.208 0 0 1-.17-1.859l.135-47.65.057-20.352v-.248c0-.173 0-.36.022-.51.035-.35.099-.81.16-1.15.102-.516.243-1.023.423-1.517.153-.424.405-.97.506-1.185.047-.102.114-.226.183-.35a9.365 9.365 0 0 0-.573 3.091c-.054 4.03 2.529 7.818 7.272 10.658 4.785 2.873 11.188 4.461 18.025 4.461 6.506 0 12.672-1.452 17.356-4.092 4.96-2.793 7.723-6.588 7.78-10.685a9.391 9.391 0 0 0-.555-3.291c.175.352.395.805.538 1.155.243.615.429 1.251.555 1.9.088.506.146 1.016.173 1.528v.379c.027 1.083.027 2.429.027 3.693Z" fill="#ADC5E5"/><path d="M105.653 46.998c-6.35-3.812-16.79-3.919-23.331-.248-6.541 3.67-6.682 9.753-.331 13.565 6.35 3.812 16.79 3.919 23.331.248 6.541-3.67 6.684-9.756.331-13.565ZM99.927 57.32c-3.457 1.956-9.015 1.899-12.385-.124-1.83-1.098-2.645-2.55-2.452-3.966.163-1.19 1.042-2.347 2.627-3.242 3.47-1.953 9.015-1.896 12.388.127 1.481.892 2.301 2.017 2.452 3.163.19 1.462-.689 2.954-2.63 4.042Z" fill="#CFCFCF"/><path d="M102.555 53.286c-.15-1.145-.968-2.27-2.452-3.163-3.373-2.022-8.918-2.08-12.388-.126-1.585.895-2.469 2.052-2.627 3.242-.192 1.41.622 2.863 2.452 3.966 3.37 2.022 8.916 2.079 12.385.123 1.941-1.095 2.82-2.587 2.63-4.042Zm-3.022 3.386c-3.245 1.826-8.432 1.774-11.585-.117-1.714-1.029-2.47-2.387-2.294-3.705.092-.571.345-1.103.728-1.535.176-.206.369-.399.575-.575.323-.27.67-.507 1.037-.71a11.08 11.08 0 0 1 4.02-1.24c1.5-.188 3.02-.137 4.504.15.786.151 1.553.386 2.289.7.53.23 1.034.513 1.506.845.448.311.84.697 1.158 1.14.142.2.259.415.351.642.082.204.14.417.17.635.178 1.353-.644 2.748-2.46 3.77Z" fill="#565883"/><path d="M101.644 50.266a3.759 3.759 0 0 0-.437-1.316 4.514 4.514 0 0 0-.494-.7 5.353 5.353 0 0 0-.514-.53 6.87 6.87 0 0 0-1.516-1.016 9.774 9.774 0 0 0-2.002-.726 11.974 11.974 0 0 0-2.193-.322c-.14 0-.563-.03-1.126 0-.376.01-.75.04-1.123.09 0 0-.519.058-1.107.192a8.945 8.945 0 0 0-1.074.3c-.175.057-.41.147-.58.22-.267.12-.617.29-.877.427-.155.092-.363.213-.51.317a6.828 6.828 0 0 0-.648.496c-.236.21-.453.443-.647.694a4.259 4.259 0 0 0-.538.922 2.996 2.996 0 0 0-.138.387 6.438 6.438 0 0 0-.114.525c-.172 1.264.556 2.563 2.193 3.545 3.017 1.811 7.98 1.861 11.084.111 1.746-.981 2.531-2.315 2.361-3.616Z" fill="#B1B2D1"/><path d="M98.46 52.497c-2.629 1.487-6.832 1.44-9.382-.094s-2.497-3.978.133-5.453 6.832-1.438 9.383.094c2.551 1.532 2.496 3.973-.133 5.453Z" fill="#DCDCDC"/><path d="m85.655 52.862.363-2.63c-.173 1.264.555 2.563 2.192 3.545 3.018 1.812 7.98 1.861 11.085.111 1.728-.976 2.521-2.31 2.35-3.61l.348 2.629c.178 1.36-.644 2.756-2.469 3.777-3.244 1.827-8.432 1.775-11.585-.116-1.704-1.039-2.464-2.397-2.284-3.706Z" fill="#888ABF"/><path d="M109.74 43.75c-8.541-5.126-22.59-5.268-31.379-.318-8.788 4.95-8.987 13.117-.444 18.242 8.543 5.126 22.59 5.27 31.378.32 8.788-4.95 8.976-13.119.445-18.245Zm-2.264 17.218a23.15 23.15 0 0 1-4.973 2.037 32.616 32.616 0 0 1-17.41-.052 22.63 22.63 0 0 1-5.305-2.265c-7.538-4.524-7.363-11.731.393-16.098 7.756-4.368 20.149-4.241 27.687.28 7.539 4.52 7.361 11.73-.392 16.098Z" fill="#DCDCDC"/><path d="M107.865 44.87c-7.539-4.521-19.934-4.648-27.687-.28-7.753 4.366-7.931 11.574-.393 16.097a22.63 22.63 0 0 0 5.304 2.266 32.614 32.614 0 0 0 17.41.052 23.11 23.11 0 0 0 4.973-2.037c7.753-4.368 7.929-11.578.393-16.099ZM81.99 60.325c-6.35-3.812-6.202-9.885.331-13.566 6.534-3.68 16.98-3.574 23.331.248 6.351 3.822 6.205 9.885-.33 13.566-6.536 3.68-16.981 3.564-23.332-.248Zm19.855 2.35a22.18 22.18 0 0 1-1.363.349l-.6.121c.647-.141 1.383-.32 1.963-.47h.072-.072Z" fill="#888ABF"/><g style="mix-blend-mode:screen"><path d="M105.657 46.996c-6.354-3.81-16.79-3.916-23.332-.248l4.01 2.407c.13-.277.29-.54.477-.78.193-.252.41-.484.647-.695.205-.178.421-.343.647-.495.148-.105.355-.226.51-.318.248-.136.61-.307.877-.426.17-.075.405-.164.58-.22.352-.122.711-.223 1.075-.303.587-.132 1.1-.191 1.106-.191.372-.049.747-.079 1.123-.09.563-.019.988 0 1.126 0 .74.04 1.474.148 2.193.323a9.772 9.772 0 0 1 2.002.726c.548.27 1.058.612 1.516 1.016a5.255 5.255 0 0 1 1.008 1.23c.227.407.375.854.437 1.316a2.65 2.65 0 0 1-.069 1.04c.524.544.869 1.237.987 1.984.191 1.455-.688 2.944-2.63 4.037-.2.112-.41.218-.624.32l4.842 3.517a14.84 14.84 0 0 0 1.178-.602c6.509-3.663 6.664-9.736.314-13.548Z" fill="#888ABF" style="mix-blend-mode:screen"/><path d="M102.558 53.29a3.684 3.684 0 0 0-.987-1.983 2.705 2.705 0 0 1-.104.317c.118.172.222.355.309.545.068.16.122.326.163.496.015.07.029.166.042.248.177 1.36-.645 2.753-2.47 3.777-.17.094-.407.21-.582.297.025.263.152.505.353.675.215-.102.425-.209.624-.32 1.964-1.108 2.843-2.598 2.652-4.053Z" fill="#888ABF" style="mix-blend-mode:screen"/><path d="M89.243 46.964c2.607-1.47 6.78-1.428 9.316.094 2.536 1.522 2.469 3.949-.133 5.418-.151.085-.309.164-.47.248l-4.13-3.004-4.59-2.756h.007Z" fill="#C5C5C5" style="mix-blend-mode:screen"/><path d="M88.612 46.875a8.68 8.68 0 0 1 .988-.466 9.045 9.045 0 0 1 1.035-.35c.355-.102.715-.185 1.079-.247.367-.067.738-.114 1.11-.142.742-.042.742-.042 1.124-.037.741.022.741.025 1.124.062.37.034.739.088 1.103.161.362.069.72.157 1.072.265.347.103.688.227 1.02.372.329.144.648.31.955.496.218.141.494.334.712.495.29.234.559.494.802.776.186.218.351.452.494.7.116.212.213.435.289.666.069.211.119.429.148.65.17 1.3-.615 2.634-2.35 3.61-.181.102-.369.199-.559.288a2.141 2.141 0 0 0-.74-1.425c.162-.074.32-.156.471-.248 2.63-1.487 2.689-3.923.133-5.453-2.555-1.529-6.758-1.576-9.382-.094a.59.59 0 0 0-.596-.07l-.032-.01Z" fill="#888ABF" style="mix-blend-mode:screen"/><path d="M101.993 52.898c.178 1.36-.644 2.753-2.469 3.777-.173.09-.405.213-.583.298-.054-.702-.163-2.107-.214-2.809.19-.089.377-.186.558-.287 1.728-.977 2.521-2.31 2.35-3.611l.348 2.632h.01Z" fill="#888ABF" style="mix-blend-mode:screen"/><path d="M80.176 44.59c7.755-4.367 20.151-4.243 27.687.28 7.536 4.524 7.36 11.731-.393 16.099-.417.215-.97.513-1.395.713a1.1 1.1 0 0 0-.923-.228c.444-.205.875-.425 1.291-.662 7.161-4.037 7.331-10.702.363-14.886-6.968-4.184-18.432-4.297-25.603-.248a3.535 3.535 0 0 0-1.027-1.058v-.01Z" fill="#888ABF" style="mix-blend-mode:screen"/><path d="M81.207 45.648c7.16-4.04 18.633-3.923 25.603.248 6.971 4.172 6.808 10.849-.363 14.886a19.47 19.47 0 0 1-1.291.662 1.13 1.13 0 0 1-.971-.263c.409-.188.802-.39 1.181-.604 6.558-3.693 6.706-9.788.333-13.613-6.373-3.824-16.857-3.93-23.415-.247a3.45 3.45 0 0 1-1.077-1.088v.02Z" fill="#888ABF" style="mix-blend-mode:screen"/><path d="M78.356 43.443c9.507-4.937 22.119-4.808 31.381.317 8.544 5.128 8.344 13.295-.447 18.247-.471.248-1.098.583-1.58.81l-1.634-1.124c.419-.211.987-.496 1.395-.714 7.753-4.367 7.931-11.575.392-16.098-7.538-4.524-19.931-4.648-27.687-.28l-1.82-1.158Z" fill="#888ABF" style="mix-blend-mode:screen"/><path d="M75.726 42.283c1.906-.992 2.02-1.059 3.316-1.59 2.222-.825 2.264-.842 3.57-1.209 2.44-.614 2.44-.614 3.756-.842 2.56-.385 2.56-.385 3.881-.496 2.62-.149 2.62-.149 3.939-.134 2.63.084 2.63.084 3.933.213 2.583.317 2.583.317 3.857.568 2.435.535 2.482.548 3.719.92 2.222.743 2.318.77 3.513 1.283 1.934.902 2.092.977 3.247 1.658 2.013 1.292 2.548 1.68 4.181 3.252.705.73 1.343 1.525 1.903 2.372.433.681.804 1.4 1.109 2.147.26.66.46 1.345.597 2.042.124.665.187 1.34.188 2.018 0 1.673-.012 3.903-.015 5.579 0 2.005-.012 4.146-.019 6.392-.008 2.246-.013 4.59-.02 7.004-.008 2.415-.013 4.898-.02 7.416l-.022 7.617-.022 7.616c-.008 2.516-.013 5-.02 7.414-.008 2.414-.015 4.761-.02 7.004l-.017 6.395c-.005 2.007 0 3.876-.017 5.577-.007 1-.151 1.995-.428 2.956-.277.904-.65 1.775-1.113 2.598a15.652 15.652 0 0 1-1.746 2.402 18.928 18.928 0 0 1-2.331 2.171 24.136 24.136 0 0 1-2.894 1.918c-.565.295-1.313.694-1.889.967.27-.126.44-.468.44-.991.049-17.003.146-51.009.192-68.014 0-.947-.565-2.174-1.291-2.705.603-.279 1.186-.578 1.751-.897 9.718-5.475 9.938-14.51.494-20.178-9.445-5.668-24.986-5.827-34.707-.354-.388-.228-.741-.248-.988-.104l-.007.015Z" fill="#737373" style="mix-blend-mode:screen"/><path d="M76.718 42.387c9.722-5.473 25.26-5.317 34.707.354s9.228 14.703-.494 20.178c-.564.317-1.148.616-1.75.897a49.41 49.41 0 0 0-1.482-1.009c.477-.247 1.116-.552 1.581-.81 8.79-4.957 8.99-13.119.446-18.247-9.261-5.126-21.874-5.255-31.38-.317-.403-.248-1.196-.779-1.64-1.046h.012Z" fill="#888ABF" style="mix-blend-mode:screen"/></g><path d="M88.867 66.621c-4.652-.565-9.079-1.918-12.64-4.055a21.137 21.137 0 0 1-1.046-.672v72.392a28.575 28.575 0 0 0 3.054 1.544c1.147.493 2.321.921 3.516 1.284 1.224.371 2.466.678 3.721.919 1.432.283 2.588.427 3.395.516V66.621Z" fill="#3D3D3D" style="mix-blend-mode:screen"/><path d="M104.882 77.645c-.998.266-2.015.495-3.052.687v2.86c-.854.159-1.729.29-2.593.397v-2.86c-1.056.128-2.126.22-3.21.272V76.59a45.363 45.363 0 0 0 3.21-.272v-2.96a41.791 41.791 0 0 0 2.595-.396v2.96a39.19 39.19 0 0 0 3.052-.687v2.411h-.002ZM104.934 130.439a43.424 43.424 0 0 1-8.907 1.173v-2.422a43.284 43.284 0 0 0 8.907-1.172v2.421Z" fill="#fff"/><defs><clipPath id="a"><path fill="#fff" d="M0 0h79v131H0z"/></clipPath></defs></svg>