<svg width="54" height="51" fill="none" xmlns="http://www.w3.org/2000/svg"><g clip-path="url(#a)"><path d="M44.483 32.938a25.73 25.73 0 0 1-7.835-1.212 2.253 2.253 0 0 0-2.227.52l-4.829 4.686c-6.221-3.06-11.291-7.979-14.462-13.993l4.828-4.696c.603-.584.779-1.424.538-2.157A23.492 23.492 0 0 1 19.244 8.5c0-1.18-.976-2.125-2.194-2.125H9.368c-1.207 0-2.194.946-2.194 2.125 0 19.954 16.701 36.125 37.31 36.125 1.217 0 2.194-.946 2.194-2.125v-7.438c0-1.179-.977-2.124-2.195-2.124ZM26.926 6.375v21.25l6.584-6.375h13.168V6.375H26.926Z" fill="#1C54C5"/></g><defs><clipPath id="a"><path fill="#fff" transform="translate(.59)" d="M0 0h52.672v51H0z"/></clipPath></defs></svg>