<svg width="27" height="30" fill="none" xmlns="http://www.w3.org/2000/svg"><path d="M.32 15.245c.29 1.005 1.064 2.359 1.18 2.567.142.313.232.637.265.974l1.09 10.147c.064.607.6 1.067 1.244 1.067h1.884c.645 0 1.18-.46 1.245-1.067l1.09-10.147c.038-.343.129-.68.277-.992a.545.545 0 0 0-.297-.73.597.597 0 0 0-.767.282 4.18 4.18 0 0 0-.368 1.33l-1.09 10.147a.081.081 0 0 1-.077.067H4.112c-.038 0-.077-.03-.077-.067L2.932 18.67a4.356 4.356 0 0 0-.368-1.33.18.18 0 0 0-.025-.049c-.007-.012-.82-1.403-1.09-2.34-.297-1.048-.381-3.328-.136-3.732a3.48 3.48 0 0 1 .477-.398 9.552 9.552 0 0 1 1.477-.815l1.303 1.703c.11.141.284.227.471.227a.597.597 0 0 0 .471-.227l1.58-2.065a.546.546 0 0 0-.129-.778.615.615 0 0 0-.819.122l-1.11 1.447-1.096-1.44a.604.604 0 0 0-.69-.19c-.045.018-1.193.46-2.148 1.127-.27.19-.4.306-.625.521-.826.784-.368 4.044-.155 4.792ZM4.988 8.081h.11c.748-.018 1.38-.275 1.832-.76.961-1.029.825-2.744.8-2.959-.097-1.893-1.484-2.561-2.638-2.561h-.104c-1.154 0-2.534.674-2.638 2.561-.019.215-.16 1.93.8 2.96.458.484 1.09.747 1.838.76Zm-1.47-3.62v-.038c.064-1.323.948-1.52 1.47-1.52H5.085c.523 0 1.406.197 1.47 1.52v.031c.046.392.033 1.538-.515 2.126-.239.258-.568.386-1 .386h-.013c-.432-.006-.76-.128-1-.386-.541-.582-.548-1.728-.51-2.12ZM18.535 17.06c-.297.122-.432.453-.297.729.149.318.239.649.277.992l1.09 10.147c.065.607.6 1.066 1.245 1.066h1.884c.645 0 1.18-.46 1.245-1.066l1.09-10.147c.038-.337.122-.662.264-.974.116-.202.897-1.556 1.18-2.568.213-.747.678-4.007-.148-4.791a4.639 4.639 0 0 0-.625-.521c-.955-.668-2.097-1.11-2.148-1.128a.592.592 0 0 0-.69.19l-1.11 1.446-1.116-1.44c-.187-.25-.554-.3-.819-.122a.544.544 0 0 0-.129.778l1.58 2.065c.11.141.284.227.471.227a.597.597 0 0 0 .471-.227l1.303-1.703c.38.171.967.46 1.477.815.194.135.277.214.477.398.245.404.162 2.684-.135 3.732-.271.937-1.084 2.328-1.09 2.34-.007.013-.02.03-.026.05a4.18 4.18 0 0 0-.368 1.329l-1.09 10.147a.08.08 0 0 1-.077.067h-1.884c-.038 0-.077-.03-.077-.067l-1.09-10.147a4.356 4.356 0 0 0-.368-1.33c-.129-.288-.47-.41-.767-.288ZM21.726 8.081H21.836c.748-.012 1.38-.275 1.838-.76.961-1.029.826-2.744.8-2.959-.097-1.893-1.477-2.561-2.638-2.561h-.103c-1.155 0-2.535.674-2.638 2.561-.02.215-.162 1.93.8 2.96.45.484 1.083.741 1.831.76Zm-1.47-3.62v-.038c.064-1.323.948-1.52 1.47-1.52H21.823c.522 0 1.406.197 1.47 1.52v.031c.046.392.033 1.538-.515 2.126-.24.258-.568.38-1 .386h-.013c-.432-.006-.761-.128-1-.386-.542-.582-.548-1.728-.51-2.12ZM8.57 9.222c-.871.827-.381 4.277-.149 5.073.31 1.073 1.135 2.519 1.258 2.727.155.337.251.686.29 1.048l1.161 10.815c.064.631.62 1.103 1.29 1.103h2.006c.664 0 1.219-.478 1.29-1.103l1.16-10.815c.04-.362.136-.717.291-1.048.123-.214.948-1.654 1.258-2.727.226-.796.722-4.246-.149-5.073a5.144 5.144 0 0 0-.657-.552c-1.013-.71-2.232-1.176-2.284-1.2a.592.592 0 0 0-.69.19l-1.232 1.586-1.212-1.587a.604.604 0 0 0-.69-.19c-.052.019-1.265.49-2.284 1.201a4.737 4.737 0 0 0-.658.552Zm.838.772a3.54 3.54 0 0 1 .516-.429c.555-.392 1.2-.705 1.612-.888l1.406 1.838c.11.14.284.226.471.226a.597.597 0 0 0 .471-.226l1.406-1.838c.407.183 1.052.496 1.613.888.213.147.303.227.516.429.27.417.187 2.874-.142 4.007-.29 1.005-1.155 2.488-1.168 2.5-.006.012-.019.03-.026.05-.206.447-.341.918-.393 1.409l-1.16 10.815c-.007.06-.059.104-.123.104H12.4c-.065 0-.117-.043-.123-.104l-1.16-10.815a4.35 4.35 0 0 0-.42-1.459C10.69 16.49 9.82 15 9.53 13.995c-.31-1.127-.393-3.584-.122-4.001ZM13.355 6.63H13.473c.8-.012 1.444-.282 1.928-.803 1.02-1.084.864-2.91.845-3.13C16.142.704 14.691 0 13.472 0H13.355c-1.212 0-2.67.705-2.773 2.696-.02.22-.174 2.04.845 3.125.484.52 1.135.79 1.928.809ZM11.75 2.8v-.037c.071-1.495 1.149-1.654 1.606-1.654h.11c.458 0 1.535.16 1.606 1.654v.031c.045.423.039 1.66-.554 2.292-.265.282-.626.423-1.097.423h-.02c-.47-.007-.831-.141-1.096-.423-.593-.625-.6-1.863-.555-2.286Z" fill="#1C54C5"/></svg>