<svg width="30" height="30" fill="none" xmlns="http://www.w3.org/2000/svg"><g clip-path="url(#a)" fill="#1C54C5"><path d="m10.408 6.497-.374.183a1.948 1.948 0 0 1-1.494.086l-.624-.22a.464.464 0 0 0-.11-.056L3.96 5.174a.556.556 0 0 0-.704.343L.03 14.915a.56.56 0 0 0 .025.422.557.557 0 0 0 .318.282l3.839 1.316a.56.56 0 0 0 .704-.343L7.959 7.74l.208.074c.765.27 1.622.22 2.357-.135l.373-.184c.46-.226.998-.257 1.482-.091l7.059 2.43c-.073.294-.22.643-.49.833-.3.208-.747.208-1.335.006l-3.146-1.078a.553.553 0 0 0-.717.386c-.006.019-.44 1.647-1.83 2.394-.876.471-1.965.49-3.245.055a.556.556 0 0 0-.704.343.556.556 0 0 0 .343.704c.734.251 1.426.38 2.07.38.746 0 1.432-.166 2.056-.502 1.243-.668 1.886-1.837 2.18-2.535l2.626.9c.937.324 1.72.275 2.327-.147.973-.673 1.022-2.039 1.028-2.1a.555.555 0 0 0-.373-.539L12.734 6.35a3.099 3.099 0 0 0-2.326.147Zm-6.355 9.207L1.26 14.75 4.12 6.405l2.792.955-2.86 8.345Z"/><path d="m25.113 16.335-1.316 1.212a16.82 16.82 0 0 1-3.998 2.73l-6.985 3.417a.62.62 0 0 1-.833-.288.62.62 0 0 1 .288-.832l.086-.043 3.82-1.867a.554.554 0 1 0-.484-.998l-3.82 1.867-1.923.943a.62.62 0 0 1-.832-.288.617.617 0 0 1 .282-.826l1.45-.71L15 18.618a.554.554 0 1 0-.483-.998l-4.157 2.039-.16.08-1.983.973a.617.617 0 0 1-.827-.282.62.62 0 0 1 .288-.833l.686-.336 1.402-.686.392-.19 3.22-1.58a.554.554 0 1 0-.484-.998l-3.49 1.709-1.524.747a.625.625 0 0 1-.863-.76.617.617 0 0 1 .312-.355l2.663-1.304a.554.554 0 1 0-.483-.998l-2.664 1.304a1.706 1.706 0 0 0-.875.992 1.74 1.74 0 0 0 .08 1.323c.128.257.312.471.532.63a1.737 1.737 0 0 0-.183 1.819c.202.416.557.728.991.875.184.061.368.092.551.092a1.733 1.733 0 0 0 2.492 1.592l.392-.19c.018.208.074.41.165.606a1.733 1.733 0 0 0 2.314.79l6.986-3.416a17.918 17.918 0 0 0 4.261-2.909l1.561-1.438 3.576-1.751a.554.554 0 0 0 .257-.741l-4.371-8.908a.555.555 0 0 0-.741-.257L21.183 7.04a.554.554 0 0 0-.257.741l4.188 8.553Zm-.293-9.832 3.875 7.928-2.65 1.298L22.168 7.8l2.65-1.298Z"/></g><defs><clipPath id="a"><path fill="#fff" d="M0 0h30v30H0z"/></clipPath></defs></svg>