<svg width="764" height="750" fill="none" xmlns="http://www.w3.org/2000/svg"><g opacity=".4" clip-path="url(#a)"><path d="M566.181 159.926c4.46-25.368 16.802-30.98 30.384-28.588 13.583 2.393 23.261 11.871 18.8 37.238-8.123 46.202-36.641 64.211-36.641 64.211s-20.788-25.983-12.543-72.861Z" fill="#D5D6DA"/><path d="M298.883 368.101s16.237-9.085 24.875-1.857c8.638 7.227 12.332 11.931 25.077 9.256 12.746-2.675 21.384 2.463 13.119 6.168s-27.549 10.286-36.389 2.473c-8.84-7.813-34.27-12.89-26.682-16.04ZM364.255 397.292s11.514 2.019 14.188-2.664c2.674-4.684-2.674-.212-7.064-2.675-4.389-2.463-12.876 0-7.124 5.339Z" fill="#4A82CC"/><path d="M697.519 599.958c-71.002 94.13-190.281 150.043-314.939 150.043C180.059 750.001 0 595.184 0 392.6 0 225.488 91.246 105.638 216.892 50.462A403.775 403.775 0 0 1 325.363 20.18a427.792 427.792 0 0 1 57.217-3.825c48.963 0 97.445 9.66 142.671 28.425 134.072 55.519 231.594 186.201 238.386 338.383 3.754 84.328-21.767 158.017-66.118 216.796Z" fill="#14509C"/><path d="M171.693 415.383s14.29 33.119 0 51.299c-14.289 18.18-15.581 52.602 12.987 75.324 28.569 22.722 40.901 24.681 34.402 47.444-6.499 22.762-13.301 50.471-2.594 62.181 10.707 11.709 15.137 39.449 38.953 41.387 23.815 1.938-1.948-18.998 13.633-38.48 15.581-19.482 75.947-23.379 70.104-61.848-5.843-38.47 49.669-41.882 57.45-67.208 7.78-25.327-25.309-40.913-53.06-38.965-27.751 1.949-10.717-41.386-40.9-47.726-30.183-6.339-44.311-30.686-61.84-27.759-17.528 2.927-36.994-21.915-56.964-14.132-19.971 7.783-12.171 18.483-12.171 18.483ZM121.066 150.435s-20.778 16.242-26.621 42.215c-5.843 25.972-35.057 42.204-39.598 77.918-4.541 35.714 16.065 36.693 8.759 56.175-7.306 19.482 1.776 29.274 24.017 38.964 22.241 9.691 24.219 24.711 37.338 29.647 13.118 4.936 9.738 18.079 14.127 19.543 4.39 1.464 2.433-9.903 6.974-24.842 4.541-14.94 8.446-21.108-8.073-20.451-16.52.656-11.363-12.669-4.865-21.108 6.499-8.439-9.082-9.741-14.289-8.439-5.207 1.303-3.895 25.317-14.602 13.961s-15.904-24.358-7.145-39.287c8.76-14.93 27.59-2.605 40.901-20.462 13.31-17.856 32.13-10.71 33.109 3.574.979 14.283 27.59 14.616 32.131-4.22s2.603-51.622 29.86-56.982c27.256-5.36 80.861-32.625 46.762-43.83-34.098-11.205-20.465-34.583-37.993-33.119-17.529 1.463-10.717 27.759-30.183 19.966-19.466-7.793-33.594-28.728-6.337-34.573 27.256-5.845 38.468-36.047 17.528-34.099-20.939 1.949-24.34-18.502-37.004-16.07-12.665 2.433-25.804 33.12-38.943 40.913-13.139 7.792-25.853 14.606-25.853 14.606ZM296.663 90.375s26.934-7.47 38.62 0c11.685 7.47 29.86 28.567 14.612 36.339-15.248 7.773-31.172 10.397-23.704 25.004 7.467 14.607-21.414 19.482-29.528 0-8.113-19.482-8.073-26.619-16.56-35.714-8.486-9.095-4.864-28.557 16.56-25.63ZM697.519 599.958c-111.479-29.274-19.032-75.132-58.096-127.936-22.271-30.091 17.358-66.289-7.972-71.266-14.703-2.887-48.539 34.674-68.106 0-19.567-34.674-54.331-34.896-64.473-13.88-10.142 21.017-52.888 35.512-80.932 20.29-28.043-15.222-11.806-35.512-36.076-51.481-24.269-15.969-26.086-41.296 0-60.869s14.128-47.837 53.252-39.136c39.124 8.702 31.515-81.522 31.515-81.522-.596-15.777 14.672-18.493 5.974-33.16-8.699-14.667-33.14-2.725-46.188-35.33-13.048-32.605 20.647-52.178 47.823-48.998 7.921.929 27.135-4.623 51.011-11.88 134.072 55.518 231.594 186.199 238.386 338.382 3.754 84.318-21.767 158.007-66.118 216.786Z" fill="#326EBD"/><path d="M179.624 340.856s22.494-12.527 34.452-2.554c11.958 9.974 17.085 16.515 34.734 12.81 17.65-3.705 29.608 3.422 18.225 8.55s-38.155 14.233-50.396 3.412c-12.24-10.821-47.52-17.847-37.015-22.218ZM270.194 381.304s15.944 2.846 19.647-3.705c3.704-6.551-3.703-.283-9.829-3.705-6.125-3.422-17.821 0-9.818 7.41Z" fill="#326EBD"/><path d="m359.27 77.04-10.546 11.094-19.264-25.529 29.81 14.435Z" fill="#FC7318"/><path d="M365.072 96.048 329.46 62.605l29.81 14.435 5.802 19.008Z" fill="#fff"/><path d="m358.22 67.976-5.469 5.905-23.291-11.276 28.76 5.37Z" fill="#FC7318"/><path d="m329.46 62.605 25.067 9.358 21.756-6.036-46.823-3.322Z" fill="#fff"/><path d="m518.439 374.352 12.805 8.382 12.907-29.265-25.712 20.883Z" fill="#FC7318"/><path d="m517.143 394.184 27.007-40.715-25.711 20.883-1.296 19.832Z" fill="#fff"/><path d="m517.385 365.288 6.676 4.494 20.09-16.313-26.766 11.819Z" fill="#FC7318"/><path d="m544.151 353.468-22.26 14.844-22.558-.88 44.818-13.964ZM229.906 537.796a.814.814 0 0 1-.845-.71.814.814 0 0 1 .633-.905s1.473-.393 3.895-1.231a.817.817 0 0 1 .628.038.85.85 0 0 1 .255.194.822.822 0 0 1-.348 1.322c-2.482.858-3.946 1.252-4.036 1.272l-.182.02Zm7.821-2.665a.823.823 0 0 1-.797-.678.83.83 0 0 1 .504-.917 118.403 118.403 0 0 0 3.794-1.544.837.837 0 0 1 1.08.434.816.816 0 0 1-.434 1.08c-1.272.545-2.573 1.07-3.844 1.565a.82.82 0 0 1-.303.03v.03Zm7.588-3.24a.817.817 0 0 1-.353-1.564 185.174 185.174 0 0 0 3.683-1.797.808.808 0 0 1 1.1.353.826.826 0 0 1-.353 1.11 125.47 125.47 0 0 1-3.734 1.817.83.83 0 0 1-.343.081Zm7.337-3.745a.813.813 0 0 1-.717-.424.814.814 0 0 1 .323-1.12 169.305 169.305 0 0 0 3.542-2.019.811.811 0 0 1 .908.043.808.808 0 0 1 .212.239.832.832 0 0 1-.272 1.131 63.54 63.54 0 0 1-3.593 2.019.824.824 0 0 1-.383.131h-.02Zm7.063-4.25a.828.828 0 0 1-.807-.669.82.82 0 0 1 .132-.614.824.824 0 0 1 .231-.221 131.419 131.419 0 0 0 3.371-2.301.82.82 0 0 1 1.145.197.82.82 0 0 1-.197 1.145c-1.11.788-2.27 1.575-3.42 2.332a.81.81 0 0 1-.434.131h-.021Zm6.711-4.764a.816.816 0 0 1-.798-1.06.823.823 0 0 1 .293-.414c1.08-.838 2.14-1.706 3.169-2.574a.822.822 0 0 1 1.156.096.822.822 0 0 1-.096 1.156c-1.009.888-2.13 1.766-3.219 2.614a.82.82 0 0 1-.515.182h.01Zm6.267-5.33a.819.819 0 0 1-.555-1.423c1.009-.929 2.018-1.888 2.906-2.847a.832.832 0 0 1 .931-.252.82.82 0 0 1 .478.465.823.823 0 0 1-.228.938c-.949 1.009-1.948 1.948-2.967 2.897a.82.82 0 0 1-.575.222h.01Zm5.732-5.895a.83.83 0 0 1-.804-.943.833.833 0 0 1 .188-.42 69.035 69.035 0 0 0 2.604-3.129.827.827 0 0 1 .545-.31.823.823 0 0 1 .746 1.33 76.342 76.342 0 0 1-2.654 3.189.8.8 0 0 1-.636.283h.011Zm5.045-6.46a.848.848 0 0 1-.474-.152.842.842 0 0 1-.202-1.151 65.047 65.047 0 0 0 2.22-3.391.824.824 0 0 1 1.13-.273.824.824 0 0 1 .273 1.131 69.36 69.36 0 0 1-2.271 3.482.821.821 0 0 1-.286.254.851.851 0 0 1-.369.1h-.021Zm4.279-7.066a.881.881 0 0 1-.384-.091.825.825 0 0 1-.403-.489.836.836 0 0 1 .06-.632 57.354 57.354 0 0 0 1.787-3.634.825.825 0 0 1 1.061-.35.824.824 0 0 1 .442 1.027 64.434 64.434 0 0 1-1.836 3.734.828.828 0 0 1-.285.343.828.828 0 0 1-.422.142l-.02-.05Zm3.38-7.48a.819.819 0 0 1-.766-1.07 61.747 61.747 0 0 0 1.302-3.836.817.817 0 0 1 1.009-.545.83.83 0 0 1 .555 1.009 69.408 69.408 0 0 1-1.343 3.937.813.813 0 0 1-.736.555l-.021-.05Zm2.382-7.854h-.181a.834.834 0 0 1-.616-1.009c.313-1.312.575-2.645.807-3.977a.82.82 0 0 1 1.474-.339.82.82 0 0 1 .141.611 61.852 61.852 0 0 1-.818 4.038.834.834 0 0 1-.786.727l-.021-.051Zm1.382-8.075h-.09a.828.828 0 0 1-.553-.303.809.809 0 0 1-.174-.606c.141-1.322.242-2.685.313-4.038a.82.82 0 0 1 .858-.777.819.819 0 0 1 .777.858 69.384 69.384 0 0 1-.313 4.139.825.825 0 0 1-.797.757l-.021-.03Zm-33.301-4.432h-2.23a.83.83 0 0 1-.846-.485.817.817 0 0 1 0-.675.822.822 0 0 1 .846-.485h4.108a.829.829 0 0 1 .525 1.375.829.829 0 0 1-.525.27h-1.878Zm6.005-.07a.843.843 0 0 1-.576-.238.842.842 0 0 1-.252-.57.832.832 0 0 1 .808-.838l4.097-.131a.82.82 0 0 1 .858.787.842.842 0 0 1-.798.858l-4.117.132h-.02Zm-12.342 0c-1.382 0-2.765-.091-4.127-.152a.814.814 0 0 1-.777-.858.837.837 0 0 1 .857-.787c1.346.067 2.691.118 4.037.151a.83.83 0 0 1 .736.823.827.827 0 0 1-.736.823h.01Zm20.556-.293a.83.83 0 0 1-.736-.823.829.829 0 0 1 .736-.822l4.097-.243a.839.839 0 0 1 .861.434.823.823 0 0 1 .045.666.825.825 0 0 1-.795.546l-4.117.242h-.091Zm-28.77-.091h-.051a172.48 172.48 0 0 1-4.117-.313.824.824 0 0 1-.696-.888.829.829 0 0 1 .838-.757c1.342.121 2.704.232 4.086.323a.816.816 0 0 1 .757.868.81.81 0 0 1-.827.777l.01-.01Zm36.984-.444a.828.828 0 0 1-.621-1.364.808.808 0 0 1 .561-.281l4.087-.344a.808.808 0 0 1 .888.747.831.831 0 0 1-.747.889c-1.372.121-2.745.242-4.107.343l-.061.01Zm-45.168-.283h-.101a130.51 130.51 0 0 1-4.097-.514.827.827 0 0 1-.679-.609.823.823 0 0 1 .302-.861.821.821 0 0 1 .609-.156c1.322.182 2.684.354 4.036.505a.829.829 0 0 1 .455 1.432.813.813 0 0 1-.535.213l.01-.01Zm53.362-.464a.818.818 0 0 1-.817-.737.792.792 0 0 1 .028-.321.797.797 0 0 1 .4-.488.797.797 0 0 1 .309-.089c1.352-.142 2.714-.283 4.036-.444a.82.82 0 0 1 .733 1.331.822.822 0 0 1-.551.304c-1.373.161-2.735.303-4.097.444h-.041Zm-61.556-.686h-.142a100.172 100.172 0 0 1-4.036-.758.807.807 0 0 1-.52-.349.814.814 0 0 1 .002-.909.824.824 0 0 1 .522-.347.797.797 0 0 1 .319.001c1.302.262 2.654.514 4.036.746a.82.82 0 0 1 .687.874.818.818 0 0 1-.818.752l-.05-.01Zm69.68-.233a.82.82 0 1 1-.101-1.635l4.037-.525a.82.82 0 0 1 .755 1.312.815.815 0 0 1-.543.313c-1.363.182-2.725.364-4.088.525l-.06.01Zm8.153-1.09a.83.83 0 0 1-.64-1.342.826.826 0 0 1 .52-.303l4.036-.606a.826.826 0 0 1 .775 1.3.82.82 0 0 1-.522.335l-4.037.606-.132.01Zm-13.229-.101a.824.824 0 0 1-.827-.817c0-1.333-.061-2.706-.142-4.038a.82.82 0 0 1 1.36-.665.822.822 0 0 1 .275.564c.091 1.383.141 2.776.151 4.149a.799.799 0 0 1-.236.584.818.818 0 0 1-.581.243v-.02Zm-72.657-.212h-.192c-1.362-.323-2.704-.676-4.036-1.009a.835.835 0 0 1-.683-.696.833.833 0 0 1 .453-.863.842.842 0 0 1 .334-.085.842.842 0 0 1 .34.059c1.281.353 2.603.707 3.945 1.009a.829.829 0 0 1-.191 1.626l.03-.041Zm94.03-.939a.838.838 0 0 1-.817-.696.826.826 0 0 1 .147-.613.819.819 0 0 1 .539-.326l4.036-.686a.83.83 0 0 1 .77 1.272.834.834 0 0 1-.487.353c-1.362.232-2.714.464-4.036.676l-.152.02Zm-101.921-1.292a.717.717 0 0 1-.253 0 92.203 92.203 0 0 1-3.915-1.393.828.828 0 0 1-.302-1.342.837.837 0 0 1 .58-.252.816.816 0 0 1 .317.06 83.97 83.97 0 0 0 3.835 1.363.825.825 0 0 1 .533.911.83.83 0 0 1-.795.694v-.041Zm110.045-.111a.827.827 0 0 1-.142-1.635l4.037-.747a.808.808 0 0 1 .959.646.835.835 0 0 1-.348.882.844.844 0 0 1-.308.128l-4.037.747-.161-.021Zm8.073-1.544a.828.828 0 0 1-.807-.666.806.806 0 0 1 .645-1.01l4.037-.828a.834.834 0 0 1 .906.656.827.827 0 0 1-.573.96c-1.342.282-2.695.555-4.037.817a.442.442 0 0 1-.151.081l-.02-.01Zm-125.778-1.312a.82.82 0 0 1-.333-.081 64.479 64.479 0 0 1-3.744-1.817.826.826 0 0 1 .767-1.464 64.589 64.589 0 0 0 3.653 1.787.83.83 0 0 1 .414 1.09.842.842 0 0 1-.757.485Zm133.851-.374a.816.816 0 0 1-.701-1.318.818.818 0 0 1 .529-.307l4.037-.878a.815.815 0 0 1 .633.096.816.816 0 0 1 .376.52.847.847 0 0 1-.327.874.843.843 0 0 1-.299.135c-1.342.293-2.674.596-4.036.878h-.212Zm8.002-1.797a.83.83 0 0 1-.182-1.625l4.037-.949a.826.826 0 0 1 .869 1.222.825.825 0 0 1-.475.383l-4.037.949-.212.02Zm-54.119-.636a.822.822 0 0 1-.818-.726 81.912 81.912 0 0 0-.555-4.038.829.829 0 0 1 1.625-.263c.222 1.373.414 2.756.565 4.119a.826.826 0 0 1-.717.908h-.1Zm-94.99-1.009a.816.816 0 0 1-.433-.121 48.016 48.016 0 0 1-3.452-2.352.827.827 0 0 1-.171-1.151.825.825 0 0 1 1.15-.172c1.06.788 2.18 1.555 3.341 2.282a.828.828 0 0 1 .366.51.807.807 0 0 1-.104.62.814.814 0 0 1-.301.273.823.823 0 0 1-.396.091v.02Zm157.102-.242a.83.83 0 0 1-.192-1.625l3.976-1.01a.818.818 0 1 1 .414 1.585l-4.037 1.009-.161.041Zm7.972-2.019a.817.817 0 0 1-.212-1.615l3.976-1.07a.818.818 0 0 1 1.009.575.822.822 0 0 1-.575 1.01l-4.037 1.07-.161.03Zm7.951-2.17a.827.827 0 0 1-.668-1.268.824.824 0 0 1 .447-.348l3.965-1.13a.82.82 0 1 1 .454 1.575l-3.975 1.14a.796.796 0 0 1-.223-.02v.051Zm-179.624-.434a.83.83 0 0 1-.555-.213 40.638 40.638 0 0 1-2.977-2.937.808.808 0 0 1-.179-.895.819.819 0 0 1 .764-.508.819.819 0 0 1 .586.242 38.02 38.02 0 0 0 2.865 2.827.827.827 0 0 1-.484 1.433l-.02.051Zm187.526-1.858a.826.826 0 0 1-.68-1.265.829.829 0 0 1 .448-.35c1.312-.384 2.624-.787 3.925-1.181a.828.828 0 0 1 .485 1.575c-1.312.393-2.624.797-3.946 1.181a.63.63 0 0 1-.212-.01l-.02.05Zm-87.259-.313a.813.813 0 0 1-.808-.656 105.396 105.396 0 0 0-.918-3.977.822.822 0 0 1 1.594-.394c.343 1.353.657 2.706.929 4.038a.812.812 0 0 1-.327.884.788.788 0 0 1-.309.125.423.423 0 0 1-.141-.07l-.02.05Zm95.13-2.089a.815.815 0 0 1-.728-1.191.798.798 0 0 1 .476-.394l3.915-1.252a.838.838 0 0 1 .651.031.83.83 0 0 1 .462.823.817.817 0 0 1-.311.572.831.831 0 0 1-.297.149l-3.926 1.242a.66.66 0 0 1-.221-.031l-.021.051Zm-200.937-1.797a.817.817 0 0 1-.666-.333 35.396 35.396 0 0 1-2.18-3.311l-.121-.202a.826.826 0 0 1 .924-1.15.829.829 0 0 1 .499.322l.121.202a35.478 35.478 0 0 0 2.079 3.16.828.828 0 0 1-.656 1.312Zm208.768-.727a.823.823 0 0 1-.522-.204.828.828 0 0 1 .26-1.401c1.302-.424 2.603-.858 3.895-1.302a.835.835 0 0 1 .651.018.828.828 0 0 1-.116 1.547l-3.916 1.302a.754.754 0 0 1-.232-.01l-.02.05Zm7.791-2.635a.81.81 0 0 1-.478-.152.809.809 0 0 1-.299-.403.827.827 0 0 1 .504-1.009 229.99 229.99 0 0 0 3.875-1.363.83.83 0 0 1 .998.52.829.829 0 0 1-.443 1.035c-1.292.464-2.583.918-3.885 1.362a.836.836 0 0 1-.252-.06l-.02.07Zm-112.76-.726a.832.832 0 0 1-.787-.596 108.376 108.376 0 0 0-1.221-3.896.828.828 0 1 1 1.564-.515 122.62 122.62 0 0 1 1.241 3.957.837.837 0 0 1-.565 1.009.836.836 0 0 1-.212-.01l-.02.051Zm120.509-2.019a.827.827 0 0 1-.282-1.605c1.292-.465 2.573-.939 3.855-1.424a.843.843 0 0 1 .628.028.844.844 0 0 1 .432.457.828.828 0 0 1-.485 1.009l-3.865 1.434a.93.93 0 0 1-.262.04l-.021.061Zm-228.536-.919a.817.817 0 0 1-.727-.454 63.154 63.154 0 0 1-1.796-3.745.826.826 0 0 1-.015-.629.81.81 0 0 1 .434-.456.805.805 0 0 1 .628-.015.81.81 0 0 1 .456.434 79.797 79.797 0 0 0 1.746 3.664.821.821 0 0 1-.022.807.818.818 0 0 1-.704.394Zm236.246-2.019a.813.813 0 0 1-.766-.524.84.84 0 0 1 .474-1.071c1.281-.484 2.553-1.009 3.824-1.483a.82.82 0 0 1 .665-.031.84.84 0 0 1 .286.184.838.838 0 0 1 .244.619.82.82 0 0 1-.291.599.812.812 0 0 1-.298.163l-3.845 1.494c-.089.026-.18.039-.273.04l-.02.01Zm-130.803-2.887a.844.844 0 0 1-.777-.535 157.125 157.125 0 0 0-1.473-3.815.821.821 0 1 1 1.524-.616c.525 1.292 1.009 2.584 1.493 3.856a.824.824 0 0 1-.484 1.009.902.902 0 0 1-.263.091l-.02.01Zm138.462-.121a.814.814 0 0 1-.833-.658.82.82 0 0 1 .521-.927l3.804-1.554a.83.83 0 0 1 1.017 1.074.824.824 0 0 1-.391.45l-3.815 1.555a.821.821 0 0 1-.282.05l-.021.01Zm-247.236-2.544a.82.82 0 0 1-.766-.534 56.248 56.248 0 0 1-1.322-3.947.82.82 0 0 1 1.176-.962.821.821 0 0 1 .398.487 59.126 59.126 0 0 0 1.281 3.846.813.813 0 0 1-.202.89.82.82 0 0 1-.272.17c-.089.026-.18.039-.273.04l-.02.01Zm254.835-.605a.816.816 0 0 1-.735-1.203c.09-.168.236-.3.412-.372 1.272-.535 2.523-1.08 3.775-1.625a.83.83 0 0 1 1.026.454.826.826 0 0 1-.371 1.06l-3.784 1.625a.864.864 0 0 1-.302.051l-.021.01Zm7.549-3.281a.832.832 0 0 1-.757-.484.83.83 0 0 1 .413-1.091l3.745-1.695a.803.803 0 0 1 .628-.024.817.817 0 0 1 .485 1.056.82.82 0 0 1-.428.462c-1.241.575-2.492 1.14-3.753 1.706a.8.8 0 0 1-.313.06l-.02.01Zm-156.678-1.1a.807.807 0 0 1-.757-.495c-.504-1.14-1.008-2.301-1.563-3.442l-.132-.273a.815.815 0 0 1-.032-.628.828.828 0 0 1 .421-.467.815.815 0 0 1 .627-.032.822.822 0 0 1 .468.421l.131.272c.545 1.161 1.08 2.332 1.584 3.483a.82.82 0 0 1-.423 1.09.713.713 0 0 1-.324.071Zm164.175-2.362a.826.826 0 0 1-.74-1.19.826.826 0 0 1 .387-.385 310.713 310.713 0 0 0 3.704-1.766.806.806 0 0 1 1.09.373.817.817 0 0 1 .042.628.817.817 0 0 1-.416.472l-3.723 1.787a.85.85 0 0 1-.344.101v-.02Zm-272.202-.555a.818.818 0 0 1-.797-.646 54.39 54.39 0 0 1-.747-4.119.824.824 0 0 1 .131-.651.835.835 0 0 1 1.205-.163.822.822 0 0 1 .299.592c.182 1.312.424 2.655.717 3.977a.848.848 0 0 1-.1.637.83.83 0 0 1-.526.373h-.182Zm279.599-3.029a.814.814 0 0 1-.737-.454.828.828 0 0 1-.046-.626.816.816 0 0 1 .41-.474c1.241-.616 2.452-1.242 3.663-1.858a.826.826 0 0 1 1.162.982.827.827 0 0 1-.405.482l-3.683 1.868a.91.91 0 0 1-.364.08Zm-175.093-1.463a.844.844 0 0 1-.737-.455 120.724 120.724 0 0 0-1.907-3.613.826.826 0 0 1 .957-1.185.816.816 0 0 1 .486.397 152.897 152.897 0 0 1 1.937 3.654.837.837 0 0 1-.363 1.111.866.866 0 0 1-.373.091Zm182.399-2.312a.816.816 0 0 1-.383-1.544 238.784 238.784 0 0 0 3.612-1.959.832.832 0 0 1 .91.082.822.822 0 0 1-.122 1.362l-3.623 2.019a.939.939 0 0 1-.394.04Zm-288.035-1.322a.82.82 0 0 1-.817-.778c0-.888-.081-1.786-.081-2.675v-1.504a.82.82 0 0 1 .817-.817.817.817 0 0 1 .818.817v1.454c0 .858 0 1.726.071 2.584a.815.815 0 0 1-.457.79.815.815 0 0 1-.31.078l-.041.051Zm295.251-2.645a.816.816 0 0 1-.717-.414.814.814 0 0 1 .061-.91.799.799 0 0 1 .242-.21l3.552-2.019a.818.818 0 0 1 1.212.906.83.83 0 0 1-.374.507 83.812 83.812 0 0 1-3.573 2.019.767.767 0 0 1-.403.121Zm-193.561-.939a.833.833 0 0 1-.717-.404 124.718 124.718 0 0 0-2.129-3.482.83.83 0 0 1 .3-1.068.83.83 0 0 1 1.093.19 128.69 128.69 0 0 1 2.159 3.523.827.827 0 0 1-.292 1.13.872.872 0 0 1-.414.111Zm200.634-3.25a.82.82 0 0 1-.769-1.126.814.814 0 0 1 .346-.398c1.17-.727 2.331-1.454 3.471-2.181a.821.821 0 0 1 1.13.253.818.818 0 0 1-.252 1.13c-1.14.737-2.301 1.464-3.492 2.201a.838.838 0 0 1-.434.121Zm-302.051-1.373h-.101a.826.826 0 0 1-.717-.919 46.4 46.4 0 0 1 .727-4.128.822.822 0 0 1 .66-.718.836.836 0 0 1 .658.149.833.833 0 0 1 .328.59.83.83 0 0 1-.042.342 43.849 43.849 0 0 0-.696 3.967.821.821 0 0 1-.817.717Zm96.997-2.312a.808.808 0 0 1-.676-.353 106.85 106.85 0 0 0-2.372-3.321.828.828 0 0 1 1.312-1.009 103.88 103.88 0 0 1 2.412 3.361.828.828 0 0 1-.212 1.151.868.868 0 0 1-.464.171Zm211.987-.757a.814.814 0 0 1-.686-.363.84.84 0 0 1 .222-1.151c1.15-.767 2.291-1.544 3.381-2.312a.82.82 0 0 1 .938 1.343c-1.1.777-2.24 1.565-3.401 2.342a.853.853 0 0 1-.454.141Zm6.721-4.744a.82.82 0 0 1-.816-.944.828.828 0 0 1 .321-.54 118.338 118.338 0 0 0 3.25-2.483.824.824 0 0 1 .977-.158.823.823 0 0 1 .43.891.827.827 0 0 1-.398.559c-1.009.828-2.15 1.676-3.29 2.513a.774.774 0 0 1-.474.162Zm-313.838-.182a.835.835 0 0 1-.806-.707.83.83 0 0 1 .029-.383 40.315 40.315 0 0 1 1.533-3.896.83.83 0 0 1 1.121-.483.815.815 0 0 1 .447.495.828.828 0 0 1-.064.664c-.555 1.221-1.009 2.473-1.483 3.745a.816.816 0 0 1-.818.555l.041.01Zm90.256-.908a.799.799 0 0 1-.636-.303c-.858-1.01-1.745-2.1-2.633-3.109a.823.823 0 1 1 1.23-1.09 73.593 73.593 0 0 1 2.674 3.169.824.824 0 0 1 .153.282.82.82 0 0 1-.066.625.823.823 0 0 1-.207.244.818.818 0 0 1-.556.182h.041Zm230.081-4.038a.816.816 0 0 1-.626-.293.826.826 0 0 1 .091-1.161 91.805 91.805 0 0 0 3.078-2.685.827.827 0 0 1 1.11 1.222c-1.009.898-2.018 1.817-3.128 2.725a.785.785 0 0 1-.566.222l.041-.03Zm-235.53-2.14a.84.84 0 0 1-.586-.252 58.612 58.612 0 0 0-2.906-2.857.828.828 0 1 1 1.13-1.201 56.7 56.7 0 0 1 2.957 2.907.83.83 0 0 1-.139 1.266.83.83 0 0 1-.456.137Zm-81.397-.414a.8.8 0 0 1-.423-.121.808.808 0 0 1-.379-.499.804.804 0 0 1 .086-.622 40.205 40.205 0 0 1 2.321-3.502.805.805 0 0 1 .539-.326.807.807 0 0 1 .611.154.83.83 0 0 1 .172 1.151 38.639 38.639 0 0 0-2.22 3.361.832.832 0 0 1-.747.434l.04-.03Zm323.012-3.028a.841.841 0 0 1-.585-.242.804.804 0 0 1-.179-.267.804.804 0 0 1 0-.628.8.8 0 0 1 .179-.266 84.22 84.22 0 0 0 2.825-2.938.83.83 0 0 1 1.161-.05.808.808 0 0 1 .267.57.816.816 0 0 1-.217.591 72.856 72.856 0 0 1-2.876 3.028.87.87 0 0 1-.615.283l.04-.081Zm-247.609-2.231a.83.83 0 0 1-.536-.192c-1.009-.878-2.108-1.736-3.168-2.544a.827.827 0 1 1 1.009-1.312c1.09.828 2.18 1.696 3.239 2.594a.831.831 0 0 1-.059 1.299.82.82 0 0 1-.465.155h-.02Zm-70.529-1.393a.816.816 0 0 1-.819-.96.815.815 0 0 1 .214-.423c.938-1.009 1.937-2.019 3.027-2.937a.823.823 0 0 1 1.161.06.823.823 0 0 1-.06 1.161 39.655 39.655 0 0 0-2.867 2.826.796.796 0 0 1-.656.354v-.081Zm63.969-3.553a.826.826 0 0 1-.454-.142 70.201 70.201 0 0 0-3.441-2.16.808.808 0 0 1-.378-.499.818.818 0 0 1 1.205-.914 71.29 71.29 0 0 1 3.522 2.201.808.808 0 0 1 .355.521.83.83 0 0 1-.123.619.82.82 0 0 1-.726.454l.04-.08Zm-57.843-1.908a.83.83 0 0 1-.781-.572.835.835 0 0 1 .296-.922 43.391 43.391 0 0 1 3.512-2.291.828.828 0 0 1 .828 1.423 40.237 40.237 0 0 0-3.371 2.2.797.797 0 0 1-.555.243l.071-.081Zm50.749-2.241a.995.995 0 0 1-.373-.081 52.591 52.591 0 0 0-3.684-1.696.828.828 0 0 1 .322-1.587c.108 0 .215.022.314.063a61.143 61.143 0 0 1 3.784 1.746.816.816 0 0 1 .442.923.817.817 0 0 1-.805.632Zm-43.665-1.908a.838.838 0 0 1-.747-.474.823.823 0 0 1 .404-1.091 43.199 43.199 0 0 1 3.875-1.574.813.813 0 0 1 .884.22.81.81 0 0 1 .213.591.819.819 0 0 1-.542.733 43.448 43.448 0 0 0-3.744 1.524.81.81 0 0 1-.384.152l.041-.081Zm36.086-1.272a.822.822 0 0 1-.262 0 56.393 56.393 0 0 0-3.875-1.161.809.809 0 0 1-.505-.376.834.834 0 0 1-.09-.623.809.809 0 0 1 .376-.505.827.827 0 0 1 .622-.091c1.333.344 2.675.747 4.037 1.202a.814.814 0 0 1 .553.91.817.817 0 0 1-.815.685l-.041-.041Zm-28.346-1.453a.829.829 0 0 1-.192-1.626 46.048 46.048 0 0 1 4.097-.827.822.822 0 0 1 .621.137.819.819 0 0 1-.369 1.478 48.187 48.187 0 0 0-3.955.807.628.628 0 0 1-.242.111l.04-.08Zm20.395-.596h-.142a53.141 53.141 0 0 0-4.036-.555.803.803 0 0 1-.71-.578.828.828 0 0 1 .871-1.057c1.373.131 2.765.333 4.137.575a.834.834 0 0 1 .49.32.831.831 0 0 1-.641 1.315l.031-.02Zm-12.282-.686a.827.827 0 0 1-.569-1.36.827.827 0 0 1 .519-.286 47.834 47.834 0 0 1 4.178-.111.83.83 0 0 1 .736.823.827.827 0 0 1-.736.823c-1.352 0-2.715 0-4.037.101l-.091.01ZM433.934 90.183h-.323a.828.828 0 0 1 0-1.645h4.097a.819.819 0 0 1 .762 1.123.805.805 0 0 1-.752.512c-1.241 0-2.512.01-3.784.01Zm-4.43-.05-4.127-.121a.828.828 0 1 1 .071-1.646c1.372.05 2.734.101 4.086.121a.833.833 0 0 1 .753.53.824.824 0 0 1-.468 1.061.82.82 0 0 1-.315.055Zm12.332-.101a.826.826 0 0 1-.828-.788.84.84 0 0 1 .798-.858c1.372-.05 2.734-.11 4.036-.191a.824.824 0 0 1 .792.781.827.827 0 0 1-.701.864c-1.363.08-2.735.141-4.118.192h.021Zm-20.546-.222c-1.372-.081-2.745-.172-4.117-.283a.826.826 0 0 1-.437-1.421.825.825 0 0 1 .558-.224c1.372.11 2.734.202 4.087.282a.828.828 0 0 1 0 1.646h-.091Zm28.75-.253a.818.818 0 1 1-.06-1.635c1.372-.11 2.734-.232 4.036-.363a.829.829 0 0 1 .161 1.645c-1.362.131-2.734.252-4.107.353h-.03Zm-36.954-.383h-.081c-1.362-.131-2.725-.283-4.097-.434a.835.835 0 0 1-.726-.919.823.823 0 0 1 .908-.716l4.036.423a.827.827 0 0 1-.081 1.646h.041Zm45.138-.414a.818.818 0 0 1-.655-1.364.819.819 0 0 1 .564-.271c1.363-.162 2.715-.344 4.037-.525a.816.816 0 0 1 .822.394.815.815 0 0 1 .088.622.82.82 0 0 1-.678.609c-1.362.192-2.725.363-4.097.535h-.081Zm-53.302-.525h-.111a148.68 148.68 0 0 1-4.037-.585.807.807 0 0 1-.686-.93.829.829 0 0 1 .929-.696c1.362.212 2.714.404 4.036.586a.816.816 0 0 1 .767.868.817.817 0 0 1-.868.767l-.03-.01Zm61.446-.606a.828.828 0 0 1-.132-1.635 223.07 223.07 0 0 0 4.037-.696.821.821 0 0 1 .303 1.615c-1.353.242-2.705.484-4.037.696l-.171.02Zm-69.579-.626h-.142a134.663 134.663 0 0 1-4.036-.726.823.823 0 0 1-.313-1.486.821.821 0 0 1 .615-.13l4.037.727a.815.815 0 0 1 .533.334.815.815 0 0 1-.694 1.282Zm77.702-.858a.83.83 0 0 1-.807-.656.806.806 0 0 1 .099-.642.826.826 0 0 1 .536-.367c1.353-.283 2.685-.565 4.037-.868a.82.82 0 0 1 .876.316.81.81 0 0 1 .133.3.827.827 0 0 1-.625 1.009c-1.332.303-2.674.596-4.037.868l-.212.04Zm-85.775-.666h-.162a208.865 208.865 0 0 1-4.037-.868.834.834 0 0 1-.637-.682.822.822 0 0 1 .012-.327.821.821 0 0 1 .682-.632.829.829 0 0 1 .327.016c1.342.303 2.674.585 4.036.858a.827.827 0 0 1-.171 1.635h-.05Zm93.768-1.16a.84.84 0 0 1-.798-.626.83.83 0 0 1 .596-1.01c1.332-.333 2.664-.686 3.966-1.01a.812.812 0 0 1 .864.281.824.824 0 0 1 .145.285.826.826 0 0 1-.576 1.01 67.432 67.432 0 0 1-4.036 1.009.645.645 0 0 1-.172.06h.011Zm-101.791-.647h-.192c-1.332-.323-2.664-.666-4.036-1.009a.829.829 0 0 1 .074-1.644.826.826 0 0 1 .339.049l3.966 1.01a.83.83 0 0 1 .341 1.407.83.83 0 0 1-.533.218l.041-.03Zm109.722-1.544a.826.826 0 0 1-.691-1.263.83.83 0 0 1 .449-.352 174.92 174.92 0 0 0 3.905-1.222.83.83 0 0 1 1.123.498.84.84 0 0 1-.067.668.83.83 0 0 1-.541.399c-1.302.424-2.634.838-3.946 1.232a.593.593 0 0 1-.242.04h.01Zm-117.674-.535a.842.842 0 0 1-.222 0c-1.322-.374-2.644-.747-3.966-1.14a.83.83 0 0 1-.526-1.022.825.825 0 0 1 1-.563c1.312.393 2.624.777 3.936 1.14a.826.826 0 0 1 .566.9.826.826 0 0 1-.788.715v-.03Zm125.485-2.019a.817.817 0 0 1-.272-1.595c1.281-.454 2.572-.928 3.844-1.413a.823.823 0 0 1 1.06.474.83.83 0 0 1-.203.89.827.827 0 0 1-.272.17c-1.281.495-2.593 1.01-3.875 1.434-.082.02-.167.03-.252.03l-.03.01Zm7.679-2.937a.818.818 0 0 1-.757-.505.832.832 0 0 1-.001-.632.833.833 0 0 1 .445-.448c1.272-.525 2.533-1.06 3.764-1.605a.83.83 0 0 1 1.09.414.836.836 0 0 1-.423 1.09c-1.242.545-2.523 1.1-3.805 1.625a.817.817 0 0 1-.323.05l.01.01Zm7.518-3.342a.825.825 0 0 1-.784-.645.832.832 0 0 1 .431-.92 137.496 137.496 0 0 0 3.663-1.806.828.828 0 1 1 .757 1.463 179.531 179.531 0 0 1-3.714 1.828.724.724 0 0 1-.383.07l.03.01Zm7.316-3.755a.81.81 0 0 1-.716-.424.812.812 0 0 1 .075-.914.825.825 0 0 1 .248-.206 152.94 152.94 0 0 0 3.542-2.019.828.828 0 0 1 1.13.293.812.812 0 0 1-.054.908.815.815 0 0 1-.239.212 66.179 66.179 0 0 1-3.592 2.02.788.788 0 0 1-.404.12l.01.01Zm7.064-4.199a.817.817 0 0 1-.444-1.514 140.981 140.981 0 0 0 3.401-2.261.823.823 0 0 1 1.14.212.813.813 0 0 1 .131.614.821.821 0 0 1-.343.526c-1.12.778-2.28 1.545-3.44 2.292a.811.811 0 0 1-.445.12v.011Zm6.782-4.653a.82.82 0 0 1-.782-.558.814.814 0 0 1 .287-.916c1.1-.828 2.18-1.676 3.209-2.514a.813.813 0 0 1 .912-.094.823.823 0 0 1 .128 1.366c-1.009.858-2.15 1.716-3.26 2.554a.826.826 0 0 1-.494.162Zm6.367-5.2a.826.826 0 0 1-.555-1.443 112.42 112.42 0 0 0 2.967-2.786.827.827 0 0 1 1.161 1.171c-.959.95-2.019 1.908-3.028 2.847a.808.808 0 0 1-.565.172l.02.04Zm5.833-5.793a.828.828 0 0 1-.616-1.373 55.834 55.834 0 0 0 2.624-3.099.828.828 0 0 1 1.368.113.818.818 0 0 1-.076.907 63.505 63.505 0 0 1-2.695 3.18.796.796 0 0 1-.625.231l.02.04Zm5.045-6.45a.856.856 0 0 1-.453-.142.82.82 0 0 1-.349-.524.807.807 0 0 1 .126-.617 45.37 45.37 0 0 0 2.12-3.442.823.823 0 1 1 1.433.808 48.372 48.372 0 0 1-2.19 3.553.858.858 0 0 1-.666.323l-.021.04Zm3.976-7.178a1.006 1.006 0 0 1-.322-.07.837.837 0 0 1-.434-1.08c.53-1.225.982-2.483 1.352-3.765a.825.825 0 0 1 .7-.666.83.83 0 0 1 .884 1.12 33.44 33.44 0 0 1-1.423 3.957.815.815 0 0 1-.736.464l-.021.04Zm2.221-7.883h-.101a.836.836 0 0 1-.717-.929c.129-.95.193-1.908.192-2.867v-1.08a.81.81 0 0 1 .211-.59.815.815 0 0 1 .566-.268.828.828 0 0 1 .868.777v1.161a24.534 24.534 0 0 1-.202 3.029.816.816 0 0 1-.797.726l-.02.04Zm-.444-8.146a.82.82 0 0 1-.798-.626 20.05 20.05 0 0 0-.908-2.665 17.662 17.662 0 0 0-.464-1.01.835.835 0 0 1-.056-.629.823.823 0 0 1 1.313-.38c.081.07.148.156.196.252.192.364.364.737.525 1.11.403.945.74 1.917 1.009 2.908a.829.829 0 0 1-.596 1.01l-.221.03ZM405.416 17.2a.817.817 0 0 1-.202-1.615s1.433-.373 4.037-1.01a.82.82 0 0 1 .384 1.596c-2.574.615-4.037 1.009-4.037 1.009a.652.652 0 0 1-.182.02Zm8.073-1.938a.818.818 0 0 1-.797-.636.836.836 0 0 1 .096-.634.826.826 0 0 1 .52-.375l4.036-.919a.821.821 0 1 1 .353 1.605l-4.036.919a.586.586 0 0 1-.172.04Zm8.073-1.807a.82.82 0 0 1-.701-1.318.817.817 0 0 1 .53-.307l4.036-.868a.81.81 0 0 1 1.01.626.837.837 0 0 1-.103.64.835.835 0 0 1-.533.37c-1.403.292-2.745.585-4.037.867l-.202-.01Zm132.317-.676a.803.803 0 0 1-.616-.273 19.456 19.456 0 0 0-2.916-2.644.828.828 0 0 1-.171-1.151.825.825 0 0 1 1.15-.172 20.746 20.746 0 0 1 3.169 2.867.826.826 0 0 1 .132.884.832.832 0 0 1-.748.489Zm-124.253-1.01a.819.819 0 0 1-.172-1.625l4.036-.818a.82.82 0 0 1 .323 1.605l-4.036.828-.151.01Zm8.073-1.615a.819.819 0 0 1-.808-.666.804.804 0 0 1 .099-.648.81.81 0 0 1 .547-.361c1.332-.263 2.684-.515 4.036-.768a.807.807 0 0 1 .959.657.829.829 0 0 1-.656.958l-4.036.768-.141.06Zm8.073-1.504a.826.826 0 0 1-.797-.75.83.83 0 0 1 .645-.885l4.036-.717a.823.823 0 0 1 .613.136.825.825 0 0 1-.029 1.367.809.809 0 0 1-.301.112l-4.036.717-.131.02Zm101.558-.767a.751.751 0 0 1-.374-.1 37.226 37.226 0 0 0-3.663-1.646.816.816 0 0 1-.474-1.01.827.827 0 0 1 1.07-.474 36.267 36.267 0 0 1 3.824 1.726.828.828 0 0 1-.383 1.554v-.05Zm-93.476-.697a.829.829 0 0 1-.141-1.635l4.037-.656a.821.821 0 1 1 .252 1.625l-4.037.656-.111.01Zm8.124-1.282a.829.829 0 0 1-.121-1.645l4.087-.595a.836.836 0 0 1 .928.696.822.822 0 0 1-.155.61.808.808 0 0 1-.541.319c-1.373.202-2.725.393-4.037.605l-.161.01Zm77.703-1.07h-.233a91.66 91.66 0 0 0-3.925-1.009.843.843 0 0 1-.529-.372.834.834 0 0 1-.107-.637.822.822 0 0 1 .68-.644.814.814 0 0 1 .329.018 63.75 63.75 0 0 1 4.037 1.01.811.811 0 0 1 .585.691.81.81 0 0 1-.03.318.817.817 0 0 1-.858.646l.051-.02Zm-69.529-.1a.816.816 0 0 1-.151-1.585l4.086-.525a.828.828 0 0 1 .919.717.837.837 0 0 1-.717.918c-1.362.162-2.714.343-4.036.525l-.101-.05Zm8.154-1.01a.83.83 0 0 1-.609-1.349.83.83 0 0 1 .518-.296l4.107-.444a.81.81 0 0 1 .898.726.807.807 0 0 1-.173.606.825.825 0 0 1-.554.303l-4.086.444-.101.01Zm53.352-.656h-.101a102.505 102.505 0 0 0-4.036-.565.818.818 0 0 1-.717-.909.823.823 0 0 1 .303-.55.81.81 0 0 1 .605-.166c1.413.161 2.796.353 4.118.565a.828.828 0 0 1 .676.949.821.821 0 0 1-.858.696l.01-.02Zm-45.148-.202a.825.825 0 0 1-.778-.79.83.83 0 0 1 .707-.855l4.107-.354a.818.818 0 0 1 .846 1.07.825.825 0 0 1-.714.565l-4.037.364h-.131Zm8.204-.666a.818.818 0 0 1 0-1.635c1.383-.101 2.755-.182 4.117-.253a.828.828 0 1 1 .091 1.646l-4.097.242h-.111Zm28.77-.06h-.06c-1.322-.102-2.695-.192-4.037-.263a.823.823 0 0 1-.813-.529.833.833 0 0 1 .033-.67.832.832 0 0 1 .518-.426.831.831 0 0 1 .343-.02c1.403.07 2.795.161 4.127.272a.829.829 0 0 1 .757.888.839.839 0 0 1-.868.747Zm-20.545-.324a.826.826 0 0 1-.828-.797.826.826 0 0 1 .797-.848l4.128-.121a.828.828 0 0 1 0 1.645l-4.097.121Zm12.341-.1h-4.097a.828.828 0 0 1 0-1.646h4.138a.828.828 0 0 1 0 1.645h-.041Z" fill="#fff"/></g><defs><clipPath id="a"><path fill="#fff" d="M0 0h764v750H0z"/></clipPath></defs></svg>