<svg width="99" height="116" fill="none" xmlns="http://www.w3.org/2000/svg"><g clip-path="url(#a)"><path d="M58.366 11.118a1.836 1.836 0 0 1 2.084-.215l36.702 20.344c.305.19.559.447.741.749.183.302.29.64.31.989v25.028c0 .295-.1.583-.287.817a1.406 1.406 0 0 1-.745.483.99.99 0 0 1-.727-.091L59.142 38.545a2.265 2.265 0 0 1-.737-.75 2.162 2.162 0 0 1-.306-.987V11.724a.815.815 0 0 1 .266-.606Z" fill="#FDAB74"/><path d="M58.09 11.795c0-.636.47-.897 1.043-.58l37.173 20.613c.306.19.56.446.742.748.183.302.29.64.31.99v25.012c0 .638-.47.898-1.052.58L59.133 38.544a2.264 2.264 0 0 1-.737-.748 2.16 2.16 0 0 1-.306-.987V11.794Z" fill="#F3F8FE"/><path d="M63.749 19.698c-1.348-.747-2.454-.136-2.454 1.362 0 1.498 1.104 3.333 2.454 4.08 1.35.748 2.454.137 2.454-1.36 0-1.496-1.104-3.333-2.454-4.082Z" fill="#D6DCEF"/><path d="M96.306 31.828 59.133 11.216c-.573-.318-1.043-.057-1.043.579v2.78l39.265 21.771v-2.78a2.158 2.158 0 0 0-.309-.99 2.262 2.262 0 0 0-.74-.748Z" fill="#FC7318"/><path d="M94.011 36.841 69.653 23.343l.003-.747 24.355 13.449v.796ZM94.011 39.833 69.653 26.337l.003-.75L94.011 39.04v.794ZM94.011 42.824 69.653 29.327l.003-.749L94.011 42.03v.795ZM94.011 45.818 69.653 32.32l.003-.75 24.355 13.451v.797ZM94.011 48.808 69.653 35.31l.003-.748 24.355 13.45v.796ZM94.011 51.8 69.653 38.304l.003-.75 24.355 13.452v.794ZM93.765 54.726l-14.132-7.813.003-.749 14.129 7.768v.794ZM60.227 24.658v11.724l7.048 3.907V28.565l-7.048-3.907Z" fill="#D6DCEF"/><path d="M60.927 13.725c-.275-.152-.501-.027-.501.28.008.167.058.331.145.478.088.146.21.27.356.363.277.153.501.027.501-.28a1.037 1.037 0 0 0-.145-.478 1.09 1.09 0 0 0-.356-.363ZM62.644 14.696c-.277-.153-.501-.028-.501.278.008.169.058.333.145.479.087.146.209.27.356.363.275.153.501.028.501-.278A1.04 1.04 0 0 0 63 15.06a1.09 1.09 0 0 0-.355-.364ZM64.363 15.669c-.277-.153-.503-.027-.503.277.009.169.059.333.146.48.088.146.21.27.357.362.275.154.501.029.501-.277a1.04 1.04 0 0 0-.145-.479 1.089 1.089 0 0 0-.356-.363Z" fill="#fff"/><path d="M49.096 5.954c.366.23.671.54.89.905.22.365.347.774.372 1.194v11.815a.8.8 0 0 1-.163.481.856.856 0 0 1-.425.3l-.63.202a.816.816 0 0 1-.637-.06L37.79 14.961a2.744 2.744 0 0 1-.89-.905 2.617 2.617 0 0 1-.372-1.194V.999c0-.125.033-.248.094-.359a.782.782 0 0 1 .257-.275l.186-.125a1.448 1.448 0 0 1 1.502-.062l10.53 5.776Z" fill="#5B8BCA"/><path d="M48.22 6.373c.367.23.672.54.892.905.219.365.346.774.37 1.194v11.569c0 .77-.567 1.086-1.261.7l-10.432-5.784a2.744 2.744 0 0 1-.89-.906 2.617 2.617 0 0 1-.372-1.193V1.288c0-.77.568-1.085 1.262-.7l10.432 5.785Z" fill="#F3F8FE"/><path d="M48.45 11.784v1.75l-1.578-.875v-1.75l1.579.875ZM45.294 10.047v1.75l-1.58-.874V9.172l1.58.875ZM42.138 8.36v1.75l-1.58-.925v-1.7l1.58.875ZM38.982 6.575v1.75l-1.58-.875V5.7l1.58.875ZM48.45 14.739v1.75l-1.578-.875v-1.75l1.579.875ZM45.294 13.002v1.751l-1.58-.875v-1.751l1.58.875ZM42.138 11.266v1.751l-1.58-.874v-1.75l1.58.873ZM38.982 9.53v1.75l-1.58-.875v-1.75l1.58.875ZM48.45 17.696v1.75l-1.578-.875v-1.75l1.579.875ZM45.294 15.96v1.75l-1.58-.875v-1.751l1.58.875ZM42.138 14.223v1.75l-1.58-.875v-1.75l1.58.875ZM38.982 12.538v1.75l-1.58-.875v-1.749l1.58.874Z" fill="#C2CAE8"/><path d="M48.22 6.373 37.79.588c-.702-.385-1.263-.07-1.263.7v2.305l12.956 7.344V8.472a2.616 2.616 0 0 0-.371-1.194 2.743 2.743 0 0 0-.891-.905Z" fill="#326EBD"/><path opacity=".02" d="M42.757 87.61 19.459 74.634a1.34 1.34 0 0 1-.495-.476 1.274 1.274 0 0 1-.01-1.302 1.34 1.34 0 0 1 .488-.483l12.005-6.93a2.877 2.877 0 0 1 2.826-.024l23.645 13.068c.208.116.38.281.5.48a1.273 1.273 0 0 1 0 1.314c-.12.2-.292.365-.5.48l-12.369 6.852a2.87 2.87 0 0 1-1.396.36c-.49-.001-.972-.126-1.396-.363Z" fill="#99A7D8"/><path opacity=".05" d="M42.745 87.516 19.606 74.632a1.327 1.327 0 0 1-.49-.471 1.26 1.26 0 0 1-.01-1.288c.115-.197.281-.362.483-.478l11.884-6.859a2.835 2.835 0 0 1 1.394-.378c.492-.004.975.118 1.4.355l23.477 12.962c.206.114.377.279.496.476a1.26 1.26 0 0 1 0 1.301c-.119.198-.29.362-.496.476L45.5 87.516a2.842 2.842 0 0 1-1.378.354c-.483 0-.959-.122-1.377-.354Z" fill="#99A7D8"/><path opacity=".07" d="M42.745 87.421 19.782 74.627a1.313 1.313 0 0 1-.486-.467 1.248 1.248 0 0 1-.01-1.275c.113-.195.278-.359.478-.474l11.762-6.787a2.816 2.816 0 0 1 2.766-.023l23.314 12.874c.203.113.372.276.49.47a1.247 1.247 0 0 1 0 1.287 1.314 1.314 0 0 1-.49.47l-12.118 6.72a2.815 2.815 0 0 1-2.743-.002Z" fill="#99A7D8"/><path opacity=".1" d="m42.733 87.327-22.8-12.699a1.3 1.3 0 0 1-.479-.461 1.234 1.234 0 0 1-.01-1.26c.112-.192.274-.353.471-.467l11.64-6.717a2.775 2.775 0 0 1 1.365-.371c.482-.005.956.115 1.372.347L57.431 78.48a1.3 1.3 0 0 1 .485.466 1.234 1.234 0 0 1 0 1.273 1.3 1.3 0 0 1-.485.466l-11.992 6.65c-.412.228-.88.347-1.354.345a2.782 2.782 0 0 1-1.352-.353Z" fill="#99A7D8"/><path opacity=".12" d="M42.723 87.24 20.09 74.633a1.286 1.286 0 0 1-.476-.457 1.221 1.221 0 0 1-.01-1.248c.112-.191.273-.35.469-.464l11.516-6.646a2.753 2.753 0 0 1 1.352-.366c.476-.004.945.115 1.358.344l22.963 12.688c.201.11.368.27.485.462a1.221 1.221 0 0 1 0 1.266 1.287 1.287 0 0 1-.485.46L45.4 87.242a2.755 2.755 0 0 1-1.338.345c-.47 0-.932-.119-1.339-.345Z" fill="#99A7D8"/><path opacity=".15" d="M42.714 87.14 20.247 74.623a1.274 1.274 0 0 1-.47-.452 1.209 1.209 0 0 1-.01-1.234c.11-.189.27-.347.463-.459l11.394-6.575a2.72 2.72 0 0 1 1.337-.364c.472-.004.936.113 1.345.34l22.796 12.596c.197.11.361.267.475.456a1.21 1.21 0 0 1 0 1.247c-.114.19-.278.347-.475.457l-11.744 6.508a2.728 2.728 0 0 1-1.323.338c-.464 0-.92-.118-1.32-.341Z" fill="#99A7D8"/><path opacity=".17" d="m42.705 87.046-22.3-12.431a1.26 1.26 0 0 1-.465-.447 1.198 1.198 0 0 1-.01-1.222c.109-.187.267-.343.457-.454l11.273-6.505a2.694 2.694 0 0 1 2.65-.022l22.632 12.51c.195.108.357.264.47.451a1.195 1.195 0 0 1 0 1.233 1.26 1.26 0 0 1-.47.45L45.33 87.05a2.701 2.701 0 0 1-2.624-.004Z" fill="#99A7D8"/><path opacity=".2" d="M42.699 86.95 20.563 74.615c-.19-.106-.35-.259-.46-.442a1.184 1.184 0 0 1-.009-1.21c.108-.185.264-.34.454-.449l11.148-6.434c.396-.23.849-.352 1.312-.356.462-.004.917.112 1.317.334l22.458 12.41c.193.108.353.262.465.448a1.183 1.183 0 0 1 0 1.219c-.112.185-.272.34-.465.447l-11.486 6.368a2.664 2.664 0 0 1-2.598.002Z" fill="#99A7D8"/><path opacity=".22" d="M42.69 86.856 20.72 74.614a1.232 1.232 0 0 1-.456-.437 1.17 1.17 0 0 1-.01-1.197 1.23 1.23 0 0 1 .45-.444l11.026-6.363a2.635 2.635 0 0 1 1.294-.35c.456-.004.905.109 1.3.328L56.613 78.47c.19.106.35.258.46.442a1.17 1.17 0 0 1 0 1.206c-.11.183-.27.335-.46.441l-11.362 6.3a2.634 2.634 0 0 1-2.561-.002Z" fill="#99A7D8"/><path opacity=".24" d="M42.682 86.762 20.878 74.614a1.219 1.219 0 0 1-.45-.433A1.158 1.158 0 0 1 20.42 73c.106-.18.259-.332.444-.438l10.903-6.293a2.611 2.611 0 0 1 2.566-.02L56.45 78.47c.188.105.345.256.454.437a1.157 1.157 0 0 1 0 1.192 1.22 1.22 0 0 1-.454.437l-11.236 6.229a2.606 2.606 0 0 1-2.533-.004Z" fill="#99A7D8"/><path opacity=".27" d="M42.673 86.67 21.035 74.613a1.204 1.204 0 0 1-.445-.428 1.144 1.144 0 0 1-.008-1.17c.105-.178.256-.327.44-.433l10.78-6.228a2.58 2.58 0 0 1 2.536-.022l21.95 12.133c.186.103.342.252.45.43a1.143 1.143 0 0 1 0 1.18c-.108.18-.264.328-.45.432l-11.11 6.16a2.584 2.584 0 0 1-2.505.001Z" fill="#99A7D8"/><path opacity=".29" d="M42.666 86.575 21.193 74.614a1.193 1.193 0 0 1-.44-.424 1.132 1.132 0 0 1-.008-1.156 1.19 1.19 0 0 1 .434-.429l10.66-6.151a2.549 2.549 0 0 1 2.507-.02l21.778 12.038c.185.103.338.25.445.427a1.132 1.132 0 0 1 0 1.166c-.107.178-.26.325-.445.427l-10.983 6.09a2.548 2.548 0 0 1-2.475-.007Z" fill="#99A7D8"/><path opacity=".32" d="M42.657 86.48 21.36 74.615c-.18-.1-.33-.245-.434-.419a1.118 1.118 0 0 1-.008-1.142c.102-.175.25-.32.428-.424l10.537-6.08a2.52 2.52 0 0 1 2.479-.022l21.61 11.952c.182.101.333.247.438.422a1.119 1.119 0 0 1 0 1.153c-.105.175-.256.32-.439.422l-10.857 6.018a2.517 2.517 0 0 1-2.456-.013Z" fill="#99A7D8"/><path opacity=".34" d="m42.648 86.386-21.14-11.784a1.163 1.163 0 0 1-.43-.414 1.105 1.105 0 0 1-.007-1.128c.1-.173.246-.317.423-.42l10.414-6.01a2.494 2.494 0 0 1 2.454-.02l21.44 11.854c.18.1.33.244.433.417a1.105 1.105 0 0 1 0 1.139 1.164 1.164 0 0 1-.434.417l-10.734 5.96a2.488 2.488 0 0 1-2.42-.01Z" fill="#99A7D8"/><path opacity=".37" d="M42.639 86.293 21.665 74.605a1.149 1.149 0 0 1-.425-.408 1.09 1.09 0 0 1-.008-1.116c.1-.17.245-.313.42-.413l10.29-5.94a2.456 2.456 0 0 1 2.42-.02l21.273 11.76c.178.1.326.241.43.412a1.09 1.09 0 0 1 0 1.126 1.149 1.149 0 0 1-.43.412L45.03 86.297a2.46 2.46 0 0 1-2.391-.004Z" fill="#99A7D8"/><path opacity=".39" d="M42.63 86.201 21.823 74.604a1.137 1.137 0 0 1-.42-.404 1.079 1.079 0 0 1-.008-1.103c.099-.168.242-.31.414-.409l10.167-5.868a2.433 2.433 0 0 1 2.393-.02l21.1 11.667c.177.098.322.239.424.408a1.08 1.08 0 0 1 0 1.112c-.102.17-.247.31-.423.408l-10.479 5.81a2.433 2.433 0 0 1-2.361-.004Z" fill="#99A7D8"/><path opacity=".41" d="M42.623 86.107 21.981 74.602a1.123 1.123 0 0 1-.415-.399 1.066 1.066 0 0 1-.008-1.089c.098-.166.239-.306.409-.404l10.047-5.798a2.399 2.399 0 0 1 2.363-.02L55.31 78.467c.174.096.318.235.419.402a1.065 1.065 0 0 1 0 1.099 1.12 1.12 0 0 1-.42.401L44.957 86.11a2.4 2.4 0 0 1-2.333-.003Z" fill="#99A7D8"/><path opacity=".44" d="M42.614 86.011 22.14 74.6a1.11 1.11 0 0 1-.41-.394 1.055 1.055 0 0 1-.008-1.076c.096-.165.235-.303.404-.4l9.924-5.724a2.374 2.374 0 0 1 2.335-.02l20.761 11.483c.172.095.315.232.414.397a1.053 1.053 0 0 1 0 1.086 1.11 1.11 0 0 1-.413.397l-10.227 5.67a2.375 2.375 0 0 1-2.305-.007Z" fill="#99A7D8"/><path opacity=".46" d="m42.606 85.918-20.309-11.32a1.095 1.095 0 0 1-.41-.39 1.039 1.039 0 0 1-.008-1.068c.097-.163.236-.3.404-.395l9.802-5.658a2.353 2.353 0 0 1 2.305-.019L54.983 78.46c.169.094.308.23.405.392a1.04 1.04 0 0 1 0 1.068 1.094 1.094 0 0 1-.405.392l-10.1 5.6a2.34 2.34 0 0 1-2.277.007Z" fill="#99A7D8"/><path opacity=".49" d="M42.596 85.823 22.453 74.594a1.082 1.082 0 0 1-.4-.384 1.027 1.027 0 0 1-.007-1.05c.094-.16.23-.294.393-.389l9.68-5.586a2.31 2.31 0 0 1 2.279-.018L54.82 78.463c.167.093.306.227.403.388a1.029 1.029 0 0 1 0 1.059 1.085 1.085 0 0 1-.403.388l-9.974 5.528a2.31 2.31 0 0 1-2.251-.003Z" fill="#99A7D8"/><path opacity=".51" d="M42.589 85.726 22.606 74.588a1.069 1.069 0 0 1-.395-.379 1.014 1.014 0 0 1-.008-1.036c.093-.158.227-.29.389-.385l9.557-5.516a2.293 2.293 0 0 1 2.249-.018l20.266 11.21c.166.09.304.223.4.382a1.012 1.012 0 0 1 0 1.045c-.096.159-.234.29-.4.382l-9.854 5.453a2.286 2.286 0 0 1-2.221 0Z" fill="#99A7D8"/><path opacity=".54" d="M42.582 85.636 22.774 74.591a1.054 1.054 0 0 1-.39-.374 1.001 1.001 0 0 1-.008-1.024c.091-.157.224-.287.384-.38l9.434-5.444a2.254 2.254 0 0 1 2.22-.019l20.084 11.111c.163.091.298.221.392.378a1.002 1.002 0 0 1 0 1.032c-.094.157-.23.287-.392.378l-9.722 5.387a2.26 2.26 0 0 1-2.194 0Z" fill="#99A7D8"/><path opacity=".56" d="M42.57 85.541 22.936 74.59a1.04 1.04 0 0 1-.385-.37.987.987 0 0 1-.008-1.01c.09-.154.221-.283.38-.374l9.303-5.376a2.23 2.23 0 0 1 2.19-.018L54.33 78.46c.162.09.296.218.389.373a.988.988 0 0 1 0 1.018 1.04 1.04 0 0 1-.389.373l-9.595 5.32a2.226 2.226 0 0 1-2.166-.004Z" fill="#99A7D8"/><path opacity=".59" d="M42.57 85.448 23.09 74.586a1.03 1.03 0 0 1-.376-.365.98.98 0 0 1-.008-.994c.088-.153.216-.28.37-.371l9.19-5.303a2.193 2.193 0 0 1 2.162-.019L54.174 78.46c.157.089.288.216.38.369a.98.98 0 0 1 0 1.002c-.092.153-.223.28-.38.37l-9.466 5.25a2.197 2.197 0 0 1-2.138-.003Z" fill="#99A7D8"/><path opacity=".61" d="M42.555 85.354 23.244 74.58a1.014 1.014 0 0 1-.375-.36.962.962 0 0 1-.008-.982 1.01 1.01 0 0 1 .369-.365l9.067-5.234a2.169 2.169 0 0 1 2.134-.017l19.574 10.833c.157.087.287.213.378.363a.961.961 0 0 1 0 .992c-.09.15-.221.275-.378.362l-9.343 5.18a2.17 2.17 0 0 1-2.107.002Z" fill="#99A7D8"/><path opacity=".63" d="M42.546 85.26 23.401 74.582a1 1 0 0 1-.369-.355.949.949 0 0 1-.008-.968.998.998 0 0 1 .363-.36l8.94-5.162a2.137 2.137 0 0 1 2.104-.019l19.404 10.74a1 1 0 0 1 .372.36.95.95 0 0 1 0 .978c-.089.148-.217.272-.372.358l-9.217 5.11a2.14 2.14 0 0 1-2.072-.006Z" fill="#99A7D8"/><path opacity=".66" d="M42.539 85.167 23.559 74.58a.986.986 0 0 1-.364-.35.937.937 0 0 1-.008-.956.986.986 0 0 1 .357-.356l8.823-5.092a2.11 2.11 0 0 1 2.075-.017l19.236 10.648c.153.085.28.206.369.353a.935.935 0 0 1 0 .966.986.986 0 0 1-.369.353l-9.09 5.038a2.109 2.109 0 0 1-2.05-.001Z" fill="#99A7D8"/><path opacity=".68" d="M42.53 85.071 23.718 74.576a.971.971 0 0 1-.36-.345.923.923 0 0 1-.006-.943.971.971 0 0 1 .354-.35l8.7-5.02a2.076 2.076 0 0 1 2.045-.018l19.066 10.555c.15.084.276.204.363.348a.922.922 0 0 1 0 .952.973.973 0 0 1-.363.348l-8.964 4.97a2.077 2.077 0 0 1-2.021-.002Z" fill="#99A7D8"/><path opacity=".71" d="M42.522 84.978 23.875 74.576a.956.956 0 0 1-.355-.34.909.909 0 0 1-.008-.93.955.955 0 0 1 .35-.344l8.577-4.951a2.053 2.053 0 0 1 2.017-.017l18.897 10.463c.148.082.272.2.358.343a.91.91 0 0 1 0 .938.957.957 0 0 1-.358.343l-8.838 4.9a2.053 2.053 0 0 1-1.993-.003Z" fill="#99A7D8"/><path opacity=".73" d="m42.512 84.884-18.483-10.31a.945.945 0 0 1-.349-.335.896.896 0 0 1-.006-.917.942.942 0 0 1 .345-.34l8.454-4.882a2.015 2.015 0 0 1 1.99-.017l18.726 10.368a.947.947 0 0 1 .352.34.898.898 0 0 1 0 .924.947.947 0 0 1-.352.34l-8.712 4.829a2.026 2.026 0 0 1-1.965 0Z" fill="#99A7D8"/><path opacity=".76" d="M42.505 84.789 24.189 74.572a.931.931 0 0 1-.344-.331.885.885 0 0 1-.006-.904.93.93 0 0 1 .34-.336l8.33-4.808a1.988 1.988 0 0 1 1.96-.017l18.559 10.27a.93.93 0 0 1 .347.333.884.884 0 0 1 0 .91.93.93 0 0 1-.347.334l-8.59 4.76a1.99 1.99 0 0 1-1.933.006Z" fill="#99A7D8"/><path opacity=".78" d="M42.498 84.695 24.34 74.57a.917.917 0 0 1-.339-.326.87.87 0 0 1-.006-.89.916.916 0 0 1 .334-.33l8.209-4.739a1.961 1.961 0 0 1 1.928-.015l18.388 10.183c.142.08.26.193.342.33a.871.871 0 0 1 0 .897.918.918 0 0 1-.342.329l-8.46 4.69a1.958 1.958 0 0 1-1.896-.004Z" fill="#99A7D8"/><path opacity=".8" d="M42.489 84.603 24.504 74.568a.904.904 0 0 1-.328-.32.858.858 0 0 1-.006-.87.902.902 0 0 1 .324-.325l8.084-4.667a1.933 1.933 0 0 1 1.902-.017L52.698 78.47c.14.078.255.19.336.324a.858.858 0 0 1 0 .884.904.904 0 0 1-.336.324l-8.334 4.62a1.937 1.937 0 0 1-1.875-.02Z" fill="#99A7D8"/><path opacity=".83" d="m42.48 84.51-17.818-9.943a.889.889 0 0 1-.33-.316.843.843 0 0 1-.006-.864.888.888 0 0 1 .325-.32l7.965-4.598a1.906 1.906 0 0 1 1.874-.015l18.055 9.998a.89.89 0 0 1 .335.32.846.846 0 0 1 0 .876.89.89 0 0 1-.335.32l-8.207 4.545a1.904 1.904 0 0 1-1.858-.004Z" fill="#99A7D8"/><path opacity=".85" d="m42.47 84.413-17.65-9.85a.876.876 0 0 1-.325-.311.833.833 0 0 1-.006-.851.875.875 0 0 1 .32-.316l7.842-4.525a1.875 1.875 0 0 1 1.855-.007l17.88 9.904a.878.878 0 0 1 .326.314.833.833 0 0 1 0 .858.878.878 0 0 1-.327.315l-8.08 4.481a1.88 1.88 0 0 1-1.834-.012Z" fill="#99A7D8"/><path opacity=".88" d="m42.462 84.32-17.485-9.764a.862.862 0 0 1-.321-.306.816.816 0 0 1-.006-.838.859.859 0 0 1 .316-.31l7.713-4.457a1.847 1.847 0 0 1 1.816-.015l17.704 9.813a.86.86 0 0 1 .324.309.816.816 0 0 1 0 .846.861.861 0 0 1-.324.308l-7.955 4.41a1.847 1.847 0 0 1-1.782.004Z" fill="#99A7D8"/><path opacity=".9" d="m42.455 84.225-17.32-9.666a.85.85 0 0 1-.314-.302.808.808 0 0 1-.006-.823.847.847 0 0 1 .309-.306l7.597-4.377a1.806 1.806 0 0 1 1.784-.029l17.54 9.719c.129.075.236.18.31.307a.816.816 0 0 1 0 .827.858.858 0 0 1-.31.307l-7.829 4.34a1.81 1.81 0 0 1-1.761.003Z" fill="#99A7D8"/><path opacity=".93" d="m42.446 84.133-17.154-9.575a.836.836 0 0 1-.308-.297.793.793 0 0 1-.006-.81.834.834 0 0 1 .304-.3l7.476-4.316a1.789 1.789 0 0 1 1.753-.015l17.37 9.628c.128.072.236.175.31.3a.793.793 0 0 1 0 .816.835.835 0 0 1-.31.3l-7.703 4.27a1.79 1.79 0 0 1-1.732 0Z" fill="#99A7D8"/><path opacity=".95" d="M42.437 84.042 25.45 74.56a.821.821 0 0 1-.304-.291.781.781 0 0 1-.006-.798.821.821 0 0 1 .3-.296L32.8 68.93a1.756 1.756 0 0 1 1.73-.015l17.2 9.534a.824.824 0 0 1 .305.295.782.782 0 0 1 0 .804.823.823 0 0 1-.305.295l-7.585 4.198a1.76 1.76 0 0 1-1.71 0Z" fill="#99A7D8"/><path opacity=".98" d="M42.428 83.944 25.6 74.554a.808.808 0 0 1-.298-.287.766.766 0 0 1-.006-.784c.07-.12.17-.22.294-.291l7.23-4.173a1.726 1.726 0 0 1 1.7-.014l17.032 9.441c.125.07.229.17.301.29a.767.767 0 0 1 0 .79.81.81 0 0 1-.301.29l-7.45 4.13a1.73 1.73 0 0 1-1.674-.002Z" fill="#99A7D8"/><path d="m42.42 83.85-16.653-9.298a.796.796 0 0 1-.297-.284.757.757 0 0 1-.006-.776.795.795 0 0 1 .293-.287l7.107-4.101a1.697 1.697 0 0 1 1.673-.015l16.86 9.348a.796.796 0 0 1 .296.285.756.756 0 0 1 0 .777.796.796 0 0 1-.295.285l-7.324 4.062a1.705 1.705 0 0 1-1.654.003Z" fill="#99A7D8"/><g opacity=".3" fill="#326EBD"><path opacity=".02" d="M74.735 37.426V54.44l-12.668-7.025-5.495-3.045a2.607 2.607 0 0 1-.848-.862 2.488 2.488 0 0 1-.353-1.136V23.854l16.854 9.392c1.381.769 2.51 2.648 2.51 4.18Z"/><path opacity=".05" d="M74.647 37.456v16.931l-12.62-6.99-5.468-3.03a2.588 2.588 0 0 1-.844-.856 2.467 2.467 0 0 1-.351-1.13V23.955l16.77 9.345c1.383.763 2.513 2.633 2.513 4.157Z"/><path opacity=".07" d="M74.546 37.486v16.847L62 47.377l-5.434-3.015a2.582 2.582 0 0 1-.839-.854 2.462 2.462 0 0 1-.35-1.124V24.05l16.688 9.3c1.355.757 2.48 2.619 2.48 4.136Z"/><path opacity=".1" d="M74.451 37.517v16.762l-12.482-6.92-5.415-3.003a2.573 2.573 0 0 1-.835-.848 2.453 2.453 0 0 1-.348-1.118V24.146l16.605 9.26c1.36.749 2.475 2.6 2.475 4.11Z"/><path opacity=".12" d="M74.355 37.547v16.68l-12.42-6.886-5.386-2.986a2.553 2.553 0 0 1-.832-.844 2.435 2.435 0 0 1-.346-1.114V24.244l16.523 9.207c1.351.76 2.46 2.594 2.46 4.096Z"/><path opacity=".15" d="M74.26 37.577v16.596l-12.358-6.854-5.36-2.97a2.547 2.547 0 0 1-.827-.84 2.429 2.429 0 0 1-.344-1.109V24.34l16.44 9.161c1.347.748 2.45 2.581 2.45 4.076Z"/><path opacity=".17" d="M74.166 37.609V54.12l-12.297-6.818-5.332-2.956a2.524 2.524 0 0 1-.824-.836 2.408 2.408 0 0 1-.342-1.102v-17.96l16.356 9.114c1.343.735 2.439 2.558 2.439 4.047Z"/><path opacity=".2" d="M74.07 37.638v16.428l-12.232-6.782-5.306-2.941a2.516 2.516 0 0 1-.82-.832 2.4 2.4 0 0 1-.34-1.098V24.535l16.273 9.069c1.334.739 2.426 2.556 2.426 4.034Z"/><path opacity=".22" d="M73.976 37.668v16.346l-12.172-6.749-5.28-2.927a2.5 2.5 0 0 1-.814-.827 2.385 2.385 0 0 1-.339-1.09V24.632l16.191 9.021c1.333.736 2.414 2.542 2.414 4.014Z"/><path opacity=".24" d="M73.88 37.698V53.96l-12.11-6.715-5.258-2.91a2.49 2.49 0 0 1-.81-.824 2.376 2.376 0 0 1-.338-1.086V24.73l16.109 8.976c1.327.732 2.407 2.527 2.407 3.993Z"/><path opacity=".27" d="M73.785 37.728v16.18l-12.047-6.68-5.224-2.896a2.479 2.479 0 0 1-.807-.819c-.199-.33-.313-.7-.336-1.08V24.824l16.027 8.923c1.321.737 2.387 2.525 2.387 3.981Z"/><path opacity=".29" d="M73.69 37.757v16.094l-11.984-6.644-5.199-2.882a2.462 2.462 0 0 1-.802-.815 2.348 2.348 0 0 1-.334-1.074V24.928l15.951 8.883c1.3.72 2.368 2.497 2.368 3.946Z"/><path opacity=".32" d="M73.596 37.79V53.8l-11.92-6.61-5.17-2.862a2.453 2.453 0 0 1-.8-.811 2.338 2.338 0 0 1-.332-1.07V25.023l15.86 8.839c1.298.715 2.362 2.484 2.362 3.927Z"/><path opacity=".34" d="M73.5 37.82v15.92l-11.86-6.566-5.145-2.861a2.44 2.44 0 0 1-.794-.806 2.326 2.326 0 0 1-.33-1.063V25.12l15.776 8.791c1.295.712 2.352 2.473 2.352 3.907Z"/><path opacity=".37" d="M73.405 37.847v15.845L61.606 47.15l-5.117-2.838a2.424 2.424 0 0 1-.788-.799 2.313 2.313 0 0 1-.33-1.053V25.21l15.696 8.755c1.286.705 2.338 2.456 2.338 3.882Z"/><path opacity=".39" d="M73.31 37.877v15.76l-11.736-6.506-5.083-2.821a2.415 2.415 0 0 1-.786-.799 2.305 2.305 0 0 1-.327-1.053V25.307l15.613 8.7c1.272.709 2.319 2.45 2.319 3.87Z"/><path opacity=".41" d="M73.215 37.914v15.678L61.541 47.12l-5.064-2.808a2.4 2.4 0 0 1-.787-.798 2.289 2.289 0 0 1-.324-1.053V25.403l15.529 8.653c1.28.707 2.32 2.44 2.32 3.857Z"/><path opacity=".44" d="M73.12 37.938v15.594l-11.62-6.44-5.035-2.79a2.389 2.389 0 0 1-.777-.79 2.28 2.28 0 0 1-.324-1.04v-16.97l15.446 8.607c1.275.7 2.31 2.425 2.31 3.829Z"/><path opacity=".46" d="M73.024 37.968v15.51l-11.55-6.398-5.007-2.776c-.32-.2-.587-.47-.779-.787a2.267 2.267 0 0 1-.322-1.04v-16.88l15.364 8.561c1.265.699 2.294 2.41 2.294 3.81Z"/><path opacity=".49" d="M72.93 38v15.425l-11.487-6.368-4.983-2.763c-.317-.199-.58-.466-.77-.781a2.255 2.255 0 0 1-.319-1.03V25.695l15.282 8.515c1.253.696 2.277 2.4 2.277 3.79Z"/><path opacity=".51" d="M72.835 38.028v15.343L61.41 47.035l-4.956-2.746a2.348 2.348 0 0 1-.765-.776 2.24 2.24 0 0 1-.318-1.025V25.793l15.2 8.468c1.244.69 2.264 2.385 2.264 3.767Z"/><path opacity=".54" d="M72.74 38.058V53.32l-11.364-6.301-4.927-2.732a2.337 2.337 0 0 1-.764-.772 2.23 2.23 0 0 1-.32-1.02V25.89l15.118 8.417c1.242.694 2.257 2.379 2.257 3.752Z"/><path opacity=".56" d="M72.644 38.083v15.176l-11.301-6.254-4.908-2.717a2.322 2.322 0 0 1-.757-.768 2.215 2.215 0 0 1-.314-1.013V25.992l15.033 8.379c1.239.682 2.247 2.352 2.247 3.712Z"/><path opacity=".59" d="M72.544 38.118v15.093l-11.238-6.23-4.874-2.693a2.315 2.315 0 0 1-.753-.764 2.208 2.208 0 0 1-.313-1.008V26.092l14.95 8.331c1.23.669 2.228 2.337 2.228 3.695Z"/><path opacity=".61" d="M72.455 38.149v15.01l-11.177-6.2-4.848-2.693a2.298 2.298 0 0 1-.744-.76 2.192 2.192 0 0 1-.308-1v-16.33l14.868 8.286c1.211.676 2.209 2.335 2.209 3.687Z"/><path opacity=".63" d="M72.37 38.18v14.925l-11.116-6.163-4.82-2.672a2.289 2.289 0 0 1-.743-.756 2.184 2.184 0 0 1-.31-.997V26.275l14.787 8.24c1.2.671 2.201 2.32 2.201 3.664Z"/><path opacity=".66" d="M72.265 38.21v14.84l-11.053-6.127-4.795-2.658a2.268 2.268 0 0 1-.742-.75 2.164 2.164 0 0 1-.31-.99V26.372l14.704 8.193c1.21.667 2.196 2.307 2.196 3.643Z"/><path opacity=".68" d="M72.17 38.24v14.756l-10.99-6.092-4.768-2.643a2.264 2.264 0 0 1-.734-.747 2.16 2.16 0 0 1-.307-.985V26.467l14.62 8.146c1.198.665 2.178 2.291 2.178 3.626Z"/><path opacity=".71" d="M72.074 38.268v14.676l-10.927-6.06-4.733-2.626a2.248 2.248 0 0 1-.732-.744c-.18-.3-.284-.635-.304-.98v-15.97l14.537 8.101c1.185.66 2.16 2.281 2.16 3.603Z"/><path opacity=".73" d="M71.98 38.3v14.598l-10.868-6.025L56.4 44.26a2.23 2.23 0 0 1-.728-.737 2.127 2.127 0 0 1-.303-.975V26.67l14.454 8.055c1.187.648 2.157 2.261 2.157 3.574Z"/><path opacity=".76" d="M71.885 38.328v14.508l-10.805-5.99-4.685-2.597a2.229 2.229 0 0 1-.723-.735 2.126 2.126 0 0 1-.3-.969V26.758l14.373 8.008c1.176.653 2.14 2.256 2.14 3.562Z"/><path opacity=".78" d="M71.789 38.358v14.424l-10.74-5.946-4.66-2.584a2.206 2.206 0 0 1-.717-.726 2.105 2.105 0 0 1-.3-.957V26.853l14.289 7.963c1.17.65 2.128 2.243 2.128 3.542Z"/><path opacity=".8" d="M71.694 38.39v14.34l-10.679-5.922-4.63-2.568a2.191 2.191 0 0 1-.716-.725 2.09 2.09 0 0 1-.298-.958V26.95l14.199 7.913c1.172.651 2.124 2.235 2.124 3.526Z"/><path opacity=".83" d="M71.6 38.42v14.257l-10.618-5.892-4.605-2.552a2.19 2.19 0 0 1-.71-.722 2.088 2.088 0 0 1-.296-.951V27.045l14.123 7.87c1.159.643 2.105 2.22 2.105 3.505Z"/><path opacity=".85" d="M71.505 38.45v14.173l-10.556-5.851-4.577-2.54a2.17 2.17 0 0 1-.707-.716 2.07 2.07 0 0 1-.294-.946V27.14l14.04 7.825c1.152.642 2.094 2.207 2.094 3.485Z"/><path opacity=".88" d="M71.41 38.48v14.09l-10.493-5.818-4.557-2.525a2.158 2.158 0 0 1-.703-.714 2.057 2.057 0 0 1-.291-.941v-15.33l13.958 7.778c1.15.634 2.086 2.192 2.086 3.46Z"/><path opacity=".9" d="M71.317 38.51v14.008l-10.43-5.785-4.524-2.506a2.146 2.146 0 0 1-.698-.71 2.048 2.048 0 0 1-.29-.935V27.34l13.875 7.732c1.133.63 2.067 2.17 2.067 3.438Z"/><path opacity=".93" d="M71.219 38.54v13.924l-10.368-5.75-4.496-2.493a2.13 2.13 0 0 1-.695-.704 2.03 2.03 0 0 1-.289-.93V27.435l13.792 7.686c1.13.627 2.056 2.164 2.056 3.419Z"/><path opacity=".95" d="M71.124 38.57v13.84l-10.307-5.714-4.47-2.478a2.12 2.12 0 0 1-.689-.7 2.023 2.023 0 0 1-.287-.925v-15.06l13.71 7.64c1.123.621 2.043 2.151 2.043 3.397Z"/><path opacity=".98" d="M71.03 38.6v13.756l-10.244-5.687-4.444-2.463a2.103 2.103 0 0 1-.686-.696 2.005 2.005 0 0 1-.285-.918V27.629l13.627 7.592c1.117.62 2.032 2.14 2.032 3.379Z"/><path opacity=".3" d="M70.933 38.63v13.673l-10.18-5.646-4.416-2.448a2.095 2.095 0 0 1-.682-.691 1.998 1.998 0 0 1-.284-.913V27.727l13.545 7.546c1.11.622 2.017 2.125 2.017 3.357Z"/></g><path d="m43.993 85.617-21.21-11.842v-1.257l10.358-4.72 21.494 10.66v1.258l-10.642 5.9Z" fill="#C2CAE8"/><path d="m43.993 84.359-21.21-11.842 10.358-5.978 21.494 11.919-10.642 5.9Z" fill="#EFF4FE"/><path d="m48.704 80.312.072-25c0-1.54-1.13-3.432-2.512-4.21L34.062 44.25c-1.383-.778-2.514-.155-2.514 1.384v25.69L47.324 80.9l1.38-.588Z" fill="#D6DCEF"/><path d="M47.324 80.9V55.31c0-1.538-1.131-3.43-2.514-4.208l-12.202-6.854c-1.381-.778-2.512-.155-2.512 1.384v25.69L47.324 80.9Z" fill="#EFF4FE"/><path opacity=".3" d="m44.81 51.103-12.202-6.854c-1.381-.778-2.512-.155-2.512 1.384v20.239l17.228 9.577V55.31c0-1.538-1.131-3.424-2.514-4.208Z" fill="#99A7D8"/><path d="M10.46 4.95a2.53 2.53 0 0 0-.63.845 2.44 2.44 0 0 0-.225 1.017v41.944c0 1.538 1.135 3.425 2.521 4.195l55.365 30.79c.701.393 1.73.54 2.454.194l.393-.187c.337-.16.62-.409.818-.716.199-.307.304-.661.304-1.023V39.343c0-1.537-1.134-3.424-2.52-4.193L14.073 4.576a3.184 3.184 0 0 0-3.613.374Z" fill="#5B8BCA"/><path d="M12.126 5.29c-1.386-.767-2.52-.14-2.52 1.4v42.19c0 1.537 1.134 3.425 2.52 4.194L67.488 83.77c1.386.77 2.52.14 2.52-1.397V40.182c0-1.539-1.134-3.426-2.52-4.195L12.126 5.29Z" fill="#326EBD"/><path d="M12.082 10.317V40.84L65.11 69.984a1.743 1.743 0 0 0 1.685-.005c.256-.142.468-.347.616-.593.147-.246.225-.525.225-.809V40.831c0-.51-.14-1.013-.408-1.454a2.955 2.955 0 0 0-1.115-1.06L13.37 9.595a.89.89 0 0 0-.86.005.846.846 0 0 0-.314.304.804.804 0 0 0-.114.414Z" fill="#26538E"/><path d="m12.126 53.075 55.362 30.697c1.386.77 2.52.14 2.52-1.398v-6.787L9.614 42v6.882c0 1.537 1.126 3.424 2.512 4.194Z" fill="#EFF4FE"/><path d="M10.688 17.692v31.942l8.887-4.837V12.998l-8.887 4.694Z" fill="#FC7318"/><path d="m10.688 49.634-4.701-2.608v-31.94l4.701 2.606v31.942Z" fill="#FD8F46"/><path d="m19.575 12.998-5.04-2.732-8.548 4.82 4.701 2.605 8.887-4.693Z" fill="#FDAB74"/><path d="m19.25 12.961-4.628-2.508-7.967 4.468 4.318 2.394 8.277-4.354Z" fill="#fff"/><path d="M32.699 20.172v31.942l11.765-6.458V26.53L32.7 20.172Z" fill="#26538E"/><path d="M37.472 38.679V70.46L51.8 62.515V30.443L37.472 38.68Z" fill="#FEB423"/><path d="m37.47 70.46-6.816-3.701v-31.78l6.817 3.7V70.46Z" fill="#FEC34F"/><path d="m51.799 30.444-7.152-3.825-13.993 8.36 6.817 3.7 14.328-8.235Z" fill="#FED27B"/><path d="m51.479 30.409-6.487-3.604-13.415 8.008 6.177 3.491 13.725-7.895Z" fill="#fff"/><path d="M54.143 44.533v31.942l11.765-6.458v-31.8l-11.765 6.316Z" fill="#326EBD"/><path d="m54.143 76.475-4.701-2.607V41.926l4.701 2.607v31.942Z" fill="#5B8BCA"/><path d="m65.909 38.217-5.042-2.73-11.425 6.439 4.701 2.607 11.766-6.316Z" fill="#84A8D7"/><path d="m65.585 38.18-4.63-2.508L50.11 41.76l4.318 2.394 11.157-5.975Z" fill="#fff"/><g opacity=".3" fill="#BD5612"><path opacity=".02" d="m42.394 94.787 8.414 4.664c.126.07.23.171.303.292a.767.767 0 0 1-.005.796.81.81 0 0 1-.307.288l-8.414 4.545a1.786 1.786 0 0 1-1.697 0l-8.422-4.545a.807.807 0 0 1-.305-.29.768.768 0 0 1 0-.796.809.809 0 0 1 .305-.29l8.413-4.664a1.786 1.786 0 0 1 1.715 0Z"/><path opacity=".04" d="m42.394 94.817 8.374 4.643c.125.069.23.168.303.288a.764.764 0 0 1 0 .792.799.799 0 0 1-.303.288l-8.383 4.532a1.78 1.78 0 0 1-1.688 0l-8.38-4.532a.799.799 0 0 1-.303-.288.765.765 0 0 1 0-.792.806.806 0 0 1 .303-.288l8.371-4.643a1.777 1.777 0 0 1 1.706 0Z"/><path opacity=".06" d="m42.382 94.84 8.332 4.62a.8.8 0 0 1 .3.287.76.76 0 0 1 0 .787.792.792 0 0 1-.3.287l-8.34 4.51a1.763 1.763 0 0 1-.84.211c-.294 0-.583-.072-.84-.211l-8.34-4.51a.795.795 0 0 1-.303-.285.762.762 0 0 1-.005-.787.802.802 0 0 1 .3-.29l8.333-4.619a1.76 1.76 0 0 1 1.703 0Z"/><path opacity=".08" d="m42.38 94.866 8.289 4.597a.797.797 0 0 1 .3.286.755.755 0 0 1 0 .784.795.795 0 0 1-.3.285l-8.3 4.487a1.756 1.756 0 0 1-1.67 0l-8.297-4.487a.797.797 0 0 1-.303-.283.759.759 0 0 1 .294-1.072l8.291-4.597a1.755 1.755 0 0 1 1.695 0Z"/><path opacity=".1" d="m42.374 94.89 8.25 4.575a.793.793 0 0 1 .298.284.754.754 0 0 1 0 .778.79.79 0 0 1-.297.285l-8.258 4.466a1.75 1.75 0 0 1-1.662 0l-8.26-4.465a.792.792 0 0 1-.296-.284.759.759 0 0 1 .297-1.063l8.249-4.573a1.748 1.748 0 0 1 1.679-.002Z"/><path opacity=".12" d="m42.371 94.915 8.209 4.545a.788.788 0 0 1 .3.285.746.746 0 0 1-.006.781.788.788 0 0 1-.303.281l-8.216 4.445a1.76 1.76 0 0 1-1.654 0l-8.218-4.445a.784.784 0 0 1-.301-.283.746.746 0 0 1 0-.78.788.788 0 0 1 .301-.284l8.209-4.545a1.747 1.747 0 0 1 1.68 0Z"/><path opacity=".14" d="m42.365 94.942 8.169 4.529a.786.786 0 0 1 .294.282.746.746 0 0 1 0 .771.786.786 0 0 1-.294.282l-8.178 4.421a1.741 1.741 0 0 1-1.646 0l-8.175-4.421a.785.785 0 0 1-.296-.281.748.748 0 0 1 .296-1.054l8.167-4.529a1.732 1.732 0 0 1 1.663 0Z"/><path opacity=".16" d="m42.36 94.968 8.127 4.506a.782.782 0 0 1 .294.28.74.74 0 0 1 0 .768.783.783 0 0 1-.294.281l-8.135 4.398a1.724 1.724 0 0 1-1.637 0l-8.139-4.398a.777.777 0 0 1-.296-.279.74.74 0 0 1-.005-.768.78.78 0 0 1 .293-.282l8.128-4.506a1.722 1.722 0 0 1 1.665 0Z"/><path opacity=".18" d="m42.359 94.993 8.084 4.484a.776.776 0 0 1 .294.279.738.738 0 0 1 0 .765.775.775 0 0 1-.294.278l-8.093 4.377a1.71 1.71 0 0 1-1.63 0l-8.095-4.377a.782.782 0 0 1-.292-.279.738.738 0 0 1 0-.764.777.777 0 0 1 .292-.279l8.086-4.484a1.719 1.719 0 0 1 1.648 0Z"/><path opacity=".2" d="m42.353 95.02 8.046 4.461c.12.067.22.164.289.28a.734.734 0 0 1-.005.759.772.772 0 0 1-.293.276l-8.052 4.354a1.703 1.703 0 0 1-1.622 0l-8.053-4.354a.774.774 0 0 1-.29-.277.737.737 0 0 1 .29-1.038l8.044-4.46a1.7 1.7 0 0 1 1.646 0Z"/><path opacity=".22" d="m42.35 95.045 8.004 4.437c.12.066.22.162.29.277a.73.73 0 0 1 0 .757.77.77 0 0 1-.29.276l-8.013 4.332a1.697 1.697 0 0 1-1.613 0l-8.012-4.332a.77.77 0 0 1-.29-.276.733.733 0 0 1 0-.757.77.77 0 0 1 .29-.277l8.004-4.437a1.703 1.703 0 0 1 1.63 0Z"/><path opacity=".24" d="m42.343 95.071 7.964 4.416c.12.065.219.16.288.274a.726.726 0 0 1 0 .753.763.763 0 0 1-.288.274l-7.97 4.31a1.695 1.695 0 0 1-1.606 0l-7.97-4.31a.765.765 0 0 1-.29-.274.723.723 0 0 1 0-.753.763.763 0 0 1 .29-.274l7.961-4.416a1.694 1.694 0 0 1 1.621 0Z"/><path opacity=".25" d="m42.34 95.098 7.922 4.392c.119.065.218.159.287.273a.722.722 0 0 1 0 .749.76.76 0 0 1-.287.273l-7.93 4.287a1.678 1.678 0 0 1-1.597 0l-7.929-4.287a.767.767 0 0 1-.286-.274.72.72 0 0 1 0-.748.762.762 0 0 1 .286-.273l7.923-4.392a1.677 1.677 0 0 1 1.611 0Z"/><path opacity=".27" d="m42.337 95.122 7.88 4.377a.757.757 0 0 1 .285.272.717.717 0 0 1 0 .744.754.754 0 0 1-.286.272l-7.888 4.266a1.671 1.671 0 0 1-.794.199 1.67 1.67 0 0 1-.794-.199l-7.888-4.266a.76.76 0 0 1-.284-.272.72.72 0 0 1 0-.744.76.76 0 0 1 .284-.272l7.888-4.377a1.672 1.672 0 0 1 1.597 0Z"/><path opacity=".29" d="m42.332 95.153 7.84 4.349a.755.755 0 0 1 .284.27.715.715 0 0 1 0 .741.762.762 0 0 1-.283.27l-7.848 4.242a1.663 1.663 0 0 1-1.578 0l-7.847-4.242a.762.762 0 0 1-.284-.27.72.72 0 0 1 .284-1.011l7.839-4.349a1.664 1.664 0 0 1 1.593 0Z"/><path opacity=".31" d="m42.328 95.174 7.799 4.323a.753.753 0 0 1 .281.27.714.714 0 0 1 0 .737.748.748 0 0 1-.281.269l-7.808 4.221a1.661 1.661 0 0 1-1.577 0l-7.814-4.221a.75.75 0 0 1-.283-.269.71.71 0 0 1 0-.738.75.75 0 0 1 .282-.269l7.8-4.323a1.646 1.646 0 0 1 1.601 0Z"/><path opacity=".33" d="m42.323 95.199 7.759 4.3a.747.747 0 0 1 .28.269.71.71 0 0 1-.28 1.001l-7.766 4.199a1.646 1.646 0 0 1-1.563 0l-7.766-4.199a.75.75 0 0 1-.28-.267.71.71 0 0 1 0-.734.748.748 0 0 1 .28-.268l7.757-4.301a1.648 1.648 0 0 1 1.58 0Z"/><path opacity=".35" d="m42.32 95.225 7.713 4.28a.74.74 0 0 1 .279.266.702.702 0 0 1 0 .729.744.744 0 0 1-.28.266l-7.724 4.176a1.628 1.628 0 0 1-1.555 0l-7.725-4.176a.745.745 0 0 1-.28-.266.706.706 0 0 1 .28-.995l7.713-4.28a1.639 1.639 0 0 1 1.58 0Z"/><path opacity=".37" d="m42.317 95.252 7.676 4.256c.114.064.21.155.275.266a.7.7 0 0 1-.005.725.741.741 0 0 1-.279.263l-7.683 4.155a1.633 1.633 0 0 1-1.546 0l-7.685-4.155a.74.74 0 0 1-.277-.265.7.7 0 0 1 0-.725.74.74 0 0 1 .277-.264l7.676-4.256a1.628 1.628 0 0 1 1.57 0Z"/><path opacity=".39" d="m42.31 95.276 7.636 4.234c.115.063.21.154.277.263a.695.695 0 0 1 0 .722.74.74 0 0 1-.277.263l-7.642 4.133a1.63 1.63 0 0 1-1.54 0l-7.642-4.133a.74.74 0 0 1-.277-.263.697.697 0 0 1 0-.722c.066-.11.162-.2.277-.263l7.634-4.234a1.617 1.617 0 0 1 1.554 0Z"/><path opacity=".41" d="m42.307 95.302 7.593 4.209a.732.732 0 0 1 .275.262.694.694 0 0 1 0 .718.728.728 0 0 1-.275.262l-7.602 4.11a1.614 1.614 0 0 1-1.53 0l-7.6-4.11a.727.727 0 0 1-.275-.262.694.694 0 0 1 0-.718c.066-.109.16-.2.274-.262l7.594-4.209a1.61 1.61 0 0 1 1.546 0Z"/><path opacity=".43" d="m42.302 95.33 7.553 4.186a.729.729 0 0 1 .273.261.69.69 0 0 1 0 .714.722.722 0 0 1-.273.261l-7.56 4.087a1.596 1.596 0 0 1-1.522 0l-7.562-4.087a.722.722 0 0 1-.273-.261.687.687 0 0 1 0-.714.728.728 0 0 1 .273-.26l7.553-4.187a1.594 1.594 0 0 1 1.538 0Z"/><path opacity=".45" d="m42.298 95.355 7.511 4.164a.723.723 0 0 1 .273.26.686.686 0 0 1 0 .71.716.716 0 0 1-.273.259l-7.518 4.066c-.23.125-.492.19-.757.19s-.526-.065-.757-.19l-7.52-4.066a.721.721 0 0 1-.271-.259.69.69 0 0 1 .27-.97l7.514-4.165a1.594 1.594 0 0 1 1.528 0Z"/><path opacity=".47" d="m42.296 95.38 7.47 4.144c.113.061.206.15.27.257a.68.68 0 0 1 0 .706.716.716 0 0 1-.27.257l-7.48 4.041a1.587 1.587 0 0 1-1.505 0l-7.478-4.041a.717.717 0 0 1-.27-.257.68.68 0 0 1 0-.706.718.718 0 0 1 .27-.257l7.471-4.143a1.588 1.588 0 0 1 1.522 0Z"/><path opacity=".49" d="m42.29 95.406 7.43 4.123c.112.061.205.15.27.256a.678.678 0 0 1 0 .702.718.718 0 0 1-.27.256l-7.437 4.022a1.581 1.581 0 0 1-1.497 0l-7.437-4.022a.714.714 0 0 1-.27-.256.674.674 0 0 1 0-.702.712.712 0 0 1 .27-.256l7.429-4.12a1.573 1.573 0 0 1 1.512-.003Z"/><path opacity=".51" d="m42.287 95.432 7.389 4.097a.71.71 0 0 1 .267.255.672.672 0 0 1 0 .698.715.715 0 0 1-.267.255l-7.396 3.999a1.567 1.567 0 0 1-1.49 0l-7.395-3.999a.715.715 0 0 1-.268-.255.67.67 0 0 1 0-.698.709.709 0 0 1 .268-.255l7.388-4.097a1.565 1.565 0 0 1 1.504 0Z"/><path opacity=".53" d="m42.281 95.458 7.349 4.074c.11.06.202.148.265.254a.671.671 0 0 1 0 .695.706.706 0 0 1-.266.253l-7.362 3.976a1.55 1.55 0 0 1-1.48 0l-7.363-3.976a.706.706 0 0 1-.266-.253.674.674 0 0 1 .266-.949l7.348-4.074a1.557 1.557 0 0 1 1.51 0Z"/><path opacity=".55" d="m42.277 95.489 7.302 4.04c.11.06.2.147.264.252a.667.667 0 0 1 0 .691.7.7 0 0 1-.264.252l-7.315 3.955a1.554 1.554 0 0 1-1.472 0l-7.315-3.955a.7.7 0 0 1-.264-.252.668.668 0 0 1 0-.691.704.704 0 0 1 .264-.252l7.308-4.052a1.557 1.557 0 0 1 1.492.011Z"/><path opacity=".57" d="m42.273 95.51 7.266 4.029a.7.7 0 0 1 .262.25.666.666 0 0 1-.262.938l-7.273 3.933a1.54 1.54 0 0 1-1.465 0l-7.273-3.933a.696.696 0 0 1-.262-.251.661.661 0 0 1 0-.686.7.7 0 0 1 .262-.251l7.266-4.029a1.544 1.544 0 0 1 1.48 0Z"/><path opacity=".59" d="m42.269 95.534 7.225 4.007c.11.058.201.144.265.247a.653.653 0 0 1 0 .684.684.684 0 0 1-.265.247l-7.232 3.911a1.535 1.535 0 0 1-1.457 0l-7.23-3.911a.684.684 0 0 1-.265-.247.652.652 0 0 1 0-.684.689.689 0 0 1 .265-.247l7.225-4.007a1.532 1.532 0 0 1 1.469 0Z"/><path opacity=".61" d="m42.265 95.56 7.187 3.985c.11.059.2.144.264.248a.653.653 0 0 1 0 .684.691.691 0 0 1-.264.247l-7.187 3.889a1.528 1.528 0 0 1-1.448 0l-7.187-3.889a.691.691 0 0 1-.264-.247.655.655 0 0 1 .264-.932l7.187-3.984a1.527 1.527 0 0 1 1.448 0Z"/><path opacity=".63" d="m42.26 95.588 7.145 3.96a.688.688 0 0 1 .258.246.654.654 0 0 1 0 .675.687.687 0 0 1-.258.247l-7.152 3.872a1.523 1.523 0 0 1-1.44 0l-7.15-3.872a.686.686 0 0 1-.257-.247.654.654 0 0 1 .258-.922l7.143-3.96a1.51 1.51 0 0 1 1.453 0Z"/><path opacity=".65" d="m42.257 95.612 7.1 3.937c.106.06.194.145.255.246a.654.654 0 0 1-.254.916l-7.11 3.843a1.494 1.494 0 0 1-1.43 0l-7.115-3.846a.692.692 0 0 1-.254-.247.649.649 0 0 1 0-.669.686.686 0 0 1 .254-.246l7.102-3.938a1.502 1.502 0 0 1 1.452.004Z"/><path opacity=".67" d="m42.252 95.637 7.06 3.916c.105.06.19.144.25.245a.654.654 0 0 1 0 .664.69.69 0 0 1-.25.246l-7.067 3.821a1.491 1.491 0 0 1-.712.179c-.249 0-.494-.061-.711-.179l-7.068-3.821a.69.69 0 0 1-.25-.246.653.653 0 0 1 0-.664.686.686 0 0 1 .25-.245l7.06-3.916a1.506 1.506 0 0 1 1.438 0Z"/><path opacity=".69" d="m42.249 95.658 7.02 3.892a.677.677 0 0 1 .254.242.641.641 0 0 1 0 .664.682.682 0 0 1-.254.242l-7.027 3.8a1.496 1.496 0 0 1-1.415 0l-7.034-3.79a.674.674 0 0 1-.254-.242.641.641 0 0 1 0-.664c.061-.1.148-.184.254-.242l7.011-3.892a1.488 1.488 0 0 1 1.445-.01Z"/><path opacity=".71" d="m42.243 95.69 6.979 3.871c.105.057.192.14.253.24a.634.634 0 0 1 0 .66.669.669 0 0 1-.253.24l-6.986 3.778a1.483 1.483 0 0 1-1.402 0l-6.997-3.771a.67.67 0 0 1-.254-.24.638.638 0 0 1 .254-.9l6.978-3.872a1.481 1.481 0 0 1 1.428-.007Z"/><path opacity=".73" d="m42.239 95.716 6.938 3.848c.104.057.19.14.25.239a.633.633 0 0 1-.25.894l-6.945 3.756a1.472 1.472 0 0 1-.702.176c-.245 0-.487-.06-.7-.176l-6.946-3.756a.664.664 0 0 1-.25-.239.628.628 0 0 1 0-.655c.06-.1.146-.182.25-.239l6.938-3.848a1.472 1.472 0 0 1 1.417 0Z"/><path opacity=".75" d="m42.235 95.742 6.898 3.823c.103.057.189.14.249.238a.631.631 0 0 1-.25.89l-6.915 3.732a1.46 1.46 0 0 1-1.39 0l-6.902-3.732a.665.665 0 0 1-.25-.238.629.629 0 0 1 0-.652.664.664 0 0 1 .25-.238l6.89-3.823a1.446 1.446 0 0 1 1.42 0Z"/><path opacity=".76" d="m42.232 95.767 6.856 3.801a.66.66 0 0 1 .248.237.626.626 0 0 1 0 .648.663.663 0 0 1-.248.237l-6.863 3.703a1.442 1.442 0 0 1-1.381 0l-6.864-3.703a.667.667 0 0 1-.248-.237.627.627 0 0 1 0-.648.66.66 0 0 1 .248-.237l6.855-3.801a1.46 1.46 0 0 1 1.397 0Z"/><path opacity=".78" d="m42.227 95.792 6.815 3.78a.655.655 0 0 1 .247.235.623.623 0 0 1 0 .644.654.654 0 0 1-.247.235l-6.824 3.689a1.45 1.45 0 0 1-1.374 0l-6.822-3.689a.654.654 0 0 1-.247-.235.622.622 0 0 1 0-.644.655.655 0 0 1 .247-.235l6.815-3.78a1.448 1.448 0 0 1 1.39 0Z"/><path opacity=".8" d="m42.218 95.825 6.774 3.756a.651.651 0 0 1 .245.234.62.62 0 0 1 0 .64.656.656 0 0 1-.245.234l-6.773 3.658a1.433 1.433 0 0 1-1.366 0l-6.78-3.665a.648.648 0 0 1-.245-.234.616.616 0 0 1 0-.64.651.651 0 0 1 .245-.234l6.775-3.755a1.435 1.435 0 0 1 1.37.006Z"/><path opacity=".82" d="m42.217 95.844 6.733 3.734a.645.645 0 0 1 .244.232.611.611 0 0 1 0 .636.644.644 0 0 1-.244.232l-6.74 3.644a1.428 1.428 0 0 1-1.357 0l-6.74-3.644a.657.657 0 0 1-.243-.232.615.615 0 0 1 .244-.868l6.732-3.734a1.428 1.428 0 0 1 1.371 0Z"/><path opacity=".84" d="m42.219 95.87 6.692 3.703c.1.055.184.135.243.231a.61.61 0 0 1 0 .633.645.645 0 0 1-.243.231l-6.698 3.622a1.425 1.425 0 0 1-1.35 0l-6.708-3.616a.643.643 0 0 1-.242-.23.613.613 0 0 1 .242-.864l6.693-3.704a1.419 1.419 0 0 1 1.37-.006Z"/><path opacity=".86" d="m42.218 95.896 6.65 3.687c.1.055.183.134.24.23a.608.608 0 0 1 0 .628.645.645 0 0 1-.24.229l-6.661 3.6a1.418 1.418 0 0 1-1.341 0l-6.66-3.6a.644.644 0 0 1-.241-.229.609.609 0 0 1 .24-.858l6.65-3.687a1.405 1.405 0 0 1 1.363 0Z"/><path opacity=".88" d="m42.205 95.922 6.61 3.665a.637.637 0 0 1 .239.228.603.603 0 0 1 0 .624.631.631 0 0 1-.239.228l-6.622 3.576a1.402 1.402 0 0 1-1.332 0l-6.617-3.577a.638.638 0 0 1-.24-.228.606.606 0 0 1 .24-.853l6.61-3.665a1.404 1.404 0 0 1 1.351.002Z"/><path opacity=".9" d="m42.202 95.947 6.568 3.643a.63.63 0 0 1 .238.226.6.6 0 0 1 0 .622.633.633 0 0 1-.238.226l-6.577 3.555c-.202.11-.43.167-.662.167-.232 0-.46-.057-.661-.167l-6.575-3.555a.633.633 0 0 1-.239-.226.602.602 0 0 1 .239-.848l6.57-3.643a1.398 1.398 0 0 1 1.337 0Z"/><path opacity=".92" d="m42.197 95.974 6.528 3.62c.098.053.18.131.236.225a.595.595 0 0 1 0 .617.627.627 0 0 1-.236.225l-6.535 3.535c-.2.11-.427.167-.657.167-.23 0-.457-.057-.657-.167l-6.535-3.535a.627.627 0 0 1-.236-.225.596.596 0 0 1 0-.617.627.627 0 0 1 .236-.225l6.527-3.62a1.381 1.381 0 0 1 1.33 0Z"/><path opacity=".94" d="m42.194 95.993 6.486 3.598c.097.053.178.13.234.223a.591.591 0 0 1 0 .613.62.62 0 0 1-.234.223l-6.486 3.512a1.386 1.386 0 0 1-1.307 0l-6.495-3.512a.62.62 0 0 1-.234-.223.592.592 0 0 1 0-.613.622.622 0 0 1 .234-.223l6.486-3.597a1.373 1.373 0 0 1 1.316 0Z"/><path opacity=".96" d="m42.19 96.025 6.446 3.574a.62.62 0 0 1 .233.222.588.588 0 0 1 0 .61.624.624 0 0 1-.233.222l-6.455 3.49a1.38 1.38 0 0 1-1.298 0l-6.453-3.49a.624.624 0 0 1-.233-.222.59.59 0 0 1 .233-.832l6.446-3.574a1.368 1.368 0 0 1 1.314 0Z"/><path opacity=".98" d="m42.186 96.052 6.405 3.55a.615.615 0 0 1 .231.221.585.585 0 0 1 0 .606.618.618 0 0 1-.231.221l-6.412 3.466a1.351 1.351 0 0 1-1.29 0l-6.413-3.466a.618.618 0 0 1-.231-.221.584.584 0 0 1 0-.606.615.615 0 0 1 .231-.22l6.405-3.55a1.347 1.347 0 0 1 1.305 0Z"/><path opacity=".3" d="m42.18 96.077 6.363 3.535a.612.612 0 0 1 .23.22.582.582 0 0 1-.23.82l-6.37 3.445a1.348 1.348 0 0 1-.641.161c-.225 0-.446-.055-.642-.161l-6.37-3.445a.61.61 0 0 1-.23-.219.58.58 0 0 1 0-.602.613.613 0 0 1 .23-.219l6.365-3.535a1.351 1.351 0 0 1 1.295 0Z"/></g><path d="m42.269 95.395 7.581 3.282v1.207c0 .14-.039.277-.112.398a.805.805 0 0 1-.305.289l-7.187 3.923a1.535 1.535 0 0 1-1.457 0l-7.157-3.872a.81.81 0 0 1-.306-.29.771.771 0 0 1-.113-.399v-1.11l7.562-3.427a1.526 1.526 0 0 1 1.494-.001Z" fill="#BD5612"/><path d="m42.27 94.076 7.226 4.008c.11.058.201.144.265.247a.653.653 0 0 1 0 .684.689.689 0 0 1-.265.247l-7.234 3.911a1.523 1.523 0 0 1-.728.184c-.255 0-.506-.063-.728-.184l-7.233-3.91a.689.689 0 0 1-.264-.248.653.653 0 0 1 0-.684.689.689 0 0 1 .264-.247l7.225-4.008a1.534 1.534 0 0 1 1.471 0Z" fill="#FC7318"/><path d="M40.502 98.826c-.526-.288-.817-.72-.817-1.179 0-.46.298-.894.817-1.178.896-.505 2.3-.505 3.194 0 .526.288.817.719.817 1.178 0 .46-.298.896-.817 1.178-.49.254-1.04.382-1.597.373a3.348 3.348 0 0 1-1.597-.372Zm2.66-.891c.192-.108.28-.224.28-.291 0-.068-.088-.186-.28-.293a2.512 2.512 0 0 0-2.125 0c-.193.108-.28.224-.28.293 0 .069.087.183.28.29a2.512 2.512 0 0 0 2.124 0ZM40.524 101.791a.55.55 0 0 0 .294-.084.52.52 0 0 0 .197-.226l.605-1.335a.495.495 0 0 0 .004-.391.525.525 0 0 0-.283-.282.557.557 0 0 0-.408-.005.527.527 0 0 0-.293.27l-.605 1.338a.494.494 0 0 0-.005.391.525.525 0 0 0 .494.324Z" fill="#fff"/><path d="M64.038 76.932c.378.237.693.556.919.932.226.375.356.796.382 1.23L65.3 91.245c0 .203-.067.4-.19.565a1.01 1.01 0 0 1-.497.353l-.701.229c-.214.05.414-.505.133-.663l-24.09-13.357a2.772 2.772 0 0 1-.911-.933 2.643 2.643 0 0 1-.368-1.229l.159-11.808c0-.267-.517-.313-.517-.313l.603-.224a2.056 2.056 0 0 1 1.702.125l23.415 12.94Z" fill="#26538E"/><path d="M62.989 77.51c.378.236.692.556.918.931.226.376.357.797.382 1.23v11.917c0 .791-.585 1.116-1.3.72L38.899 78.95a2.764 2.764 0 0 1-.913-.932 2.635 2.635 0 0 1-.367-1.23l.158-11.807c.01-.791.605-1.116 1.32-.72l23.892 13.248Z" fill="#326EBD"/><path d="m54.395 76.32-.005 1.1-14.027-7.808v-1.128l14.032 7.835ZM54.395 78.983l-.005 1.101-14.027-7.808v-1.128l14.032 7.835ZM54.395 81.645l-.005 1.101-14.027-7.807V73.81l14.032 7.834ZM54.397 84.386l-.006 1.103-8-4.404v-1.128l8.006 4.43Z" fill="#26538E"/><path d="M60.902 78.03 58.78 76.85a1.589 1.589 0 0 0-1.564 0 1.52 1.52 0 0 0-.574.548 1.44 1.44 0 0 0-.207.752v7.67l.864 1 .576-.278v-3.847l2.83 1.583v3.917l.866 1.076.575-.276v-8.89c0-.421-.115-.834-.334-1.199a2.448 2.448 0 0 0-.911-.877Zm-3.026 3.06v-2.94a.113.113 0 0 1 .061-.101.116.116 0 0 1 .123 0l2.121 1.18c.16.088.293.215.385.368a.98.98 0 0 1 .141.503v2.573l-2.83-1.583Z" fill="#D6DCEF"/><path d="m60.325 78.305-2.12-1.178a1.603 1.603 0 0 0-1.565 0 1.52 1.52 0 0 0-.575.549 1.442 1.442 0 0 0-.207.752v7.669l1.441.724v-3.857l2.831 1.584v3.917l1.441.798v-8.889a2.326 2.326 0 0 0-.336-1.194 2.452 2.452 0 0 0-.91-.875Zm-3.033 3.06V78.43c0-.02.005-.042.015-.06a.115.115 0 0 1 .047-.043.126.126 0 0 1 .124 0l2.12 1.179c.16.088.292.216.384.37a.98.98 0 0 1 .141.503v2.573l-2.83-1.588Z" fill="#fff"/><path d="M17.84 24.695v31.942l11.765-6.458v-31.8L17.84 24.695Z" fill="#244878"/><path d="m17.84 56.638-4.702-2.608V22.088l4.701 2.608v31.942Z" fill="#326EBD"/><path d="m29.605 18.379-5.041-2.73-11.426 6.439 4.701 2.607 11.766-6.316Z" fill="#5B8BCA"/><path d="m29.28 18.342-4.63-2.508-10.845 6.087 4.317 2.396 11.158-5.975Z" fill="#fff"/><path d="m15.046 98.166-.074 1.08 1.73 3.735 1.783 1.136 1.393-.587-.14-.977-.838-.018-2.184-2.483.084-1.832-1.754-.054Z" fill="#E7AD99"/><path d="M14.972 99.246c-.228.183-.4.42-.5.688a1.54 1.54 0 0 0-.07.837l.863 4.413h.543l-.25-2.648h.25l.46 1.484s.411.505 1.431.674a1.524 1.524 0 0 0 1.108-.266l1.623-.972a.526.526 0 0 0 .265-.459.42.42 0 0 0-.127-.3.453.453 0 0 0-.31-.129l-1.358-.031s.919.281.375.722c-.265.073-.535.13-.808.169a.702.702 0 0 1-.645-.276c-.471-.65-1.642-2.335-1.975-3.519a.504.504 0 0 0-.185-.277.54.54 0 0 0-.324-.108l-.366-.002Z" fill="#212121"/><path d="M15.886 98.39h-.063c-.922-.031-1.14.028-1.108-.858l.037-.818a21.768 21.768 0 0 0-.301-4.7 8.957 8.957 0 0 1 .247-4.12l.124-.412c-.359-.673-.578-1.402-.643-3.772l-.398-4.588-.407-.74a5.542 5.542 0 0 1-.698-2.75c.01-.958.271-1.898.758-2.734.256-.429.526-.732.77-.756.916-.082 4.867 1.226 5.242 3.65l.176.674c.234.894.269 1.827.101 2.735l-1.28 7.675v.187a7.046 7.046 0 0 1-.168 1.766l-.327 1.443-.903 7.375c-.025.872-.265.744-1.159.744Z" fill="#FC7318"/><path d="m30.872 60.243 2.104-1.705a.326.326 0 0 0 .119-.22.313.313 0 0 0-.079-.237.347.347 0 0 0-.475-.039l-2.103 1.706a.316.316 0 0 0-.04.456.348.348 0 0 0 .475.039ZM30.25 61.379l-.185-1.567a.313.313 0 0 0-.124-.218.34.34 0 0 0-.247-.069.347.347 0 0 0-.226.12.321.321 0 0 0-.072.237l.175 1.57a.314.314 0 0 0 .124.217.341.341 0 0 0 .25.069.348.348 0 0 0 .23-.118.322.322 0 0 0 .074-.241ZM17.987 99.754l-.074 1.079 1.73 3.736 1.783 1.136 1.392-.589-.139-.975-.84-.018-2.182-2.484.083-1.831-1.753-.054Z" fill="#E7AD99"/><path opacity=".3" d="M18.38 74.635a4.217 4.217 0 0 0-1.294-.223c-.92.054-2.156-.574-2.104.31l.293 1.01c-.128.743-.822.398-.415 1.042.019 1.218 1.022 2.91 1.477 4.199.125.276.2.57.223.869l.033 6.954s-.906 1.108-.48 2.02c1.295 2.8-.201 5.165.084 7.576.643.011.831 0 .86-.748l.902-7.375.328-1.443c.035-.156.065-.315.089-.473l.003-13.718Z" fill="#02126A"/><path d="M18.999 100.19h-.061c-.923-.033-1.142.026-1.108-.86l.035-.816a21.783 21.783 0 0 0-.302-4.702 8.934 8.934 0 0 1 .25-4.12l.124-.412a5.574 5.574 0 0 1-.646-2.153l-.397-4.588c-.128-1.219.235-1.618-.465-2.641l-.817-1.197a6.043 6.043 0 0 1-.897-4.387l.014-.083c-.088-.882 2.314.292 3.232.206.919-.086 4.095-1.9 4.47.525l.175.673c.235.894.398 4.45.23 5.359l-1.28 7.675v.187a6.88 6.88 0 0 1-.166 1.766l-.326 1.442-.905 7.376c-.028.873-.264.75-1.16.75Z" fill="#FC7318"/><path d="M14.847 72.804a1.375 1.375 0 0 1-.82-.24 1.286 1.286 0 0 1-.5-.667l-1.49-4.67a3.2 3.2 0 0 1-.127-1.386l.876-6.873c.037-.324.196-.623.448-.84.252-.218.579-.338.918-.339.186.004.37.046.539.122.168.076.319.186.44.322.123.135.214.294.268.466.055.171.07.352.048.53l-.901 7.092 1.523 4.77c.105.309.088.642-.046.94a1.35 1.35 0 0 1-.683.672 1.376 1.376 0 0 1-.493.1Z" fill="#326EBD"/><path opacity=".5" d="M13.526 71.896c.086.27.262.504.5.668a1.375 1.375 0 0 0 1.31.133 1.35 1.35 0 0 0 .683-.672c.134-.297.15-.631.046-.939l-1.524-4.77.901-7.093a1.233 1.233 0 0 0-.047-.53 1.267 1.267 0 0 0-.268-.466 1.33 1.33 0 0 0-.441-.321 1.382 1.382 0 0 0-.539-.123c-.701-.018-1.211.731-1.295 1.398l.101.318.552 6.666c.351 1.674.498 4.093.021 5.724v.007Z" fill="#26538E"/><path d="m16.183 57.51 3.65 1.865a6.038 6.038 0 0 1 2.383 2.17c.574.917.877 1.968.876 3.039l-1.402 4.764a6.312 6.312 0 0 0 .046 2.06s1.356 2.963.634 2.913c-.233-.015.193.882.193.882-1.381.781-8.696-.855-9.262-1.78 0 0 .685-.488.289-.71-.396-.222.316-.783.382-.954.701-1.788.897-3.722.568-5.606l-1.753-6.68c0-.383.104-.76.3-1.093.196-.333.479-.612.82-.81a2.392 2.392 0 0 1 2.275-.06Z" fill="#326EBD"/><path d="M13.59 72.715c-.152.377-.289.71-.289.71.067.092.152.17.25.23l.078.046c.37.205.76.375 1.164.505l.15.05c.204.068.421.136.648.201l.35.098a27.936 27.936 0 0 0 1.885.443l.389.074.582.1a18.743 18.743 0 0 0 1.984.221c.109 0 .214.01.317.012h.435c.092 0 .18-.005.263-.015.268-.01.53-.073.771-.185l-.193-.882c-1.604.52-7.357-.718-8.783-1.608Z" fill="#212121"/><path d="M19.248 59.076h-2.413l-.316-1.394v-2.56h2.73v3.954Z" fill="#EF9EA3"/><path d="m21.203 52.764.024 1.01c.039.235.175.78.137 1.01l-.175.783c-.197 1.141-.495 1.894-1.611 1.794l-1.038-.092a2.133 2.133 0 0 1-1.183-.487l-1.343-1.123a2.196 2.196 0 0 1-.575-.742 2.115 2.115 0 0 1-.205-.904l5.969-1.25ZM23.398 68.438l-3.842-5.63a1.269 1.269 0 0 1 .647-1.941 1.39 1.39 0 0 1 1.146.111c.17.1.315.234.424.394l2.901 4.251 5.005-4.26.722-1.61c.137-.14.304-.248.49-.318a1.39 1.39 0 0 1 1.148.08 1.266 1.266 0 0 1 .289 2.018l-1.69 1.418-5.21 5.657c-.134.137-.299.244-.482.311a1.344 1.344 0 0 1-1.129-.094 1.274 1.274 0 0 1-.419-.387Z" fill="#E7AD99"/><path opacity=".5" d="M23.085 64.315c0-.081-.005-.16-.015-.238l-1.157-2.488c-.482-1.037-1.499-1.283-2.204-.488-.611.692-.305 1.188.125 2.114l2.082 5.364 1.177-3.995v-.248a.09.09 0 0 1-.008-.021Z" fill="#26538E"/><path d="m23.687 69.155-4.256-6.228a1.44 1.44 0 0 1-.252-1.035c.051-.363.24-.694.53-.932.165-.126.354-.218.557-.27a1.568 1.568 0 0 1 1.205.185c.176.11.327.253.442.422l2.777 4.059 3.377-3.03c.568-.584 1.035-.283 1.641.26.607.544 1.001.788.607 1.022l-5.305 5.654a.882.882 0 0 1-1.048.143.836.836 0 0 1-.275-.25Z" fill="#326EBD"/><path d="M17.913 100.832a1.6 1.6 0 0 0-.502.688c-.1.268-.124.557-.07.837l.863 4.411h.542l-.249-2.648h.249l.461 1.485s.41.505 1.43.673a1.52 1.52 0 0 0 1.108-.266l1.623-.971a.565.565 0 0 0 .198-.197.53.53 0 0 0 .072-.265.422.422 0 0 0-.127-.3.458.458 0 0 0-.31-.129l-1.36-.03s.92.281.377.722c-.265.073-.535.13-.808.168a.693.693 0 0 1-.645-.276c-.473-.648-1.644-2.333-1.977-3.516a.503.503 0 0 0-.184-.277.539.539 0 0 0-.323-.109h-.368Z" fill="#212121"/><path d="M16.74 57.757s.593 1.298 2.427 1.277l.668.337s-4.908 1.365-3.652-1.865l.558.25Z" fill="#EF9EA3"/><path d="M19.483 50.511a6.666 6.666 0 0 0-3.33.71c-1.185.607-2.129 1.737-2.25 3.021-.049.517.032 1.035.051 1.556.077 2.073-.832 4.23-.07 6.174.21.527.534 1.005.949 1.403.415.399.913.709 1.461.91 1.57.565 3.315.169 4.936-.228-.773-.583-1.065-1.586-1.113-2.526-.047-.939.1-1.892 0-2.831-.175-1.536-1.155-3.073-.185-4.546.589-.897 1.53-.306 2.158-.952.35-.359.233-.952-.044-1.364-.59-.87-1.538-1.254-2.563-1.327Z" fill="#FC7318"/><path opacity=".5" d="M20.57 53.21a2.59 2.59 0 0 1 .665-.103c-.063 0-.326-.245-.408-.284a1.663 1.663 0 0 0-.65-.154 2.464 2.464 0 0 0-1.263.272 1.64 1.64 0 0 1 .526-.916l-1.565.651a2.3 2.3 0 0 1 .722-1.143c-.13.111-.556.145-.733.217a4.018 4.018 0 0 0-.813.445c-.512.351-.924.82-1.2 1.363-.599 1.278-.248 2.914.106 4.21.366 1.346.864 2.672.938 4.061.028.517-.021 1.076-.368 1.472.717-.154 1.567-.428 1.725-1.117-.03.505.123 1.004.433 1.413.056-.38.26-.727.571-.97.132.248.356.44.628.539-.139-.05-.309-1.394-.374-1.59a13.776 13.776 0 0 1-.45-1.615 23.636 23.636 0 0 1-.461-3.73c-.037-.82-.051-2.102.822-2.536a6.83 6.83 0 0 1 1.15-.485Z" fill="#FD8F46"/><path opacity=".5" d="M15.437 58.074a15.95 15.95 0 0 1-.236-1.195 12.136 12.136 0 0 1-.176-2.505c.018-.242.205-1.852.46-1.958-.942.382-1.362 1.466-1.368 2.448-.005.981.3 1.943.335 2.924.033.865-.142 1.742.02 2.596.113.59.383 1.219.126 1.766.133-.092.244-.212.323-.35.079-.14.124-.294.132-.451.255.395.458.82.605 1.264.594-1.49.132-3.03-.22-4.539Z" fill="#FD8F46"/></g><defs><clipPath id="a"><path fill="#fff" d="M0 0h98.195v115.6H0z"/></clipPath></defs></svg>