<svg width="32" height="32" viewBox="0 0 32 32" fill="none" xmlns="http://www.w3.org/2000/svg">
<path fill-rule="evenodd" clip-rule="evenodd" d="M0 16C0 7.16344 7.16344 0 16 0C24.8366 0 32 7.16344 32 16C32 24.8366 24.8366 32 16 32C7.16344 32 0 24.8366 0 16Z" fill="#1C376E"/>
<path fill-rule="evenodd" clip-rule="evenodd" d="M12.4829 7.51884C13.3932 7.47742 13.684 7.46729 16.0015 7.46729H15.9989C18.3171 7.46729 18.6069 7.47742 19.5171 7.51884C20.4256 7.56044 21.046 7.70427 21.59 7.91529C22.1518 8.13307 22.6265 8.42463 23.1012 8.8993C23.5758 9.37362 23.8674 9.84971 24.0861 10.411C24.2958 10.9535 24.4398 11.5736 24.4825 12.4821C24.5234 13.3923 24.5341 13.6832 24.5341 16.0007C24.5341 18.3182 24.5234 18.6084 24.4825 19.5186C24.4398 20.4267 24.2958 21.047 24.0861 21.5897C23.8674 22.1508 23.5758 22.6269 23.1012 23.1012C22.627 23.5759 22.1516 23.8682 21.5906 24.0861C21.0476 24.2971 20.4268 24.441 19.5184 24.4826C18.6081 24.524 18.3182 24.5341 16.0005 24.5341C13.6831 24.5341 13.3924 24.524 12.4822 24.4826C11.5739 24.441 10.9537 24.2971 10.4107 24.0861C9.84983 23.8682 9.37374 23.5759 8.8996 23.1012C8.42511 22.6269 8.13355 22.1508 7.91541 21.5896C7.70457 21.047 7.56074 20.4269 7.51896 19.5184C7.47772 18.6082 7.46741 18.3182 7.46741 16.0007C7.46741 13.6832 7.47807 13.3921 7.51879 12.4819C7.55967 11.5738 7.70368 10.9535 7.91523 10.4108C8.1339 9.84971 8.42546 9.37362 8.90013 8.8993C9.37445 8.42481 9.85054 8.13325 10.4118 7.91529C10.9544 7.70427 11.5745 7.56044 12.4829 7.51884ZM15.7171 9.00455C15.5445 9.00447 15.3846 9.0044 15.236 9.00464V9.0025C13.6456 9.00428 13.3405 9.01495 12.5533 9.0505C11.7213 9.08873 11.2696 9.22739 10.9688 9.34473C10.5705 9.49975 10.2861 9.68464 9.98741 9.98331C9.68874 10.282 9.50349 10.5664 9.34883 10.9647C9.23203 11.2655 9.093 11.717 9.05496 12.549C9.01407 13.4486 9.00589 13.7174 9.00589 15.9962C9.00589 18.275 9.01407 18.5452 9.05496 19.4447C9.09282 20.2768 9.23203 20.7283 9.34883 21.0288C9.50385 21.4272 9.68874 21.7109 9.98741 22.0096C10.2861 22.3082 10.5705 22.4931 10.9688 22.6478C11.2697 22.7646 11.7213 22.9036 12.5533 22.942C13.4529 22.9829 13.7229 22.9918 16.0015 22.9918C18.2799 22.9918 18.5502 22.9829 19.4497 22.942C20.2817 22.904 20.7337 22.7653 21.0341 22.648C21.4325 22.4933 21.7161 22.3084 22.0147 22.0098C22.3134 21.7113 22.4987 21.4277 22.6533 21.0295C22.7701 20.729 22.9091 20.2775 22.9472 19.4455C22.9881 18.5459 22.997 18.2757 22.997 15.9983C22.997 13.721 22.9881 13.4507 22.9472 12.5512C22.9093 11.7192 22.7701 11.2676 22.6533 10.9671C22.4983 10.5689 22.3134 10.2845 22.0147 9.9858C21.7162 9.68713 21.4323 9.50224 21.0341 9.34757C20.7333 9.23077 20.2817 9.09175 19.4497 9.0537C18.55 9.01281 18.2799 9.00464 16.0015 9.00464C15.903 9.00464 15.8083 9.00459 15.7171 9.00455Z" fill="white"/>
<path fill-rule="evenodd" clip-rule="evenodd" d="M11.6193 16.0007C11.6193 13.5806 13.5813 11.6185 16.0014 11.6184C18.4215 11.6184 20.3831 13.5806 20.3831 16.0007C20.3831 18.4208 18.4216 20.3821 16.0015 20.3821C13.5814 20.3821 11.6193 18.4208 11.6193 16.0007ZM18.8454 15.9993C18.8454 14.4283 17.5718 13.1548 16.001 13.1548C14.4299 13.1548 13.1565 14.4283 13.1565 15.9993C13.1565 17.5702 14.4299 18.8438 16.001 18.8438C17.5718 18.8438 18.8454 17.5702 18.8454 15.9993Z" fill="white"/>
<path fill-rule="evenodd" clip-rule="evenodd" d="M20.5563 10.421C19.991 10.421 19.5323 10.8791 19.5323 11.4447C19.5323 12.01 19.991 12.4687 20.5563 12.4687C21.1217 12.4687 21.5803 12.01 21.5803 11.4447C21.5803 10.8793 21.1217 10.421 20.5563 10.421Z" fill="white"/>
</svg>
