<svg width="18" height="18" viewBox="0 0 18 18" fill="none" xmlns="http://www.w3.org/2000/svg">
<path fill-rule="evenodd" clip-rule="evenodd" d="M5.48293 0.518841C6.39316 0.477419 6.684 0.467285 9.00154 0.467285H8.99887C11.3171 0.467285 11.6069 0.477419 12.5171 0.518841C13.4256 0.560442 14.046 0.704265 14.59 0.91529C15.1518 1.13307 15.6265 1.42463 16.1012 1.8993C16.5758 2.37362 16.8674 2.84971 17.0861 3.41096C17.2958 3.95354 17.4398 4.57364 17.4825 5.48209C17.5234 6.39232 17.5341 6.68317 17.5341 9.00071C17.5341 11.3182 17.5234 11.6084 17.4825 12.5186C17.4398 13.4267 17.2958 14.047 17.0861 14.5897C16.8674 15.1508 16.5758 15.6269 16.1012 16.1012C15.627 16.5759 15.1516 16.8682 14.5906 17.0861C14.0476 17.2971 13.4268 17.441 12.5184 17.4826C11.6081 17.524 11.3182 17.5341 9.00047 17.5341C6.68312 17.5341 6.39245 17.524 5.48221 17.4826C4.57394 17.441 3.95367 17.2971 3.41073 17.0861C2.84983 16.8682 2.37374 16.5759 1.8996 16.1012C1.42511 15.6269 1.13355 15.1508 0.915412 14.5896C0.704565 14.047 0.560742 13.4269 0.518963 12.5184C0.477718 11.6082 0.467407 11.3182 0.467407 9.00071C0.467407 6.68317 0.478074 6.39215 0.518786 5.48191C0.559675 4.57382 0.703676 3.95354 0.915234 3.41078C1.1339 2.84971 1.42546 2.37362 1.90013 1.8993C2.37445 1.42481 2.85054 1.13325 3.41179 0.91529C3.95438 0.704265 4.57447 0.560442 5.48293 0.518841ZM8.7171 2.00455C8.54454 2.00447 8.38464 2.0044 8.236 2.00464V2.0025C6.64558 2.00428 6.34051 2.01495 5.5533 2.0505C4.7213 2.08873 4.26956 2.22739 3.96875 2.34473C3.57053 2.49975 3.28608 2.68464 2.98741 2.98331C2.68874 3.28198 2.50349 3.56643 2.34883 3.96466C2.23203 4.26546 2.093 4.71702 2.05496 5.54903C2.01407 6.44859 2.00589 6.7174 2.00589 8.99618C2.00589 11.275 2.01407 11.5452 2.05496 12.4447C2.09282 13.2768 2.23203 13.7283 2.34883 14.0288C2.50385 14.4272 2.68874 14.7109 2.98741 15.0096C3.28608 15.3082 3.57053 15.4931 3.96875 15.6478C4.26974 15.7646 4.7213 15.9036 5.5533 15.942C6.45287 15.9829 6.72292 15.9918 9.00152 15.9918C11.2799 15.9918 11.5502 15.9829 12.4497 15.942C13.2817 15.904 13.7337 15.7653 14.0341 15.648C14.4325 15.4933 14.7161 15.3084 15.0147 15.0098C15.3134 14.7113 15.4987 14.4277 15.6533 14.0295C15.7701 13.729 15.9091 13.2775 15.9472 12.4455C15.9881 11.5459 15.997 11.2757 15.997 8.99831C15.997 6.72095 15.9881 6.45073 15.9472 5.55116C15.9093 4.71915 15.7701 4.26759 15.6533 3.96715C15.4983 3.56892 15.3134 3.28447 15.0147 2.9858C14.7162 2.68713 14.4323 2.50224 14.0341 2.34757C13.7333 2.23077 13.2817 2.09175 12.4497 2.0537C11.55 2.01281 11.2799 2.00464 9.00152 2.00464C8.90304 2.00464 8.8083 2.00459 8.7171 2.00455Z" fill="white"/>
<path fill-rule="evenodd" clip-rule="evenodd" d="M4.61926 9.00068C4.61926 6.58062 6.58132 4.6185 9.00135 4.61841C11.4215 4.61841 13.3831 6.58056 13.3831 9.00068C13.3831 11.4208 11.4216 13.3821 9.00153 13.3821C6.58142 13.3821 4.61926 11.4208 4.61926 9.00068ZM11.8454 8.99932C11.8454 7.42828 10.5718 6.15485 9.00097 6.15485C7.42993 6.15485 6.15649 7.42828 6.15649 8.99932C6.15649 10.5702 7.42993 11.8438 9.00097 11.8438C10.5718 11.8438 11.8454 10.5702 11.8454 8.99932Z" fill="white"/>
<path fill-rule="evenodd" clip-rule="evenodd" d="M13.5563 3.42101C12.991 3.42101 12.5323 3.87915 12.5323 4.44466C12.5323 5.01 12.991 5.46868 13.5563 5.46868C14.1217 5.46868 14.5803 5.01 14.5803 4.44466C14.5803 3.87933 14.1217 3.42101 13.5563 3.42101Z" fill="white"/>
</svg>
