<svg width="32" height="32" viewBox="0 0 32 32" fill="none" xmlns="http://www.w3.org/2000/svg">
<path d="M0 16C0 7.16344 7.16344 0 16 0C24.8366 0 32 7.16344 32 16C32 24.8366 24.8366 32 16 32C7.16344 32 0 24.8366 0 16Z" fill="white"/>
<path fill-rule="evenodd" clip-rule="evenodd" d="M16 0C7.16344 0 0 7.16344 0 16C0 24.8366 7.16344 32 16 32C24.8366 32 32 24.8366 32 16C32 7.16344 24.8366 0 16 0ZM15.5534 13.5594L15.5198 13.0058C15.4191 11.5709 16.3032 10.2602 17.7022 9.75177C18.217 9.57099 19.09 9.5484 19.6608 9.70658C19.8846 9.77437 20.3099 10.0003 20.612 10.2037L21.1604 10.5766L21.7648 10.3845C22.1005 10.2828 22.5482 10.1133 22.7497 10.0003C22.9399 9.89866 23.1078 9.84216 23.1078 9.87606C23.1078 10.0681 22.6937 10.7235 22.3468 11.085C21.8767 11.5935 22.011 11.6387 22.9623 11.2997C23.5331 11.1076 23.5443 11.1076 23.4323 11.3223C23.3652 11.4353 23.0183 11.8307 22.6489 12.1923C22.0222 12.8137 21.9886 12.8815 21.9886 13.4013C21.9886 14.2035 21.6081 15.8757 21.2276 16.7909C20.5225 18.5083 19.0116 20.2822 17.5008 21.1748C15.3743 22.4289 12.5428 22.7453 10.159 22.0109C9.36442 21.7623 7.99903 21.1296 7.99903 21.0166C7.99903 20.9827 8.41312 20.9375 8.91675 20.9262C9.96877 20.9036 11.0208 20.6098 11.9161 20.0901L12.5205 19.7285L11.8266 19.4912C10.8417 19.1523 9.95757 18.3727 9.73374 17.6383C9.66659 17.401 9.68897 17.3897 10.3157 17.3897L10.9648 17.3784L10.4164 17.1185C9.76732 16.7909 9.17416 16.2372 8.88317 15.6723C8.67053 15.2655 8.40193 14.2374 8.48027 14.1583C8.50266 14.1244 8.73768 14.1922 9.00628 14.2825C9.77851 14.565 9.87923 14.4972 9.43157 14.0227C8.59219 13.164 8.33478 11.8872 8.73768 10.6783L8.92794 10.1359L9.66659 10.8703C11.1775 12.3505 12.9569 13.2318 14.9938 13.4916L15.5534 13.5594Z" fill="#1C376E"/>
</svg>
