<svg width="32" height="32" viewBox="0 0 32 32" fill="none" xmlns="http://www.w3.org/2000/svg">
<path d="M0 16C0 7.16344 7.16344 0 16 0C24.8366 0 32 7.16344 32 16C32 24.8366 24.8366 32 16 32C7.16344 32 0 24.8366 0 16Z" fill="white"/>
<path fill-rule="evenodd" clip-rule="evenodd" d="M16 0C7.16344 0 0 7.16344 0 16C0 24.8366 7.16344 32 16 32C24.8366 32 32 24.8366 32 16C32 7.16344 24.8366 0 16 0ZM17.3034 21.0514C17.1456 21.2177 16.8376 21.2513 16.8376 21.2513H15.8176C15.8176 21.2513 13.5671 21.3841 11.5847 19.3586C9.4227 17.1487 7.51367 12.7643 7.51367 12.7643C7.51367 12.7643 7.40349 12.4767 7.52285 12.3382C7.65724 12.1817 8.02369 12.1719 8.02369 12.1719L10.4619 12.1563C10.4619 12.1563 10.6915 12.1932 10.8559 12.312C10.992 12.4103 11.068 12.593 11.068 12.593C11.068 12.593 11.4619 13.5714 11.9837 14.4563C13.0029 16.1843 13.477 16.5621 13.8226 16.3769C14.3267 16.1073 14.1757 13.9344 14.1757 13.9344C14.1757 13.9344 14.1848 13.1461 13.9219 12.7946C13.7182 12.5226 13.3343 12.4431 13.1648 12.421C13.0271 12.403 13.2524 12.09 13.5446 11.9498C13.9837 11.7393 14.7583 11.727 15.674 11.736C16.3877 11.7434 16.593 11.7868 16.8718 11.8532C17.5189 12.0064 17.4987 12.4976 17.4551 13.5577C17.4421 13.8748 17.4269 14.2427 17.4269 14.6677C17.4269 14.7632 17.4241 14.865 17.4212 14.9697C17.4061 15.5128 17.3887 16.1348 17.7533 16.3662C17.9403 16.4842 18.3969 16.3834 19.5396 14.4792C20.0814 13.5763 20.4871 12.5152 20.4871 12.5152C20.4871 12.5152 20.5764 12.3259 20.7141 12.2448C20.8552 12.1621 21.0455 12.1875 21.0455 12.1875L23.6115 12.1719C23.6115 12.1719 24.3828 12.0809 24.5071 12.4234C24.6382 12.7815 24.2191 13.6189 23.1707 14.9905C22.1762 16.292 21.6922 16.7712 21.7367 17.1949C21.7691 17.5046 22.0837 17.7847 22.6874 18.3344C23.9477 19.4829 24.2855 20.0872 24.3666 20.2324C24.3734 20.2444 24.3783 20.2533 24.3819 20.2591C24.947 21.1792 23.755 21.2513 23.755 21.2513L21.4754 21.2825C21.4754 21.2825 20.9862 21.3775 20.3418 20.9432C20.0043 20.716 19.6744 20.3447 19.3602 19.9911C18.8804 19.4512 18.4372 18.9523 18.0588 19.0702C17.4236 19.2684 17.4428 20.6114 17.4428 20.6114C17.4428 20.6114 17.4478 20.899 17.3034 21.0514Z" fill="#1C376E"/>
</svg>
