<svg width="32" height="32" viewBox="0 0 32 32" fill="none" xmlns="http://www.w3.org/2000/svg">
<path d="M0 16C0 7.16344 7.16344 0 16 0C24.8366 0 32 7.16344 32 16C32 24.8366 24.8366 32 16 32C7.16344 32 0 24.8366 0 16Z" fill="white"/>
<path fill-rule="evenodd" clip-rule="evenodd" d="M16 0C7.16344 0 0 7.16344 0 16C0 24.8366 7.16344 32 16 32C24.8366 32 32 24.8366 32 16C32 7.16344 24.8366 0 16 0ZM22.6681 10.499C23.4024 10.7005 23.9807 11.2943 24.177 12.0483C24.5336 13.4148 24.5336 16.2661 24.5336 16.2661C24.5336 16.2661 24.5336 19.1173 24.177 20.484C23.9807 21.238 23.4024 21.8317 22.6681 22.0333C21.3372 22.3994 16.0003 22.3994 16.0003 22.3994C16.0003 22.3994 10.6634 22.3994 9.33249 22.0333C8.59814 21.8317 8.01981 21.238 7.82354 20.484C7.46698 19.1173 7.46698 16.2661 7.46698 16.2661C7.46698 16.2661 7.46698 13.4148 7.82354 12.0483C8.01981 11.2943 8.59814 10.7005 9.33249 10.499C10.6634 10.1328 16.0003 10.1328 16.0003 10.1328C16.0003 10.1328 21.3372 10.1328 22.6681 10.499Z" fill="#1C376E"/>
<path fill-rule="evenodd" clip-rule="evenodd" d="M14.3996 19.2005V13.8672L18.6663 16.534L14.3996 19.2005Z" fill="#1C376E"/>
</svg>
